<?xml version="1.0" encoding="utf-8"?>
<!-- Generator: Adobe Illustrator 17.0.0, SVG Export Plug-In . SVG Version: 6.00 Build 0)  -->
<!DOCTYPE svg PUBLIC "-//W3C//DTD SVG 1.1//EN" "http://www.w3.org/Graphics/SVG/1.1/DTD/svg11.dtd">
<svg version="1.1" id="图层_1" xmlns="http://www.w3.org/2000/svg" xmlns:xlink="http://www.w3.org/1999/xlink" x="0px" y="0px"
	 width="234px" height="53px" viewBox="281.5 273.5 234 53" enable-background="new 281.5 273.5 234 53" xml:space="preserve">
<g>
	<path d="M294.466,280.732l2.225,0.878c0.176,0,0.176,0.117,0,0.41l-0.293,0.644v3.748h0.293l1.054-1.23l1.523,1.23
		c0.059,0.176,0,0.293-0.176,0.293l-2.694,0.293l-0.117,3.748c0.469-0.176,1.113-0.469,1.991-0.878
		c0.41-0.176,0.703-0.351,0.937-0.469c0.117,0,0.176,0.059,0.176,0.117c0,0.059-0.059,0.117-0.176,0.176
		c-0.469,0.41-1.113,0.878-1.991,1.523c-0.469,0.41-0.761,0.644-0.937,0.761l-0.117,2.87l0.176,3.748
		c0,1.874-0.937,3.397-2.87,4.627c-0.117,0.059-0.234,0.059-0.293,0c-0.117-0.059-0.176-0.176-0.117-0.293
		c0.059-0.937-0.176-1.523-0.761-1.757c-0.117-0.059-0.176-0.117-0.117-0.176c0.059-0.117,0.176-0.176,0.293-0.176
		c1.23,0.117,1.757-0.176,1.64-0.878l0.117-6.442c-1.347,0.937-2.284,1.757-2.811,2.284c-0.117,0.117-0.234,0.176-0.293,0.117
		l-0.117-0.176l-0.878-2.577c0-0.117,0.059-0.176,0.176-0.176c0.937-0.234,2.225-0.703,3.865-1.347v-4.51l-0.644,0.117
		c-1.113,0-1.933,0.117-2.577,0.293l-0.644-0.644l3.924-0.293v-0.878c0-1.874-0.059-3.455-0.176-4.802
		C294.114,280.556,294.231,280.498,294.466,280.732z M309.517,292.445c0.117,0,0.117,0.059,0,0.176l-0.293,0.293
		c-0.761,1.874-1.64,3.455-2.694,4.802c2.167,1.054,3.572,1.816,4.217,2.284c0.234,0.527,0.176,1.288-0.176,2.401
		c-0.234,0.644-0.644,0.703-1.171,0.176c-1.347-1.464-2.635-2.694-3.924-3.748c-2.108,2.108-5.622,3.865-10.542,5.271
		c-0.117,0.059-0.234,0.059-0.293-0.117c-0.059-0.059-0.059-0.176,0-0.293c4.217-1.23,7.379-3.163,9.488-5.739
		c-1.288-0.82-2.46-1.464-3.572-1.816c0.703-1.757,1.288-3.338,1.757-4.802c-1.23,0-2.167,0.117-2.811,0.293l-0.644-0.761
		l3.631-0.117c0.644-1.933,1.113-3.572,1.347-4.919l2.694,1.171c0.117,0.059,0.176,0.176,0.117,0.41l-0.586,0.469l-1.523,2.811
		l4.802-0.117l1.464-1.464l1.64,1.523c0.176,0.176,0.176,0.293-0.117,0.41l-8.141,0.176l-2.518,4.627
		c1.288,0.469,2.343,0.82,3.163,1.171c1.171-1.816,1.933-3.631,2.401-5.564L309.517,292.445z M309.165,283.953l1.054-0.937
		l2.225,1.933c0.176,0.234,0.117,0.469-0.293,0.586c-0.878,0.117-1.933,0.586-3.163,1.464c-0.176,0.059-0.293,0-0.293-0.176
		l0.586-2.284l-7.028,0.469c-0.293,1.464-1.113,2.635-2.401,3.572c-0.176,0.117-0.293,0.117-0.41-0.117
		c-0.176-0.761-0.176-1.406,0.117-1.933c0.996-0.82,1.523-1.757,1.523-2.694c0-0.117,0-0.234,0-0.293
		c0.059,0,0.176,0.059,0.293,0.117c0.234,0.117,0.586,0.41,0.937,0.761l2.284-0.117l0.117-3.572l2.284,0.644
		c0.176,0,0.234,0.176,0.117,0.469l-0.176,0.586l-0.176,1.64L309.165,283.953z"/>
	<path d="M319.414,280.732l2.284,0.761c0.117,0,0.176,0.059,0.176,0.117l-0.176,0.176l-0.41,0.761v3.631l0.469-0.117l0.937-0.937
		l1.347,1.054c0.059,0.176,0.059,0.293-0.117,0.41l-2.694,0.117l-0.117,4.627c0.703-0.293,1.406-0.586,1.991-0.878
		c0.117,0,0.117,0.117,0,0.293c-0.761,0.469-1.464,0.937-1.991,1.464v2.577l0.117,4.802c0.059,1.757-0.878,3.163-2.87,4.217
		c-0.117,0.059-0.234,0.117-0.293,0.117c-0.059-0.059-0.117-0.176-0.117-0.41c0-0.878-0.293-1.523-0.878-1.933
		c-0.117-0.176-0.059-0.293,0.176-0.41c1.347,0.059,1.933-0.176,1.815-0.644v-6.969c-0.176,0.176-0.527,0.469-0.937,0.761
		c-0.644,0.527-1.23,1.054-1.816,1.64c-0.117,0.117-0.176,0.176-0.176,0.117c0,0.059-0.059,0.059-0.117-0.117l-0.761-2.518
		c-0.059-0.117-0.059-0.176,0.117-0.176c0.644-0.117,1.874-0.527,3.748-1.23l0.117-5.212h-0.878
		c-1.113,0.059-1.933,0.176-2.518,0.41l-0.644-0.761l4.041-0.176v-0.644c0-0.82-0.059-1.933-0.117-3.28c0-0.703,0-1.171,0-1.464
		C319.239,280.615,319.297,280.556,319.414,280.732z M326.442,288.404c-0.176,0.527-0.586,1.054-1.171,1.523
		c-0.117,0.117-0.234,0.176-0.41,0.176c-0.059-0.059-0.117-0.176-0.117-0.293l0.176-2.518l-0.117-3.631
		c0-0.996-0.059-1.64-0.117-1.933c0-0.176,0.117-0.234,0.293-0.176l1.347,0.644l5.271-0.176l0.644-1.054l1.991,1.054
		c0.117,0,0.117,0.117,0,0.293l-0.41,0.644v3.924c0,0.878-0.351,1.757-1.054,2.518c-0.293,0.469-0.586,0.527-0.878,0.176
		c-0.41-0.761-0.586-1.23-0.644-1.464l-3.631,0.176l1.816,1.171c0.059,0.059,0,0.176-0.176,0.293l-0.469,0.41
		c-0.469,0.41-0.937,0.761-1.464,1.171l6.149-0.293l0.878-1.054l1.933,1.171c0.059,0.059,0.117,0.117,0.117,0.176l-0.586,0.644
		l-0.41,5.974c0.059,2.87-1.171,4.919-3.631,6.032c-0.176,0.059-0.234,0-0.176-0.176c-0.059-0.937-0.293-1.581-0.644-1.816
		c-0.117-0.059-0.176-0.117-0.117-0.176c0-0.059,0.059-0.117,0.176-0.117c1.406,0.176,2.108-0.644,2.108-2.577l0.41-7.613
		l-7.028,0.41c-1.288,0.878-2.811,1.816-4.51,2.811c-0.234,0-0.293-0.059-0.176-0.176c2.577-1.874,4.392-3.865,5.564-6.032
		l0.117-0.117L326.442,288.404L326.442,288.404z M326.149,295.198v2.987c1.523-1.991,2.518-3.982,2.987-6.032
		c0.059-0.117,0.117-0.176,0.117-0.117l1.523,0.761c0.117,0.059,0.117,0.176,0,0.293c-0.234,0.527-0.586,1.054-0.937,1.64
		c1.347,0.469,2.108,0.878,2.284,1.23c0,0.527-0.234,1.054-0.761,1.523c-0.234,0.176-0.469,0.117-0.644-0.293
		c-0.41-1.113-0.761-1.816-1.054-2.225c-1.23,1.406-2.343,2.577-3.455,3.455v0.117c0,0.059,0,0.176,0,0.41
		c-0.059,0.176-0.117,0.351-0.117,0.469l4.392-0.176l1.054-1.171l1.464,1.23c0.117,0.176,0.117,0.293-0.117,0.293l-7.086,0.293
		c-0.176,0.469-0.469,0.878-0.878,1.23c-0.176,0.059-0.293,0.059-0.41,0c-0.059,0-0.117-0.059-0.117-0.117v-2.284l0.117-2.518
		c0-0.293-0.059-0.878-0.117-1.757c0-0.41,0-0.644,0-0.761s0.059-0.176,0.176-0.117l1.523,0.878c0.117,0.059,0.176,0.176,0.117,0.41
		L326.149,295.198z M331.83,282.548l-5.388,0.176v2.225l4.334-0.176c0.176,0,0.293,0.059,0.41,0.176
		c-0.059,0.176-0.176,0.293-0.41,0.293l-4.334,0.176l0.117,2.518l5.271-0.176V282.548z"/>
	<path d="M344.89,282.723c0-0.176,0.059-0.234,0.176-0.176l2.284,1.054l3.748-0.117l0.176-2.987l2.87,0.644
		c0.176,0,0.234,0.117,0.117,0.293c-0.293,0.234-0.527,0.937-0.586,1.991l3.572-0.117l1.054-1.171l1.991,1.23
		c0.176,0.059,0.176,0.176,0,0.41l-0.469,0.644v2.225l0.176,0.41c0.059,0.117,0,0.176-0.176,0.176
		c-0.82-0.059-2.401-0.117-4.685-0.117l-8.258,0.176v2.284c0.117,4.978-2.577,9.429-8.141,13.236c-0.117,0-0.176-0.059-0.176-0.117
		c0-0.117,0.059-0.234,0.176-0.293c2.46-2.108,4.1-4.217,4.978-6.266c0.878-1.991,1.347-4.627,1.347-7.906v-2.87L344.89,282.723z
		 M357.189,293.206l1.933,1.23c0.117,0.059,0.117,0.117,0,0.176l-0.586,0.644l-0.176,3.748c-0.176,1.991-1.288,3.397-3.338,4.334
		c-0.117,0.059-0.176,0-0.176-0.176c0.176-0.82,0.059-1.406-0.469-1.757c-0.176-0.059-0.176-0.117,0-0.176
		c1.113,0.117,1.64-0.293,1.757-1.347l0.293-5.212l-3.865,0.176l-0.117,0.586c-0.117,3.28-3.045,6.091-8.726,8.433
		c-0.117,0.059-0.234,0.059-0.293-0.117c-0.059-0.059-0.059-0.117,0.117-0.176c4.978-2.225,7.379-5.681,7.203-10.307v-1.757h-0.41
		c-0.937,0-1.757,0.117-2.401,0.293l-0.878-0.761l11.362-0.293l1.171-1.23l1.464,1.464c0.059,0.059,0.117,0.117,0.176,0.176
		c-0.059,0.059-0.117,0.117-0.176,0.117l-9.429,0.293l1.23,0.469c0.176,0.059,0.176,0.176,0,0.41l-0.117,0.586l-0.176,1.23
		l3.865-0.117L357.189,293.206z M346.881,284.187v2.811l10.483-0.293l0.117-2.811L346.881,284.187z M352.211,287.643
		c1.581,0.644,2.46,1.23,2.518,1.816c-0.117,0.703-0.586,1.171-1.347,1.347c-0.41,0.059-0.586-0.059-0.644-0.41
		c0-1.171-0.234-1.991-0.644-2.577C351.918,287.643,351.977,287.584,352.211,287.643z"/>
	<path d="M368.258,280.791l2.225,0.878l0.176,0.117l-0.176,0.176l-0.41,0.761v3.631h0.41l1.054-1.23l1.523,1.347
		c0.059,0.117,0.059,0.234-0.117,0.293l-2.87,0.176l-0.117,4.158c0.234-0.117,0.644-0.293,1.171-0.469
		c0.527-0.234,0.878-0.41,1.171-0.469c0.176,0,0.234,0.059,0.117,0.176c-0.293,0.234-0.82,0.586-1.464,1.054
		c-0.469,0.234-0.761,0.469-0.937,0.644v2.87l0.117,4.685c0.117,1.64-0.761,3.045-2.577,4.217c-0.176,0.059-0.293,0.059-0.41,0
		c-0.059,0-0.059-0.117,0-0.293c0.059-0.761-0.176-1.347-0.761-1.757c-0.117-0.176-0.117-0.293,0.117-0.41
		c1.171,0.176,1.64-0.117,1.523-0.878l0.117-7.086c-1.288,0.937-2.225,1.757-2.811,2.401c-0.117,0.117-0.234,0.117-0.293-0.117
		l-0.878-2.518c0-0.117,0.059-0.176,0.117-0.176c1.113-0.234,2.343-0.644,3.865-1.23v-4.685h-0.761
		c-1.113,0.059-1.933,0.176-2.518,0.41l-0.761-0.761l4.041-0.293v-0.761c0.059-0.996,0.059-2.284,0-3.748c0-0.469,0-0.761,0-0.937
		C367.965,280.791,368.023,280.732,368.258,280.791z M375.227,284.187l-0.176,6.559l3.572-0.176
		c-0.059-0.234-0.117-0.644-0.117-1.171c-0.059-0.527-0.117-0.878-0.117-1.171c-0.059-1.406-0.117-2.87-0.117-4.392
		c-0.878,0.059-1.757,0.176-2.518,0.41v-0.293c3.338-1.113,5.447-1.991,6.325-2.811l1.523,1.933c0.117,0.176,0.059,0.293-0.176,0.41
		c-1.288,0-2.87,0.117-4.685,0.293l1.815,0.878c0.117,0.059,0.117,0.176,0,0.41l-0.469,0.586c0.117,1.933,0.234,3.572,0.293,4.978
		l1.64-0.117l1.23-1.464l1.757,1.64c0.117,0.059,0.117,0.176,0,0.293l-4.51,0.176c0.469,4.685,1.757,7.731,3.924,9.253l0.117,0.117
		c0.234,0.117,0.469,0.117,0.644-0.117l0.644-0.644c0.059-0.059,0.176-0.117,0.293-0.117c0.059,0.059,0.059,0.176,0,0.293
		c-0.469,0.761-0.41,1.64,0.117,2.577c0.176,0.527,0.117,0.878-0.293,1.171c-0.41,0.176-0.878,0.117-1.523-0.176
		c-3.28-1.874-5.212-5.974-5.739-12.299l-3.631,0.176l-0.176,7.203l3.631-2.284c0.176-0.117,0.234-0.059,0.176,0.176l-3.631,3.748
		c-0.937,0.878-1.523,1.523-1.757,1.933c-0.117,0.176-0.293,0.234-0.469,0.176l-1.64-1.054c-0.059,0-0.059-0.059,0-0.176
		l2.108-1.464l-0.117-12.474l-0.176-4.392c0.059-0.234,0.176-0.293,0.41-0.117L375.227,284.187z M376.867,298.887
		c1.815,0.586,2.87,1.23,3.163,1.991c0,0.644-0.293,1.171-0.937,1.523c-0.586,0.41-0.878,0.234-0.937-0.41
		c-0.234-1.288-0.761-2.284-1.464-2.987C376.632,298.887,376.691,298.829,376.867,298.887z"/>
	<path d="M392.621,280.732l1.991,0.761c0.176,0.059,0.234,0.176,0.117,0.293l-0.41,0.761v3.338h0.586l0.937-1.171l1.347,1.171
		c0.117,0.176,0.117,0.293-0.117,0.293l-2.87,0.176v4.334c0.117-0.059,0.293-0.176,0.586-0.293c0.527-0.176,1.23-0.527,2.108-0.937
		c0.117,0.059,0.176,0.176,0.117,0.293c-0.117,0.059-0.293,0.176-0.469,0.41c-0.761,0.527-1.523,1.113-2.284,1.757l-0.117,4.334
		l0.117,3.338c0,1.581-0.878,2.987-2.577,4.158c-0.117,0.117-0.234,0.176-0.41,0.117c-0.059-0.059-0.059-0.176,0-0.41
		c0-0.703-0.234-1.288-0.644-1.757c-0.117-0.059-0.176-0.117-0.117-0.176c0-0.117,0.059-0.176,0.176-0.117
		c1.23,0,1.757-0.293,1.523-0.878l0.117-7.203c-1.171,0.937-1.933,1.64-2.401,2.108c-0.117,0.117-0.176,0.176-0.176,0.117
		c0,0.059-0.059,0.059-0.117-0.117l-0.761-2.518c0-0.117,0.059-0.176,0.176-0.176c0.703-0.176,1.816-0.586,3.28-1.23l0.117-4.978
		l-3.045,0.176c-0.176,0.059-0.293,0.059-0.41-0.117c0-0.117,0.059-0.234,0.176-0.41l3.28-0.176v-0.41
		c0-0.82-0.059-1.933-0.117-3.28c0-0.703,0-1.171,0-1.464v-0.176C392.445,280.615,392.504,280.615,392.621,280.732z
		 M407.028,282.723l0.878-1.171l1.991,1.23c0.176,0,0.176,0.059,0,0.176l-0.469,0.644v4.041l0.117,3.28
		c0,1.113-0.41,1.991-1.171,2.811c-0.234,0.41-0.527,0.293-0.761-0.176c-0.117-0.293-0.41-0.761-0.878-1.23l-2.577,0.117v4.334
		l0.117,3.924c-0.117,1.288-0.703,2.343-1.757,3.28c-0.41,0.117-0.586,0-0.586-0.41l0.176-7.379v-3.631l-2.694,0.117
		c-0.176,0.878-0.644,1.581-1.464,2.108c-0.176,0.117-0.351,0.117-0.469-0.117l0.117-4.041l0.117-5.564l-0.117-3.28l1.933,1.171
		L407.028,282.723z M399.473,283.309v4.041l2.694-0.117l-0.117-3.924L399.473,283.309L399.473,283.309z M399.473,287.818v4.334
		l2.694-0.117v-4.334L399.473,287.818z M406.266,287.116c0.117,0,0.176,0.059,0.176,0.176s-0.059,0.234-0.176,0.293l-1.991,0.117
		l-0.117,4.217l2.87-0.117l0.117-8.668l-4.392,0.117l1.757,0.644c0.059,0,0.117,0.059,0.117,0.176l-0.293,0.761v2.284H406.266z"/>
	<path d="M412.65,290.102c-0.117,0.059-0.234,0.117-0.293,0.117c-0.059-0.059-0.059-0.176,0-0.293
		c3.28-2.518,5.974-5.681,8.141-9.488l1.933,1.23c0.117,0.059,0.117,0.176-0.117,0.293l-0.41,0.293
		c-0.117,0.117-0.293,0.293-0.469,0.586c-0.644,0.761-1.171,1.288-1.523,1.64v3.572c-0.059,0.644-0.469,1.347-1.23,2.108
		c-0.293,0.234-0.527,0.234-0.586,0l0.176-3.163v-0.937C416.457,287.408,414.524,288.755,412.65,290.102z M425.769,293.792
		c0.059,0.059,0.059,0.117,0,0.176l-0.293,0.469c-0.059,2.987-0.878,5.154-2.401,6.325c-1.347,1.23-4.51,2.401-9.429,3.572
		c-0.176-0.059-0.176-0.176,0-0.41c4.158-1.347,6.735-2.518,7.789-3.572c1.23-1.113,1.874-3.045,1.933-5.974l-0.117-1.757
		L425.769,293.792z M430.805,292.328v3.865c-0.117,1.113-0.761,2.108-1.933,2.987c-0.293,0.293-0.527,0.293-0.644-0.117v-6.559
		c0.059-0.644-0.234-0.937-0.878-0.937l-7.203,0.176v5.857c-0.059,0.703-0.527,1.581-1.464,2.577
		c-0.293,0.176-0.527,0.117-0.586-0.176l0.117-4.627v-2.811l-0.117-2.225l1.991,0.878l7.672-0.117l0.937-1.23l2.401,1.464
		c0.059,0.059,0.117,0.176,0.117,0.293L430.805,292.328z M424.539,280.498l2.284,1.054c0.117,0.059,0.117,0.176,0,0.293
		l-0.293,0.469c0.176,0.878,0.527,1.757,0.937,2.518l4.334-0.41l1.171-1.347l1.757,1.347c0.059,0.117,0.059,0.234-0.117,0.293
		l-6.794,0.586c1.23,1.757,2.987,2.987,5.271,3.865c0.41,0.176,0.644,0.117,0.878-0.176l0.937-1.054
		c0.117-0.176,0.176-0.176,0.176,0.117c-0.703,1.23-0.761,1.991-0.176,2.284c0.644,0.703,0.703,1.23,0.176,1.64
		c-0.527,0.234-1.288,0.176-2.401-0.293c-3.338-1.464-5.622-3.572-6.794-6.266l-1.64,0.117c-0.234,0.059-0.586,0.117-0.937,0.117
		c-0.703,0.117-1.23,0.234-1.64,0.41l-0.878-0.644l4.919-0.41C425.124,283.719,424.714,282.255,424.539,280.498z M425.3,299.063
		c4.041,0.761,6.442,1.464,7.203,2.108c0.234,0.586,0.176,1.288-0.176,2.225c-0.234,0.586-0.761,0.527-1.464-0.117
		c-1.464-1.64-3.338-2.987-5.681-3.924C425.066,299.18,425.124,299.063,425.3,299.063z M428.873,281.201
		c1.523,0.293,2.284,0.761,2.284,1.23c0.059,0.469-0.234,0.82-0.878,1.171c-0.293,0.059-0.527-0.059-0.586-0.293
		c-0.117-0.878-0.469-1.581-0.937-1.991C428.697,281.142,428.755,281.142,428.873,281.201z"/>
	<path d="M440.703,293.558c-0.82,0.059-1.581,0.176-2.284,0.293l-0.644-0.586l10.483-0.761l1.23-1.171l1.347,1.347
		c0.117,0.059,0.117,0.176,0,0.293l-5.271,0.293l-0.117,6.911c0.059,1.581-0.761,2.753-2.401,3.455
		c-0.176,0-0.293-0.059-0.293-0.176c-0.059-0.644-0.293-1.113-0.644-1.464l-0.117-0.117c-0.176-0.176-0.176-0.293,0-0.41
		c1.171,0.117,1.64-0.059,1.523-0.469v-4.919c-1.523,1.991-3.572,3.807-6.149,5.505c-0.293,0.117-0.41,0.059-0.176-0.176
		c2.284-2.343,4.275-5.037,5.857-7.965L440.703,293.558z M443.163,280.498l2.284,0.937c0.059,0,0.117,0.117,0.117,0.293
		l-0.293,0.586l-0.117,1.523l2.108-0.117l1.054-1.054l1.347,1.23c0.059,0.117,0.059,0.176-0.117,0.176l-4.392,0.293v2.518
		l1.171-0.117l0.937-0.937l1.347,1.171c0.117,0.117,0.117,0.176-0.117,0.176l-4.978,0.293c-1.347,0.059-2.343,0.176-2.987,0.41
		l-0.644-0.586l3.28-0.293v-2.518h-1.054c-0.703,0.059-1.523,0.176-2.401,0.293c-0.234,0.059-0.469,0.117-0.586,0.117l-0.644-0.644
		l4.685-0.176V280.498z M442.811,290.395c-0.176,0-0.469,0.059-0.761,0.117c-0.761,0-1.288,0.059-1.523,0.176l-0.644-0.586
		l6.618-0.469l0.937-1.054l1.23,1.171c0.117,0.059,0.117,0.176,0,0.293L442.811,290.395z M446.384,294.729
		c2.05,0.703,3.28,1.347,3.631,1.933c0.176,0.41-0.059,0.937-0.644,1.64c-0.469,0.41-0.82,0.293-1.054-0.293
		c-0.469-1.171-1.113-2.167-1.991-3.045C446.208,294.788,446.208,294.729,446.384,294.729z M447.028,304.451
		c-0.117,0.059-0.234,0.117-0.293,0.117c-0.059-0.059-0.059-0.176,0-0.293c2.343-2.05,3.982-4.217,4.919-6.559
		c0.878-2.05,1.288-5.037,1.23-9.019l2.518,1.054c0.117,0.059,0.117,0.176,0,0.293l-0.293,0.176
		c0.234,4.861,2.108,8.902,5.505,12.123c0.059,0.059,0.117,0.117,0.117,0.176c-0.059,0.117-0.117,0.176-0.176,0.117
		c-0.644,0-1.464,0.293-2.518,0.878c-2.108-2.108-3.163-6.501-3.045-13.177l-0.117,0.117
		C454.817,296.076,452.24,300.703,447.028,304.451z M456.925,285.71l0.878-0.761l2.225,1.757c0.176,0.234,0.117,0.41-0.176,0.469
		c-0.937,0.117-1.991,0.644-3.045,1.523l-0.176,0.117c-0.059-0.059-0.117-0.117-0.117-0.176l0.586-2.284l-4.685,0.293
		c-0.761,1.113-1.64,2.225-2.694,3.338c-0.176,0.117-0.234,0.059-0.176-0.176c1.64-2.87,2.811-5.915,3.455-9.136
		c0-0.117,0.059-0.176,0.117-0.117l2.225,0.937c0.234,0.117,0.293,0.293,0.117,0.469c-0.761,1.347-1.581,2.694-2.518,4.041
		L456.925,285.71z"/>
	<path d="M469.693,289.81c-1.054,0.059-1.933,0.176-2.694,0.293l-0.644-0.644l11.713-0.469l1.464-1.464l1.757,1.64
		c0.176,0.117,0.176,0.176-0.117,0.176l-6.559,0.293l-0.176,10.952c2.167,0.176,5.739,0,10.776-0.586
		c0.117-0.059,0.176-0.059,0.176,0.117c0.059,0.117,0.059,0.234-0.117,0.293c-1.171,0.176-1.991,1.054-2.577,2.577
		c-1.464,0.059-3.221,0.059-5.212,0c-2.05-0.117-3.514-0.293-4.334-0.469c-1.815-0.293-3.397-1.991-4.802-5.095
		c-0.527,2.225-2.577,4.568-6.266,6.911c-0.176,0-0.234-0.117-0.176-0.293c3.455-2.05,5.271-5.798,5.388-11.245l1.933,0.878
		c0.117,0,0.117,0.117,0,0.41l-0.176,0.41c-0.117,0.878-0.293,1.757-0.469,2.518c0.996,1.816,2.284,2.928,3.865,3.338V289.81
		H469.693z M464.714,289.458c-0.703,0.059-1.054-0.527-1.054-1.816c1.406-0.82,2.225-2.167,2.518-4.041
		c0-0.117,0.059-0.176,0.176-0.176c0.059,0,0.117,0.059,0.176,0.176c0,0.293,0.059,0.644,0.117,0.937l5.564-0.176l-0.117-3.338
		c0-0.176,0.059-0.234,0.176-0.176l2.694,0.761c0.176,0,0.234,0.117,0.117,0.41c-0.234,0.176-0.41,0.527-0.41,1.054v1.23
		l5.739-0.176l1.171-1.054l2.518,2.108c0.176,0.176,0.117,0.351-0.176,0.469c-1.347,0.293-2.577,0.82-3.748,1.464
		c-0.117,0.059-0.234,0.059-0.293,0c-0.059-0.059-0.059-0.117,0-0.176l0.644-2.284l-13.939,0.586
		C466.706,287.116,466.061,288.58,464.714,289.458z M480.469,292.035l0.937,1.757l0.117,0.176c-0.059,0.059-0.117,0.117-0.176,0.117
		c-0.761,0.117-2.05,0.293-3.865,0.586c-0.82,0.117-1.464,0.234-1.933,0.293c-0.176-0.059-0.234-0.176-0.117-0.293
		C477.54,293.909,479.18,293.089,480.469,292.035z"/>
	<path d="M491.713,282.723c0.703,5.154,2.694,9.019,5.974,11.713c2.167-3.455,3.69-7.906,4.51-13.353l2.987,1.054
		c0.176,0.117,0.234,0.293,0.117,0.469l-0.586,0.644c-1.23,5.212-3.045,9.312-5.505,12.416c2.518,1.933,5.915,3.865,10.307,5.739
		c0.117,0.117,0.176,0.234,0.117,0.41c0,0.059-0.117,0.117-0.293,0.117c-0.937-0.059-2.108,0.586-3.338,1.933
		c-3.572-1.991-6.442-4.041-8.551-6.266c-2.284,2.343-5.915,4.627-10.835,6.735c-0.176,0-0.234-0.117-0.117-0.41
		c4.275-2.108,7.613-4.627,9.898-7.613c-2.694-3.28-4.334-7.789-4.978-13.646h0.293V282.723z M495.344,280.966
		c2.225,0.878,3.28,1.698,3.045,2.401c0,0.82-0.469,1.464-1.464,1.933c-0.527,0.117-0.82-0.117-0.878-0.644
		c-0.117-1.581-0.469-2.753-0.937-3.455C495.051,280.908,495.11,280.849,495.344,280.966z"/>
</g>
<g>
	<path d="M355.081,319.151h1.288v-8.023h-1.288v-0.176h3.748v0.176h-1.288v8.023h2.108c0.703,0,1.23-0.234,1.64-0.644
		c0.41-0.41,0.703-0.996,0.878-1.757h0.117v2.577h-7.145v-0.176H355.081z"/>
	<path d="M363.28,316.808c0-0.41,0.059-0.761,0.234-1.054c0.176-0.293,0.41-0.586,0.644-0.82c0.234-0.234,0.527-0.41,0.878-0.586
		c0.351-0.117,0.644-0.176,0.937-0.176c0.293,0,0.644,0.059,0.937,0.176c0.351,0.117,0.644,0.293,0.878,0.586
		c0.234,0.234,0.469,0.527,0.644,0.82c0.176,0.293,0.234,0.703,0.234,1.054c0,0.351-0.059,0.703-0.234,1.054
		s-0.351,0.586-0.586,0.82c-0.234,0.234-0.527,0.41-0.878,0.586c-0.351,0.117-0.644,0.234-0.996,0.234
		c-0.351,0-0.703-0.059-0.996-0.234c-0.351-0.117-0.644-0.351-0.878-0.586s-0.469-0.527-0.644-0.82S363.28,317.16,363.28,316.808z
		 M364.451,316.808c0,0.527,0.059,0.996,0.117,1.347c0.059,0.351,0.176,0.586,0.351,0.761s0.293,0.293,0.469,0.351
		c0.176,0.059,0.41,0.059,0.586,0.059c0.234,0,0.41,0,0.586-0.059c0.176-0.059,0.351-0.176,0.469-0.351
		c0.117-0.176,0.234-0.41,0.351-0.761c0.117-0.351,0.117-0.761,0.117-1.347c0-0.469-0.059-0.878-0.117-1.171
		c-0.059-0.293-0.176-0.586-0.293-0.761c-0.117-0.176-0.293-0.351-0.469-0.41c-0.176-0.059-0.41-0.117-0.703-0.117
		c-0.293,0-0.469,0.059-0.703,0.117c-0.234,0.059-0.351,0.234-0.469,0.41c-0.117,0.176-0.234,0.469-0.293,0.761
		C364.51,315.93,364.451,316.34,364.451,316.808z"/>
	<path d="M374.876,319.209c-0.117,0.059-0.234,0.117-0.351,0.234c-0.117,0.059-0.293,0.059-0.527,0.059
		c-0.351,0-0.644-0.059-0.82-0.234c-0.176-0.176-0.293-0.41-0.351-0.644l0,0c-0.059,0.059-0.059,0.176-0.117,0.234
		c-0.059,0.117-0.117,0.234-0.234,0.293c-0.117,0.117-0.293,0.176-0.469,0.234c-0.176,0.059-0.41,0.117-0.703,0.117
		c-0.351,0-0.586-0.059-0.761-0.117c-0.176-0.059-0.351-0.176-0.469-0.293c-0.117-0.117-0.176-0.234-0.234-0.351
		c-0.059-0.117-0.059-0.293-0.059-0.41c0-0.293,0.059-0.469,0.176-0.644c0.117-0.176,0.234-0.293,0.41-0.41
		c0.176-0.117,0.351-0.176,0.586-0.234c0.234-0.059,0.41-0.117,0.644-0.176c0.234-0.059,0.469-0.176,0.644-0.234
		s0.293-0.117,0.41-0.234c0.117-0.117,0.176-0.176,0.176-0.351c0.059-0.117,0.059-0.351,0.059-0.586c0-0.176,0-0.351-0.059-0.527
		c-0.059-0.176-0.059-0.293-0.117-0.351c-0.059-0.117-0.176-0.176-0.293-0.234s-0.293-0.059-0.469-0.059
		c-0.234,0-0.469,0.059-0.644,0.117c-0.176,0.117-0.234,0.234-0.234,0.469c0,0.117,0,0.293,0.059,0.41
		c0,0.117,0.059,0.234,0.059,0.293c0,0.117-0.059,0.176-0.117,0.293c-0.059,0.059-0.176,0.117-0.351,0.117
		c-0.234,0-0.41-0.059-0.469-0.117c-0.059-0.117-0.117-0.234-0.117-0.351c0-0.176,0.059-0.351,0.117-0.469
		c0.059-0.176,0.176-0.293,0.351-0.41s0.351-0.234,0.586-0.293s0.469-0.117,0.82-0.117c0.351,0,0.644,0.059,0.878,0.117
		c0.234,0.117,0.41,0.234,0.586,0.351c0.176,0.176,0.234,0.351,0.293,0.527c0.059,0.176,0.117,0.41,0.117,0.586v2.928
		c0,0.234,0.059,0.351,0.117,0.469s0.176,0.117,0.293,0.117c0.059,0,0.176,0,0.293-0.059c0.117-0.059,0.176-0.059,0.293-0.117
		L374.876,319.209z M372.826,316.457L372.826,316.457c-0.059,0.117-0.176,0.176-0.41,0.293l-0.878,0.351
		c-0.234,0.117-0.469,0.234-0.586,0.41c-0.117,0.176-0.176,0.41-0.176,0.703c0,0.117,0,0.234,0.059,0.351
		c0.059,0.117,0.059,0.234,0.117,0.351c0.059,0.117,0.176,0.176,0.293,0.234c0.117,0.059,0.234,0.117,0.469,0.117
		c0.234,0,0.469-0.059,0.644-0.176c0.176-0.117,0.293-0.234,0.351-0.41c0.059-0.176,0.117-0.351,0.176-0.527
		c0-0.176,0.059-0.351,0.059-0.527v-1.171H372.826z"/>
	<path d="M375.227,319.151h0.878v-4.685h-0.878v-0.176h1.874v1.23l0,0c0.059-0.117,0.117-0.234,0.234-0.41
		c0.117-0.176,0.234-0.293,0.351-0.469s0.351-0.293,0.586-0.351c0.234-0.117,0.527-0.176,0.878-0.176
		c0.527,0,0.937,0.117,1.288,0.351c0.351,0.234,0.469,0.644,0.469,1.171v3.397h0.878v0.176h-2.811v-0.176h0.878v-3.807
		c0-0.293-0.059-0.527-0.234-0.761c-0.117-0.176-0.351-0.293-0.644-0.293c-0.234,0-0.469,0.059-0.703,0.176
		c-0.234,0.117-0.41,0.234-0.586,0.469c-0.176,0.176-0.293,0.41-0.41,0.703c-0.117,0.293-0.117,0.527-0.117,0.878v2.635h0.878v0.176
		h-2.811V319.151z"/>
	<path d="M382.723,317.687h0.117c0.059,0.176,0.117,0.351,0.234,0.586c0.059,0.176,0.176,0.351,0.351,0.527
		c0.117,0.176,0.293,0.293,0.527,0.41s0.469,0.176,0.761,0.176c0.234,0,0.469-0.059,0.644-0.234s0.293-0.41,0.293-0.761
		c0-0.293-0.059-0.527-0.234-0.644c-0.176-0.117-0.351-0.234-0.527-0.293l-0.937-0.293c-0.117-0.059-0.234-0.117-0.351-0.117
		c-0.117-0.059-0.293-0.117-0.41-0.234c-0.117-0.117-0.234-0.234-0.293-0.41s-0.117-0.351-0.117-0.644
		c0-0.234,0.059-0.41,0.117-0.586c0.059-0.176,0.176-0.351,0.351-0.469s0.351-0.234,0.527-0.351c0.234-0.059,0.41-0.117,0.703-0.117
		c0.176,0,0.293,0,0.41,0.059c0.117,0,0.176,0.059,0.293,0.059c0.059,0,0.176,0.059,0.234,0.059c0.059,0,0.117,0.059,0.234,0.059
		c0.117,0,0.176-0.059,0.176-0.117h0.117v1.347h-0.117c-0.059-0.176-0.117-0.351-0.176-0.527c-0.059-0.176-0.176-0.293-0.234-0.41
		c-0.117-0.117-0.234-0.234-0.351-0.293c-0.117-0.059-0.293-0.117-0.527-0.117c-0.351,0-0.644,0.059-0.878,0.234
		c-0.234,0.176-0.293,0.41-0.293,0.644s0.059,0.469,0.234,0.586c0.176,0.117,0.41,0.234,0.761,0.351l0.878,0.293
		c0.351,0.117,0.644,0.293,0.878,0.527c0.234,0.234,0.351,0.527,0.351,0.878c0,0.234-0.059,0.41-0.117,0.644
		c-0.059,0.176-0.176,0.351-0.351,0.527s-0.351,0.293-0.586,0.351c-0.234,0.117-0.469,0.117-0.82,0.117
		c-0.176,0-0.351,0-0.469-0.059c-0.117-0.059-0.293-0.059-0.41-0.117c-0.117-0.059-0.234-0.059-0.351-0.117
		s-0.176-0.059-0.293-0.059c-0.059,0-0.176,0-0.176,0.059c-0.059,0.059-0.059,0.059-0.117,0.117h-0.117v-1.64H382.723z"/>
	<path d="M390.688,319.151h1.288v-8.023h-1.288v-0.176h2.167c0.117,0,0.234,0,0.351,0s0.234,0,0.351,0c0.117,0,0.234,0,0.351,0
		c0.117,0,0.234,0,0.351,0c0.234,0,0.469,0,0.644,0c0.176,0,0.351,0,0.527,0.059c0.176,0.059,0.293,0.059,0.469,0.059
		s0.293,0.059,0.469,0.117c0.469,0.176,0.878,0.351,1.23,0.644c0.351,0.234,0.644,0.586,0.878,0.878
		c0.234,0.351,0.41,0.703,0.469,1.113c0.059,0.41,0.176,0.82,0.176,1.288c0,0.527-0.059,0.996-0.176,1.406
		c-0.117,0.41-0.293,0.761-0.527,1.113c-0.234,0.293-0.469,0.586-0.761,0.82c-0.293,0.234-0.586,0.41-0.937,0.586
		c-0.176,0.059-0.351,0.176-0.527,0.176c-0.176,0.059-0.351,0.059-0.527,0.117c-0.176,0-0.351,0.059-0.586,0.059
		c-0.234,0-0.469,0-0.703,0c-0.117,0-0.234,0-0.351,0s-0.293,0-0.41,0c-0.117,0-0.234,0-0.41,0c-0.117,0-0.234,0-0.351,0h-1.991
		v-0.234H390.688z M393.148,319.151c0.117,0,0.293,0,0.469,0.059c0.176,0,0.351,0,0.586,0c0.293,0,0.527,0,0.761-0.059
		c0.234,0,0.527-0.059,0.761-0.176c0.234-0.117,0.469-0.234,0.644-0.41c0.176-0.176,0.41-0.41,0.586-0.644
		c0.234-0.41,0.41-0.878,0.527-1.288c0.117-0.41,0.117-0.937,0.117-1.464c0-0.644-0.059-1.171-0.176-1.698
		c-0.117-0.527-0.293-0.937-0.586-1.288c-0.293-0.351-0.644-0.644-1.054-0.82c-0.469-0.176-0.996-0.293-1.64-0.293
		c-0.176,0-0.351,0-0.527,0c-0.176,0-0.293,0-0.469,0V319.151z"/>
	<path d="M401.581,316.398c0,0.059,0,0.176,0,0.234s0,0.176,0,0.293c0,0.234,0,0.527,0.059,0.82s0.117,0.527,0.176,0.761
		c0.059,0.234,0.234,0.41,0.469,0.586c0.234,0.176,0.469,0.234,0.82,0.234s0.644-0.059,0.878-0.176
		c0.234-0.117,0.41-0.234,0.527-0.351c0.117-0.117,0.234-0.293,0.293-0.469s0.117-0.293,0.117-0.351l0.176,0.059
		c0,0.059-0.059,0.234-0.117,0.351c-0.059,0.117-0.176,0.293-0.293,0.469c-0.117,0.176-0.351,0.293-0.586,0.41
		c-0.234,0.117-0.586,0.176-0.937,0.176c-0.41,0-0.761-0.059-1.113-0.176c-0.351-0.117-0.644-0.293-0.878-0.527
		s-0.41-0.527-0.586-0.82c-0.117-0.351-0.176-0.703-0.176-1.113c0-0.351,0.059-0.703,0.176-0.996
		c0.117-0.351,0.351-0.586,0.586-0.878c0.234-0.234,0.527-0.469,0.82-0.586c0.293-0.176,0.644-0.234,1.054-0.234
		c0.234,0,0.469,0.059,0.703,0.117c0.234,0.059,0.469,0.234,0.703,0.351c0.234,0.176,0.41,0.41,0.527,0.703s0.234,0.644,0.234,1.054
		h-3.631V316.398z M403.982,316.281c0-0.117,0-0.234,0-0.293c0-0.117,0-0.176,0-0.293c0-0.293,0-0.469-0.059-0.644
		c-0.059-0.176-0.117-0.293-0.234-0.41c-0.117-0.117-0.176-0.176-0.351-0.234c-0.117-0.059-0.293-0.059-0.41-0.059
		c-0.293,0-0.469,0.059-0.644,0.176c-0.176,0.117-0.293,0.234-0.41,0.41c-0.117,0.176-0.176,0.41-0.234,0.644
		s-0.059,0.469-0.117,0.761h2.46V316.281z"/>
	<path d="M406.032,319.151h0.878v-4.685h-0.878v-0.176h0.878v-0.644c0-0.293,0-0.527,0.059-0.703c0-0.176,0.059-0.351,0.117-0.527
		c0.059-0.176,0.117-0.293,0.176-0.41c0.059-0.117,0.117-0.234,0.234-0.293c0.176-0.234,0.469-0.469,0.761-0.644
		s0.644-0.293,0.996-0.293c0.234,0,0.469,0.059,0.644,0.117c0.176,0.059,0.351,0.176,0.469,0.293
		c0.117,0.117,0.176,0.234,0.234,0.351c0.059,0.117,0.059,0.234,0.059,0.351c0,0.176-0.059,0.293-0.117,0.41
		c-0.059,0.117-0.234,0.176-0.41,0.176c-0.117,0-0.234,0-0.351-0.059c-0.117-0.059-0.176-0.176-0.176-0.293
		c0-0.117,0.059-0.234,0.117-0.351c0.059-0.117,0.117-0.234,0.117-0.351c0-0.176-0.059-0.293-0.234-0.351s-0.293-0.059-0.41-0.059
		c-0.293,0-0.586,0.117-0.82,0.41c-0.234,0.293-0.351,0.703-0.351,1.288v1.64h1.464v0.176h-1.464v4.685h1.054v0.176h-2.987v-0.234
		H406.032z"/>
	<path d="M409.956,319.151h0.878v-4.685h-0.878v-0.176h1.933v4.861h0.878v0.176h-2.811V319.151z M410.717,311.596
		c0-0.176,0.059-0.293,0.176-0.469c0.117-0.117,0.293-0.176,0.469-0.176s0.293,0.059,0.469,0.176
		c0.117,0.117,0.176,0.293,0.176,0.469s-0.059,0.293-0.176,0.469c-0.117,0.117-0.293,0.176-0.469,0.176s-0.293-0.059-0.469-0.176
		C410.776,311.889,410.717,311.772,410.717,311.596z"/>
	<path d="M413.411,319.151h0.878v-4.685h-0.878v-0.176h1.874v1.23l0,0c0.059-0.117,0.117-0.234,0.176-0.41
		c0.117-0.176,0.234-0.293,0.351-0.469c0.176-0.176,0.351-0.293,0.586-0.351c0.234-0.117,0.527-0.176,0.878-0.176
		c0.527,0,0.937,0.117,1.23,0.351c0.351,0.234,0.469,0.644,0.469,1.171v3.397h0.878v0.176h-2.811v-0.176h0.878v-3.807
		c0-0.293-0.059-0.527-0.234-0.761c-0.117-0.176-0.351-0.293-0.703-0.293c-0.234,0-0.469,0.059-0.703,0.176
		c-0.234,0.117-0.41,0.234-0.586,0.469c-0.176,0.176-0.293,0.41-0.41,0.703c-0.117,0.293-0.117,0.527-0.117,0.878v2.635h0.878v0.176
		h-2.811v-0.059H413.411z"/>
	<path d="M420.556,319.151h0.878v-4.685h-0.878v-0.176h1.933v4.861h0.878v0.176h-2.811V319.151z M421.318,311.596
		c0-0.176,0.059-0.293,0.176-0.469c0.117-0.117,0.293-0.176,0.469-0.176s0.293,0.059,0.469,0.176
		c0.117,0.117,0.176,0.293,0.176,0.469s-0.059,0.293-0.176,0.469c-0.117,0.117-0.293,0.176-0.469,0.176s-0.293-0.059-0.469-0.176
		C421.376,311.889,421.318,311.772,421.318,311.596z"/>
	<path d="M423.895,314.29h0.878v-1.523c0.059,0,0.117,0.059,0.176,0.059c0.059,0,0.176,0,0.293,0c0.117,0,0.234,0,0.293-0.059
		c0.059-0.059,0.176-0.059,0.234-0.117v1.581h1.64v0.176h-1.64v3.807c0,0.234,0,0.41,0.059,0.527
		c0.059,0.117,0.117,0.234,0.176,0.293c0.059,0.059,0.117,0.117,0.234,0.117c0.117,0,0.176,0.059,0.234,0.059
		c0.293,0,0.469-0.117,0.644-0.293s0.293-0.41,0.293-0.703l0.176,0.059c0,0.117-0.059,0.234-0.117,0.351
		c-0.059,0.117-0.117,0.234-0.234,0.351c-0.117,0.117-0.234,0.234-0.41,0.293c-0.176,0.059-0.351,0.117-0.586,0.117
		c-0.586,0-0.996-0.117-1.23-0.351c-0.234-0.234-0.351-0.527-0.351-0.937v-3.748h-0.878v-0.059H423.895z"/>
	<path d="M427.936,319.151h0.878v-4.685h-0.878v-0.176h1.933v4.861h0.878v0.176h-2.811V319.151z M428.697,311.596
		c0-0.176,0.059-0.293,0.176-0.469c0.117-0.117,0.293-0.176,0.469-0.176s0.293,0.059,0.469,0.176
		c0.117,0.117,0.176,0.293,0.176,0.469s-0.059,0.293-0.176,0.469c-0.117,0.117-0.293,0.176-0.469,0.176s-0.293-0.059-0.469-0.176
		C428.755,311.889,428.697,311.772,428.697,311.596z"/>
	<path d="M431.625,316.808c0-0.41,0.059-0.761,0.234-1.054c0.176-0.293,0.41-0.586,0.644-0.82c0.234-0.234,0.527-0.41,0.878-0.586
		c0.351-0.117,0.644-0.176,0.937-0.176s0.644,0.059,0.937,0.176c0.351,0.117,0.644,0.293,0.878,0.586
		c0.234,0.234,0.469,0.527,0.644,0.82c0.176,0.293,0.234,0.703,0.234,1.054c0,0.351-0.059,0.703-0.234,1.054
		s-0.351,0.586-0.586,0.82s-0.527,0.41-0.878,0.586c-0.351,0.117-0.644,0.234-0.996,0.234c-0.351,0-0.703-0.059-0.996-0.234
		c-0.351-0.117-0.644-0.351-0.878-0.586c-0.234-0.234-0.469-0.527-0.644-0.82S431.625,317.16,431.625,316.808z M432.796,316.808
		c0,0.527,0.059,0.996,0.117,1.347c0.059,0.351,0.176,0.586,0.351,0.761s0.293,0.293,0.469,0.351
		c0.176,0.059,0.41,0.059,0.586,0.059c0.234,0,0.41,0,0.586-0.059c0.176-0.059,0.351-0.176,0.469-0.351
		c0.117-0.176,0.234-0.41,0.351-0.761c0.117-0.351,0.117-0.761,0.117-1.347c0-0.469-0.059-0.878-0.117-1.171
		c-0.059-0.293-0.176-0.586-0.293-0.761c-0.117-0.176-0.293-0.351-0.469-0.41s-0.41-0.117-0.703-0.117s-0.469,0.059-0.703,0.117
		s-0.351,0.234-0.469,0.41s-0.234,0.469-0.293,0.761C432.796,315.93,432.796,316.34,432.796,316.808z"/>
	<path d="M437.892,319.151h0.878v-4.685h-0.878v-0.176h1.874v1.23l0,0c0.059-0.117,0.117-0.234,0.234-0.41
		c0.117-0.176,0.234-0.293,0.351-0.469c0.117-0.176,0.351-0.293,0.586-0.351c0.234-0.117,0.527-0.176,0.878-0.176
		c0.527,0,0.937,0.117,1.288,0.351c0.351,0.234,0.469,0.644,0.469,1.171v3.397h0.878v0.176h-2.811v-0.176h0.878v-3.807
		c0-0.293-0.059-0.527-0.234-0.761c-0.117-0.176-0.351-0.293-0.644-0.293c-0.234,0-0.469,0.059-0.703,0.176s-0.41,0.234-0.586,0.469
		c-0.176,0.176-0.293,0.41-0.41,0.703c-0.117,0.293-0.117,0.527-0.117,0.878v2.635h0.878v0.176h-2.811V319.151z"/>
</g>
</svg>
