<?xml version="1.0" encoding="utf-8"?>
<!-- Generator: Adobe Illustrator 17.0.0, SVG Export Plug-In . SVG Version: 6.00 Build 0)  -->
<!DOCTYPE svg PUBLIC "-//W3C//DTD SVG 1.1//EN" "http://www.w3.org/Graphics/SVG/1.1/DTD/svg11.dtd">
<svg version="1.1" id="图层_1" xmlns="http://www.w3.org/2000/svg" xmlns:xlink="http://www.w3.org/1999/xlink" x="0px" y="0px"
	 width="239px" height="54px" viewBox="0 0 239 54" enable-background="new 0 0 239 54" xml:space="preserve">
<g>
	<path d="M22.301,9.299l-0.117,0.937l-0.117,1.054l6.735-0.117l1.464-1.23l1.464,1.347c0.117,0.117,0.117,0.234,0,0.293
		l-8.668,0.176c0.996,2.05,3.982,3.572,8.96,4.51c0.176,0.059,0.176,0.176,0,0.41c-1.171,0.117-2.167,0.82-2.987,1.991
		c-2.987-1.406-5.095-3.69-6.266-6.911h-0.644v0.586l0.117,3.045c-0.117,1.23-0.703,2.284-1.757,3.163
		c-0.117,0.117-0.234,0.176-0.41,0.117c-0.059-0.059-0.117-0.176-0.117-0.41l0.117-4.627v-0.117
		c-2.694,1.991-6.032,3.865-10.073,5.681c-0.176,0.059-0.351,0.117-0.469,0.176c-0.176,0.059-0.234,0-0.117-0.176
		c3.28-1.874,6.618-4.334,10.015-7.496l-4.627,0.117c-1.113,0.059-2.108,0.176-2.987,0.293l-0.644-0.761l8.96-0.117v-0.469
		l-0.117-2.811l2.225,0.878C22.418,8.947,22.418,9.123,22.301,9.299z M14.044,30.148c-0.176,0-0.469,0.059-0.761,0.117
		c-0.878,0-1.523,0.059-1.816,0.176l-0.644-0.878l18.155-0.176l1.464-1.464l1.991,1.64c0.117,0.117,0.117,0.176,0,0.176
		L14.044,30.148z M27.689,26.693c-1.406-0.059-3.28-0.117-5.564-0.176c-2.225-0.059-4.041-0.059-5.505,0
		c-0.117,0.644-0.586,1.171-1.347,1.523c-0.234,0.059-0.41,0-0.469-0.176v-9.488c0-0.176,0.059-0.234,0.176-0.117
		c0-0.059,0.059-0.059,0.117,0l1.523,0.937l8.55-0.176l0.937-1.23l2.108,1.23c0.117,0.059,0.117,0.176,0,0.293l-0.586,0.644
		l0.117,5.857l0.176,0.586c0.059,0.117,0.059,0.176,0,0.176C27.982,26.634,27.865,26.693,27.689,26.693z M24.351,22.359
		c0.176,0,0.293,0.059,0.293,0.176s-0.117,0.234-0.293,0.293l-7.672,0.176v2.87h8.726l-0.117-6.442l-8.668,0.176v2.811
		L24.351,22.359z"/>
	<path d="M36.24,22.71c-0.176,0-0.293-0.059-0.293-0.176c0-0.176,0.059-0.293,0.176-0.293l3.924-0.117v-0.761l-0.117-3.28
		l2.577,0.644c0.176,0,0.176,0.117,0,0.41c-0.176,0.059-0.293,0.41-0.41,0.937l-0.117,1.933l1.64-0.117l1.054-1.171l1.523,1.347
		c0.117,0.059,0.117,0.176-0.117,0.293l-4.158,0.117v4.217l4.802-1.347c0.176-0.059,0.234,0,0.176,0.176l-9.722,4.627
		c-0.234,0.176-0.469,0.176-0.644-0.117l-1.64-1.64c-0.117-0.117-0.117-0.176,0.117-0.176c1.464-0.176,2.87-0.469,4.158-0.761
		l0.761-0.176v-4.685L36.24,22.71z M36.708,13.047c-0.117,0.059-0.234,0.059-0.293-0.117c0-0.234,0.059-0.41,0.176-0.41l3.338-0.117
		v-0.586L39.812,7.6l2.694,0.644c0.176,0.059,0.176,0.176,0,0.41s-0.351,0.527-0.469,0.937v2.694l1.347-0.117l1.23-1.171
		l1.523,1.347c0.117,0.176,0.117,0.293-0.117,0.293l-4.041,0.176v4.041l2.284-0.117l1.23-1.23l1.523,1.464
		c0.117,0.059,0.117,0.176,0,0.293L35.303,17.44c-0.176,0-0.293-0.059-0.41-0.176c0-0.117,0.117-0.234,0.293-0.293l4.627-0.117
		v-4.041L36.708,13.047z M49.768,14.745c-0.176,0-0.527,0.059-0.937,0.117c-0.878,0-1.523,0.059-1.933,0.176l-0.761-0.644
		l5.212-0.117l0.117-2.518l-0.117-4.041l2.811,1.23c0.117,0.059,0.117,0.176,0,0.293l-0.586,0.878v4.041h1.171l1.171-1.347
		l1.64,1.464c0.117,0.176,0.117,0.293-0.117,0.293l-3.865,0.117l-0.117,7.379l0.117,4.51c0.059,1.933-1.054,3.397-3.338,4.51
		c-0.176,0.059-0.293-0.059-0.293-0.293c0.176-0.82-0.059-1.464-0.761-1.816c-0.117,0-0.176-0.059-0.117-0.176
		c0-0.059,0.059-0.117,0.176-0.117c1.523,0.059,2.225-0.234,1.991-0.937l0.117-12.943h-1.581V14.745z M47.192,18.025
		c1.815,0.527,2.753,1.113,2.87,1.816s-0.176,1.23-0.878,1.64c-0.41,0.117-0.644,0.059-0.878-0.293
		c-0.059-1.347-0.469-2.343-1.23-2.987C46.957,18.084,47.016,18.025,47.192,18.025z"/>
	<path d="M64.878,9.767c0-0.176,0.059-0.234,0.176-0.176l2.284,1.054l3.748-0.117l0.176-2.987l2.87,0.644
		c0.176,0,0.234,0.117,0.117,0.293c-0.293,0.234-0.527,0.937-0.586,1.991l3.572-0.117l1.054-1.171l1.991,1.23
		c0.176,0.059,0.176,0.176,0,0.41l-0.469,0.644v2.225l0.176,0.41c0.059,0.117,0,0.176-0.176,0.176
		c-0.82-0.059-2.401-0.117-4.685-0.117l-8.258,0.176v2.284c0.117,4.978-2.577,9.429-8.141,13.236c-0.117,0-0.176-0.059-0.176-0.117
		c0-0.117,0.059-0.234,0.176-0.293c2.46-2.108,4.1-4.217,4.978-6.266c0.878-1.991,1.347-4.627,1.347-7.906v-2.87L64.878,9.767z
		 M77.177,20.25l1.933,1.23c0.117,0.059,0.117,0.117,0,0.176L78.524,22.3l-0.176,3.748c-0.176,1.991-1.288,3.397-3.338,4.334
		c-0.117,0.059-0.176,0-0.176-0.176c0.176-0.82,0.059-1.406-0.469-1.757c-0.176-0.059-0.176-0.117,0-0.176
		c1.113,0.117,1.64-0.293,1.757-1.347l0.293-5.212L72.55,21.89l-0.117,0.586c-0.117,3.28-3.045,6.091-8.726,8.433
		c-0.117,0.059-0.234,0.059-0.293-0.117c-0.059-0.059-0.059-0.117,0.117-0.176c4.978-2.225,7.379-5.681,7.203-10.307v-1.757h-0.41
		c-0.937,0-1.757,0.117-2.401,0.293l-0.878-0.761l11.362-0.293l1.171-1.23l1.464,1.464c0.059,0.059,0.117,0.117,0.176,0.176
		c-0.059,0.059-0.117,0.117-0.176,0.117l-9.429,0.293l1.23,0.469c0.176,0.059,0.176,0.176,0,0.41l-0.117,0.586l-0.176,1.23
		l3.865-0.117L77.177,20.25z M66.869,11.231v2.811l10.483-0.293l0.117-2.811L66.869,11.231z M72.199,14.687
		c1.581,0.644,2.46,1.23,2.518,1.816c-0.117,0.703-0.586,1.171-1.347,1.347c-0.41,0.059-0.586-0.059-0.644-0.41
		c0-1.171-0.234-1.991-0.644-2.577C71.906,14.687,71.965,14.628,72.199,14.687z"/>
	<path d="M96.972,7.776L99.08,8.42l-0.176,0.761v1.816l2.108-0.117l0.761-1.054l1.816,1.171c0.117,0,0.117,0.117,0,0.293
		l-0.644,0.878c-0.469,3.163,0.117,5.388,1.64,6.735c0.176,0.176,0.41,0.117,0.586-0.176l0.586-0.586
		c0.117-0.059,0.234-0.059,0.293,0s0.059,0.117,0,0.176c-0.293,0.644-0.41,1.23-0.176,1.816c0.293,0.761,0.293,1.288-0.117,1.64
		c-0.469,0.293-0.996,0.234-1.64-0.176c-2.577-1.757-3.572-5.095-3.045-10.073v-0.117l-2.108,0.117v1.347
		c0,0.82-0.176,1.698-0.469,2.577c0.878,0.293,1.464,0.586,1.64,0.878c0.41,0.761,0.293,1.464-0.176,2.108
		c-0.176,0.234-0.469,0.234-0.761-0.117c-0.41-0.527-0.878-0.996-1.464-1.464c-0.82,1.288-1.991,2.46-3.455,3.455l2.694,0.761
		c0.059,0,0.117,0.059,0.176,0.117c-0.059,0.059-0.117,0.117-0.176,0.176c-0.176,0.176-0.351,0.527-0.469,0.937v1.816h3.924
		l1.23-1.464l1.815,1.64c0.176,0.117,0.176,0.176-0.117,0.176l-6.911,0.176l-0.176,4.217l6.735-0.117l1.464-1.347l1.933,1.523
		c0.117,0.117,0.117,0.234,0,0.293l-18.565,0.293c-0.878,0.059-1.757,0.176-2.577,0.293l-0.761-0.761l9.605-0.176v-4.217
		l-3.631,0.117c-0.176,0-0.469,0.059-0.761,0.117c-0.878,0-1.523,0.059-1.816,0.176l-0.878-0.761l7.086-0.117l-0.117-3.748
		c-0.761,0.586-1.64,1.171-2.694,1.757c-0.117,0.059-0.176,0.059-0.176-0.117c-0.059-0.059-0.059-0.117,0.117-0.176
		c2.87-2.05,4.685-4.041,5.388-6.032c-0.761-0.586-1.581-1.113-2.401-1.523c-0.117-0.176-0.117-0.293,0.117-0.293
		c0.234,0.059,0.644,0.176,1.171,0.41c0.644,0.176,1.171,0.351,1.523,0.469c0.059-0.41,0.117-0.996,0.176-1.816
		c0.059-0.41,0.117-0.644,0.117-0.878v-0.644c-0.761,0.059-1.406,0.176-1.933,0.41l-0.644-0.644l2.577-0.176v-0.937L96.972,7.776z
		 M91.584,8.127c0.117,0,0.117,0.117,0,0.41l-0.293,0.644l-0.117,2.108h0.761l0.937-1.054l1.347,1.054
		c0.059,0.176,0.059,0.293-0.117,0.41l-2.987,0.117v2.401c0.117-0.059,0.293-0.117,0.469-0.176c0.586-0.117,1.288-0.41,2.225-0.761
		c0.117,0,0.176,0.059,0.176,0.117c0,0.059-0.059,0.117-0.117,0.176c-0.117,0.059-0.293,0.176-0.586,0.293
		c-0.703,0.293-1.464,0.761-2.225,1.347v3.338c-0.059,1.933-0.878,3.338-2.518,4.217c-0.117,0.059-0.234,0.059-0.293,0
		s-0.059-0.176,0-0.293c0-0.878-0.234-1.464-0.761-1.64c-0.059-0.059-0.117-0.117-0.117-0.176s0.059-0.117,0.176-0.117
		c1.23,0.117,1.757-0.176,1.523-0.937v-3.338c-1.23,0.761-2.108,1.347-2.577,1.757c-0.176,0.176-0.293,0.176-0.41,0l-0.644-2.108
		c0-0.117,0.059-0.176,0.117-0.176c0.878-0.117,2.108-0.41,3.572-0.878v-2.87l-3.338,0.117c-0.176,0.059-0.293,0-0.293-0.176
		c-0.059-0.176,0-0.293,0.176-0.293l3.455-0.117V11.23V7.658L91.584,8.127z"/>
	<path d="M121.276,20.309c0.059,0.059,0.059,0.117,0,0.176l-0.293,0.469c0.293,5.447-3.631,8.902-11.889,10.366
		c-0.176-0.059-0.176-0.176,0-0.41c4.041-1.23,6.676-2.518,7.906-3.865c1.288-1.288,1.933-3.514,1.991-6.735l-0.117-1.23
		L121.276,20.309z M117.177,9.299l-3.455,5.271c-0.469,0.82-0.644,1.64-0.644,2.401c0.059,0.469-0.117,0.761-0.586,0.878
		c-0.469,0.234-0.937,0.293-1.464,0.117c-0.234-0.176-0.234-0.469,0-0.878c0-0.059,0.059-0.176,0.117-0.41
		c0.117-0.293,0.176-0.586,0.176-0.878c0.059-0.469-0.059-0.878-0.41-1.347c-0.059-0.117-0.059-0.176,0.117-0.117
		c0.644,0.176,1.054,0.176,1.23-0.117l4.685-5.212C117.177,9.006,117.235,9.123,117.177,9.299z M111.555,7.952
		c1.815,0.644,2.694,1.23,2.811,1.757c0,0.703-0.293,1.23-0.937,1.64c-0.469,0.117-0.761,0-0.878-0.41
		c-0.059-1.23-0.41-2.108-1.054-2.694c-0.059-0.059-0.117-0.117-0.117-0.176C111.379,7.952,111.437,7.952,111.555,7.952z
		 M115.303,18.611v6.149c-0.176,0.878-0.644,1.581-1.347,2.108c-0.293,0.176-0.527,0.176-0.586,0l0.117-2.87v-4.217l-0.117-2.225
		c0-0.117,0.059-0.176,0.176-0.117l1.757,0.644l8.726-0.176l0.937-1.054l1.933,1.054c0.117,0.059,0.117,0.176,0,0.293l-0.586,0.644
		v1.933l0.117,2.401c0,1.23-0.469,2.167-1.464,2.87c-0.41,0.293-0.644,0.234-0.761-0.176v-7.613L115.303,18.611z M120.222,7.483
		l1.464,1.23c0,0.059-0.059,0.176-0.117,0.293c-0.234,0.234-0.527,0.586-0.878,0.937l5.271-0.176l0.937-0.878l1.991,1.64
		c0.059,0.117,0.117,0.234,0.117,0.41c-0.059,0.059-0.176,0.117-0.293,0.117c-0.82-0.059-1.815,0.293-2.87,1.054
		c-0.176,0.059-0.293,0-0.293-0.176l0.469-1.757l-3.748,0.176l1.171,0.41c0.117,0,0.117,0.059,0,0.176l-0.41,0.41
		c0,0.059,0,0.176,0,0.293c0.176,1.406,2.87,2.811,7.965,4.217c0.059,0.059,0.059,0.117,0,0.176c0,0.059-0.059,0.117-0.176,0.117
		c-0.703,0-1.523,0.586-2.518,1.757c-2.928-1.347-4.744-3.28-5.505-5.739c-0.586,2.518-2.87,4.334-6.911,5.505
		c-0.293,0.059-0.41,0-0.176-0.176c3.631-1.288,5.622-3.631,5.857-7.028l-1.464,0.117c-1.288,1.347-2.87,2.635-4.685,3.865
		c-0.176,0.059-0.234,0-0.176-0.176c2.167-1.64,3.748-3.865,4.685-6.559C120.047,7.425,120.105,7.425,120.222,7.483z
		 M120.691,26.107c4.158,0.703,6.559,1.406,7.203,2.108c0.41,0.703,0.293,1.464-0.176,2.225c-0.234,0.586-0.761,0.527-1.464-0.117
		c-1.464-1.64-3.338-2.987-5.681-3.924C120.457,26.224,120.515,26.107,120.691,26.107z"/>
	<path d="M132.638,17.146c-0.117,0.059-0.234,0.117-0.293,0.117c-0.059-0.059-0.059-0.176,0-0.293
		c3.28-2.518,5.974-5.681,8.141-9.488l1.933,1.23c0.117,0.059,0.117,0.176-0.117,0.293l-0.41,0.293
		c-0.117,0.117-0.293,0.293-0.469,0.586c-0.644,0.761-1.171,1.288-1.523,1.64v3.572c-0.059,0.644-0.469,1.347-1.23,2.108
		c-0.293,0.234-0.527,0.234-0.586,0l0.176-3.163v-0.937C136.445,14.452,134.512,15.799,132.638,17.146z M145.757,20.836
		c0.059,0.059,0.059,0.117,0,0.176l-0.293,0.469c-0.059,2.987-0.878,5.154-2.401,6.325c-1.347,1.23-4.51,2.401-9.429,3.572
		c-0.176-0.059-0.176-0.176,0-0.41c4.158-1.347,6.735-2.518,7.789-3.572c1.23-1.113,1.874-3.045,1.933-5.974l-0.117-1.757
		L145.757,20.836z M150.793,19.372v3.865c-0.117,1.113-0.761,2.108-1.933,2.987c-0.293,0.293-0.527,0.293-0.644-0.117v-6.559
		c0.059-0.644-0.234-0.937-0.878-0.937l-7.203,0.176v5.857c-0.059,0.703-0.527,1.581-1.464,2.577
		c-0.293,0.176-0.527,0.117-0.586-0.176l0.117-4.627v-2.811l-0.117-2.225l1.991,0.878l7.672-0.117l0.937-1.23l2.401,1.464
		c0.059,0.059,0.117,0.176,0.117,0.293L150.793,19.372z M144.527,7.542l2.284,1.054c0.117,0.059,0.117,0.176,0,0.293l-0.293,0.469
		c0.176,0.878,0.527,1.757,0.937,2.518l4.334-0.41l1.171-1.347l1.757,1.347c0.059,0.117,0.059,0.234-0.117,0.293l-6.794,0.586
		c1.23,1.757,2.987,2.987,5.271,3.865c0.41,0.176,0.644,0.117,0.878-0.176l0.937-1.054c0.117-0.176,0.176-0.176,0.176,0.117
		c-0.703,1.23-0.761,1.991-0.176,2.284c0.644,0.703,0.703,1.23,0.176,1.64c-0.527,0.234-1.288,0.176-2.401-0.293
		c-3.338-1.464-5.622-3.572-6.794-6.266l-1.64,0.117c-0.234,0.059-0.586,0.117-0.937,0.117c-0.703,0.117-1.23,0.234-1.64,0.41
		l-0.878-0.644l4.919-0.41C145.112,10.763,144.702,9.299,144.527,7.542z M145.288,26.107c4.041,0.761,6.442,1.464,7.203,2.108
		c0.234,0.586,0.176,1.288-0.176,2.225c-0.234,0.586-0.761,0.527-1.464-0.117c-1.464-1.64-3.338-2.987-5.681-3.924
		C145.054,26.224,145.112,26.107,145.288,26.107z M148.861,8.245c1.523,0.293,2.284,0.761,2.284,1.23
		c0.059,0.469-0.234,0.82-0.878,1.171c-0.293,0.059-0.527-0.059-0.586-0.293c-0.117-0.878-0.469-1.581-0.937-1.991
		C148.685,8.186,148.743,8.186,148.861,8.245z"/>
	<path d="M160.691,20.602c-0.82,0.059-1.581,0.176-2.284,0.293l-0.644-0.586l10.483-0.761l1.23-1.171l1.347,1.347
		c0.117,0.059,0.117,0.176,0,0.293l-5.271,0.293l-0.117,6.911c0.059,1.581-0.761,2.753-2.401,3.455
		c-0.176,0-0.293-0.059-0.293-0.176c-0.059-0.644-0.293-1.113-0.644-1.464l-0.117-0.117c-0.176-0.176-0.176-0.293,0-0.41
		c1.171,0.117,1.64-0.059,1.523-0.469v-4.919c-1.523,1.991-3.572,3.807-6.149,5.505c-0.293,0.117-0.41,0.059-0.176-0.176
		c2.284-2.343,4.275-5.037,5.857-7.965L160.691,20.602z M163.151,7.542l2.284,0.937c0.059,0,0.117,0.117,0.117,0.293l-0.293,0.586
		l-0.117,1.523l2.108-0.117l1.054-1.054l1.347,1.23c0.059,0.117,0.059,0.176-0.117,0.176l-4.392,0.293v2.518l1.171-0.117
		l0.937-0.937l1.347,1.171c0.117,0.117,0.117,0.176-0.117,0.176l-4.978,0.293c-1.347,0.059-2.343,0.176-2.987,0.41l-0.644-0.586
		l3.28-0.293v-2.518h-1.054c-0.703,0.059-1.523,0.176-2.401,0.293c-0.234,0.059-0.469,0.117-0.586,0.117l-0.644-0.644l4.685-0.176
		L163.151,7.542L163.151,7.542z M162.799,17.439c-0.176,0-0.469,0.059-0.761,0.117c-0.761,0-1.288,0.059-1.523,0.176l-0.644-0.586
		l6.618-0.469l0.937-1.054l1.23,1.171c0.117,0.059,0.117,0.176,0,0.293L162.799,17.439z M166.372,21.773
		c2.05,0.703,3.28,1.347,3.631,1.933c0.176,0.41-0.059,0.937-0.644,1.64c-0.469,0.41-0.82,0.293-1.054-0.293
		c-0.469-1.171-1.113-2.167-1.991-3.045C166.196,21.832,166.196,21.773,166.372,21.773z M167.016,31.495
		c-0.117,0.059-0.234,0.117-0.293,0.117c-0.059-0.059-0.059-0.176,0-0.293c2.343-2.05,3.982-4.217,4.919-6.559
		c0.878-2.05,1.288-5.037,1.23-9.019l2.518,1.054c0.117,0.059,0.117,0.176,0,0.293l-0.293,0.176
		c0.234,4.861,2.108,8.902,5.505,12.123c0.059,0.059,0.117,0.117,0.117,0.176c-0.059,0.117-0.117,0.176-0.176,0.117
		c-0.644,0-1.464,0.293-2.518,0.878c-2.108-2.108-3.163-6.501-3.045-13.177l-0.117,0.117
		C174.805,23.12,172.228,27.747,167.016,31.495z M176.913,12.754l0.878-0.761l2.225,1.757c0.176,0.234,0.117,0.41-0.176,0.469
		c-0.937,0.117-1.991,0.644-3.045,1.523l-0.176,0.117c-0.059-0.059-0.117-0.117-0.117-0.176l0.586-2.284l-4.685,0.293
		c-0.761,1.113-1.64,2.225-2.694,3.338c-0.176,0.117-0.234,0.059-0.176-0.176c1.64-2.87,2.811-5.915,3.455-9.136
		c0-0.117,0.059-0.176,0.117-0.117l2.225,0.937c0.234,0.117,0.293,0.293,0.117,0.469c-0.761,1.347-1.581,2.694-2.518,4.041
		L176.913,12.754z"/>
	<path d="M189.681,16.854c-1.054,0.059-1.933,0.176-2.694,0.293l-0.644-0.644l11.713-0.469l1.464-1.464l1.757,1.64
		c0.176,0.117,0.176,0.176-0.117,0.176l-6.559,0.293l-0.176,10.952c2.167,0.176,5.739,0,10.776-0.586
		c0.117-0.059,0.176-0.059,0.176,0.117c0.059,0.117,0.059,0.234-0.117,0.293c-1.171,0.176-1.991,1.054-2.577,2.577
		c-1.464,0.059-3.221,0.059-5.212,0c-2.05-0.117-3.514-0.293-4.334-0.469c-1.815-0.293-3.397-1.991-4.802-5.095
		c-0.527,2.225-2.577,4.568-6.266,6.911c-0.176,0-0.234-0.117-0.176-0.293c3.455-2.05,5.271-5.798,5.388-11.245l1.933,0.878
		c0.117,0,0.117,0.117,0,0.41l-0.176,0.41c-0.117,0.878-0.293,1.757-0.469,2.518c0.996,1.816,2.284,2.928,3.865,3.338V16.854
		H189.681z M184.702,16.502c-0.703,0.059-1.054-0.527-1.054-1.816c1.406-0.82,2.225-2.167,2.518-4.041
		c0-0.117,0.059-0.176,0.176-0.176c0.059,0,0.117,0.059,0.176,0.176c0,0.293,0.059,0.644,0.117,0.937l5.564-0.176l-0.117-3.338
		c0-0.176,0.059-0.234,0.176-0.176l2.694,0.761c0.176,0,0.234,0.117,0.117,0.41c-0.234,0.176-0.41,0.527-0.41,1.054v1.23
		l5.739-0.176l1.171-1.054l2.518,2.108c0.176,0.176,0.117,0.351-0.176,0.469c-1.347,0.293-2.577,0.82-3.748,1.464
		c-0.117,0.059-0.234,0.059-0.293,0s-0.059-0.117,0-0.176l0.644-2.284l-13.939,0.586C186.694,14.16,186.049,15.624,184.702,16.502z
		 M200.457,19.079l0.937,1.757l0.117,0.176c-0.059,0.059-0.117,0.117-0.176,0.117c-0.761,0.117-2.05,0.293-3.865,0.586
		c-0.82,0.117-1.464,0.234-1.933,0.293c-0.176-0.059-0.234-0.176-0.117-0.293C197.528,20.953,199.168,20.133,200.457,19.079z"/>
	<path d="M211.701,9.767c0.703,5.154,2.694,9.019,5.974,11.713c2.167-3.455,3.69-7.906,4.51-13.353l2.987,1.054
		c0.176,0.117,0.234,0.293,0.117,0.469l-0.586,0.644c-1.23,5.212-3.045,9.312-5.505,12.416c2.518,1.933,5.915,3.865,10.307,5.739
		c0.117,0.117,0.176,0.234,0.117,0.41c0,0.059-0.117,0.117-0.293,0.117c-0.937-0.059-2.108,0.586-3.338,1.933
		c-3.572-1.991-6.442-4.041-8.551-6.266c-2.284,2.343-5.915,4.627-10.835,6.735c-0.176,0-0.234-0.117-0.117-0.41
		c4.275-2.108,7.613-4.627,9.898-7.613c-2.694-3.28-4.334-7.789-4.978-13.646h0.293L211.701,9.767L211.701,9.767z M215.332,8.01
		c2.225,0.878,3.28,1.698,3.045,2.401c0,0.82-0.469,1.464-1.464,1.933c-0.527,0.117-0.82-0.117-0.878-0.644
		c-0.117-1.581-0.469-2.753-0.937-3.455C215.039,7.952,215.098,7.893,215.332,8.01z"/>
</g>
<g>
	<path d="M75.069,46.195h1.288v-8.023h-1.288v-0.176h3.748v0.176h-1.288v8.023h2.108c0.703,0,1.23-0.234,1.64-0.644
		s0.703-0.996,0.878-1.757h0.117v2.577h-7.145v-0.176H75.069z"/>
	<path d="M83.268,43.852c0-0.41,0.059-0.761,0.234-1.054c0.176-0.351,0.41-0.586,0.644-0.878c0.234-0.293,0.527-0.41,0.878-0.586
		s0.644-0.176,0.937-0.176s0.644,0.059,0.937,0.176c0.351,0.117,0.644,0.293,0.878,0.586c0.234,0.234,0.469,0.527,0.644,0.878
		c0.176,0.351,0.234,0.703,0.234,1.054c0,0.351-0.059,0.703-0.234,1.054c-0.176,0.351-0.351,0.586-0.644,0.82
		c-0.234,0.234-0.527,0.41-0.878,0.586c-0.351,0.117-0.644,0.234-0.996,0.234c-0.351,0-0.703-0.059-0.996-0.234
		c-0.293-0.176-0.644-0.351-0.878-0.586c-0.234-0.234-0.469-0.527-0.586-0.82C83.326,44.614,83.268,44.204,83.268,43.852z
		 M84.439,43.852c0,0.527,0.059,0.996,0.117,1.347c0.059,0.351,0.176,0.586,0.351,0.761c0.117,0.176,0.293,0.293,0.469,0.351
		c0.176,0.059,0.41,0.059,0.586,0.059c0.234,0,0.41,0,0.586-0.059s0.351-0.176,0.469-0.351c0.117-0.176,0.234-0.41,0.351-0.761
		c0.059-0.351,0.117-0.761,0.117-1.347c0-0.469-0.059-0.878-0.117-1.171c-0.059-0.293-0.176-0.586-0.293-0.761
		c-0.117-0.176-0.293-0.351-0.469-0.41s-0.41-0.117-0.703-0.117s-0.469,0.059-0.703,0.117c-0.234,0.059-0.351,0.234-0.469,0.41
		c-0.117,0.176-0.234,0.469-0.293,0.761C84.498,42.974,84.439,43.384,84.439,43.852z"/>
	<path d="M94.864,46.253c-0.117,0.059-0.234,0.117-0.351,0.234c-0.117,0.059-0.293,0.059-0.527,0.059
		c-0.351,0-0.644-0.059-0.82-0.234c-0.176-0.176-0.293-0.41-0.351-0.644l0,0c-0.059,0.059-0.059,0.176-0.117,0.234
		c-0.059,0.059-0.117,0.234-0.234,0.293c-0.117,0.117-0.293,0.176-0.469,0.234c-0.176,0.059-0.41,0.117-0.703,0.117
		c-0.351,0-0.586-0.059-0.761-0.117c-0.176-0.059-0.351-0.176-0.469-0.293c-0.117-0.117-0.176-0.234-0.234-0.351
		c-0.059-0.117-0.059-0.293-0.059-0.41c0-0.293,0.059-0.469,0.176-0.644c0.117-0.176,0.234-0.293,0.41-0.41s0.351-0.176,0.586-0.234
		c0.234-0.059,0.41-0.117,0.644-0.176s0.469-0.176,0.644-0.234s0.293-0.117,0.41-0.234s0.176-0.176,0.176-0.351
		c0-0.176,0.059-0.293,0.059-0.586c0-0.176,0-0.351-0.059-0.527c0-0.176-0.059-0.293-0.117-0.41
		c-0.059-0.117-0.176-0.176-0.293-0.234c-0.117-0.059-0.293-0.059-0.469-0.059c-0.234,0-0.469,0.059-0.644,0.117
		c-0.176,0.117-0.234,0.234-0.234,0.469c0,0.117,0,0.293,0.059,0.41c0,0.117,0.059,0.234,0.059,0.293
		c0,0.117-0.059,0.176-0.117,0.293c-0.059,0.059-0.176,0.117-0.351,0.117c-0.234,0-0.41-0.059-0.469-0.117
		c-0.059-0.117-0.117-0.234-0.117-0.351c0-0.176,0.059-0.351,0.117-0.469c0.059-0.176,0.176-0.293,0.351-0.41
		s0.351-0.234,0.586-0.293c0.234-0.059,0.469-0.117,0.82-0.117s0.644,0.059,0.878,0.117c0.234,0.117,0.41,0.234,0.586,0.351
		c0.176,0.176,0.234,0.351,0.293,0.527s0.117,0.41,0.117,0.586v2.928c0,0.234,0.059,0.351,0.117,0.469
		c0.059,0.059,0.176,0.117,0.293,0.117c0.059,0,0.176,0,0.293-0.059s0.176-0.059,0.293-0.117L94.864,46.253z M92.814,43.501
		L92.814,43.501c-0.059,0.117-0.176,0.176-0.41,0.293l-0.878,0.351c-0.234,0.117-0.469,0.234-0.586,0.41s-0.176,0.41-0.176,0.703
		c0,0.117,0,0.234,0.059,0.351s0.059,0.234,0.117,0.351c0.059,0.117,0.176,0.176,0.293,0.234c0.117,0.059,0.234,0.117,0.469,0.117
		c0.234,0,0.469-0.059,0.644-0.176c0.176-0.117,0.293-0.234,0.351-0.41c0.059-0.176,0.117-0.351,0.176-0.527
		s0.059-0.351,0.059-0.527V43.5L92.814,43.501L92.814,43.501z"/>
	<path d="M95.215,46.195h0.878V41.51h-0.878v-0.176h1.874v1.23l0,0c0.059-0.117,0.117-0.234,0.234-0.41s0.234-0.293,0.351-0.469
		s0.351-0.293,0.586-0.351c0.234-0.117,0.527-0.176,0.878-0.176c0.527,0,0.937,0.117,1.288,0.351
		c0.351,0.234,0.469,0.644,0.469,1.171v3.397h0.878v0.176h-2.811v-0.176h0.878V42.27c0-0.293-0.059-0.527-0.234-0.761
		c-0.117-0.176-0.351-0.293-0.644-0.293c-0.234,0-0.469,0.059-0.703,0.176s-0.41,0.234-0.586,0.469s-0.293,0.41-0.41,0.703
		s-0.117,0.527-0.117,0.878v2.635h0.878v0.176h-2.811v-0.058H95.215z"/>
	<path d="M102.711,44.731h0.117c0.059,0.176,0.117,0.351,0.234,0.586c0.059,0.176,0.176,0.351,0.351,0.527
		c0.117,0.176,0.293,0.293,0.527,0.41s0.469,0.176,0.761,0.176c0.234,0,0.469-0.059,0.644-0.234s0.293-0.41,0.293-0.761
		c0-0.293-0.059-0.527-0.234-0.644c-0.176-0.117-0.351-0.234-0.527-0.293l-0.937-0.293c-0.117-0.059-0.234-0.117-0.351-0.117
		c-0.117-0.059-0.293-0.117-0.41-0.234s-0.234-0.234-0.293-0.41s-0.117-0.351-0.117-0.644c0-0.234,0.059-0.41,0.117-0.586
		c0.059-0.176,0.176-0.351,0.351-0.469s0.351-0.234,0.527-0.351c0.234-0.059,0.41-0.117,0.703-0.117c0.176,0,0.293,0,0.41,0.059
		s0.176,0.059,0.293,0.059s0.176,0.059,0.234,0.059c0.059,0,0.117,0.059,0.234,0.059c0.059,0,0.176-0.059,0.176-0.117h0.117v1.347
		h-0.117c-0.059-0.176-0.117-0.351-0.176-0.527s-0.176-0.293-0.234-0.41c-0.117-0.117-0.234-0.234-0.351-0.293
		s-0.293-0.117-0.527-0.117c-0.351,0-0.644,0.059-0.878,0.234c-0.234,0.176-0.293,0.41-0.293,0.644s0.117,0.469,0.293,0.586
		s0.41,0.234,0.761,0.351l0.878,0.293c0.351,0.117,0.644,0.293,0.878,0.527s0.351,0.527,0.351,0.878c0,0.234-0.059,0.41-0.117,0.644
		c-0.059,0.176-0.176,0.41-0.351,0.527c-0.176,0.176-0.351,0.293-0.586,0.351c-0.234,0.117-0.469,0.117-0.82,0.117
		c-0.176,0-0.351,0-0.469-0.059c-0.117-0.059-0.293-0.059-0.41-0.117s-0.234-0.059-0.351-0.117
		c-0.117-0.059-0.176-0.059-0.293-0.059s-0.176,0-0.176,0.059c-0.059,0.059-0.059,0.059-0.117,0.117h-0.117v-1.641H102.711z"/>
	<path d="M110.676,46.195h1.288v-8.023h-1.288v-0.176h2.167c0.117,0,0.234,0,0.351,0s0.234,0,0.351,0s0.234,0,0.351,0
		s0.234,0,0.351,0c0.234,0,0.469,0,0.644,0c0.176,0,0.351,0,0.527,0.059s0.293,0.059,0.469,0.059
		c0.117,0.059,0.293,0.059,0.469,0.117c0.469,0.176,0.878,0.351,1.23,0.644c0.351,0.234,0.644,0.586,0.878,0.878
		c0.234,0.351,0.41,0.703,0.469,1.113s0.176,0.82,0.176,1.288c0,0.527-0.059,0.996-0.176,1.406s-0.293,0.761-0.527,1.113
		c-0.234,0.293-0.469,0.586-0.761,0.82c-0.293,0.234-0.586,0.41-0.937,0.586c-0.176,0.059-0.351,0.176-0.527,0.176
		c-0.176,0.059-0.351,0.059-0.527,0.117c-0.176,0-0.351,0.059-0.586,0.059c-0.234,0-0.469,0-0.703,0c-0.117,0-0.234,0-0.351,0
		s-0.293,0-0.41,0s-0.293,0-0.41,0s-0.234,0-0.351,0h-1.991v-0.234h-0.176V46.195z M113.136,46.195c0.117,0,0.293,0,0.469,0.059
		c0.176,0,0.351,0,0.586,0c0.293,0,0.527,0,0.82-0.059c0.234,0,0.527-0.059,0.761-0.176c0.234-0.117,0.469-0.234,0.644-0.41
		c0.234-0.176,0.41-0.41,0.586-0.644c0.234-0.41,0.41-0.878,0.527-1.288c0.117-0.469,0.117-0.937,0.117-1.464
		c0-0.644-0.059-1.171-0.176-1.698s-0.293-0.937-0.586-1.288c-0.293-0.351-0.644-0.644-1.054-0.82
		c-0.469-0.176-0.996-0.293-1.64-0.293c-0.176,0-0.351,0-0.527,0s-0.293,0-0.469,0v8.082h-0.058V46.195z"/>
	<path d="M121.569,43.442c0,0.059,0,0.176,0,0.234s0,0.176,0,0.293c0,0.234,0,0.527,0.059,0.82s0.117,0.527,0.234,0.761
		c0.117,0.234,0.234,0.41,0.469,0.586c0.234,0.176,0.469,0.234,0.82,0.234s0.644-0.059,0.878-0.176
		c0.234-0.117,0.41-0.234,0.527-0.351s0.234-0.293,0.293-0.469s0.117-0.293,0.117-0.351l0.176,0.059
		c0,0.059-0.059,0.234-0.117,0.351c-0.059,0.117-0.176,0.293-0.293,0.469s-0.351,0.293-0.586,0.41
		c-0.234,0.117-0.586,0.176-0.937,0.176c-0.41,0-0.761-0.059-1.113-0.176c-0.351-0.117-0.644-0.293-0.878-0.527
		c-0.234-0.234-0.41-0.527-0.586-0.82c-0.117-0.351-0.176-0.703-0.176-1.054s0.059-0.703,0.234-0.996
		c0.117-0.351,0.351-0.586,0.586-0.878c0.234-0.293,0.527-0.469,0.82-0.586c0.293-0.176,0.644-0.234,1.054-0.234
		c0.234,0,0.469,0.059,0.703,0.117c0.234,0.059,0.469,0.234,0.703,0.41s0.41,0.41,0.527,0.703s0.234,0.644,0.234,1.054h-3.748
		L121.569,43.442L121.569,43.442z M123.97,43.325c0-0.117,0-0.234,0-0.293s0-0.176,0-0.293c0-0.293,0-0.469-0.059-0.644
		s-0.117-0.293-0.234-0.41s-0.176-0.176-0.351-0.234c-0.117-0.059-0.293-0.059-0.41-0.059c-0.293,0-0.469,0.059-0.644,0.176
		c-0.176,0.117-0.293,0.234-0.41,0.41s-0.176,0.41-0.234,0.644c-0.059,0.234-0.059,0.469-0.117,0.761h2.46L123.97,43.325
		L123.97,43.325z"/>
	<path d="M126.02,46.195h0.878V41.51h-0.878v-0.176h0.878V40.69c0-0.293,0-0.527,0.059-0.703s0.059-0.351,0.117-0.527
		c0.059-0.176,0.117-0.293,0.176-0.41s0.117-0.234,0.234-0.293c0.176-0.234,0.469-0.469,0.761-0.644s0.644-0.293,0.996-0.293
		c0.234,0,0.469,0.059,0.644,0.117c0.176,0.059,0.351,0.176,0.469,0.293c0.117,0.117,0.176,0.234,0.234,0.351
		c0.059,0.117,0.059,0.234,0.059,0.351c0,0.176-0.059,0.293-0.117,0.41c-0.059,0.117-0.234,0.176-0.41,0.176
		c-0.117,0-0.234,0-0.351-0.059s-0.176-0.176-0.176-0.293s0.059-0.234,0.117-0.351c0.059-0.117,0.117-0.234,0.117-0.351
		c0-0.176-0.059-0.293-0.234-0.351c-0.117-0.059-0.293-0.117-0.41-0.117c-0.293,0-0.586,0.117-0.82,0.41s-0.351,0.703-0.351,1.288
		v1.64h1.464v0.176h-1.464v4.685h1.054v0.176h-2.987v-0.176L126.02,46.195L126.02,46.195z"/>
	<path d="M129.944,46.195h0.878V41.51h-0.878v-0.176h1.933v4.861h0.878v0.176h-2.811V46.195z M130.705,38.64
		c0-0.176,0.059-0.293,0.176-0.469c0.117-0.117,0.293-0.176,0.469-0.176s0.293,0.059,0.469,0.176
		c0.117,0.117,0.176,0.293,0.176,0.469s-0.059,0.293-0.176,0.469c-0.117,0.117-0.293,0.176-0.469,0.176s-0.293-0.059-0.469-0.176
		C130.764,38.933,130.705,38.816,130.705,38.64z"/>
	<path d="M133.399,46.195h0.878V41.51h-0.878v-0.176h1.874v1.23l0,0c0.059-0.117,0.117-0.234,0.234-0.41s0.234-0.293,0.351-0.469
		s0.351-0.293,0.586-0.351c0.234-0.117,0.527-0.176,0.878-0.176c0.527,0,0.937,0.117,1.23,0.351
		c0.351,0.234,0.469,0.644,0.469,1.171v3.397h0.878v0.176h-2.811v-0.176h0.878V42.27c0-0.293-0.059-0.527-0.234-0.761
		c-0.117-0.176-0.351-0.293-0.644-0.293c-0.234,0-0.469,0.059-0.703,0.176s-0.41,0.234-0.586,0.469
		c-0.176,0.176-0.293,0.41-0.41,0.703s-0.117,0.527-0.117,0.878v2.635h0.878v0.176h-2.811v-0.059L133.399,46.195L133.399,46.195z"/>
	<path d="M140.544,46.195h0.878V41.51h-0.878v-0.176h1.933v4.861h0.878v0.176h-2.811V46.195z M141.306,38.64
		c0-0.176,0.059-0.293,0.176-0.469s0.293-0.176,0.469-0.176s0.293,0.059,0.469,0.176s0.176,0.293,0.176,0.469
		s-0.059,0.293-0.176,0.469s-0.293,0.176-0.469,0.176s-0.293-0.059-0.469-0.176C141.306,38.991,141.306,38.816,141.306,38.64z"/>
	<path d="M143.883,41.334h0.878v-1.523c0.059,0,0.117,0.059,0.176,0.059s0.176,0,0.293,0s0.234,0,0.293-0.059
		s0.176-0.059,0.234-0.117v1.581h1.64v0.176h-1.64v3.807c0,0.234,0,0.41,0.059,0.527s0.117,0.234,0.176,0.293
		s0.117,0.117,0.234,0.117c0.059,0,0.176,0.059,0.234,0.059c0.293,0,0.469-0.117,0.644-0.293s0.293-0.41,0.293-0.703l0.176,0.059
		c0,0.117-0.059,0.234-0.117,0.351c-0.059,0.117-0.117,0.234-0.234,0.351s-0.234,0.234-0.351,0.293s-0.351,0.117-0.586,0.117
		c-0.586,0-0.996-0.117-1.23-0.351s-0.351-0.527-0.351-0.937v-3.748h-0.878v-0.059H143.883z"/>
	<path d="M147.924,46.195h0.878V41.51h-0.878v-0.176h1.933v4.861h0.878v0.176h-2.811V46.195z M148.685,38.64
		c0-0.176,0.059-0.293,0.176-0.469c0.117-0.117,0.293-0.176,0.469-0.176s0.293,0.059,0.469,0.176
		c0.117,0.117,0.176,0.293,0.176,0.469s-0.059,0.293-0.176,0.469c-0.117,0.117-0.293,0.176-0.469,0.176s-0.293-0.059-0.469-0.176
		C148.743,38.933,148.685,38.816,148.685,38.64z"/>
	<path d="M151.613,43.852c0-0.41,0.059-0.761,0.234-1.054c0.176-0.351,0.41-0.586,0.644-0.878c0.234-0.234,0.527-0.41,0.878-0.586
		c0.351-0.117,0.644-0.176,0.937-0.176s0.644,0.059,0.937,0.176c0.351,0.117,0.644,0.293,0.878,0.586
		c0.234,0.234,0.469,0.527,0.644,0.878c0.176,0.351,0.234,0.703,0.234,1.054c0,0.351-0.059,0.703-0.234,1.054
		c-0.176,0.351-0.351,0.586-0.586,0.82s-0.527,0.41-0.878,0.586c-0.351,0.117-0.644,0.234-0.996,0.234
		c-0.351,0-0.703-0.059-0.996-0.234c-0.293-0.176-0.644-0.351-0.878-0.586c-0.234-0.234-0.469-0.527-0.644-0.82
		S151.613,44.204,151.613,43.852z M152.784,43.852c0,0.527,0.059,0.996,0.117,1.347c0.059,0.351,0.176,0.586,0.351,0.761
		c0.117,0.176,0.293,0.293,0.469,0.351c0.176,0.059,0.41,0.059,0.586,0.059c0.234,0,0.41,0,0.586-0.059s0.351-0.176,0.469-0.351
		c0.117-0.176,0.234-0.41,0.351-0.761c0.059-0.351,0.117-0.761,0.117-1.347c0-0.469-0.059-0.878-0.117-1.171
		c-0.059-0.293-0.176-0.586-0.293-0.761c-0.117-0.176-0.293-0.351-0.469-0.41s-0.41-0.117-0.703-0.117s-0.469,0.059-0.703,0.117
		c-0.176,0.059-0.351,0.234-0.469,0.41s-0.234,0.469-0.293,0.761C152.784,42.974,152.784,43.384,152.784,43.852z"/>
	<path d="M157.88,46.195h0.878V41.51h-0.878v-0.176h1.874v1.23l0,0c0.059-0.117,0.117-0.234,0.176-0.41
		c0.117-0.176,0.234-0.293,0.351-0.469c0.176-0.176,0.351-0.293,0.586-0.351c0.234-0.117,0.527-0.176,0.878-0.176
		c0.527,0,0.937,0.117,1.23,0.351c0.351,0.234,0.469,0.644,0.469,1.171v3.397h0.878v0.176h-2.811v-0.176h0.878V42.27
		c0-0.293-0.059-0.527-0.234-0.761c-0.117-0.176-0.351-0.293-0.703-0.293c-0.234,0-0.469,0.059-0.703,0.176s-0.41,0.234-0.586,0.469
		c-0.176,0.176-0.293,0.41-0.41,0.703s-0.117,0.527-0.117,0.878v2.635h0.878v0.176h-2.811v-0.059L157.88,46.195L157.88,46.195z"/>
</g>
</svg>
