<?xml version="1.0" encoding="utf-8"?>
<!-- Generator: Adobe Illustrator 17.0.0, SVG Export Plug-In . SVG Version: 6.00 Build 0)  -->
<!DOCTYPE svg PUBLIC "-//W3C//DTD SVG 1.1//EN" "http://www.w3.org/Graphics/SVG/1.1/DTD/svg11.dtd">
<svg version="1.1" id="图层_1" xmlns="http://www.w3.org/2000/svg" xmlns:xlink="http://www.w3.org/1999/xlink" x="0px" y="0px"
	 width="239px" height="54px" viewBox="0 0 239 54" enable-background="new 0 0 239 54" xml:space="preserve">
<g>
	<path d="M75.069,46.195h1.288v-8.023h-1.288v-0.176h3.748v0.176h-1.288v8.023h2.108c0.703,0,1.23-0.234,1.64-0.644
		s0.703-0.996,0.878-1.757h0.117v2.577h-7.145v-0.176H75.069z"/>
	<path d="M83.268,43.852c0-0.41,0.059-0.761,0.234-1.054c0.176-0.351,0.41-0.586,0.644-0.878c0.234-0.293,0.527-0.41,0.878-0.586
		s0.644-0.176,0.937-0.176s0.644,0.059,0.937,0.176c0.351,0.117,0.644,0.293,0.878,0.586c0.234,0.234,0.469,0.527,0.644,0.878
		c0.176,0.351,0.234,0.703,0.234,1.054s-0.059,0.703-0.234,1.054c-0.176,0.351-0.351,0.586-0.644,0.82
		c-0.234,0.234-0.527,0.41-0.878,0.586c-0.351,0.117-0.644,0.234-0.996,0.234c-0.351,0-0.703-0.059-0.996-0.234
		c-0.293-0.176-0.644-0.351-0.878-0.586c-0.234-0.234-0.469-0.527-0.586-0.82C83.326,44.614,83.268,44.204,83.268,43.852z
		 M84.439,43.852c0,0.527,0.059,0.996,0.117,1.347c0.059,0.351,0.176,0.586,0.351,0.761c0.117,0.176,0.293,0.293,0.469,0.351
		c0.176,0.059,0.41,0.059,0.586,0.059c0.234,0,0.41,0,0.586-0.059s0.351-0.176,0.469-0.351c0.117-0.176,0.234-0.41,0.351-0.761
		c0.059-0.351,0.117-0.761,0.117-1.347c0-0.469-0.059-0.878-0.117-1.171c-0.059-0.293-0.176-0.586-0.293-0.761
		c-0.117-0.176-0.293-0.351-0.469-0.41s-0.41-0.117-0.703-0.117s-0.469,0.059-0.703,0.117c-0.234,0.059-0.351,0.234-0.469,0.41
		c-0.117,0.176-0.234,0.469-0.293,0.761C84.498,42.974,84.439,43.384,84.439,43.852z"/>
	<path d="M94.864,46.253c-0.117,0.059-0.234,0.117-0.351,0.234c-0.117,0.059-0.293,0.059-0.527,0.059
		c-0.351,0-0.644-0.059-0.82-0.234c-0.176-0.176-0.293-0.41-0.351-0.644l0,0c-0.059,0.059-0.059,0.176-0.117,0.234
		c-0.059,0.059-0.117,0.234-0.234,0.293c-0.117,0.117-0.293,0.176-0.469,0.234c-0.176,0.059-0.41,0.117-0.703,0.117
		c-0.351,0-0.586-0.059-0.761-0.117c-0.176-0.059-0.351-0.176-0.469-0.293c-0.117-0.117-0.176-0.234-0.234-0.351
		c-0.059-0.117-0.059-0.293-0.059-0.41c0-0.293,0.059-0.469,0.176-0.644c0.117-0.176,0.234-0.293,0.41-0.41s0.351-0.176,0.586-0.234
		c0.234-0.059,0.41-0.117,0.644-0.176s0.469-0.176,0.644-0.234s0.293-0.117,0.41-0.234s0.176-0.176,0.176-0.351
		c0-0.176,0.059-0.293,0.059-0.586c0-0.176,0-0.351-0.059-0.527c0-0.176-0.059-0.293-0.117-0.41
		c-0.059-0.117-0.176-0.176-0.293-0.234c-0.117-0.059-0.293-0.059-0.469-0.059c-0.234,0-0.469,0.059-0.644,0.117
		c-0.176,0.117-0.234,0.234-0.234,0.469c0,0.117,0,0.293,0.059,0.41c0,0.117,0.059,0.234,0.059,0.293
		c0,0.117-0.059,0.176-0.117,0.293c-0.059,0.059-0.176,0.117-0.351,0.117c-0.234,0-0.41-0.059-0.469-0.117
		c-0.059-0.117-0.117-0.234-0.117-0.351c0-0.176,0.059-0.351,0.117-0.469c0.059-0.176,0.176-0.293,0.351-0.41
		s0.351-0.234,0.586-0.293c0.234-0.059,0.469-0.117,0.82-0.117s0.644,0.059,0.878,0.117c0.234,0.117,0.41,0.234,0.586,0.351
		c0.176,0.176,0.234,0.351,0.293,0.527s0.117,0.41,0.117,0.586v2.928c0,0.234,0.059,0.351,0.117,0.469
		c0.059,0.059,0.176,0.117,0.293,0.117c0.059,0,0.176,0,0.293-0.059s0.176-0.059,0.293-0.117L94.864,46.253z M92.814,43.501
		L92.814,43.501c-0.059,0.117-0.176,0.176-0.41,0.293l-0.878,0.351c-0.234,0.117-0.469,0.234-0.586,0.41s-0.176,0.41-0.176,0.703
		c0,0.117,0,0.234,0.059,0.351s0.059,0.234,0.117,0.351c0.059,0.117,0.176,0.176,0.293,0.234c0.117,0.059,0.234,0.117,0.469,0.117
		c0.234,0,0.469-0.059,0.644-0.176c0.176-0.117,0.293-0.234,0.351-0.41c0.059-0.176,0.117-0.351,0.176-0.527
		s0.059-0.351,0.059-0.527V43.5L92.814,43.501L92.814,43.501z"/>
	<path d="M95.215,46.195h0.878V41.51h-0.878v-0.176h1.874v1.23l0,0c0.059-0.117,0.117-0.234,0.234-0.41s0.234-0.293,0.351-0.469
		s0.351-0.293,0.586-0.351c0.234-0.117,0.527-0.176,0.878-0.176c0.527,0,0.937,0.117,1.288,0.351
		c0.351,0.234,0.469,0.644,0.469,1.171v3.397h0.878v0.176h-2.811v-0.176h0.878V42.27c0-0.293-0.059-0.527-0.234-0.761
		c-0.117-0.176-0.351-0.293-0.644-0.293c-0.234,0-0.469,0.059-0.703,0.176s-0.41,0.234-0.586,0.469s-0.293,0.41-0.41,0.703
		s-0.117,0.527-0.117,0.878v2.635h0.878v0.176h-2.811v-0.058C95.213,46.195,95.215,46.195,95.215,46.195z"/>
	<path d="M102.711,44.731h0.117c0.059,0.176,0.117,0.351,0.234,0.586c0.059,0.176,0.176,0.351,0.351,0.527
		c0.117,0.176,0.293,0.293,0.527,0.41s0.469,0.176,0.761,0.176c0.234,0,0.469-0.059,0.644-0.234s0.293-0.41,0.293-0.761
		c0-0.293-0.059-0.527-0.234-0.644c-0.176-0.117-0.351-0.234-0.527-0.293l-0.937-0.293c-0.117-0.059-0.234-0.117-0.351-0.117
		c-0.117-0.059-0.293-0.117-0.41-0.234s-0.234-0.234-0.293-0.41s-0.117-0.351-0.117-0.644c0-0.234,0.059-0.41,0.117-0.586
		c0.059-0.176,0.176-0.351,0.351-0.469s0.351-0.234,0.527-0.351c0.234-0.059,0.41-0.117,0.703-0.117c0.176,0,0.293,0,0.41,0.059
		s0.176,0.059,0.293,0.059s0.176,0.059,0.234,0.059c0.059,0,0.117,0.059,0.234,0.059c0.059,0,0.176-0.059,0.176-0.117h0.117v1.347
		h-0.117c-0.059-0.176-0.117-0.351-0.176-0.527s-0.176-0.293-0.234-0.41c-0.117-0.117-0.234-0.234-0.351-0.293
		s-0.293-0.117-0.527-0.117c-0.351,0-0.644,0.059-0.878,0.234c-0.234,0.176-0.293,0.41-0.293,0.644s0.117,0.469,0.293,0.586
		s0.41,0.234,0.761,0.351l0.878,0.293c0.351,0.117,0.644,0.293,0.878,0.527s0.351,0.527,0.351,0.878c0,0.234-0.059,0.41-0.117,0.644
		c-0.059,0.176-0.176,0.41-0.351,0.527c-0.176,0.176-0.351,0.293-0.586,0.351c-0.234,0.117-0.469,0.117-0.82,0.117
		c-0.176,0-0.351,0-0.469-0.059c-0.117-0.059-0.293-0.059-0.41-0.117s-0.234-0.059-0.351-0.117
		c-0.117-0.059-0.176-0.059-0.293-0.059s-0.176,0-0.176,0.059c-0.059,0.059-0.059,0.059-0.117,0.117h-0.117v-1.641L102.711,44.731
		L102.711,44.731z"/>
	<path d="M110.676,46.195h1.288v-8.023h-1.288v-0.176h2.167c0.117,0,0.234,0,0.351,0s0.234,0,0.351,0s0.234,0,0.351,0
		s0.234,0,0.351,0c0.234,0,0.469,0,0.644,0c0.176,0,0.351,0,0.527,0.059s0.293,0.059,0.469,0.059
		c0.117,0.059,0.293,0.059,0.469,0.117c0.469,0.176,0.878,0.351,1.23,0.644c0.351,0.234,0.644,0.586,0.878,0.878
		c0.234,0.351,0.41,0.703,0.469,1.113s0.176,0.82,0.176,1.288c0,0.527-0.059,0.996-0.176,1.406s-0.293,0.761-0.527,1.113
		c-0.234,0.293-0.469,0.586-0.761,0.82c-0.293,0.234-0.586,0.41-0.937,0.586c-0.176,0.059-0.351,0.176-0.527,0.176
		c-0.176,0.059-0.351,0.059-0.527,0.117c-0.176,0-0.351,0.059-0.586,0.059c-0.234,0-0.469,0-0.703,0c-0.117,0-0.234,0-0.351,0
		s-0.293,0-0.41,0s-0.293,0-0.41,0s-0.234,0-0.351,0h-1.991v-0.234h-0.176C110.676,46.197,110.676,46.195,110.676,46.195z
		 M113.136,46.195c0.117,0,0.293,0,0.469,0.059c0.176,0,0.351,0,0.586,0c0.293,0,0.527,0,0.82-0.059
		c0.234,0,0.527-0.059,0.761-0.176s0.469-0.234,0.644-0.41c0.234-0.176,0.41-0.41,0.586-0.644c0.234-0.41,0.41-0.878,0.527-1.288
		c0.117-0.469,0.117-0.937,0.117-1.464c0-0.644-0.059-1.171-0.176-1.698s-0.293-0.937-0.586-1.288
		c-0.293-0.351-0.644-0.644-1.054-0.82c-0.469-0.176-0.996-0.293-1.64-0.293c-0.176,0-0.351,0-0.527,0s-0.293,0-0.469,0v8.082
		h-0.058C113.136,46.196,113.136,46.195,113.136,46.195z"/>
	<path d="M121.569,43.442c0,0.059,0,0.176,0,0.234s0,0.176,0,0.293c0,0.234,0,0.527,0.059,0.82s0.117,0.527,0.234,0.761
		c0.117,0.234,0.234,0.41,0.469,0.586c0.234,0.176,0.469,0.234,0.82,0.234s0.644-0.059,0.878-0.176s0.41-0.234,0.527-0.351
		s0.234-0.293,0.293-0.469s0.117-0.293,0.117-0.351l0.176,0.059c0,0.059-0.059,0.234-0.117,0.351
		c-0.059,0.117-0.176,0.293-0.293,0.469s-0.351,0.293-0.586,0.41c-0.234,0.117-0.586,0.176-0.937,0.176
		c-0.41,0-0.761-0.059-1.113-0.176c-0.351-0.117-0.644-0.293-0.878-0.527s-0.41-0.527-0.586-0.82
		c-0.117-0.351-0.176-0.703-0.176-1.054s0.059-0.703,0.234-0.996c0.117-0.351,0.351-0.586,0.586-0.878
		c0.234-0.293,0.527-0.469,0.82-0.586c0.293-0.176,0.644-0.234,1.054-0.234c0.234,0,0.469,0.059,0.703,0.117
		c0.234,0.059,0.469,0.234,0.703,0.41s0.41,0.41,0.527,0.703s0.234,0.644,0.234,1.054h-3.748L121.569,43.442L121.569,43.442z
		 M123.97,43.325c0-0.117,0-0.234,0-0.293s0-0.176,0-0.293c0-0.293,0-0.469-0.059-0.644s-0.117-0.293-0.234-0.41
		s-0.176-0.176-0.351-0.234c-0.117-0.059-0.293-0.059-0.41-0.059c-0.293,0-0.469,0.059-0.644,0.176
		c-0.176,0.117-0.293,0.234-0.41,0.41s-0.176,0.41-0.234,0.644c-0.059,0.234-0.059,0.469-0.117,0.761h2.46L123.97,43.325
		L123.97,43.325z"/>
	<path d="M126.02,46.195h0.878V41.51h-0.878v-0.176h0.878V40.69c0-0.293,0-0.527,0.059-0.703s0.059-0.351,0.117-0.527
		c0.059-0.176,0.117-0.293,0.176-0.41s0.117-0.234,0.234-0.293c0.176-0.234,0.469-0.469,0.761-0.644
		c0.292-0.175,0.644-0.293,0.996-0.293c0.234,0,0.469,0.059,0.644,0.117c0.176,0.059,0.351,0.176,0.469,0.293
		c0.117,0.117,0.176,0.234,0.234,0.351c0.059,0.117,0.059,0.234,0.059,0.351c0,0.176-0.059,0.293-0.117,0.41
		c-0.059,0.117-0.234,0.176-0.41,0.176c-0.117,0-0.234,0-0.351-0.059s-0.176-0.176-0.176-0.293s0.059-0.234,0.117-0.351
		c0.059-0.117,0.117-0.234,0.117-0.351c0-0.176-0.059-0.293-0.234-0.351c-0.117-0.059-0.293-0.117-0.41-0.117
		c-0.293,0-0.586,0.117-0.82,0.41s-0.351,0.703-0.351,1.288v1.64h1.464v0.176h-1.464v4.685h1.054v0.176h-2.987v-0.176L126.02,46.195
		L126.02,46.195z"/>
	<path d="M129.944,46.195h0.878V41.51h-0.878v-0.176h1.933v4.861h0.878v0.176h-2.811V46.195z M130.705,38.64
		c0-0.176,0.059-0.293,0.176-0.469c0.117-0.117,0.293-0.176,0.469-0.176s0.293,0.059,0.469,0.176
		c0.117,0.117,0.176,0.293,0.176,0.469s-0.059,0.293-0.176,0.469c-0.117,0.117-0.293,0.176-0.469,0.176s-0.293-0.059-0.469-0.176
		C130.764,38.933,130.705,38.816,130.705,38.64z"/>
	<path d="M133.399,46.195h0.878V41.51h-0.878v-0.176h1.874v1.23l0,0c0.059-0.117,0.117-0.234,0.234-0.41s0.234-0.293,0.351-0.469
		s0.351-0.293,0.586-0.351c0.234-0.117,0.527-0.176,0.878-0.176c0.527,0,0.937,0.117,1.23,0.351
		c0.351,0.234,0.469,0.644,0.469,1.171v3.397h0.878v0.176h-2.811v-0.176h0.878V42.27c0-0.293-0.059-0.527-0.234-0.761
		c-0.117-0.176-0.351-0.293-0.644-0.293c-0.234,0-0.469,0.059-0.703,0.176s-0.41,0.234-0.586,0.469
		c-0.176,0.176-0.293,0.41-0.41,0.703s-0.117,0.527-0.117,0.878v2.635h0.878v0.176h-2.811v-0.059L133.399,46.195L133.399,46.195z"/>
	<path d="M140.544,46.195h0.878V41.51h-0.878v-0.176h1.933v4.861h0.878v0.176h-2.811V46.195z M141.306,38.64
		c0-0.176,0.059-0.293,0.176-0.469s0.293-0.176,0.469-0.176s0.293,0.059,0.469,0.176s0.176,0.293,0.176,0.469
		s-0.059,0.293-0.176,0.469s-0.293,0.176-0.469,0.176s-0.293-0.059-0.469-0.176C141.306,38.991,141.306,38.816,141.306,38.64z"/>
	<path d="M143.883,41.334h0.878v-1.523c0.059,0,0.117,0.059,0.176,0.059s0.176,0,0.293,0s0.234,0,0.293-0.059
		s0.176-0.059,0.234-0.117v1.581h1.64v0.176h-1.64v3.807c0,0.234,0,0.41,0.059,0.527s0.117,0.234,0.176,0.293
		s0.117,0.117,0.234,0.117c0.059,0,0.176,0.059,0.234,0.059c0.293,0,0.469-0.117,0.644-0.293s0.293-0.41,0.293-0.703l0.176,0.059
		c0,0.117-0.059,0.234-0.117,0.351c-0.059,0.117-0.117,0.234-0.234,0.351s-0.234,0.234-0.351,0.293s-0.351,0.117-0.586,0.117
		c-0.586,0-0.996-0.117-1.23-0.351s-0.351-0.527-0.351-0.937v-3.748h-0.878v-0.059H143.883z"/>
	<path d="M147.924,46.195h0.878V41.51h-0.878v-0.176h1.933v4.861h0.878v0.176h-2.811V46.195z M148.685,38.64
		c0-0.176,0.059-0.293,0.176-0.469c0.117-0.117,0.293-0.176,0.469-0.176s0.293,0.059,0.469,0.176
		c0.117,0.117,0.176,0.293,0.176,0.469s-0.059,0.293-0.176,0.469c-0.117,0.117-0.293,0.176-0.469,0.176s-0.293-0.059-0.469-0.176
		C148.743,38.933,148.685,38.816,148.685,38.64z"/>
	<path d="M151.613,43.852c0-0.41,0.059-0.761,0.234-1.054c0.176-0.351,0.41-0.586,0.644-0.878c0.234-0.234,0.527-0.41,0.878-0.586
		c0.351-0.117,0.644-0.176,0.937-0.176s0.644,0.059,0.937,0.176c0.351,0.117,0.644,0.293,0.878,0.586
		c0.234,0.234,0.469,0.527,0.644,0.878c0.176,0.351,0.234,0.703,0.234,1.054s-0.059,0.703-0.234,1.054
		c-0.176,0.351-0.351,0.586-0.586,0.82s-0.527,0.41-0.878,0.586c-0.351,0.117-0.644,0.234-0.996,0.234
		c-0.351,0-0.703-0.059-0.996-0.234c-0.293-0.176-0.644-0.351-0.878-0.586c-0.234-0.234-0.469-0.527-0.644-0.82
		S151.613,44.204,151.613,43.852z M152.784,43.852c0,0.527,0.059,0.996,0.117,1.347c0.059,0.351,0.176,0.586,0.351,0.761
		c0.117,0.176,0.293,0.293,0.469,0.351c0.176,0.059,0.41,0.059,0.586,0.059c0.234,0,0.41,0,0.586-0.059s0.351-0.176,0.469-0.351
		c0.117-0.176,0.234-0.41,0.351-0.761c0.059-0.351,0.117-0.761,0.117-1.347c0-0.469-0.059-0.878-0.117-1.171
		c-0.059-0.293-0.176-0.586-0.293-0.761c-0.117-0.176-0.293-0.351-0.469-0.41s-0.41-0.117-0.703-0.117s-0.469,0.059-0.703,0.117
		c-0.176,0.059-0.351,0.234-0.469,0.41s-0.234,0.469-0.293,0.761C152.784,42.974,152.784,43.384,152.784,43.852z"/>
	<path d="M157.88,46.195h0.878V41.51h-0.878v-0.176h1.874v1.23l0,0c0.059-0.117,0.117-0.234,0.176-0.41
		c0.117-0.176,0.234-0.293,0.351-0.469c0.176-0.176,0.351-0.293,0.586-0.351c0.234-0.117,0.527-0.176,0.878-0.176
		c0.527,0,0.937,0.117,1.23,0.351c0.351,0.234,0.469,0.644,0.469,1.171v3.397h0.878v0.176h-2.811v-0.176h0.878V42.27
		c0-0.293-0.059-0.527-0.234-0.761c-0.117-0.176-0.351-0.293-0.703-0.293c-0.234,0-0.469,0.059-0.703,0.176s-0.41,0.234-0.586,0.469
		c-0.176,0.176-0.293,0.41-0.41,0.703s-0.117,0.527-0.117,0.878v2.635h0.878v0.176h-2.811v-0.059L157.88,46.195L157.88,46.195z"/>
</g>
<g>
	<path d="M12.781,8.031l2.062,0.656l-0.188,0.75v1.781l2.062-0.094l0.75-1.031l1.781,1.125c0.125,0,0.125,0.094,0,0.281
		l-0.656,0.844c-0.438,3.062,0.094,5.25,1.594,6.562c0.188,0.188,0.375,0.126,0.562-0.188l0.562-0.562
		c0.125-0.062,0.218-0.062,0.281,0c0.062,0.062,0.062,0.126,0,0.188c-0.313,0.625-0.375,1.219-0.188,1.781
		c0.312,0.75,0.281,1.281-0.094,1.594c-0.438,0.313-0.97,0.25-1.594-0.188c-2.5-1.688-3.501-4.969-3-9.844v-0.094l-2.062,0.094V13
		c0,0.812-0.157,1.656-0.469,2.531c0.875,0.313,1.406,0.595,1.594,0.844c0.375,0.75,0.312,1.438-0.188,2.062
		c-0.188,0.25-0.438,0.22-0.75-0.094c-0.375-0.5-0.844-0.969-1.406-1.406c-0.813,1.251-1.938,2.376-3.375,3.375l2.625,0.75
		c0.062,0,0.125,0.032,0.188,0.094c-0.063,0.062-0.126,0.126-0.188,0.188c-0.188,0.188-0.344,0.501-0.469,0.938v1.781h3.844
		l1.219-1.406l1.781,1.594c0.188,0.126,0.155,0.188-0.094,0.188l-6.75,0.188l-0.188,4.125l6.562-0.094L20,27.344l1.875,1.5
		c0.125,0.125,0.125,0.219,0,0.281L3.781,29.406c-0.876,0.062-1.72,0.155-2.531,0.281l-0.75-0.75l9.375-0.188v-4.125l-3.562,0.094
		c-0.188,0-0.438,0.032-0.75,0.094c-0.876,0-1.469,0.062-1.781,0.188l-0.844-0.75l6.938-0.094L9.781,20.5
		c-0.75,0.562-1.626,1.125-2.625,1.688C7.03,22.25,6.969,22.22,6.969,22.094c-0.063-0.062-0.032-0.125,0.094-0.188
		c2.812-2,4.562-3.969,5.25-5.906c-0.75-0.562-1.532-1.062-2.344-1.5c-0.126-0.188-0.094-0.281,0.094-0.281
		c0.249,0.062,0.624,0.188,1.125,0.375c0.624,0.188,1.125,0.344,1.5,0.469c0.062-0.375,0.125-0.969,0.188-1.781
		c0.062-0.375,0.094-0.656,0.094-0.844v-0.656c-0.75,0.062-1.375,0.188-1.875,0.375L10.438,11.5l2.531-0.188v-0.938L12.781,8.031z
		 M7.531,8.406c0.125,0,0.125,0.126,0,0.375L7.25,9.438L7.156,11.5h0.75l0.938-1.031l1.312,1.031
		c0.062,0.188,0.031,0.313-0.094,0.375l-2.906,0.094v2.344c0.125-0.062,0.281-0.125,0.469-0.188c0.562-0.125,1.28-0.375,2.156-0.75
		c0.125,0,0.188,0.032,0.188,0.094c0,0.062-0.032,0.126-0.094,0.188c-0.126,0.062-0.313,0.156-0.562,0.281
		c-0.688,0.313-1.406,0.75-2.156,1.312v3.281c-0.063,1.875-0.876,3.25-2.438,4.125c-0.126,0.062-0.22,0.062-0.281,0
		c-0.063-0.062-0.063-0.155,0-0.281c0-0.875-0.25-1.406-0.75-1.594c-0.063-0.062-0.094-0.125-0.094-0.188
		c0-0.062,0.062-0.094,0.188-0.094c1.187,0.126,1.688-0.188,1.5-0.938v-3.281c-1.188,0.75-2.032,1.312-2.531,1.688
		c-0.188,0.188-0.313,0.188-0.375,0l-0.656-2.062c0-0.125,0.031-0.188,0.094-0.188c0.875-0.125,2.03-0.406,3.469-0.844v-2.812
		L2,12.156c-0.188,0.062-0.281,0-0.281-0.188c-0.063-0.188,0-0.281,0.188-0.281l3.375-0.094v-0.281V7.844L7.531,8.406z"/>
	<path d="M36.5,20.312c0.062,0.062,0.062,0.126,0,0.188l-0.281,0.469c0.312,5.312-3.562,8.687-11.625,10.125
		c-0.188-0.062-0.188-0.188,0-0.375c3.938-1.188,6.5-2.438,7.688-3.75c1.25-1.25,1.906-3.437,1.969-6.562l-0.094-1.219L36.5,20.312z
		 M32.469,9.531l-3.375,5.156c-0.438,0.812-0.656,1.594-0.656,2.344c0.062,0.438-0.126,0.719-0.562,0.844
		c-0.438,0.25-0.907,0.281-1.406,0.094c-0.25-0.188-0.25-0.469,0-0.844c0-0.062,0.031-0.188,0.094-0.375
		c0.125-0.312,0.188-0.594,0.188-0.844c0.062-0.437-0.063-0.875-0.375-1.312c-0.063-0.125-0.032-0.155,0.094-0.094
		c0.624,0.188,1.031,0.156,1.219-0.094l4.594-5.062C32.469,9.282,32.53,9.344,32.469,9.531z M27.031,8.219
		c1.749,0.625,2.656,1.188,2.719,1.688c0,0.688-0.313,1.219-0.938,1.594c-0.438,0.126-0.719,0-0.844-0.375
		c-0.063-1.187-0.407-2.062-1.031-2.625c-0.063-0.062-0.094-0.125-0.094-0.188C26.844,8.251,26.905,8.219,27.031,8.219z
		 M30.688,18.625v6c-0.188,0.876-0.625,1.562-1.312,2.062c-0.313,0.188-0.501,0.188-0.562,0l0.094-2.812V19.75l-0.094-2.156
		c0-0.125,0.062-0.155,0.188-0.094l1.688,0.656l8.531-0.188l0.938-1.031l1.875,1.031c0.125,0.062,0.125,0.156,0,0.281l-0.562,0.656
		v1.875l0.094,2.344c0,1.188-0.469,2.125-1.406,2.812c-0.375,0.313-0.625,0.25-0.75-0.188v-7.406L30.688,18.625z M35.469,7.75
		l1.406,1.219c0,0.063-0.032,0.157-0.094,0.281c-0.25,0.25-0.532,0.562-0.844,0.938L41.094,10l0.938-0.844L44,10.75
		c0.062,0.126,0.094,0.25,0.094,0.375c-0.063,0.063-0.157,0.094-0.281,0.094C43,11.157,42.062,11.5,41,12.25
		c-0.188,0.062-0.281,0-0.281-0.188l0.469-1.688l-3.656,0.188l1.125,0.375c0.125,0,0.125,0.063,0,0.188L38.281,11.5
		c0,0.062,0,0.156,0,0.281c0.188,1.375,2.78,2.751,7.781,4.125c0.062,0.062,0.062,0.126,0,0.188c0,0.062-0.063,0.094-0.188,0.094
		c-0.688,0-1.5,0.562-2.438,1.688c-2.875-1.312-4.657-3.188-5.344-5.625c-0.562,2.438-2.812,4.219-6.75,5.344
		c-0.313,0.062-0.375,0-0.188-0.188c3.562-1.25,5.468-3.53,5.719-6.844l-1.406,0.094c-1.251,1.312-2.782,2.563-4.594,3.75
		c-0.188,0.062-0.25,0-0.188-0.188c2.124-1.625,3.656-3.75,4.594-6.375C35.281,7.719,35.343,7.688,35.469,7.75z M35.938,25.938
		C40,26.626,42.343,27.312,42.969,28c0.375,0.688,0.312,1.406-0.188,2.156c-0.25,0.562-0.719,0.53-1.406-0.094
		c-1.438-1.626-3.281-2.906-5.531-3.844C35.718,26.031,35.75,25.938,35.938,25.938z"/>
	<path d="M52.344,13.188c-0.063-0.188,0-0.281,0.188-0.281l1.219,0.469c0.312,0.062,0.375,0.313,0.188,0.75v6.469
		C54.062,24.531,51.937,28,47.562,31c-0.126,0.062-0.22,0.062-0.281,0c-0.126-0.062-0.126-0.126,0-0.188
		c3.5-2.625,5.187-6,5.062-10.125V13.188z M50,24.812c-0.126,0.188-0.25,0.281-0.375,0.281c-0.063-0.062-0.094-0.188-0.094-0.375
		l0.094-10.969c0-2.562-0.032-4.031-0.094-4.406c-0.063-0.188,0-0.249,0.188-0.188l1.969,1.219h0.094l3.188-0.094l0.75-0.938
		l1.688,1.031c0.125,0,0.125,0.063,0,0.188l-0.562,0.75v6.469l0.094,3.562c-0.188,0.938-0.688,1.688-1.5,2.25
		c-0.188,0.126-0.313,0.062-0.375-0.188V10.75l-3.469,0.188l-0.375,0.469l-0.094,10.875C51.062,23.094,50.687,23.938,50,24.812z
		 M62.844,15.719l2.438,0.938c0.188,0.062,0.188,0.22,0,0.469l-0.375,0.656l-0.281,3.094c0,0.438-0.063,0.906-0.188,1.406l3-0.094
		l1.219-1.5l1.781,1.594c0.062,0.126,0.031,0.22-0.094,0.281l-6,0.281c-0.313,3.438-3.719,6.219-10.219,8.344
		c-0.126,0-0.22-0.062-0.281-0.188c0-0.062,0.062-0.126,0.188-0.188c5.25-1.938,8.062-4.562,8.438-7.875l-2.156,0.094
		c-1.125,0.062-1.907,0.188-2.344,0.375l-0.75-0.844l5.344-0.188c0.062-0.125,0.094-0.312,0.094-0.562
		c0.062-0.249,0.094-0.437,0.094-0.562l0.094-2.062C62.968,17.438,62.968,16.281,62.844,15.719z M54.312,24.156
		c2.187,1,3.406,1.75,3.656,2.25c0.125,0.501-0.094,1.031-0.656,1.594c-0.375,0.312-0.656,0.281-0.844-0.094
		c-0.562-1.5-1.345-2.687-2.344-3.562C54.062,24.282,54.125,24.219,54.312,24.156z M61.25,11.781
		c-0.938,0.062-1.75,0.188-2.438,0.375l-0.656-0.75L62,11.312l0.094-0.562c0-1.25-0.032-2.218-0.094-2.906l2.438,0.75
		c0.188,0,0.188,0.157,0,0.469c-0.188,0.25-0.313,0.719-0.375,1.406v0.75l1.875-0.094l1.031-1.219l1.5,1.312l0.094,0.188
		C68.5,11.469,68.437,11.5,68.375,11.5l-4.312,0.188v3l3.281-0.094l0.938-1.031l2.156,1.969c0.062,0.062,0.094,0.156,0.094,0.281
		c-0.063,0.062-0.157,0.094-0.281,0.094c-0.876,0.062-1.969,0.531-3.281,1.406c-0.188,0.126-0.25,0.062-0.188-0.188l0.562-2.062
		l-6.75,0.281c-0.501,0-1.406,0.094-2.719,0.281l-0.656-0.656L62,14.781v-3H61.25z M58.156,18.625
		c1.625,0.375,2.499,0.812,2.625,1.312c0.125,0.501-0.032,0.97-0.469,1.406c-0.25,0.25-0.501,0.188-0.75-0.188
		c-0.375-0.938-0.844-1.719-1.406-2.344C58.03,18.751,58.03,18.688,58.156,18.625z M59.375,16.094c1.5,0.25,2.344,0.625,2.531,1.125
		c0.062,0.438-0.094,0.876-0.469,1.312c-0.375,0.25-0.625,0.188-0.75-0.188c-0.375-0.999-0.813-1.688-1.312-2.062
		C59.188,16.22,59.188,16.156,59.375,16.094z M64.438,24.719c1.937,0.688,3.343,1.438,4.219,2.25c0.188,0.501,0,1.219-0.562,2.156
		c-0.438,0.437-0.75,0.375-0.938-0.188c-0.688-1.812-1.626-3.155-2.812-4.031C64.344,24.781,64.375,24.719,64.438,24.719z"/>
	<path d="M76.438,7.938l2.156,1.125c0.125,0,0.125,0.063,0,0.188l-0.281,0.656v3.469h0.562L80,12.25l1.312,1.312
		c0.125,0.062,0.094,0.156-0.094,0.281h-2.906l-0.094,3c1.25,0.375,2.03,0.75,2.344,1.125c0.188,0.313,0.062,0.812-0.375,1.5
		c-0.438,0.375-0.719,0.375-0.844,0c-0.126-0.688-0.501-1.374-1.125-2.062v6.562v4.219c-0.063,0.75-0.595,1.531-1.594,2.344
		c-0.25,0.249-0.438,0.219-0.562-0.094l0.188-6.562v-4.406c-1.188,1.938-2.782,4.063-4.781,6.375c-0.063,0.062-0.126,0.062-0.188,0
		c-0.126-0.062-0.157-0.125-0.094-0.188c2.062-3.188,3.75-7.093,5.062-11.719h-0.656c-0.813,0-1.688,0.062-2.625,0.188l-0.656-0.656
		l3.938-0.094l0.094-2.156c0-0.562-0.032-1.28-0.094-2.156c0-0.5,0-0.844,0-1.031C76.25,7.907,76.312,7.876,76.438,7.938z
		 M82.812,22.188c-1,0-1.844,0.062-2.531,0.188l-0.656-0.656l4.125-0.094c0.375-0.938,0.656-1.843,0.844-2.719l2.531,1.125
		c0.125,0.062,0.125,0.156,0,0.281l-0.562,0.469l-0.656,0.844l5.625-0.094l1.219-1.312l1.5,1.5c0.125,0.062,0.125,0.156,0,0.281
		l-4.688,0.094l1.5,0.656c0.125,0.062,0.125,0.126,0,0.188l-0.281,0.281c-0.938,1.562-1.72,2.657-2.344,3.281
		c1.749,0.438,3,0.906,3.75,1.406c0.249,0.312,0.343,0.999,0.281,2.062c-0.313,0.624-0.688,0.718-1.125,0.281
		c-1.251-1.188-2.563-2.095-3.938-2.719c-1.626,1.25-4.657,2.375-9.094,3.375c-0.126,0.062-0.22,0.062-0.281,0
		c-0.063-0.062-0.063-0.156,0-0.281c3.75-0.938,6.406-2.188,7.969-3.75c-1.626-0.624-2.938-1.031-3.938-1.219
		c0.624-1.062,1.125-2.218,1.5-3.469H82.812z M90.594,8.969l1.594,1.125c0.062,0.063,0.062,0.126,0,0.188
		c-0.062,0-0.126,0.032-0.188,0.094l-3.656,2.719L91.156,13l1.125-1.219l1.406,1.312c0.125,0.062,0.094,0.156-0.094,0.281L89,13.469
		c0.624,1.375,2.531,2.657,5.719,3.844c0,0.062-0.032,0.156-0.094,0.281c-0.812-0.125-1.656,0.281-2.531,1.219
		c-1.688-1.25-2.812-3.031-3.375-5.344h-0.656v1.5l0.094,2.531c-0.25,0.688-0.782,1.312-1.594,1.875
		c-0.25,0.062-0.407,0-0.469-0.188l0.094-3.656c-1.251,1.188-3.032,2.406-5.344,3.656c-0.188,0.062-0.22,0-0.094-0.188
		c1.312-0.875,2.906-2.687,4.781-5.438h-0.656c-0.688,0-1.406,0.062-2.156,0.188c-0.188,0.062-0.344,0.094-0.469,0.094l-0.656-0.656
		l4.594-0.094l0.094-2.438l-0.188-2.438V7.938c0.062-0.062,0.125-0.062,0.188,0l1.969,0.656c0.188,0.063,0.219,0.157,0.094,0.281
		l-0.188,0.75l-0.094,3.281C89.249,11.406,90.093,10.094,90.594,8.969z M82.625,9.531c-0.126-0.188-0.094-0.249,0.094-0.188
		c1.312,0.501,2.156,0.938,2.531,1.312c0.125,0.375-0.094,0.844-0.656,1.406c-0.313,0.25-0.562,0.25-0.75,0
		C83.593,11,83.188,10.157,82.625,9.531z M82.906,25.375c1.187,0.188,2.438,0.438,3.75,0.75c0.812-1.125,1.5-2.469,2.062-4.031
		h-3.188L82.906,25.375z"/>
	<path d="M117.219,26.781c0.249,0.062,0.281,0.188,0.094,0.375c-1.125,0.438-1.969,1.468-2.531,3.094
		c-3.812,0.125-7.031-0.032-9.656-0.469c-1.312-0.188-2.438-1.219-3.375-3.094c-0.188-0.437-0.469-0.406-0.844,0.094
		c-0.876,1.063-1.656,2.312-2.344,3.75c-0.062,0.188-0.188,0.219-0.375,0.094l-1.312-1.969c-0.126-0.062-0.094-0.156,0.094-0.281
		l3.188-2.438l0.188-8.062l-3.281,0.188c-0.188,0-0.313-0.094-0.375-0.281c0-0.188,0.094-0.281,0.281-0.281l3.375-0.188l1.031-1.219
		l1.875,1.312c0.188,0.062,0.188,0.188,0,0.375l-0.656,0.938l-0.281,6.844C102.125,27.812,107.094,28.219,117.219,26.781z
		 M97.906,8.781c2.312,0.688,3.53,1.469,3.656,2.344c0.062,0.876-0.313,1.532-1.125,1.969c-0.562,0.25-0.906,0.126-1.031-0.375
		c-0.126-1.749-0.656-2.968-1.594-3.656C97.75,8.813,97.78,8.72,97.906,8.781z M110.562,8.031l2.531,1.031
		c0.125,0.063,0.155,0.157,0.094,0.281v0.094c-0.188,0.063-0.344,0.281-0.469,0.656v0.094v2.906h1.875L116,11.5l1.688,1.781
		c0.125,0.188,0.094,0.281-0.094,0.281l-4.875,0.094v6.375l0.094,2.812c0,1.688-1.063,3.094-3.188,4.219
		c-0.126,0.062-0.22,0.062-0.281,0c-0.062-0.062-0.062-0.155,0-0.281c0.125-0.938-0.25-1.655-1.125-2.156
		c-0.126-0.188-0.094-0.281,0.094-0.281c1.749,0.126,2.499-0.125,2.25-0.75l-0.094-9.844l-4.781,0.094
		c-0.188,0-0.407,0.032-0.656,0.094c-0.812,0-1.375,0.062-1.688,0.188l-0.844-0.844l7.969-0.094v-0.562c0-2-0.032-3.469-0.094-4.406
		C110.375,8.031,110.437,7.97,110.562,8.031z M104.75,16.094c2,0.812,3.125,1.626,3.375,2.438c0,0.688-0.438,1.281-1.312,1.781
		c-0.625,0.313-0.97,0.188-1.031-0.375c0.062-1.688-0.313-2.906-1.125-3.656C104.594,16.156,104.624,16.094,104.75,16.094z"/>
	<path d="M124.812,7.938l2.062,1.031c0.125,0.126,0.125,0.188,0,0.188l-0.281,0.75l-0.094,3.469h1.219l1.031-1.031l1.312,1.219
		c0.062,0.126,0,0.188-0.188,0.188l-3.375,0.094v2.438c1.312,0.501,2.124,1,2.438,1.5c0.125,0.501-0.094,0.938-0.656,1.312
		c-0.375,0.25-0.595,0.188-0.656-0.188c-0.313-0.999-0.688-1.749-1.125-2.25v6.75l0.094,4.219c-0.188,0.875-0.656,1.688-1.406,2.438
		c-0.375,0.249-0.595,0.188-0.656-0.188l0.188-6.562v-4.125c-1.375,2.062-3.094,4.157-5.156,6.281
		c-0.062,0.062-0.156,0.094-0.281,0.094c-0.062-0.062-0.062-0.155,0-0.281c2.312-3.312,4.125-6.999,5.438-11.062v-0.281h-0.656
		c-0.938,0-1.813,0.062-2.625,0.188l-0.656-0.656l3.938-0.094v-2.156c0-1.437-0.032-2.499-0.094-3.188
		C124.625,7.907,124.687,7.876,124.812,7.938z M131.375,18.906l2.531,0.656c0.188,0.062,0.219,0.156,0.094,0.281l-0.375,0.75
		c0.375,4.875-2.062,8.344-7.312,10.406c-0.126,0.062-0.188,0.031-0.188-0.094c-0.062-0.062-0.032-0.126,0.094-0.188
		c2.312-1.375,3.781-2.812,4.406-4.312C131.312,24.906,131.562,22.407,131.375,18.906z M137.281,8.312l1.688,2.062
		c0.062,0.063,0.094,0.126,0.094,0.188c-0.062,0.063-0.156,0.094-0.281,0.094c-0.375,0.063-1.125,0.126-2.25,0.188
		c-0.812,0.063-1.5,0.126-2.062,0.188l1.688,0.75c0.125,0.062,0.155,0.156,0.094,0.281l-0.375,0.281
		c-0.188,0.313-0.469,0.782-0.844,1.406c-0.188,0.375-0.344,0.656-0.469,0.844l4.688-0.094l1.219-1.219l1.594,1.312
		c0.062,0.126,0,0.22-0.188,0.281l-7.688,0.188c-1.312,2.125-3.375,4.219-6.188,6.281c-0.313,0.062-0.375,0-0.188-0.188
		c1.812-1.625,3.281-3.624,4.406-6h-0.094c-1,0-1.938,0.062-2.812,0.188l-0.75-0.656l3.844-0.094c0.5-1.062,0.938-2.218,1.312-3.469
		c-0.501,0.063-1.345,0.157-2.531,0.281c-0.501,0.063-0.876,0.126-1.125,0.188c-0.126,0-0.188-0.031-0.188-0.094
		c-0.062-0.125-0.032-0.188,0.094-0.188C133.719,10.126,136.156,9.125,137.281,8.312z M135.781,18.906l2.625,0.938
		c0.125,0.062,0.125,0.156,0,0.281l-0.469,0.562v7.5c-0.25,0.875-0.75,1.625-1.5,2.25c-0.375,0.312-0.625,0.312-0.75,0l0.094-4.312
		v-4.594V18.906z M136.062,15.156c0.875,1.5,3.031,2.781,6.469,3.844c0.125,0,0.188,0.032,0.188,0.094
		c0,0.126-0.032,0.188-0.094,0.188c-0.812,0.126-1.656,0.625-2.531,1.5c-2.062-1.312-3.469-3.155-4.219-5.531L136.062,15.156z"/>
	<path d="M143.562,17.219c-0.126,0.062-0.22,0.094-0.281,0.094c-0.062-0.062-0.062-0.155,0-0.281
		c3.188-2.438,5.844-5.531,7.969-9.281l1.875,1.219c0.125,0.063,0.094,0.157-0.094,0.281l-0.375,0.281
		c-0.126,0.126-0.281,0.313-0.469,0.562c-0.625,0.75-1.125,1.282-1.5,1.594v3.469c-0.062,0.625-0.469,1.312-1.219,2.062
		c-0.313,0.25-0.501,0.25-0.562,0l0.188-3.094v-0.938C147.28,14.562,145.438,15.906,143.562,17.219z M156.406,20.781
		c0.062,0.062,0.062,0.126,0,0.188l-0.281,0.469c-0.062,2.938-0.844,5.001-2.344,6.188c-1.312,1.187-4.375,2.344-9.188,3.469
		c-0.188-0.062-0.188-0.188,0-0.375c4.062-1.312,6.594-2.47,7.594-3.469c1.187-1.062,1.812-3,1.875-5.812l-0.094-1.688
		L156.406,20.781z M161.281,19.375v3.75c-0.126,1.063-0.75,2.031-1.875,2.906c-0.313,0.313-0.531,0.281-0.656-0.094v-6.375
		c0.062-0.624-0.22-0.938-0.844-0.938l-7.031,0.188v5.719c-0.062,0.688-0.531,1.532-1.406,2.531
		c-0.313,0.188-0.501,0.126-0.562-0.188l0.094-4.5v-2.719l-0.094-2.156l1.969,0.844l7.5-0.094l0.938-1.219l2.344,1.406
		c0.062,0.062,0.094,0.156,0.094,0.281L161.281,19.375z M155.188,7.844l2.25,1.031c0.125,0.063,0.125,0.157,0,0.281l-0.281,0.469
		c0.188,0.876,0.5,1.688,0.938,2.438l4.219-0.375l1.125-1.312l1.688,1.312c0.062,0.126,0.031,0.22-0.094,0.281l-6.656,0.562
		c1.187,1.688,2.906,2.938,5.156,3.75c0.375,0.188,0.656,0.126,0.844-0.188l0.938-1.031c0.125-0.188,0.188-0.155,0.188,0.094
		c-0.688,1.188-0.75,1.938-0.188,2.25C165.937,18.095,166,18.625,165.5,19c-0.501,0.25-1.281,0.156-2.344-0.281
		c-3.25-1.438-5.47-3.469-6.656-6.094l-1.594,0.094c-0.25,0.062-0.562,0.094-0.938,0.094c-0.688,0.126-1.219,0.25-1.594,0.375
		l-0.844-0.656l4.781-0.375C155.75,10.97,155.375,9.531,155.188,7.844z M155.938,25.938c3.938,0.75,6.281,1.438,7.031,2.062
		c0.249,0.562,0.188,1.28-0.188,2.156c-0.25,0.562-0.719,0.53-1.406-0.094c-1.438-1.626-3.281-2.906-5.531-3.844
		C155.718,26.031,155.75,25.938,155.938,25.938z M159.406,8.5c1.5,0.313,2.25,0.719,2.25,1.219c0.062,0.438-0.22,0.813-0.844,1.125
		c-0.313,0.063-0.501-0.031-0.562-0.281c-0.126-0.875-0.438-1.531-0.938-1.969C159.25,8.469,159.28,8.438,159.406,8.5z"/>
	<path d="M170.938,20.594c-0.812,0.062-1.562,0.156-2.25,0.281l-0.656-0.562l10.219-0.75l1.219-1.125l1.312,1.312
		c0.125,0.062,0.125,0.156,0,0.281l-5.156,0.281l-0.094,6.75c0.062,1.562-0.719,2.687-2.344,3.375c-0.188,0-0.281-0.062-0.281-0.188
		c-0.062-0.625-0.281-1.094-0.656-1.406l-0.094-0.094c-0.188-0.188-0.188-0.313,0-0.375c1.125,0.125,1.625-0.032,1.5-0.469v-4.781
		c-1.5,1.938-3.501,3.719-6,5.344c-0.313,0.125-0.375,0.062-0.188-0.188c2.25-2.312,4.156-4.906,5.719-7.781L170.938,20.594z
		 M173.375,7.844l2.25,0.938c0.062,0,0.094,0.094,0.094,0.281l-0.281,0.562l-0.094,1.5l2.062-0.094L178.438,10l1.312,1.219
		c0.062,0.126,0.031,0.188-0.094,0.188l-4.312,0.281v2.438l1.125-0.094l0.938-0.938l1.312,1.125
		c0.125,0.126,0.094,0.188-0.094,0.188l-4.875,0.281c-1.312,0.062-2.282,0.188-2.906,0.375l-0.656-0.562l3.188-0.281v-2.438h-1.031
		c-0.688,0.062-1.469,0.156-2.344,0.281c-0.25,0.062-0.438,0.094-0.562,0.094l-0.656-0.656l4.594-0.188V7.844z M173,17.5
		c-0.188,0-0.438,0.032-0.75,0.094c-0.75,0-1.251,0.062-1.5,0.188l-0.656-0.562l6.469-0.469l0.938-1.031l1.219,1.125
		c0.125,0.062,0.125,0.156,0,0.281L173,17.5z M176.469,21.719c2,0.688,3.188,1.312,3.562,1.875c0.188,0.375-0.032,0.906-0.656,1.594
		c-0.438,0.375-0.782,0.281-1.031-0.281c-0.438-1.125-1.094-2.124-1.969-3C176.312,21.781,176.343,21.719,176.469,21.719z
		 M177.125,31.188c-0.126,0.062-0.22,0.094-0.281,0.094c-0.062-0.062-0.062-0.156,0-0.281c2.312-2.001,3.905-4.125,4.781-6.375
		c0.875-2,1.28-4.937,1.219-8.812l2.438,1.031c0.125,0.062,0.125,0.156,0,0.281L185,17.312c0.249,4.75,2.03,8.688,5.344,11.812
		c0.062,0.062,0.094,0.125,0.094,0.188c-0.062,0.125-0.126,0.155-0.188,0.094c-0.625,0-1.438,0.281-2.438,0.844
		c-2.062-2.062-3.062-6.343-3-12.844l-0.094,0.094C184.719,23,182.188,27.563,177.125,31.188z M186.781,12.906l0.844-0.75
		l2.156,1.688c0.188,0.25,0.125,0.407-0.188,0.469c-0.938,0.126-1.938,0.625-3,1.5l-0.188,0.094
		c-0.062-0.062-0.094-0.125-0.094-0.188l0.562-2.25l-4.594,0.281c-0.75,1.063-1.626,2.156-2.625,3.281
		c-0.188,0.126-0.25,0.062-0.188-0.188c1.625-2.812,2.75-5.78,3.375-8.906c0-0.125,0.031-0.155,0.094-0.094l2.156,0.938
		c0.249,0.126,0.281,0.281,0.094,0.469c-0.75,1.312-1.562,2.625-2.438,3.938L186.781,12.906z"/>
	<path d="M199.25,16.938c-1,0.062-1.875,0.156-2.625,0.281l-0.656-0.656l11.438-0.469l1.406-1.406l1.688,1.594
		c0.188,0.126,0.155,0.188-0.094,0.188l-6.375,0.281l-0.188,10.688c2.124,0.188,5.625,0,10.5-0.562
		c0.125-0.062,0.188-0.031,0.188,0.094c0.062,0.126,0.031,0.22-0.094,0.281c-1.125,0.188-1.969,1.031-2.531,2.531
		c-1.438,0.062-3.126,0.062-5.062,0c-2.001-0.126-3.407-0.281-4.219-0.469c-1.75-0.313-3.313-1.969-4.688-4.969
		c-0.501,2.188-2.531,4.438-6.094,6.75c-0.188,0-0.25-0.094-0.188-0.281c3.375-2.001,5.124-5.656,5.25-10.969l1.875,0.844
		c0.125,0,0.125,0.126,0,0.375l-0.188,0.375c-0.126,0.876-0.281,1.688-0.469,2.438c0.999,1.75,2.25,2.845,3.75,3.281V16.844
		L199.25,16.938z M194.375,16.562c-0.688,0.062-1.031-0.53-1.031-1.781c1.374-0.812,2.188-2.124,2.438-3.938
		c0-0.125,0.062-0.188,0.188-0.188c0.062,0,0.125,0.063,0.188,0.188c0,0.313,0.031,0.625,0.094,0.938l5.438-0.188l-0.094-3.281
		c0-0.188,0.062-0.249,0.188-0.188l2.625,0.75c0.188,0,0.219,0.126,0.094,0.375c-0.25,0.188-0.375,0.532-0.375,1.031V11.5
		l5.625-0.188l1.125-1.031l2.438,2.062c0.188,0.188,0.125,0.344-0.188,0.469c-1.312,0.313-2.531,0.782-3.656,1.406
		c-0.126,0.062-0.22,0.062-0.281,0c-0.062-0.062-0.062-0.125,0-0.188l0.656-2.25l-13.594,0.562
		C196.312,14.281,195.688,15.688,194.375,16.562z M209.75,19.094l0.938,1.688l0.094,0.188c-0.062,0.062-0.126,0.094-0.188,0.094
		c-0.75,0.126-2.001,0.313-3.75,0.562c-0.812,0.126-1.438,0.22-1.875,0.281c-0.188-0.062-0.22-0.155-0.094-0.281
		C206.875,20.938,208.499,20.094,209.75,19.094z"/>
	<path d="M220.719,10c0.688,5.001,2.625,8.812,5.812,11.438c2.124-3.375,3.594-7.719,4.406-13.031l2.906,1.031
		c0.188,0.126,0.219,0.281,0.094,0.469l-0.562,0.656c-1.188,5.062-2.969,9.094-5.344,12.094c2.438,1.875,5.78,3.75,10.031,5.625
		c0.125,0.125,0.155,0.249,0.094,0.375c0,0.062-0.094,0.094-0.281,0.094c-0.938-0.062-2.031,0.562-3.281,1.875
		c-3.501-1.938-6.281-3.969-8.344-6.094c-2.25,2.312-5.781,4.5-10.594,6.562c-0.188,0-0.22-0.126-0.094-0.375
		c4.187-2.062,7.406-4.531,9.656-7.406c-2.625-3.188-4.251-7.625-4.875-13.312H220.719z M224.281,8.312
		c2.188,0.876,3.188,1.657,3,2.344c0,0.813-0.469,1.438-1.406,1.875c-0.501,0.126-0.782-0.094-0.844-0.656
		c-0.126-1.562-0.438-2.687-0.938-3.375C223.968,8.251,224.031,8.188,224.281,8.312z"/>
</g>
</svg>
