<?xml version="1.0" encoding="utf-8"?>
<!-- Generator: Adobe Illustrator 22.0.1, SVG Export Plug-In . SVG Version: 6.00 Build 0)  -->
<svg version="1.1" id="图层_1" xmlns="http://www.w3.org/2000/svg" xmlns:xlink="http://www.w3.org/1999/xlink" x="0px" y="0px"
	 viewBox="0 0 356 100" style="enable-background:new 0 0 356 100;" xml:space="preserve">
<g>
	<path d="M18.4,20.5c0-0.3,0.1-0.4,0.3-0.3l3.9,1.8l6.4-0.2l0.3-5.1l4.9,1.1c0.3,0,0.4,0.2,0.2,0.5c-0.5,0.4-0.9,1.6-1,3.4l6.1-0.2
		l1.8-2l3.4,2.1c0.3,0.1,0.3,0.3,0,0.7l-0.8,1.1v3.8l0.3,0.7c0.1,0.2,0,0.3-0.3,0.3c-1.4-0.1-4.1-0.2-8-0.2l-14.1,0.3v3.9
		c0.2,8.5-4.4,16.1-13.9,22.6c-0.2,0-0.3-0.1-0.3-0.2c0-0.2,0.1-0.4,0.3-0.5c4.2-3.6,7-7.2,8.5-10.7c1.5-3.4,2.3-7.9,2.3-13.5V25
		L18.4,20.5z M39.4,38.4l3.3,2.1c0.2,0.1,0.2,0.2,0,0.3l-1,1.1l-0.3,6.4c-0.3,3.4-2.2,5.8-5.7,7.4c-0.2,0.1-0.3,0-0.3-0.3
		c0.3-1.4,0.1-2.4-0.8-3c-0.3-0.1-0.3-0.2,0-0.3c1.9,0.2,2.8-0.5,3-2.3l0.5-8.9l-6.6,0.3l-0.2,1c-0.2,5.6-5.2,10.4-14.9,14.4
		c-0.2,0.1-0.4,0.1-0.5-0.2c-0.1-0.1-0.1-0.2,0.2-0.3c8.5-3.8,12.6-9.7,12.3-17.6v-3h-0.7c-1.6,0-3,0.2-4.1,0.5l-1.5-1.3l19.4-0.5
		l2-2.1l2.5,2.5c0.1,0.1,0.2,0.2,0.3,0.3c-0.1,0.1-0.2,0.2-0.3,0.2l-16.1,0.5l2.1,0.8c0.3,0.1,0.3,0.3,0,0.7l-0.2,1l-0.3,2.1
		l6.6-0.2L39.4,38.4z M21.8,23v4.8l17.9-0.5l0.2-4.8L21.8,23z M30.9,28.9c2.7,1.1,4.2,2.1,4.3,3.1c-0.2,1.2-1,2-2.3,2.3
		c-0.7,0.1-1-0.1-1.1-0.7c0-2-0.4-3.4-1.1-4.4C30.4,28.9,30.5,28.8,30.9,28.9z"/>
	<path d="M77,24.6l4.1,2.1c0.2,0.1,0.2,0.3,0,0.5l-0.8,1l-2.5,4.1l4.1-0.2l2.3-2.5l3.1,2.6c0.2,0.3,0.2,0.5-0.2,0.5l-24.4,0.7v5.1
		c0.7,7.2-3.7,13.6-13,19.2c-0.2,0-0.3-0.1-0.3-0.3c-0.1-0.1-0.1-0.2,0.2-0.3c3.8-3,6.3-5.6,7.4-8c1.3-2.5,2-6.6,2-12.1v-1l-0.3-4.9
		c0-0.3,0.1-0.4,0.3-0.3l3.9,2l3.1-0.2l-0.2-4.3c0-0.3-0.1-0.8-0.2-1.3c0-0.3,0-0.5,0-0.7s0.1-0.3,0.3-0.2l3.1,1.3
		c0.3,0.1,0.4,0.3,0.3,0.5l-0.2,4.6l5.4-0.2L77,24.6z M61.7,23.8c-2,0-3.6,0.2-4.8,0.5L55.8,23l13.9-0.2l0.2-5.6l4.8,1
		c0.3,0,0.3,0.3,0,0.8l-0.5,1L74,22.8l9.2-0.2l2.1-2.1l2.6,2.5c0.2,0.1,0.2,0.2,0,0.3L61.7,23.8z"/>
	<path d="M100.3,17.2l3.8,1.5l0.3,0.2l-0.3,0.3l-0.7,1.3v6.2h0.7l1.8-2.1l2.6,2.3c0.1,0.2,0.1,0.4-0.2,0.5l-4.9,0.3l-0.2,7.1
		c0.4-0.2,1.1-0.5,2-0.8c0.9-0.4,1.5-0.7,2-0.8c0.3,0,0.4,0.1,0.2,0.3c-0.5,0.4-1.4,1-2.5,1.8c-0.8,0.4-1.3,0.8-1.6,1.1v4.9l0.2,8
		c0.2,2.8-1.3,5.2-4.4,7.2c-0.3,0.1-0.5,0.1-0.7,0c-0.1,0-0.1-0.2,0-0.5c0.1-1.3-0.3-2.3-1.3-3c-0.2-0.3-0.2-0.5,0.2-0.7
		c2,0.3,2.8-0.2,2.6-1.5l0.2-12.1c-2.2,1.6-3.8,3-4.8,4.1c-0.2,0.2-0.4,0.2-0.5-0.2l-1.5-4.3c0-0.2,0.1-0.3,0.2-0.3
		c1.9-0.4,4-1.1,6.6-2.1v-8h-1.3c-1.9,0.1-3.3,0.3-4.3,0.7l-1.3-1.3l6.9-0.5v-1.3c0.1-1.7,0.1-3.9,0-6.4c0-0.8,0-1.3,0-1.6
		C99.8,17.2,99.9,17.1,100.3,17.2z M112.2,23l-0.3,11.2l6.1-0.3c-0.1-0.4-0.2-1.1-0.2-2c-0.1-0.9-0.2-1.5-0.2-2
		c-0.1-2.4-0.2-4.9-0.2-7.5c-1.5,0.1-3,0.3-4.3,0.7v-0.5c5.7-1.9,9.3-3.4,10.8-4.8l2.6,3.3c0.2,0.3,0.1,0.5-0.3,0.7
		c-2.2,0-4.9,0.2-8,0.5l3.1,1.5c0.2,0.1,0.2,0.3,0,0.7l-0.8,1c0.2,3.3,0.4,6.1,0.5,8.5l2.8-0.2l2.1-2.5l3,2.8c0.2,0.1,0.2,0.3,0,0.5
		l-7.7,0.3c0.8,8,3,13.2,6.7,15.8l0.2,0.2c0.4,0.2,0.8,0.2,1.1-0.2l1.1-1.1c0.1-0.1,0.3-0.2,0.5-0.2c0.1,0.1,0.1,0.3,0,0.5
		c-0.8,1.3-0.7,2.8,0.2,4.4c0.3,0.9,0.2,1.5-0.5,2c-0.7,0.3-1.5,0.2-2.6-0.3c-5.6-3.2-8.9-10.2-9.8-21l-6.2,0.3l-0.3,12.3l6.2-3.9
		c0.3-0.2,0.4-0.1,0.3,0.3l-6.2,6.4c-1.6,1.5-2.6,2.6-3,3.3c-0.2,0.3-0.5,0.4-0.8,0.3l-2.8-1.8c-0.1,0-0.1-0.1,0-0.3l3.6-2.5
		l-0.2-21.3l-0.3-7.5c0.1-0.4,0.3-0.5,0.7-0.2L112.2,23z M115,48.1c3.1,1,4.9,2.1,5.4,3.4c0,1.1-0.5,2-1.6,2.6
		c-1,0.7-1.5,0.4-1.6-0.7c-0.4-2.2-1.3-3.9-2.5-5.1C114.6,48.1,114.7,48,115,48.1z"/>
	<path d="M141.9,17.1l3.4,1.3c0.3,0.1,0.4,0.3,0.2,0.5l-0.7,1.3v5.7h1l1.6-2l2.3,2c0.2,0.3,0.2,0.5-0.2,0.5l-4.9,0.3v7.4
		c0.2-0.1,0.5-0.3,1-0.5c0.9-0.3,2.1-0.9,3.6-1.6c0.2,0.1,0.3,0.3,0.2,0.5c-0.2,0.1-0.5,0.3-0.8,0.7c-1.3,0.9-2.6,1.9-3.9,3
		l-0.2,7.4l0.2,5.7c0,2.7-1.5,5.1-4.4,7.1c-0.2,0.2-0.4,0.3-0.7,0.2c-0.1-0.1-0.1-0.3,0-0.7c0-1.2-0.4-2.2-1.1-3
		c-0.2-0.1-0.3-0.2-0.2-0.3c0-0.2,0.1-0.3,0.3-0.2c2.1,0,3-0.5,2.6-1.5l0.2-12.3c-2,1.6-3.3,2.8-4.1,3.6c-0.2,0.2-0.3,0.3-0.3,0.2
		c0,0.1-0.1,0.1-0.2-0.2l-1.3-4.3c0-0.2,0.1-0.3,0.3-0.3c1.2-0.3,3.1-1,5.6-2.1l0.2-8.5l-5.2,0.3c-0.3,0.1-0.5,0.1-0.7-0.2
		c0-0.2,0.1-0.4,0.3-0.7l5.6-0.3v-0.7c0-1.4-0.1-3.3-0.2-5.6c0-1.2,0-2,0-2.5V17C141.6,16.9,141.7,16.9,141.9,17.1z M166.5,20.5
		l1.5-2l3.4,2.1c0.3,0,0.3,0.1,0,0.3l-0.8,1.1v6.9l0.2,5.6c0,1.9-0.7,3.4-2,4.8c-0.4,0.7-0.9,0.5-1.3-0.3c-0.2-0.5-0.7-1.3-1.5-2.1
		l-4.4,0.2v7.4l0.2,6.7c-0.2,2.2-1.2,4-3,5.6c-0.7,0.2-1,0-1-0.7l0.3-12.6v-6.2l-4.6,0.2c-0.3,1.5-1.1,2.7-2.5,3.6
		c-0.3,0.2-0.6,0.2-0.8-0.2l0.2-6.9l0.2-9.5l-0.2-5.6l3.3,2L166.5,20.5z M153.6,21.5v6.9l4.6-0.2l-0.2-6.7L153.6,21.5L153.6,21.5z
		 M153.6,29.2v7.4l4.6-0.2V29L153.6,29.2z M165.2,28c0.2,0,0.3,0.1,0.3,0.3c0,0.2-0.1,0.4-0.3,0.5l-3.4,0.2l-0.2,7.2l4.9-0.2
		l0.2-14.8l-7.5,0.2l3,1.1c0.1,0,0.2,0.1,0.2,0.3l-0.5,1.3V28H165.2z"/>
	<path d="M176.1,33.1c-0.2,0.1-0.4,0.2-0.5,0.2c-0.1-0.1-0.1-0.3,0-0.5c5.6-4.3,10.2-9.7,13.9-16.2l3.3,2.1c0.2,0.1,0.2,0.3-0.2,0.5
		l-0.7,0.5c-0.2,0.2-0.5,0.5-0.8,1c-1.1,1.3-2,2.2-2.6,2.8v6.1c-0.1,1.1-0.8,2.3-2.1,3.6c-0.5,0.4-0.9,0.4-1,0l0.3-5.4v-1.6
		C182.6,28.5,179.3,30.8,176.1,33.1z M198.5,39.4c0.1,0.1,0.1,0.2,0,0.3l-0.5,0.8c-0.1,5.1-1.5,8.8-4.1,10.8
		c-2.3,2.1-7.7,4.1-16.1,6.1c-0.3-0.1-0.3-0.3,0-0.7c7.1-2.3,11.5-4.3,13.3-6.1c2.1-1.9,3.2-5.2,3.3-10.2l-0.2-3L198.5,39.4z
		 M207.1,36.9v6.6c-0.2,1.9-1.3,3.6-3.3,5.1c-0.5,0.5-0.9,0.5-1.1-0.2V37.2c0.1-1.1-0.4-1.6-1.5-1.6l-12.3,0.3v10
		c-0.1,1.2-0.9,2.7-2.5,4.4c-0.5,0.3-0.9,0.2-1-0.3l0.2-7.9v-4.8l-0.2-3.8l3.4,1.5l13.1-0.2l1.6-2.1l4.1,2.5
		c0.1,0.1,0.2,0.3,0.2,0.5L207.1,36.9z M196.4,16.7l3.9,1.8c0.2,0.1,0.2,0.3,0,0.5l-0.5,0.8c0.3,1.5,0.9,3,1.6,4.3l7.4-0.7l2-2.3
		l3,2.3c0.1,0.2,0.1,0.4-0.2,0.5l-11.6,1c2.1,3,5.1,5.1,9,6.6c0.7,0.3,1.1,0.2,1.5-0.3l1.6-1.8c0.2-0.3,0.3-0.3,0.3,0.2
		c-1.2,2.1-1.3,3.4-0.3,3.9c1.1,1.2,1.2,2.1,0.3,2.8c-0.9,0.4-2.2,0.3-4.1-0.5c-5.7-2.5-9.6-6.1-11.6-10.7l-2.8,0.2
		c-0.4,0.1-1,0.2-1.6,0.2c-1.2,0.2-2.1,0.4-2.8,0.7l-1.5-1.1l8.4-0.7C197.4,22.2,196.7,19.7,196.4,16.7z M197.7,48.4
		c6.9,1.3,11,2.5,12.3,3.6c0.4,1,0.3,2.2-0.3,3.8c-0.4,1-1.3,0.9-2.5-0.2c-2.5-2.8-5.7-5.1-9.7-6.7
		C197.3,48.6,197.4,48.4,197.7,48.4z M203.8,17.9c2.6,0.5,3.9,1.3,3.9,2.1c0.1,0.8-0.4,1.4-1.5,2c-0.5,0.1-0.9-0.1-1-0.5
		c-0.2-1.5-0.8-2.7-1.6-3.4C203.5,17.8,203.6,17.8,203.8,17.9z"/>
	<path d="M224,39c-1.4,0.1-2.7,0.3-3.9,0.5l-1.1-1l17.9-1.3l2.1-2l2.3,2.3c0.2,0.1,0.2,0.3,0,0.5l-9,0.5l-0.2,11.8
		c0.1,2.7-1.3,4.7-4.1,5.9c-0.3,0-0.5-0.1-0.5-0.3c-0.1-1.1-0.5-1.9-1.1-2.5l-0.2-0.2c-0.3-0.3-0.3-0.5,0-0.7c2,0.2,2.8-0.1,2.6-0.8
		v-8.4c-2.6,3.4-6.1,6.5-10.5,9.4c-0.5,0.2-0.7,0.1-0.3-0.3c3.9-4,7.3-8.6,10-13.6L224,39z M228.2,16.7l3.9,1.6
		c0.1,0,0.2,0.2,0.2,0.5l-0.5,1l-0.2,2.6l3.6-0.2l1.8-1.8l2.3,2.1c0.1,0.2,0.1,0.3-0.2,0.3l-7.5,0.5v4.3l2-0.2l1.6-1.6l2.3,2
		c0.2,0.2,0.2,0.3-0.2,0.3l-8.5,0.5c-2.3,0.1-4,0.3-5.1,0.7l-1.1-1l5.6-0.5v-4.3h-1.8c-1.2,0.1-2.6,0.3-4.1,0.5
		c-0.4,0.1-0.8,0.2-1,0.2l-1.1-1.1l8-0.3V16.7z M227.6,33.6c-0.3,0-0.8,0.1-1.3,0.2c-1.3,0-2.2,0.1-2.6,0.3l-1.1-1l11.3-0.8l1.6-1.8
		l2.1,2c0.2,0.1,0.2,0.3,0,0.5L227.6,33.6z M233.7,41c3.5,1.2,5.6,2.3,6.2,3.3c0.3,0.7-0.1,1.6-1.1,2.8c-0.8,0.7-1.4,0.5-1.8-0.5
		c-0.8-2-1.9-3.7-3.4-5.2C233.4,41.1,233.4,41,233.7,41z M234.8,57.6c-0.2,0.1-0.4,0.2-0.5,0.2c-0.1-0.1-0.1-0.3,0-0.5
		c4-3.5,6.8-7.2,8.4-11.2c1.5-3.5,2.2-8.6,2.1-15.4l4.3,1.8c0.2,0.1,0.2,0.3,0,0.5l-0.5,0.3c0.4,8.3,3.6,15.2,9.4,20.7
		c0.1,0.1,0.2,0.2,0.2,0.3c-0.1,0.2-0.2,0.3-0.3,0.2c-1.1,0-2.5,0.5-4.3,1.5c-3.6-3.6-5.4-11.1-5.2-22.5l-0.2,0.2
		C248.1,43.3,243.7,51.2,234.8,57.6z M251.7,25.6l1.5-1.3l3.8,3c0.3,0.4,0.2,0.7-0.3,0.8c-1.6,0.2-3.4,1.1-5.2,2.6l-0.3,0.2
		c-0.1-0.1-0.2-0.2-0.2-0.3l1-3.9l-8,0.5c-1.3,1.9-2.8,3.8-4.6,5.7c-0.3,0.2-0.4,0.1-0.3-0.3c2.8-4.9,4.8-10.1,5.9-15.6
		c0-0.2,0.1-0.3,0.2-0.2l3.8,1.6c0.4,0.2,0.5,0.5,0.2,0.8c-1.3,2.3-2.7,4.6-4.3,6.9L251.7,25.6z"/>
	<path d="M273.5,32.6c-1.8,0.1-3.3,0.3-4.6,0.5l-1.1-1.1l20-0.8l2.5-2.5l3,2.8c0.3,0.2,0.3,0.3-0.2,0.3l-11.2,0.5L281.6,51
		c3.7,0.3,9.8,0,18.4-1c0.2-0.1,0.3-0.1,0.3,0.2c0.1,0.2,0.1,0.4-0.2,0.5c-2,0.3-3.4,1.8-4.4,4.4c-2.5,0.1-5.5,0.1-8.9,0
		c-3.5-0.2-6-0.5-7.4-0.8c-3.1-0.5-5.8-3.4-8.2-8.7c-0.9,3.8-4.4,7.8-10.7,11.8c-0.3,0-0.4-0.2-0.3-0.5c5.9-3.5,9-9.9,9.2-19.2
		l3.3,1.5c0.2,0,0.2,0.2,0,0.7l-0.3,0.7c-0.2,1.5-0.5,3-0.8,4.3c1.7,3.1,3.9,5,6.6,5.7v-18H273.5z M265,32c-1.2,0.1-1.8-0.9-1.8-3.1
		c2.4-1.4,3.8-3.7,4.3-6.9c0-0.2,0.1-0.3,0.3-0.3c0.1,0,0.2,0.1,0.3,0.3c0,0.5,0.1,1.1,0.2,1.6l9.5-0.3l-0.2-5.7
		c0-0.3,0.1-0.4,0.3-0.3l4.6,1.3c0.3,0,0.4,0.2,0.2,0.7c-0.4,0.3-0.7,0.9-0.7,1.8v2.1l9.8-0.3l2-1.8l4.3,3.6
		c0.3,0.3,0.2,0.6-0.3,0.8c-2.3,0.5-4.4,1.4-6.4,2.5c-0.2,0.1-0.4,0.1-0.5,0s-0.1-0.2,0-0.3l1.1-3.9l-23.8,1
		C268.4,28,267.3,30.5,265,32z M291.9,36.4l1.6,3l0.2,0.3c-0.1,0.1-0.2,0.2-0.3,0.2c-1.3,0.2-3.5,0.5-6.6,1
		c-1.4,0.2-2.5,0.4-3.3,0.5c-0.3-0.1-0.4-0.3-0.2-0.5C286.9,39.6,289.7,38.2,291.9,36.4z"/>
	<path d="M311.1,20.5c1.2,8.8,4.6,15.4,10.2,20c3.7-5.9,6.3-13.5,7.7-22.8l5.1,1.8c0.3,0.2,0.4,0.5,0.2,0.8l-1,1.1
		c-2.1,8.9-5.2,15.9-9.4,21.2c4.3,3.3,10.1,6.6,17.6,9.8c0.2,0.2,0.3,0.4,0.2,0.7c0,0.1-0.2,0.2-0.5,0.2c-1.6-0.1-3.6,1-5.7,3.3
		c-6.1-3.4-11-6.9-14.6-10.7c-3.9,4-10.1,7.9-18.5,11.5c-0.3,0-0.4-0.2-0.2-0.7c7.3-3.6,13-7.9,16.9-13c-4.6-5.6-7.4-13.3-8.5-23.3
		h0.5V20.5z M317.3,17.5c3.8,1.5,5.6,2.9,5.2,4.1c0,1.4-0.8,2.5-2.5,3.3c-0.9,0.2-1.4-0.2-1.5-1.1c-0.2-2.7-0.8-4.7-1.6-5.9
		C316.8,17.4,316.9,17.3,317.3,17.5z"/>
</g>
<g>
	<path d="M98.8,82.7h2.2V69h-2.2v-0.3h6.4V69H103v13.7h3.6c1.2,0,2.1-0.4,2.8-1.1s1.2-1.7,1.5-3h0.2V83H98.9L98.8,82.7L98.8,82.7z"
		/>
	<path d="M112.8,78.7c0-0.7,0.1-1.3,0.4-1.8c0.3-0.6,0.7-1,1.1-1.5c0.4-0.4,0.9-0.7,1.5-1c0.6-0.2,1.1-0.3,1.6-0.3s1.1,0.1,1.6,0.3
		s1.1,0.5,1.5,1s0.8,0.9,1.1,1.5s0.4,1.2,0.4,1.8c0,0.6-0.1,1.2-0.4,1.8s-0.6,1-1,1.4s-0.9,0.7-1.5,1c-0.6,0.2-1.1,0.4-1.7,0.4
		c-0.6,0-1.2-0.1-1.7-0.4s-1.1-0.6-1.5-1s-0.8-0.9-1.1-1.4S112.8,79.3,112.8,78.7z M114.8,78.7c0,0.9,0.1,1.7,0.2,2.3
		c0.1,0.6,0.3,1,0.6,1.3c0.2,0.3,0.5,0.5,0.8,0.6s0.7,0.1,1,0.1s0.7,0,1-0.1s0.6-0.3,0.8-0.6c0.2-0.3,0.4-0.7,0.6-1.3
		c0.1-0.6,0.2-1.3,0.2-2.3c0-0.8-0.1-1.5-0.2-2c-0.1-0.5-0.3-1-0.5-1.3s-0.5-0.6-0.8-0.7s-0.7-0.2-1.2-0.2s-0.8,0.1-1.2,0.2
		c-0.3,0.1-0.6,0.4-0.8,0.7c-0.2,0.3-0.4,0.8-0.5,1.3C114.9,77.2,114.8,77.9,114.8,78.7z"/>
	<path d="M132.6,82.8c-0.2,0.1-0.4,0.2-0.6,0.4c-0.2,0.1-0.5,0.1-0.9,0.1c-0.6,0-1.1-0.1-1.4-0.4c-0.3-0.3-0.5-0.7-0.6-1.1l0,0
		c-0.1,0.1-0.1,0.3-0.2,0.4s-0.2,0.4-0.4,0.5c-0.2,0.2-0.5,0.3-0.8,0.4s-0.7,0.2-1.2,0.2c-0.6,0-1-0.1-1.3-0.2s-0.6-0.3-0.8-0.5
		s-0.3-0.4-0.4-0.6s-0.1-0.5-0.1-0.7c0-0.5,0.1-0.8,0.3-1.1c0.2-0.3,0.4-0.5,0.7-0.7s0.6-0.3,1-0.4s0.7-0.2,1.1-0.3
		c0.4-0.1,0.8-0.3,1.1-0.4s0.5-0.2,0.7-0.4c0.2-0.2,0.3-0.3,0.3-0.6c0.1-0.2,0.1-0.5,0.1-1c0-0.3,0-0.6-0.1-0.9
		c0-0.3-0.1-0.5-0.2-0.7s-0.3-0.3-0.5-0.4s-0.5-0.1-0.8-0.1c-0.4,0-0.8,0.1-1.1,0.2c-0.3,0.2-0.4,0.4-0.4,0.8c0,0.2,0,0.5,0.1,0.7
		c0,0.2,0.1,0.4,0.1,0.5c0,0.2-0.1,0.3-0.2,0.5c-0.1,0.1-0.3,0.2-0.6,0.2c-0.4,0-0.7-0.1-0.8-0.2c-0.1-0.2-0.2-0.4-0.2-0.6
		c0-0.3,0.1-0.6,0.2-0.8c0.1-0.3,0.3-0.5,0.6-0.7s0.6-0.4,1-0.5s0.8-0.2,1.4-0.2c0.6,0,1.1,0.1,1.5,0.2c0.4,0.2,0.7,0.4,1,0.6
		c0.3,0.3,0.4,0.6,0.5,0.9s0.2,0.7,0.2,1v5c0,0.4,0.1,0.6,0.2,0.8c0.1,0.1,0.3,0.2,0.5,0.2c0.1,0,0.3,0,0.5-0.1s0.3-0.1,0.5-0.2
		L132.6,82.8z M129.1,78.1L129.1,78.1c-0.1,0.2-0.3,0.3-0.7,0.5l-1.5,0.6c-0.4,0.2-0.8,0.4-1,0.7s-0.3,0.7-0.3,1.2
		c0,0.2,0,0.4,0.1,0.6s0.1,0.4,0.2,0.6c0.1,0.2,0.3,0.3,0.5,0.4s0.4,0.2,0.8,0.2c0.4,0,0.8-0.1,1.1-0.3c0.3-0.2,0.5-0.4,0.6-0.7
		c0.1-0.3,0.2-0.6,0.3-0.9c0-0.3,0.1-0.6,0.1-0.9v-2H129.1z"/>
	<path d="M133.2,82.7h1.5v-8h-1.5v-0.3h3.2v2.1l0,0c0.1-0.2,0.2-0.4,0.4-0.7c0.2-0.3,0.4-0.5,0.6-0.8c0.3-0.3,0.6-0.5,1-0.6
		c0.4-0.2,0.9-0.3,1.5-0.3c0.9,0,1.6,0.2,2.1,0.6c0.6,0.4,0.8,1.1,0.8,2v5.8h1.5v0.3h-4.8v-0.3h1.5V76c0-0.5-0.1-0.9-0.4-1.3
		c-0.2-0.3-0.6-0.5-1.1-0.5c-0.4,0-0.8,0.1-1.2,0.3c-0.4,0.2-0.7,0.4-1,0.8c-0.3,0.3-0.5,0.7-0.7,1.2s-0.2,0.9-0.2,1.5v4.5h1.5v0.3
		h-4.8v-0.1H133.2z"/>
	<path d="M146,80.2h0.2c0.1,0.3,0.2,0.6,0.4,1c0.1,0.3,0.3,0.6,0.6,0.9c0.2,0.3,0.5,0.5,0.9,0.7s0.8,0.3,1.3,0.3
		c0.4,0,0.8-0.1,1.1-0.4s0.5-0.7,0.5-1.3c0-0.5-0.1-0.9-0.4-1.1c-0.3-0.2-0.6-0.4-0.9-0.5l-1.6-0.5c-0.2-0.1-0.4-0.2-0.6-0.2
		s-0.4-0.2-0.6-0.4s-0.4-0.4-0.5-0.7c-0.1-0.3-0.2-0.6-0.2-1.1c0-0.4,0.1-0.7,0.2-1c0.1-0.3,0.3-0.6,0.6-0.8
		c0.3-0.2,0.6-0.4,0.9-0.6c0.4-0.1,0.7-0.2,1.2-0.2c0.3,0,0.5,0,0.7,0.1c0.2,0,0.3,0.1,0.5,0.1s0.3,0.1,0.4,0.1
		c0.1,0,0.2,0.1,0.4,0.1c0.1,0,0.3-0.1,0.3-0.2h0.2v2.3h-0.2c-0.1-0.3-0.2-0.6-0.3-0.9s-0.3-0.5-0.4-0.7c-0.2-0.2-0.4-0.4-0.6-0.5
		s-0.5-0.2-0.9-0.2c-0.6,0-1.1,0.1-1.5,0.4s-0.5,0.7-0.5,1.1s0.1,0.8,0.4,1c0.3,0.2,0.7,0.4,1.3,0.6l1.5,0.5
		c0.6,0.2,1.1,0.5,1.5,0.9s0.6,0.9,0.6,1.5c0,0.4-0.1,0.7-0.2,1.1s-0.3,0.7-0.6,0.9c-0.3,0.3-0.6,0.5-1,0.6
		c-0.4,0.2-0.8,0.2-1.4,0.2c-0.3,0-0.6,0-0.8-0.1s-0.5-0.1-0.7-0.2s-0.4-0.1-0.6-0.2c-0.2-0.1-0.3-0.1-0.5-0.1c-0.1,0-0.3,0-0.3,0.1
		c-0.1,0.1-0.1,0.1-0.2,0.2H146V80.2z"/>
	<path d="M159.6,82.7h2.2V69h-2.2v-0.3h3.7c0.2,0,0.4,0,0.6,0c0.2,0,0.4,0,0.6,0c0.2,0,0.4,0,0.6,0c0.2,0,0.4,0,0.6,0
		c0.4,0,0.8,0,1.1,0s0.6,0,0.9,0.1s0.5,0.1,0.8,0.1c0.2,0.1,0.5,0.1,0.8,0.2c0.8,0.3,1.5,0.6,2.1,1.1c0.6,0.4,1.1,1,1.5,1.5
		c0.4,0.6,0.7,1.2,0.8,1.9c0.2,0.7,0.3,1.4,0.3,2.2c0,0.9-0.1,1.7-0.3,2.4s-0.5,1.3-0.9,1.9c-0.4,0.5-0.8,1-1.3,1.4s-1,0.7-1.6,1
		c-0.3,0.1-0.6,0.3-0.9,0.3c-0.3,0.1-0.6,0.1-0.9,0.2c-0.3,0-0.6,0.1-1,0.1s-0.8,0-1.2,0c-0.2,0-0.4,0-0.6,0c-0.2,0-0.5,0-0.7,0
		s-0.4,0-0.7,0c-0.2,0-0.4,0-0.6,0h-3.4v-0.4H159.6z M163.8,82.7c0.2,0,0.5,0,0.8,0.1c0.3,0,0.6,0,1,0c0.5,0,0.9,0,1.4-0.1
		c0.4,0,0.9-0.1,1.3-0.3c0.4-0.2,0.8-0.4,1.1-0.7c0.4-0.3,0.7-0.7,0.9-1.1c0.4-0.7,0.7-1.5,0.9-2.2c0.2-0.8,0.2-1.6,0.2-2.5
		c0-1.1-0.1-2-0.3-2.9s-0.5-1.6-1-2.2s-1.1-1.1-1.8-1.4c-0.8-0.3-1.7-0.5-2.8-0.5c-0.3,0-0.6,0-0.9,0s-0.5,0-0.8,0L163.8,82.7
		L163.8,82.7z"/>
	<path d="M178.2,78c0,0.1,0,0.3,0,0.4s0,0.3,0,0.5c0,0.4,0,0.9,0.1,1.4s0.2,0.9,0.4,1.3s0.4,0.7,0.8,1c0.4,0.3,0.8,0.4,1.4,0.4
		c0.6,0,1.1-0.1,1.5-0.3c0.4-0.2,0.7-0.4,0.9-0.6s0.4-0.5,0.5-0.8s0.2-0.5,0.2-0.6l0.3,0.1c0,0.1-0.1,0.4-0.2,0.6s-0.3,0.5-0.5,0.8
		s-0.6,0.5-1,0.7s-1,0.3-1.6,0.3c-0.7,0-1.3-0.1-1.9-0.3c-0.6-0.2-1.1-0.5-1.5-0.9s-0.7-0.9-1-1.4c-0.2-0.6-0.3-1.2-0.3-1.8
		c0-0.6,0.1-1.2,0.4-1.7c0.2-0.6,0.6-1,1-1.5s0.9-0.8,1.4-1c0.5-0.3,1.1-0.4,1.8-0.4c0.4,0,0.8,0.1,1.2,0.2s0.8,0.4,1.2,0.7
		c0.4,0.3,0.7,0.7,0.9,1.2s0.4,1.1,0.4,1.8h-6.4V78z M182.3,77.8c0-0.2,0-0.4,0-0.5s0-0.3,0-0.5c0-0.5,0-0.8-0.1-1.1
		c-0.1-0.3-0.2-0.5-0.4-0.7s-0.3-0.3-0.6-0.4c-0.2-0.1-0.5-0.1-0.7-0.1c-0.5,0-0.8,0.1-1.1,0.3c-0.3,0.2-0.5,0.4-0.7,0.7
		c-0.2,0.3-0.3,0.7-0.4,1.1s-0.1,0.8-0.2,1.3L182.3,77.8L182.3,77.8z"/>
	<path d="M185.8,82.7h1.5v-8h-1.5v-0.3h1.5v-1.1c0-0.5,0-0.9,0.1-1.2s0.1-0.6,0.2-0.9s0.2-0.5,0.3-0.7s0.2-0.4,0.4-0.5
		c0.3-0.4,0.8-0.8,1.3-1.1c0.5-0.3,1.1-0.5,1.7-0.5c0.4,0,0.8,0.1,1.1,0.2s0.6,0.3,0.8,0.5s0.3,0.4,0.4,0.6c0.1,0.2,0.1,0.4,0.1,0.6
		c0,0.3-0.1,0.5-0.2,0.7c-0.1,0.2-0.4,0.3-0.7,0.3c-0.2,0-0.4,0-0.6-0.1c-0.2-0.1-0.3-0.3-0.3-0.5s0.1-0.4,0.2-0.6
		c0.1-0.2,0.2-0.4,0.2-0.6c0-0.3-0.1-0.5-0.4-0.6c-0.2-0.1-0.5-0.2-0.7-0.2c-0.5,0-1,0.2-1.4,0.7s-0.6,1.2-0.6,2.2v2.8h2.5v0.3h-2.5
		v8h1.8V83h-5.1L185.8,82.7L185.8,82.7z"/>
	<path d="M192.5,82.7h1.5v-8h-1.5v-0.3h3.3v8.3h1.5V83h-4.8V82.7z M193.8,69.8c0-0.3,0.1-0.5,0.3-0.8c0.2-0.2,0.5-0.3,0.8-0.3
		s0.5,0.1,0.8,0.3c0.2,0.2,0.3,0.5,0.3,0.8s-0.1,0.5-0.3,0.8c-0.2,0.2-0.5,0.3-0.8,0.3s-0.5-0.1-0.8-0.3
		C193.9,70.3,193.8,70.1,193.8,69.8z"/>
	<path d="M198.4,82.7h1.5v-8h-1.5v-0.3h3.2v2.1l0,0c0.1-0.2,0.2-0.4,0.4-0.7c0.2-0.3,0.4-0.5,0.6-0.8c0.3-0.3,0.6-0.5,1-0.6
		c0.4-0.2,0.9-0.3,1.5-0.3c0.9,0,1.6,0.2,2.1,0.6c0.6,0.4,0.8,1.1,0.8,2v5.8h1.5v0.3h-4.8v-0.3h1.5V76c0-0.5-0.1-0.9-0.4-1.3
		c-0.2-0.3-0.6-0.5-1.1-0.5c-0.4,0-0.8,0.1-1.2,0.3c-0.4,0.2-0.7,0.4-1,0.8c-0.3,0.3-0.5,0.7-0.7,1.2s-0.2,0.9-0.2,1.5v4.5h1.5v0.3
		h-4.8v-0.1H198.4z"/>
	<path d="M210.6,82.7h1.5v-8h-1.5v-0.3h3.3v8.3h1.5V83h-4.8V82.7z M211.9,69.8c0-0.3,0.1-0.5,0.3-0.8c0.2-0.2,0.5-0.3,0.8-0.3
		s0.5,0.1,0.8,0.3c0.2,0.2,0.3,0.5,0.3,0.8s-0.1,0.5-0.3,0.8c-0.2,0.2-0.5,0.3-0.8,0.3s-0.5-0.1-0.8-0.3
		C212,70.3,211.9,70.1,211.9,69.8z"/>
	<path d="M216.3,74.4h1.5v-2.6c0.1,0,0.2,0.1,0.3,0.1s0.3,0,0.5,0s0.4,0,0.5-0.1c0.1,0,0.3-0.1,0.4-0.2v2.7h2.8v0.3h-2.8v6.5
		c0,0.4,0,0.7,0.1,0.9c0.1,0.2,0.2,0.4,0.3,0.5s0.2,0.2,0.4,0.2c0.1,0,0.3,0.1,0.4,0.1c0.5,0,0.8-0.2,1.1-0.5s0.5-0.7,0.5-1.2
		l0.3,0.1c0,0.2-0.1,0.4-0.2,0.6s-0.2,0.4-0.4,0.6s-0.4,0.4-0.6,0.5c-0.3,0.1-0.6,0.2-1,0.2c-1,0-1.7-0.2-2.1-0.6
		c-0.4-0.4-0.6-0.9-0.6-1.6v-6.4h-1.5L216.3,74.4L216.3,74.4z"/>
	<path d="M223.2,82.7h1.5v-8h-1.5v-0.3h3.3v8.3h1.5V83h-4.8V82.7z M224.5,69.8c0-0.3,0.1-0.5,0.3-0.8c0.2-0.2,0.5-0.3,0.8-0.3
		s0.5,0.1,0.8,0.3c0.2,0.2,0.3,0.5,0.3,0.8s-0.1,0.5-0.3,0.8c-0.2,0.2-0.5,0.3-0.8,0.3s-0.5-0.1-0.8-0.3
		C224.6,70.3,224.5,70.1,224.5,69.8z"/>
	<path d="M229.5,78.7c0-0.7,0.1-1.3,0.4-1.8c0.3-0.6,0.7-1,1.1-1.5c0.4-0.4,0.9-0.7,1.5-1c0.6-0.2,1.1-0.3,1.6-0.3s1.1,0.1,1.6,0.3
		s1.1,0.5,1.5,1s0.8,0.9,1.1,1.5s0.4,1.2,0.4,1.8c0,0.6-0.1,1.2-0.4,1.8s-0.6,1-1,1.4s-0.9,0.7-1.5,1c-0.6,0.2-1.1,0.4-1.7,0.4
		c-0.6,0-1.2-0.1-1.7-0.4s-1.1-0.6-1.5-1s-0.8-0.9-1.1-1.4S229.5,79.3,229.5,78.7z M231.5,78.7c0,0.9,0.1,1.7,0.2,2.3
		c0.1,0.6,0.3,1,0.6,1.3c0.2,0.3,0.5,0.5,0.8,0.6s0.7,0.1,1,0.1s0.7,0,1-0.1s0.6-0.3,0.8-0.6c0.2-0.3,0.4-0.7,0.6-1.3
		c0.1-0.6,0.2-1.3,0.2-2.3c0-0.8-0.1-1.5-0.2-2c-0.1-0.5-0.3-1-0.5-1.3s-0.5-0.6-0.8-0.7s-0.7-0.2-1.2-0.2s-0.8,0.1-1.2,0.2
		c-0.3,0.1-0.6,0.4-0.8,0.7c-0.2,0.3-0.4,0.8-0.5,1.3C231.5,77.2,231.5,77.9,231.5,78.7z"/>
	<path d="M240.2,82.7h1.5v-8h-1.5v-0.3h3.2v2.1l0,0c0.1-0.2,0.2-0.4,0.4-0.7c0.2-0.3,0.4-0.5,0.6-0.8c0.3-0.3,0.6-0.5,1-0.6
		c0.4-0.2,0.9-0.3,1.5-0.3c0.9,0,1.6,0.2,2.1,0.6c0.6,0.4,0.8,1.1,0.8,2v5.8h1.5v0.3h-4.8v-0.3h1.5V76c0-0.5-0.1-0.9-0.4-1.3
		c-0.2-0.3-0.6-0.5-1.1-0.5c-0.4,0-0.8,0.1-1.2,0.3c-0.4,0.2-0.7,0.4-1,0.8c-0.3,0.3-0.5,0.7-0.7,1.2s-0.2,0.9-0.2,1.5v4.5h1.5v0.3
		h-4.8v-0.1H240.2z"/>
</g>
</svg>
