<?xml version="1.0" encoding="utf-8"?>
<!-- Generator: Adobe Illustrator 22.0.1, SVG Export Plug-In . SVG Version: 6.00 Build 0)  -->
<svg version="1.1" id="图层_1" xmlns="http://www.w3.org/2000/svg" xmlns:xlink="http://www.w3.org/1999/xlink" x="0px" y="0px"
	 viewBox="0 0 310 100" style="enable-background:new 0 0 310 100;" xml:space="preserve">
<g>
	<path d="M40.2,23.9l3.3,3c0.2,0.1,0.2,0.3-0.2,0.7c-1.5,1.8-4.5,4.9-9,9.4c-0.9,0.9-1.5,1.5-2,2l9.7-1c0.4,0,0.5,0.1,0.2,0.3
		c-3.5,1.3-7.2,2.9-11.2,4.8c-0.4,0.3-0.7,0.3-0.8-0.2l-0.8-3.9c0.1,0,0.3,0,0.5,0c0.8-0.1,1.5-0.5,2.1-1.3c1.6-1.9,3.4-4.5,5.2-8
		c-3.7,1.2-6,2-6.7,2.5c-0.2,0.2-0.4,0.3-0.5,0.2c-0.1,0-0.2-0.1-0.2-0.3l-0.7-3.3c0.9,0.1,1.7-0.4,2.5-1.5
		c1.9-2.7,3.5-6.5,4.9-11.3l3.6,2.6c0.3,0.2,0.3,0.5-0.2,0.8c-2.8,3.8-5.4,6.8-7.7,9l5.7-0.2C39.1,26.3,39.9,24.9,40.2,23.9z
		 M44,43.6c0.4-0.1,0.5,0,0.2,0.3l-7.2,4.6c-2.5,1.4-4.2,2.5-5.1,3.3l-0.3,0.3l-0.2-0.3l-1.8-4.3c0.8-0.1,2-0.4,3.8-0.8
		c0.5-0.1,1-0.2,1.3-0.3L44,43.6z M49.4,38.2c-0.3,0-0.8,0.1-1.5,0.2c-1.6,0-2.7,0.1-3.3,0.3l-1.3-1.3l15.3-0.2l2-2l2.5,2.3
		c0.2,0.3,0.2,0.5,0,0.5l-8.4,0.2V51h7.2l2.1-1.8l2.6,2.1c0.2,0.2,0.2,0.4,0,0.5l-22,0.3c-1.8,0-3.3,0.1-4.8,0.3l-1.3-1.1l12-0.2
		l0.2-13H49.4z M43.6,19.5c-0.3,0-0.5-0.1-0.5-0.3c0-0.3,0.1-0.5,0.3-0.5L55.6,18l1.6-2l3.6,2l0.3,0.2c0,0.1-0.1,0.2-0.3,0.3l-1,1.1
		c-2.2,3.1-4.2,5.4-5.9,7.1c4.6,1.3,8,2.7,10.3,4.3c0.8,1.1,0.7,2.5-0.3,4.3c-0.5,1-1.3,0.9-2.1-0.2c-1.9-2.8-4.7-5.4-8.4-7.7
		c-3.2,3-7.7,6.2-13.6,9.8c-0.2,0.1-0.4,0.1-0.5-0.2c0-0.1,0.1-0.2,0.3-0.3c6.5-4.3,11.7-10.2,15.8-17.7L43.6,19.5z"/>
	<path d="M101.2,25.2l2.1-1.3l3.9,4.1c0.4,0.7,0.3,1-0.5,1.1c-2-0.2-3.9,0.4-5.9,1.8c-0.2,0.1-0.4,0.1-0.5,0c-0.1-0.1-0.1-0.2,0-0.3
		l1-4.4l-24.1,0.7c-0.8,3-2,5.1-3.8,6.6c-0.4,0.2-0.8,0.1-1-0.3C72,31.8,71.8,30.8,72,30c1.6-1.4,2.5-3.2,2.6-5.2
		c0-0.3,0.1-0.5,0.2-0.7c0.2-0.1,0.4-0.1,0.7,0.2c0.4,0.2,1,0.8,1.8,1.8L101.2,25.2z M77.9,21c-1.5,0-3,0.1-4.4,0.3L72.3,20h9.5
		l0.2-4.9l4.3,1.5c0.1-0.1,0.2,0,0.2,0.3l-0.7,0.7l-0.3,2.3H92l0.3-4.9l4.6,1.5c0.3,0.1,0.4,0.3,0.2,0.5l-0.8,0.8l-0.7,2h5.9l2-2.3
		l2.8,2.5c0.2,0.2,0.2,0.4,0,0.5l-10.8,0.3l-0.8,2.6c-0.8,1.1-1.5,1.8-2.3,2c-0.3-0.1-0.5-0.3-0.7-0.7l0.3-3.9l-6.6,0.2l-0.2,1.5
		c-0.5,1.4-1.5,2.5-2.8,3.3c-0.4,0.1-0.7,0-0.8-0.3l0.2-4.4L77.9,21z M101.7,51.1c-2.7-0.2-8.9-0.3-18.4-0.3c-1.4,0-2.4,0-2.8,0
		c-0.2,1.4-1.1,2.7-2.6,3.9c-0.4,0.2-0.7,0.1-0.8-0.5l0.2-4.6v-4.8l-0.2-3.6c0-0.3,0.2-0.4,0.5-0.3l3.1,1.6l16.6-0.5l1.5-2l3.8,2
		c0.2,0.1,0.2,0.2,0,0.3l-0.8,1.3V50l0.3,0.7c0.1,0.2,0.1,0.3,0,0.3C102,51.1,101.9,51.1,101.7,51.1z M98.4,38.8
		c-3.1-0.3-8.3-0.5-15.8-0.5c-0.5,1-1.4,1.7-2.5,2.1c-0.3,0.1-0.5,0-0.5-0.3v-2.8v-4.4v-3.4c0-0.3,0.1-0.4,0.3-0.3l3,1.5l11.2-0.2
		l1.6-2l3.4,2c0.2,0,0.2,0.1,0,0.3L98.4,32l0.2,5.4l0.3,1C99,38.7,98.9,38.8,98.4,38.8z M80.5,43.4V50h16.7l-0.2-6.9L80.5,43.4z
		 M82.8,31.6l0.2,5.9l11.5-0.2l-0.3-6.1L82.8,31.6z"/>
	<path d="M111.1,31.1c-0.2,0.1-0.4,0.2-0.5,0.2c-0.1-0.1-0.1-0.3,0-0.5c5.6-4.3,10.2-9.7,13.9-16.2l3.3,2.1c0.2,0.1,0.2,0.3-0.2,0.5
		l-0.7,0.5c-0.2,0.2-0.5,0.5-0.8,1c-1.1,1.3-2,2.2-2.6,2.8v6.1c-0.1,1.1-0.8,2.3-2.1,3.6c-0.5,0.4-0.9,0.4-1,0l0.3-5.4v-1.6
		C117.6,26.5,114.3,28.8,111.1,31.1z M133.5,37.4c0.1,0.1,0.1,0.2,0,0.3l-0.5,0.8c-0.1,5.1-1.5,8.8-4.1,10.8
		c-2.3,2.1-7.7,4.1-16.1,6.1c-0.3-0.1-0.3-0.3,0-0.7c7.1-2.3,11.5-4.3,13.3-6.1c2.1-1.9,3.2-5.2,3.3-10.2l-0.2-3L133.5,37.4z
		 M142.1,34.9v6.6c-0.2,1.9-1.3,3.6-3.3,5.1c-0.5,0.5-0.9,0.5-1.1-0.2V35.2c0.1-1.1-0.4-1.6-1.5-1.6l-12.3,0.3v10
		c-0.1,1.2-0.9,2.7-2.5,4.4c-0.5,0.3-0.9,0.2-1-0.3l0.2-7.9v-4.8l-0.2-3.8l3.4,1.5l13.1-0.2l1.6-2.1l4.1,2.5
		c0.1,0.1,0.2,0.3,0.2,0.5L142.1,34.9z M131.4,14.7l3.9,1.8c0.2,0.1,0.2,0.3,0,0.5l-0.5,0.8c0.3,1.5,0.9,3,1.6,4.3l7.4-0.7l2-2.3
		l3,2.3c0.1,0.2,0.1,0.4-0.2,0.5l-11.6,1c2.1,3,5.1,5.1,9,6.6c0.7,0.3,1.1,0.2,1.5-0.3l1.6-1.8c0.2-0.3,0.3-0.3,0.3,0.2
		c-1.2,2.1-1.3,3.4-0.3,3.9c1.1,1.2,1.2,2.1,0.3,2.8c-0.9,0.4-2.2,0.3-4.1-0.5c-5.7-2.5-9.6-6.1-11.6-10.7l-2.8,0.2
		c-0.4,0.1-1,0.2-1.6,0.2c-1.2,0.2-2.1,0.4-2.8,0.7l-1.5-1.1l8.4-0.7C132.4,20.2,131.7,17.7,131.4,14.7z M132.7,46.4
		c6.9,1.3,11,2.5,12.3,3.6c0.4,1,0.3,2.2-0.3,3.8c-0.4,1-1.3,0.9-2.5-0.2c-2.5-2.8-5.7-5.1-9.7-6.7
		C132.3,46.6,132.4,46.4,132.7,46.4z M138.8,15.9c2.6,0.5,3.9,1.3,3.9,2.1c0.1,0.8-0.4,1.4-1.5,2c-0.5,0.1-0.9-0.1-1-0.5
		c-0.2-1.5-0.8-2.7-1.6-3.4C138.5,15.8,138.6,15.8,138.8,15.9z"/>
	<path d="M159,37c-1.4,0.1-2.7,0.3-3.9,0.5l-1.1-1l17.9-1.3l2.1-2l2.3,2.3c0.2,0.1,0.2,0.3,0,0.5l-9,0.5L167,48.4
		c0.1,2.7-1.3,4.7-4.1,5.9c-0.3,0-0.5-0.1-0.5-0.3c-0.1-1.1-0.5-1.9-1.1-2.5l-0.2-0.2c-0.3-0.3-0.3-0.5,0-0.7c2,0.2,2.8-0.1,2.6-0.8
		v-8.4c-2.6,3.4-6.1,6.5-10.5,9.4c-0.5,0.2-0.7,0.1-0.3-0.3c3.9-4,7.3-8.6,10-13.6L159,37z M163.2,14.7l3.9,1.6
		c0.1,0,0.2,0.2,0.2,0.5l-0.5,1l-0.2,2.6l3.6-0.2l1.8-1.8l2.3,2.1c0.1,0.2,0.1,0.3-0.2,0.3l-7.5,0.5v4.3l2-0.2l1.6-1.6l2.3,2
		c0.2,0.2,0.2,0.3-0.2,0.3l-8.5,0.5c-2.3,0.1-4,0.3-5.1,0.7l-1.1-1l5.6-0.5v-4.3h-1.8c-1.2,0.1-2.6,0.3-4.1,0.5
		c-0.4,0.1-0.8,0.2-1,0.2l-1.1-1.1l8-0.3V14.7z M162.6,31.6c-0.3,0-0.8,0.1-1.3,0.2c-1.3,0-2.2,0.1-2.6,0.3l-1.1-1l11.3-0.8l1.6-1.8
		l2.1,2c0.2,0.1,0.2,0.3,0,0.5L162.6,31.6z M168.7,39c3.5,1.2,5.6,2.3,6.2,3.3c0.3,0.7-0.1,1.6-1.1,2.8c-0.8,0.7-1.4,0.5-1.8-0.5
		c-0.8-2-1.9-3.7-3.4-5.2C168.4,39.1,168.4,39,168.7,39z M169.8,55.6c-0.2,0.1-0.4,0.2-0.5,0.2c-0.1-0.1-0.1-0.3,0-0.5
		c4-3.5,6.8-7.2,8.4-11.2c1.5-3.5,2.2-8.6,2.1-15.4l4.3,1.8c0.2,0.1,0.2,0.3,0,0.5l-0.5,0.3c0.4,8.3,3.6,15.2,9.4,20.7
		c0.1,0.1,0.2,0.2,0.2,0.3c-0.1,0.2-0.2,0.3-0.3,0.2c-1.1,0-2.5,0.5-4.3,1.5c-3.6-3.6-5.4-11.1-5.2-22.5l-0.2,0.2
		C183.1,41.3,178.7,49.2,169.8,55.6z M186.7,23.6l1.5-1.3l3.8,3c0.3,0.4,0.2,0.7-0.3,0.8c-1.6,0.2-3.4,1.1-5.2,2.6l-0.3,0.2
		c-0.1-0.1-0.2-0.2-0.2-0.3l1-3.9l-8,0.5c-1.3,1.9-2.8,3.8-4.6,5.7c-0.3,0.2-0.4,0.1-0.3-0.3c2.8-4.9,4.8-10.1,5.9-15.6
		c0-0.2,0.1-0.3,0.2-0.2l3.8,1.6c0.4,0.2,0.5,0.5,0.2,0.8c-1.3,2.3-2.7,4.6-4.3,6.9L186.7,23.6z"/>
	<path d="M208.5,30.6c-1.8,0.1-3.3,0.3-4.6,0.5l-1.1-1.1l20-0.8l2.5-2.5l3,2.8c0.3,0.2,0.3,0.3-0.2,0.3l-11.2,0.5L216.6,49
		c3.7,0.3,9.8,0,18.4-1c0.2-0.1,0.3-0.1,0.3,0.2c0.1,0.2,0.1,0.4-0.2,0.5c-2,0.3-3.4,1.8-4.4,4.4c-2.5,0.1-5.5,0.1-8.9,0
		c-3.5-0.2-6-0.5-7.4-0.8c-3.1-0.5-5.8-3.4-8.2-8.7c-0.9,3.8-4.4,7.8-10.7,11.8c-0.3,0-0.4-0.2-0.3-0.5c5.9-3.5,9-9.9,9.2-19.2
		l3.3,1.5c0.2,0,0.2,0.2,0,0.7l-0.3,0.7c-0.2,1.5-0.5,3-0.8,4.3c1.7,3.1,3.9,5,6.6,5.7v-18L208.5,30.6z M200,30
		c-1.2,0.1-1.8-0.9-1.8-3.1c2.4-1.4,3.8-3.7,4.3-6.9c0-0.2,0.1-0.3,0.3-0.3c0.1,0,0.2,0.1,0.3,0.3c0,0.5,0.1,1.1,0.2,1.6l9.5-0.3
		l-0.2-5.7c0-0.3,0.1-0.4,0.3-0.3l4.6,1.3c0.3,0,0.4,0.2,0.2,0.7c-0.4,0.3-0.7,0.9-0.7,1.8v2.1l9.8-0.3l2-1.8l4.3,3.6
		c0.3,0.3,0.2,0.6-0.3,0.8c-2.3,0.5-4.4,1.4-6.4,2.5c-0.2,0.1-0.4,0.1-0.5,0c-0.1-0.1-0.1-0.2,0-0.3l1.1-3.9l-23.8,1
		C203.4,26,202.3,28.5,200,30z M226.9,34.4l1.6,3l0.2,0.3c-0.1,0.1-0.2,0.2-0.3,0.2c-1.3,0.2-3.5,0.5-6.6,1
		c-1.4,0.2-2.5,0.4-3.3,0.5c-0.3-0.1-0.4-0.3-0.2-0.5C221.9,37.6,224.7,36.2,226.9,34.4z"/>
	<path d="M246.1,18.5c1.2,8.8,4.6,15.4,10.2,20c3.7-5.9,6.3-13.5,7.7-22.8l5.1,1.8c0.3,0.2,0.4,0.5,0.2,0.8l-1,1.1
		c-2.1,8.9-5.2,15.9-9.4,21.2c4.3,3.3,10.1,6.6,17.6,9.8c0.2,0.2,0.3,0.4,0.2,0.7c0,0.1-0.2,0.2-0.5,0.2c-1.6-0.1-3.6,1-5.7,3.3
		c-6.1-3.4-11-6.9-14.6-10.7c-3.9,4-10.1,7.9-18.5,11.5c-0.3,0-0.4-0.2-0.2-0.7c7.3-3.6,13-7.9,16.9-13c-4.6-5.6-7.4-13.3-8.5-23.3
		H246.1z M252.3,15.5c3.8,1.5,5.6,2.9,5.2,4.1c0,1.4-0.8,2.5-2.5,3.3c-0.9,0.2-1.4-0.2-1.5-1.1c-0.2-2.7-0.8-4.7-1.6-5.9
		C251.8,15.4,251.9,15.3,252.3,15.5z"/>
</g>
<g>
	<path d="M75.8,80.7h2.2V67h-2.2v-0.3h6.4V67h-2.2v13.7h3.6c1.2,0,2.1-0.4,2.8-1.1c0.7-0.7,1.2-1.7,1.5-3h0.2V81H75.8V80.7z"/>
	<path d="M89.8,76.7c0-0.7,0.1-1.3,0.4-1.8c0.3-0.6,0.7-1,1.1-1.5c0.4-0.4,0.9-0.7,1.5-1c0.6-0.2,1.1-0.3,1.6-0.3
		c0.5,0,1.1,0.1,1.6,0.3s1.1,0.5,1.5,1s0.8,0.9,1.1,1.5c0.3,0.6,0.4,1.2,0.4,1.8c0,0.6-0.1,1.2-0.4,1.8s-0.6,1-1,1.4
		c-0.4,0.4-0.9,0.7-1.5,1c-0.6,0.2-1.1,0.4-1.7,0.4c-0.6,0-1.2-0.1-1.7-0.4s-1.1-0.6-1.5-1c-0.4-0.4-0.8-0.9-1.1-1.4
		S89.8,77.3,89.8,76.7z M91.8,76.7c0,0.9,0.1,1.7,0.2,2.3c0.1,0.6,0.3,1,0.6,1.3c0.2,0.3,0.5,0.5,0.8,0.6c0.3,0.1,0.7,0.1,1,0.1
		s0.7,0,1-0.1c0.3-0.1,0.6-0.3,0.8-0.6c0.2-0.3,0.4-0.7,0.6-1.3c0.1-0.6,0.2-1.3,0.2-2.3c0-0.8-0.1-1.5-0.2-2
		c-0.1-0.5-0.3-1-0.5-1.3c-0.2-0.3-0.5-0.6-0.8-0.7c-0.3-0.1-0.7-0.2-1.2-0.2c-0.5,0-0.8,0.1-1.2,0.2c-0.3,0.1-0.6,0.4-0.8,0.7
		c-0.2,0.3-0.4,0.8-0.5,1.3C91.9,75.2,91.8,75.9,91.8,76.7z"/>
	<path d="M109.6,80.8c-0.2,0.1-0.4,0.2-0.6,0.4c-0.2,0.1-0.5,0.1-0.9,0.1c-0.6,0-1.1-0.1-1.4-0.4c-0.3-0.3-0.5-0.7-0.6-1.1h0
		c-0.1,0.1-0.1,0.3-0.2,0.4s-0.2,0.4-0.4,0.5c-0.2,0.2-0.5,0.3-0.8,0.4c-0.3,0.1-0.7,0.2-1.2,0.2c-0.6,0-1-0.1-1.3-0.2
		c-0.3-0.1-0.6-0.3-0.8-0.5c-0.2-0.2-0.3-0.4-0.4-0.6s-0.1-0.5-0.1-0.7c0-0.5,0.1-0.8,0.3-1.1c0.2-0.3,0.4-0.5,0.7-0.7
		c0.3-0.2,0.6-0.3,1-0.4c0.4-0.1,0.7-0.2,1.1-0.3c0.4-0.1,0.8-0.3,1.1-0.4c0.3-0.1,0.5-0.2,0.7-0.4c0.2-0.2,0.3-0.3,0.3-0.6
		c0.1-0.2,0.1-0.5,0.1-1c0-0.3,0-0.6-0.1-0.9c0-0.3-0.1-0.5-0.2-0.7s-0.3-0.3-0.5-0.4c-0.2-0.1-0.5-0.1-0.8-0.1
		c-0.4,0-0.8,0.1-1.1,0.2c-0.3,0.2-0.4,0.4-0.4,0.8c0,0.2,0,0.5,0.1,0.7c0,0.2,0.1,0.4,0.1,0.5c0,0.2-0.1,0.3-0.2,0.5
		c-0.1,0.1-0.3,0.2-0.6,0.2c-0.4,0-0.7-0.1-0.8-0.2c-0.1-0.2-0.2-0.4-0.2-0.6c0-0.3,0.1-0.6,0.2-0.8c0.1-0.3,0.3-0.5,0.6-0.7
		c0.3-0.2,0.6-0.4,1-0.5c0.4-0.1,0.8-0.2,1.4-0.2c0.6,0,1.1,0.1,1.5,0.2c0.4,0.2,0.7,0.4,1,0.6c0.3,0.3,0.4,0.6,0.5,0.9
		c0.1,0.3,0.2,0.7,0.2,1v5c0,0.4,0.1,0.6,0.2,0.8c0.1,0.1,0.3,0.2,0.5,0.2c0.1,0,0.3,0,0.5-0.1c0.2-0.1,0.3-0.1,0.5-0.2L109.6,80.8z
		 M106.1,76.1L106.1,76.1c-0.1,0.2-0.3,0.3-0.7,0.5l-1.5,0.6c-0.4,0.2-0.8,0.4-1,0.7s-0.3,0.7-0.3,1.2c0,0.2,0,0.4,0.1,0.6
		s0.1,0.4,0.2,0.6c0.1,0.2,0.3,0.3,0.5,0.4c0.2,0.1,0.4,0.2,0.8,0.2c0.4,0,0.8-0.1,1.1-0.3c0.3-0.2,0.5-0.4,0.6-0.7
		c0.1-0.3,0.2-0.6,0.3-0.9c0-0.3,0.1-0.6,0.1-0.9V76.1z"/>
	<path d="M110.2,80.7h1.5v-8h-1.5v-0.3h3.2v2.1h0c0.1-0.2,0.2-0.4,0.4-0.7c0.2-0.3,0.4-0.5,0.6-0.8c0.3-0.3,0.6-0.5,1-0.6
		c0.4-0.2,0.9-0.3,1.5-0.3c0.9,0,1.6,0.2,2.1,0.6c0.6,0.4,0.8,1.1,0.8,2v5.8h1.5V81h-4.8v-0.3h1.5v-6.5c0-0.5-0.1-0.9-0.4-1.3
		c-0.2-0.3-0.6-0.5-1.1-0.5c-0.4,0-0.8,0.1-1.2,0.3c-0.4,0.2-0.7,0.4-1,0.8c-0.3,0.3-0.5,0.7-0.7,1.2c-0.2,0.5-0.2,0.9-0.2,1.5v4.5
		h1.5V81h-4.8V80.7z"/>
	<path d="M123,78.2h0.2c0.1,0.3,0.2,0.6,0.4,1c0.1,0.3,0.3,0.6,0.6,0.9c0.2,0.3,0.5,0.5,0.9,0.7c0.4,0.2,0.8,0.3,1.3,0.3
		c0.4,0,0.8-0.1,1.1-0.4c0.3-0.3,0.5-0.7,0.5-1.3c0-0.5-0.1-0.9-0.4-1.1c-0.3-0.2-0.6-0.4-0.9-0.5l-1.6-0.5
		c-0.2-0.1-0.4-0.2-0.6-0.2s-0.4-0.2-0.6-0.4s-0.4-0.4-0.5-0.7c-0.1-0.3-0.2-0.6-0.2-1.1c0-0.4,0.1-0.7,0.2-1
		c0.1-0.3,0.3-0.6,0.6-0.8c0.3-0.2,0.6-0.4,0.9-0.6c0.4-0.1,0.7-0.2,1.2-0.2c0.3,0,0.5,0,0.7,0.1c0.2,0,0.3,0.1,0.5,0.1
		s0.3,0.1,0.4,0.1c0.1,0,0.2,0.1,0.4,0.1c0.1,0,0.3-0.1,0.3-0.2h0.2v2.3h-0.2c-0.1-0.3-0.2-0.6-0.3-0.9s-0.3-0.5-0.4-0.7
		c-0.2-0.2-0.4-0.4-0.6-0.5s-0.5-0.2-0.9-0.2c-0.6,0-1.1,0.1-1.5,0.4c-0.4,0.3-0.5,0.7-0.5,1.1c0,0.4,0.1,0.8,0.4,1
		c0.3,0.2,0.7,0.4,1.3,0.6l1.5,0.5c0.6,0.2,1.1,0.5,1.5,0.9c0.4,0.4,0.6,0.9,0.6,1.5c0,0.4-0.1,0.7-0.2,1.1s-0.3,0.7-0.6,0.9
		c-0.3,0.3-0.6,0.5-1,0.6c-0.4,0.2-0.8,0.2-1.4,0.2c-0.3,0-0.6,0-0.8-0.1c-0.2-0.1-0.5-0.1-0.7-0.2c-0.2-0.1-0.4-0.1-0.6-0.2
		c-0.2-0.1-0.3-0.1-0.5-0.1c-0.1,0-0.3,0-0.3,0.1c-0.1,0.1-0.1,0.1-0.2,0.2H123V78.2z"/>
	<path d="M136.6,80.7h2.2V67h-2.2v-0.3h3.7c0.2,0,0.4,0,0.6,0c0.2,0,0.4,0,0.6,0c0.2,0,0.4,0,0.6,0c0.2,0,0.4,0,0.6,0
		c0.4,0,0.8,0,1.1,0c0.3,0,0.6,0,0.9,0.1s0.5,0.1,0.8,0.1c0.2,0.1,0.5,0.1,0.8,0.2c0.8,0.3,1.5,0.6,2.1,1.1c0.6,0.4,1.1,1,1.5,1.5
		c0.4,0.6,0.7,1.2,0.8,1.9c0.2,0.7,0.3,1.4,0.3,2.2c0,0.9-0.1,1.7-0.3,2.4s-0.5,1.3-0.9,1.9c-0.4,0.5-0.8,1-1.3,1.4
		c-0.5,0.4-1,0.7-1.6,1c-0.3,0.1-0.6,0.3-0.9,0.3c-0.3,0.1-0.6,0.1-0.9,0.2c-0.3,0-0.6,0.1-1,0.1c-0.4,0-0.8,0-1.2,0
		c-0.2,0-0.4,0-0.6,0c-0.2,0-0.5,0-0.7,0c-0.2,0-0.4,0-0.7,0c-0.2,0-0.4,0-0.6,0h-3.4V80.7z M140.8,80.7c0.2,0,0.5,0,0.8,0.1
		c0.3,0,0.6,0,1,0c0.5,0,0.9,0,1.4-0.1c0.4,0,0.9-0.1,1.3-0.3c0.4-0.2,0.8-0.4,1.1-0.7c0.4-0.3,0.7-0.7,0.9-1.1
		c0.4-0.7,0.7-1.5,0.9-2.2c0.2-0.8,0.2-1.6,0.2-2.5c0-1.1-0.1-2-0.3-2.9c-0.2-0.9-0.5-1.6-1-2.2c-0.5-0.6-1.1-1.1-1.8-1.4
		c-0.8-0.3-1.7-0.5-2.8-0.5c-0.3,0-0.6,0-0.9,0s-0.5,0-0.8,0V80.7z"/>
	<path d="M155.2,76c0,0.1,0,0.3,0,0.4c0,0.1,0,0.3,0,0.5c0,0.4,0,0.9,0.1,1.4c0.1,0.5,0.2,0.9,0.4,1.3c0.2,0.4,0.4,0.7,0.8,1
		s0.8,0.4,1.4,0.4c0.6,0,1.1-0.1,1.5-0.3c0.4-0.2,0.7-0.4,0.9-0.6c0.2-0.2,0.4-0.5,0.5-0.8c0.1-0.3,0.2-0.5,0.2-0.6l0.3,0.1
		c0,0.1-0.1,0.4-0.2,0.6s-0.3,0.5-0.5,0.8s-0.6,0.5-1,0.7c-0.4,0.2-1,0.3-1.6,0.3c-0.7,0-1.3-0.1-1.9-0.3c-0.6-0.2-1.1-0.5-1.5-0.9
		c-0.4-0.4-0.7-0.9-1-1.4c-0.2-0.6-0.3-1.2-0.3-1.8c0-0.6,0.1-1.2,0.4-1.7c0.2-0.6,0.6-1,1-1.5s0.9-0.8,1.4-1
		c0.5-0.3,1.1-0.4,1.8-0.4c0.4,0,0.8,0.1,1.2,0.2c0.4,0.1,0.8,0.4,1.2,0.7c0.4,0.3,0.7,0.7,0.9,1.2c0.2,0.5,0.4,1.1,0.4,1.8H155.2z
		 M159.3,75.8c0-0.2,0-0.4,0-0.5s0-0.3,0-0.5c0-0.5,0-0.8-0.1-1.1c-0.1-0.3-0.2-0.5-0.4-0.7c-0.2-0.2-0.3-0.3-0.6-0.4
		c-0.2-0.1-0.5-0.1-0.7-0.1c-0.5,0-0.8,0.1-1.1,0.3s-0.5,0.4-0.7,0.7c-0.2,0.3-0.3,0.7-0.4,1.1s-0.1,0.8-0.2,1.3H159.3z"/>
	<path d="M162.8,80.7h1.5v-8h-1.5v-0.3h1.5v-1.1c0-0.5,0-0.9,0.1-1.2s0.1-0.6,0.2-0.9s0.2-0.5,0.3-0.7s0.2-0.4,0.4-0.5
		c0.3-0.4,0.8-0.8,1.3-1.1c0.5-0.3,1.1-0.5,1.7-0.5c0.4,0,0.8,0.1,1.1,0.2c0.3,0.1,0.6,0.3,0.8,0.5c0.2,0.2,0.3,0.4,0.4,0.6
		c0.1,0.2,0.1,0.4,0.1,0.6c0,0.3-0.1,0.5-0.2,0.7c-0.1,0.2-0.4,0.3-0.7,0.3c-0.2,0-0.4,0-0.6-0.1s-0.3-0.3-0.3-0.5
		c0-0.2,0.1-0.4,0.2-0.6c0.1-0.2,0.2-0.4,0.2-0.6c0-0.3-0.1-0.5-0.4-0.6c-0.2-0.1-0.5-0.2-0.7-0.2c-0.5,0-1,0.2-1.4,0.7
		c-0.4,0.5-0.6,1.2-0.6,2.2v2.8h2.5v0.3h-2.5v8h1.8V81h-5.1V80.7z"/>
	<path d="M169.5,80.7h1.5v-8h-1.5v-0.3h3.3v8.3h1.5V81h-4.8V80.7z M170.8,67.8c0-0.3,0.1-0.5,0.3-0.8c0.2-0.2,0.5-0.3,0.8-0.3
		c0.3,0,0.5,0.1,0.8,0.3c0.2,0.2,0.3,0.5,0.3,0.8s-0.1,0.5-0.3,0.8c-0.2,0.2-0.5,0.3-0.8,0.3c-0.3,0-0.5-0.1-0.8-0.3
		C170.9,68.3,170.8,68.1,170.8,67.8z"/>
	<path d="M175.4,80.7h1.5v-8h-1.5v-0.3h3.2v2.1h0c0.1-0.2,0.2-0.4,0.4-0.7c0.2-0.3,0.4-0.5,0.6-0.8s0.6-0.5,1-0.6
		c0.4-0.2,0.9-0.3,1.5-0.3c0.9,0,1.6,0.2,2.2,0.6c0.6,0.4,0.8,1.1,0.8,2v5.8h1.5V81h-4.8v-0.3h1.5v-6.5c0-0.5-0.1-0.9-0.4-1.3
		c-0.2-0.3-0.6-0.5-1.1-0.5c-0.4,0-0.8,0.1-1.2,0.3c-0.4,0.2-0.7,0.4-1,0.8s-0.5,0.7-0.7,1.2s-0.2,0.9-0.2,1.5v4.5h1.5V81h-4.8V80.7
		z"/>
	<path d="M187.6,80.7h1.5v-8h-1.5v-0.3h3.3v8.3h1.5V81h-4.8V80.7z M188.9,67.8c0-0.3,0.1-0.5,0.3-0.8s0.5-0.3,0.8-0.3
		s0.5,0.1,0.8,0.3s0.3,0.5,0.3,0.8s-0.1,0.5-0.3,0.8s-0.5,0.3-0.8,0.3s-0.5-0.1-0.8-0.3S188.9,68.1,188.9,67.8z"/>
	<path d="M193.3,72.4h1.5v-2.6c0.1,0,0.2,0.1,0.3,0.1c0.1,0,0.3,0,0.5,0c0.2,0,0.4,0,0.5-0.1s0.3-0.1,0.4-0.2v2.7h2.8v0.3h-2.8v6.5
		c0,0.4,0,0.7,0.1,0.9c0.1,0.2,0.2,0.4,0.3,0.5c0.1,0.1,0.2,0.2,0.4,0.2c0.1,0,0.3,0.1,0.4,0.1c0.5,0,0.8-0.2,1.1-0.5
		s0.5-0.7,0.6-1.2l0.3,0.1c0,0.2-0.1,0.4-0.2,0.6s-0.2,0.4-0.4,0.6c-0.2,0.2-0.4,0.4-0.6,0.5c-0.3,0.1-0.6,0.2-1,0.2
		c-1,0-1.7-0.2-2.1-0.6c-0.4-0.4-0.6-0.9-0.6-1.6v-6.4h-1.5V72.4z"/>
	<path d="M200.2,80.7h1.5v-8h-1.5v-0.3h3.3v8.3h1.5V81h-4.8V80.7z M201.5,67.8c0-0.3,0.1-0.5,0.3-0.8s0.5-0.3,0.8-0.3
		s0.5,0.1,0.8,0.3s0.3,0.5,0.3,0.8s-0.1,0.5-0.3,0.8s-0.5,0.3-0.8,0.3s-0.5-0.1-0.8-0.3S201.5,68.1,201.5,67.8z"/>
	<path d="M206.5,76.7c0-0.7,0.1-1.3,0.4-1.8c0.3-0.6,0.7-1,1.1-1.5c0.4-0.4,0.9-0.7,1.5-1c0.6-0.2,1.1-0.3,1.6-0.3
		c0.5,0,1.1,0.1,1.6,0.3s1.1,0.5,1.5,1s0.8,0.9,1.1,1.5c0.3,0.6,0.4,1.2,0.4,1.8c0,0.6-0.1,1.2-0.4,1.8s-0.6,1-1,1.4
		c-0.4,0.4-0.9,0.7-1.5,1c-0.6,0.2-1.1,0.4-1.7,0.4s-1.2-0.1-1.7-0.4c-0.6-0.2-1.1-0.6-1.5-1c-0.4-0.4-0.8-0.9-1.1-1.4
		C206.6,77.9,206.5,77.3,206.5,76.7z M208.5,76.7c0,0.9,0.1,1.7,0.2,2.3c0.1,0.6,0.3,1,0.6,1.3c0.2,0.3,0.5,0.5,0.8,0.6
		c0.3,0.1,0.7,0.1,1,0.1s0.7,0,1-0.1c0.3-0.1,0.6-0.3,0.8-0.6c0.2-0.3,0.4-0.7,0.6-1.3c0.1-0.6,0.2-1.3,0.2-2.3c0-0.8-0.1-1.5-0.2-2
		s-0.3-1-0.5-1.3c-0.2-0.3-0.5-0.6-0.8-0.7c-0.3-0.1-0.7-0.2-1.2-0.2c-0.5,0-0.8,0.1-1.2,0.2c-0.3,0.1-0.6,0.4-0.8,0.7
		c-0.2,0.3-0.4,0.8-0.5,1.3S208.5,75.9,208.5,76.7z"/>
	<path d="M217.2,80.7h1.5v-8h-1.5v-0.3h3.2v2.1h0c0.1-0.2,0.2-0.4,0.4-0.7c0.2-0.3,0.4-0.5,0.6-0.8s0.6-0.5,1-0.6
		c0.4-0.2,0.9-0.3,1.5-0.3c0.9,0,1.6,0.2,2.1,0.6c0.6,0.4,0.8,1.1,0.8,2v5.8h1.5V81h-4.8v-0.3h1.5v-6.5c0-0.5-0.1-0.9-0.4-1.3
		c-0.2-0.3-0.6-0.5-1.1-0.5c-0.4,0-0.8,0.1-1.2,0.3c-0.4,0.2-0.7,0.4-1,0.8c-0.3,0.3-0.5,0.7-0.7,1.2c-0.2,0.5-0.2,0.9-0.2,1.5v4.5
		h1.5V81h-4.8V80.7z"/>
</g>
</svg>
