<?xml version="1.0" encoding="utf-8"?>
<!-- Generator: Adobe Illustrator 22.0.1, SVG Export Plug-In . SVG Version: 6.00 Build 0)  -->
<svg version="1.1" id="图层_1" xmlns="http://www.w3.org/2000/svg" xmlns:xlink="http://www.w3.org/1999/xlink" x="0px" y="0px"
	 viewBox="0 0 310 100" style="enable-background:new 0 0 310 100;" xml:space="preserve">
<style type="text/css">
	.st0{fill:#1F2226;}
</style>
<g>
	<path class="st0" d="M82.6,17.4c0-0.3,0.1-0.4,0.3-0.3l4.1,1.8c0.3,0,0.3,0.1,0,0.3l-0.7,1c0,0.1,0,0.3,0,0.7
		c-0.2,3.3-0.3,6.4-0.2,9.4l5.9-0.2l2.5-2.5l3,2.8c0.1,0.1,0.2,0.2,0.2,0.3c0,0.1-0.1,0.2-0.3,0.2l-11,0.5c0.2,4.3,0.8,7.9,1.8,10.8
		c1.7-2.6,3.2-5.1,4.3-7.4c0-0.3,0.1-0.4,0.3-0.2l3.1,2.5c0.3,0.2,0.3,0.5-0.2,0.8c-2.4,2.5-4.6,4.8-6.6,6.7
		c1.3,3.1,3.3,5.3,5.9,6.7c0.7,0.3,1.2,0.3,1.6-0.2l1.8-2.1c0.1-0.1,0.3-0.2,0.5-0.2c0.1,0.1,0.1,0.3,0,0.5c-0.8,1.4-1.1,3-1.1,4.8
		c0.2,1,0.1,1.7-0.3,2.1c-0.5,0.3-1.3,0.2-2.3-0.3c-4-2.4-6.9-5.4-8.7-9c-3.2,2.6-5.9,4.5-8.2,5.7c-0.3,0.1-0.4,0-0.3-0.3
		c3.1-2.2,5.6-4.5,7.7-7.1c-1.4-3.8-2.3-8.4-2.6-13.8L76,31.8v6.4l3.6-1.1c0.4-0.1,0.5,0,0.2,0.3l-3.9,2.3V50
		c-0.1,3-1.6,5.1-4.4,6.6c-0.2,0.1-0.3,0.1-0.3,0c-0.1,0-0.2-0.1-0.2-0.3c0.1-1.2-0.4-2.2-1.5-3.1c-0.1-0.1-0.1-0.2,0-0.3
		c0-0.1,0.1-0.2,0.3-0.2c2.1,0.2,3-0.3,2.8-1.5l0.2-9.5l-1.6,0.8c-2.4,1.4-4.2,2.6-5.4,3.6c-0.1,0.1-0.3,0.1-0.5,0l-1.8-4.3
		c0.1,0,0.3-0.1,0.5-0.2c1.2-0.2,2.7-0.6,4.4-1.1l4.4-1.3V32l-3.8,0.2c-1.2,0-2.6,0.2-4.1,0.5c-0.2,0-0.4,0-0.5,0L63,31.2l9.7-0.5
		c0-2.6,0-4.9,0-6.9c-0.1-0.2-0.1-0.4,0-0.5H73l3.6,1.6c0.2,0,0.3,0.2,0.2,0.5l-0.7,1.1L76,30.7l6.9-0.3c0-0.5,0-1.5,0-2.8
		c-0.1-1.3-0.2-2.4-0.2-3.1c0-0.8,0-1.9,0-3.4C82.6,19.5,82.6,18.3,82.6,17.4z M77.1,17.2l2.6,2.6c0.1,0.3,0,0.5-0.3,0.7
		c-3.4,0.8-8,1.9-13.8,3.3c-0.3,0-0.4-0.1-0.2-0.3c4.7-1.9,8.4-3.9,11.2-6.2C76.9,17,77,17,77.1,17.2z M89.6,20.2
		c3.3,1.2,5,2.4,5.1,3.6c-0.2,1.2-0.9,2.1-2,2.6c-1,0.3-1.5,0.1-1.6-0.8c0-2.2-0.7-3.9-2-5.1C89.1,20.2,89.3,20.1,89.6,20.2z"/>
	<path class="st0" d="M102.6,40.8c-0.1,0.1-0.3,0.1-0.5,0c-0.1-0.1-0.1-0.2,0-0.3c5.7-5.8,10.2-13.4,13.6-22.8l3.8,1.8
		c0.2,0.1,0.2,0.3,0,0.7l-0.7,0.7c-1.3,2.2-2.6,4.3-3.9,6.2l0.5,24.9c-0.1,1.2-1,2.8-2.6,4.8c-0.3,0.2-0.6,0.3-0.8,0.3
		c-0.1,0-0.2-0.2-0.2-0.5l0.2-10.8l0.2-14.8C110,33.7,106.8,37,102.6,40.8z M122.7,29.7v13l0.3,6.6c-0.3,1.6-1.3,3.1-2.8,4.4
		c-0.4,0.3-0.7,0.3-0.8-0.2l0.2-11.3V31.7l-0.2-5.2l3.6,1.6c0.3,0.1,0.4,0.3,0.2,0.5L122.7,29.7z M121.4,16.9l3,1.3
		c1.6,0.8,2.4,1.4,2.3,2c-0.1,1-0.7,1.9-1.8,2.6c-0.4,0.3-0.8,0.2-1-0.3c-0.7-2.1-1.5-3.8-2.5-5.1C121.2,17.2,121.2,17,121.4,16.9z
		 M133.1,23.6c-1.1,0.1-2.4,0.3-3.8,0.5c-0.4,0.1-0.8,0.2-1,0.2L127,23l8.5-0.3l2-2l3.1,2.1c0,0.1,0.1,0.2,0.2,0.2
		c0.1,0.1,0.1,0.2-0.2,0.3l-1.5,1.8l0.3,14.6l0.3,9c0.1,3.2-1.5,5.8-4.9,7.9c-0.2,0.1-0.4,0.2-0.5,0.2c-0.1-0.1-0.2-0.3-0.2-0.7
		c0.1-1.6-0.4-2.7-1.6-3.3c-0.2-0.3-0.2-0.5,0.2-0.7c2.2,0.2,3.2-0.3,3-1.5l-0.2-27.1H133.1z"/>
	<path class="st0" d="M157,17.1l2.8,3c0,0.2-0.1,0.3-0.2,0.3l-1.3,0.5c-2.4,1.5-4.7,2.8-6.9,3.9l0.3,0.3v0.5l5.7-0.2l1.6-1.8
		l3.6,2.3l0.3,0.2l-0.3,0.3l-1.1,1.5v5.7c3.1-4,5.5-9.6,7.4-16.6l3.6,2.1c0.1,0,0.2,0.1,0.3,0.2c-0.1,0.1-0.2,0.2-0.3,0.3l-0.7,0.7
		c-0.8,1.8-1.6,3.3-2.6,4.6l7.4-0.3l1.8-2.3l3.8,2.5c0.2,0.1,0.2,0.3,0,0.5l-1.3,1.8l-0.3,14.3l0.2,5.2c-0.3,4.7-2.7,8-7.2,10
		c-0.4,0.1-0.6-0.1-0.5-0.5c0.3-1.9-0.1-3.1-1.1-3.8c-0.2-0.1-0.3-0.2-0.2-0.3h0.3c3.2,0,4.6-1.2,4.4-3.6l0.3-23l-8,0.5
		c-2,3-4.4,5.9-7.2,8.7l-0.2,6.9l0.3,6.4c-0.2,2-0.9,3.7-2,5.1c-0.3,0.4-0.7,0.7-1,0.7c-0.2,0-0.4-0.2-0.5-0.7
		c-0.5-2.1-1-3.4-1.3-3.9h-5.7v2.3c-0.1,1.9-0.9,3.5-2.3,4.9c-0.5,0.3-0.8,0.3-0.8-0.2l0.3-11.5l0.2-16.1l-0.2-4.9
		c0.1-0.3,0.3-0.4,0.7-0.3l1.8,1.1C153.5,21.9,155.5,19.5,157,17.1z M151.6,26.6l-0.2,9.2l4.9-0.2c0.2-0.1,0.3,0,0.3,0.3
		s-0.1,0.5-0.3,0.5l-4.9,0.2l-0.2,11.5h6.2l0.3-21.7L151.6,26.6z M166.9,33.3c-0.1-0.3-0.1-0.4,0.2-0.3c4.4,2,6.6,3.4,6.6,4.4
		c0.2,1.3-0.4,2.5-2,3.4c-1.4,0.4-2.2,0.2-2.3-0.8C169.2,37.4,168.4,35.2,166.9,33.3z"/>
	<path class="st0" d="M186.7,40.8c-0.1,0.1-0.3,0.1-0.5,0c-0.1-0.1-0.1-0.2,0-0.3c6.7-7.4,11.5-15.5,14.4-24.1l3.8,2.1
		c0.2,0.1,0.2,0.3-0.2,0.7l-0.5,0.7c-1.6,2.7-3.3,5.4-5.1,7.9l0.2,21.7c0,1.3-0.8,2.8-2.3,4.4c-0.2,0.2-0.4,0.3-0.7,0.3
		c-0.1,0-0.2-0.2-0.2-0.5l0.2-10.8l0.2-11.6C194,33.7,190.9,36.9,186.7,40.8z M207.7,17.4l4.8,1.3c0.3,0.1,0.3,0.4,0,0.8l-0.7,1.1
		c0,3-0.1,5.6-0.2,7.9l9-0.3l2.1-2.1l2.5,2.5c0.2,0.2,0.2,0.4,0,0.5l-11.2,0.5l3.6,1.6c0.2,0.1,0.2,0.3,0,0.5l-0.7,1l-2.3,15.6
		c-0.2,1.5,0.2,2.4,1.1,2.5c1.7,0.3,4,0.3,6.7-0.2c0.8-0.2,1.5-1,2.3-2.5c0-0.2,0.1-0.3,0.2-0.3c0.2,0,0.3,0.1,0.3,0.3
		c-0.2,1.3,0.1,2.4,0.8,3.1c1.1,1.2,0.5,2.2-1.6,3.1c-3.2,0.5-6.1,0.6-8.9,0.2c-2.7-0.3-3.9-2.5-3.6-6.4l1.3-15.8v-2.8h-2
		c-0.2,11.2-5.5,20.5-15.8,27.9c-0.3,0.1-0.5,0.1-0.7,0c-0.1-0.1,0-0.3,0.3-0.5c8.3-6.9,12.5-16,12.5-27.2h-1.8
		c-1.4,0.1-2.7,0.3-3.9,0.5l-1.3-1.3l7.2-0.2c0-1.6,0-3.3,0-5.1C208.2,21.2,208.1,19.1,207.7,17.4z M214.8,19.8
		c3.3,1.1,4.9,2.2,4.8,3.3c-0.1,1-0.7,1.8-1.6,2.3c-1,0.4-1.5,0.2-1.6-0.7c-0.4-2.3-1-3.8-1.8-4.6C214.5,20,214.6,19.8,214.8,19.8z"
		/>
	<path class="st0" d="M251.9,17.1l3.6,1.1l-0.3,1.3v3l3.6-0.3l1.3-1.8l3.1,2c0.2,0.1,0.2,0.3,0,0.5l-1.1,1.5
		c-0.9,4.9,0,8.5,2.6,10.7c0.4,0.2,0.8,0.2,1.1-0.2l1-1.1c0.3-0.1,0.4,0,0.3,0.3c-0.4,1-0.5,2-0.3,3.1c0.5,1.3,0.5,2.2,0,2.8
		c-0.8,0.5-1.7,0.4-2.8-0.3c-4.3-2.7-6-8.2-5.2-16.4l-3.6,0.2v1.3c0,1.3-0.3,2.8-0.8,4.4c1.3,0.4,2.3,0.9,3,1.5
		c0.5,1.2,0.4,2.4-0.3,3.6c-0.4,0.4-0.9,0.3-1.3-0.3c-0.9-0.9-1.8-1.7-2.6-2.6c-1.5,2.1-3.8,4.1-6.9,6.1l3.8,1.1
		c0.3,0.1,0.4,0.3,0.2,0.5l-0.5,1.1c0,0.1-0.1,0.3-0.2,0.5c0,0.3-0.1,0.5-0.2,0.7l7.7-0.3l2-2.3l3.9,2.5c0.2,0.1,0.2,0.3,0,0.7
		l-1.3,1.5c0,2.4-0.2,4.8-0.5,7.2c-0.8,2.5-2.8,4.5-6.1,6.1c-0.3,0.2-0.5,0.2-0.7-0.2c0.3-1.6-0.1-2.8-1.1-3.4
		c-0.2,0-0.3-0.1-0.3-0.2c0-0.2,0.1-0.3,0.3-0.3c2.4,0.1,3.6-0.5,3.6-1.8c0.3-2.5,0.4-5.4,0.3-8.7l-8,0.3
		c-0.9,7.3-7.1,12.4-18.5,15.3c-0.2,0-0.3-0.1-0.3-0.3c-0.1-0.1-0.1-0.2,0.2-0.3c9.1-2.8,13.9-7.7,14.6-14.4l-5.9,0.3
		c-1.6,0-3,0.2-3.9,0.5l-1.5-1.3l11.5-0.5c0-0.1,0.1-0.3,0.2-0.7c0-0.2,0-0.7,0-1.3c0.1-0.8,0.2-1.4,0.2-1.8c-1,0.8-2.1,1.5-3.4,2.1
		c-0.1,0.1-0.2,0.1-0.3-0.2c0-0.1,0.1-0.2,0.3-0.3c5-3.6,8-6.8,9-9.7c-0.5-0.4-1.3-0.9-2.1-1.5c-0.4-0.3-0.8-0.5-1-0.7
		c-0.2-0.3-0.2-0.4,0.2-0.3c0.3,0.1,0.9,0.3,1.8,0.5c0.7,0.2,1.2,0.4,1.6,0.5c0.3-1.3,0.5-2.8,0.5-4.4v-0.2c-0.7,0-1.4,0.1-2.3,0.3
		c-0.3,0.1-0.6,0.2-0.8,0.2l-1.1-1.1l4.3-0.2v-1.5L251.9,17.1z M242.7,17.7c0.2,0.1,0.2,0.3,0,0.5l-0.5,1.3l-0.2,3h1.3l1.6-1.8
		l2.3,1.8c0.2,0.3,0.2,0.5-0.2,0.7l-5.1,0.2v4.1c1.4-0.5,3-1,4.6-1.5c0.2,0,0.2,0.1,0,0.3c-1.6,1-3.2,1.9-4.6,2.6v4.8
		c-0.1,3.4-1.5,5.7-4.3,7.1c-0.2,0.1-0.4,0.1-0.5,0c-0.1,0-0.1-0.1,0-0.3c0.1-1.5-0.3-2.5-1.3-2.8c-0.1-0.1-0.2-0.2-0.2-0.3
		c0-0.1,0.1-0.2,0.3-0.2c2,0.1,2.8-0.4,2.6-1.6v-4.6c-2.1,1.1-3.6,2.1-4.6,3c-0.2,0.2-0.4,0.2-0.5-0.2l-1.1-3.4
		c-0.1-0.2-0.1-0.3,0.2-0.3c1.4-0.2,3.4-0.7,6.1-1.5v-5.1l-5.7,0.3c-0.2,0.1-0.4,0-0.5-0.3c0-0.3,0.1-0.5,0.3-0.5l5.9-0.2v-5.9
		L242.7,17.7z"/>
</g>
<g>
	<path class="st0" d="M100.9,75.9c0-1.1,0.2-2.1,0.6-3c0.4-0.9,1-1.7,1.6-2.4c0.7-0.7,1.4-1.2,2.2-1.6c0.8-0.4,1.7-0.6,2.5-0.6
		c0.9,0,1.7,0.2,2.6,0.6c0.8,0.4,1.6,0.9,2.2,1.6c0.7,0.7,1.2,1.5,1.6,2.4c0.4,0.9,0.6,1.9,0.6,3c0,0.9-0.2,1.8-0.5,2.7
		c-0.4,0.9-0.9,1.7-1.5,2.4c-0.6,0.7-1.4,1.3-2.2,1.7c-0.8,0.4-1.8,0.6-2.7,0.6c-1,0-1.9-0.2-2.8-0.6c-0.9-0.4-1.6-1-2.2-1.7
		c-0.6-0.7-1.1-1.5-1.5-2.4C101.1,77.8,100.9,76.8,100.9,75.9z M103.2,75.9c0,1.2,0.1,2.2,0.2,3.1c0.2,0.9,0.4,1.6,0.8,2.2
		c0.4,0.6,0.9,1,1.4,1.3c0.6,0.3,1.3,0.4,2.2,0.4c0.9,0,1.6-0.1,2.2-0.4c0.6-0.3,1.1-0.7,1.4-1.3c0.4-0.6,0.6-1.3,0.8-2.2
		c0.2-0.9,0.2-1.9,0.2-3.1c0-0.9-0.1-1.8-0.2-2.7c-0.1-0.9-0.3-1.6-0.7-2.3c-0.3-0.7-0.8-1.2-1.4-1.6c-0.6-0.4-1.4-0.6-2.4-0.6
		s-1.8,0.2-2.4,0.6c-0.6,0.4-1.1,0.9-1.4,1.6c-0.3,0.7-0.6,1.4-0.7,2.3C103.3,74,103.2,74.9,103.2,75.9z"/>
	<path class="st0" d="M127.6,83h-3.2v-2h0c-0.1,0.3-0.3,0.5-0.4,0.8c-0.2,0.3-0.4,0.5-0.6,0.7c-0.2,0.2-0.5,0.4-0.9,0.5
		c-0.3,0.1-0.7,0.2-1.1,0.2c-0.5,0-1-0.1-1.3-0.2c-0.3-0.1-0.6-0.2-0.8-0.4c-0.1-0.1-0.2-0.2-0.3-0.2c-0.1-0.1-0.2-0.2-0.3-0.4
		c-0.1-0.2-0.2-0.4-0.2-0.7c-0.1-0.3-0.1-0.6-0.1-1v-5.7h-1.5v-0.3h3.3v6.1c0,0.3,0,0.7,0.1,1c0,0.3,0.1,0.6,0.3,0.8
		c0.1,0.2,0.3,0.4,0.5,0.5c0.2,0.1,0.5,0.2,0.8,0.2c0.3,0,0.6-0.1,0.9-0.3c0.3-0.2,0.6-0.4,0.9-0.7c0.3-0.3,0.5-0.7,0.6-1.2
		c0.2-0.4,0.3-0.9,0.3-1.5v-4.6h-1.5v-0.3h3.2v8.3h1.5V83z"/>
	<path class="st0" d="M128.6,82.7h1.5v-8h-1.5v-0.3h3.2v2h0c0.1-0.2,0.1-0.4,0.3-0.7c0.1-0.3,0.3-0.5,0.5-0.7
		c0.2-0.2,0.5-0.4,0.8-0.6c0.3-0.2,0.7-0.2,1.1-0.2c0.3,0,0.6,0,0.8,0.1c0.2,0.1,0.4,0.2,0.6,0.4c0.1,0.2,0.3,0.3,0.3,0.5
		c0.1,0.2,0.1,0.4,0.1,0.6c0,0.4-0.1,0.7-0.3,0.9c-0.2,0.1-0.4,0.2-0.7,0.2c-0.6,0-0.9-0.2-0.9-0.6c0-0.1,0-0.2,0-0.3
		c0-0.1,0.1-0.1,0.1-0.2c0-0.1,0.1-0.2,0.1-0.2c0-0.1,0-0.2,0-0.4c0-0.4-0.2-0.6-0.7-0.6c-0.2,0-0.4,0.1-0.7,0.2
		c-0.2,0.2-0.5,0.4-0.7,0.7s-0.4,0.7-0.5,1.1c-0.1,0.4-0.2,0.9-0.2,1.5v4.6h1.7V83h-5V82.7z"/>
	<path class="st0" d="M143.3,78.7h0.2c0.1,0.7,0.3,1.3,0.6,1.8c0.2,0.5,0.5,0.9,0.8,1.2c0.3,0.3,0.6,0.6,0.9,0.7
		c0.3,0.2,0.6,0.3,0.9,0.4c0.3,0.1,0.6,0.1,0.9,0.1c0.3,0,0.6,0,0.8,0c0.7,0,1.3-0.1,1.7-0.3s0.8-0.5,1.1-0.8
		c0.3-0.3,0.5-0.7,0.6-1.1c0.1-0.4,0.2-0.7,0.2-1.1c0-0.5-0.1-0.9-0.3-1.2c-0.2-0.3-0.4-0.6-0.7-0.8c-0.3-0.2-0.6-0.4-0.9-0.6
		c-0.3-0.1-0.6-0.3-0.9-0.3l-2.3-0.7c-1.1-0.3-1.9-0.8-2.5-1.3c-0.6-0.5-0.8-1.3-0.8-2.2c0-0.6,0.1-1.2,0.3-1.7
		c0.2-0.5,0.5-1,0.9-1.3c0.4-0.4,0.9-0.7,1.4-0.9c0.5-0.2,1.1-0.3,1.8-0.3c0.5,0,0.9,0,1.2,0.1c0.3,0.1,0.6,0.2,0.8,0.3
		c0.2,0.1,0.4,0.2,0.6,0.3c0.2,0.1,0.4,0.1,0.5,0.1c0.2,0,0.3,0,0.4-0.1c0.1,0,0.1-0.2,0.2-0.3h0.3v3.6h-0.2
		c-0.1-0.5-0.2-0.9-0.4-1.4s-0.4-0.8-0.8-1.2s-0.7-0.6-1.1-0.8c-0.4-0.2-0.9-0.3-1.5-0.3c-0.3,0-0.7,0-1.1,0.1
		c-0.4,0.1-0.7,0.2-1.1,0.4c-0.3,0.2-0.6,0.5-0.8,0.8c-0.2,0.3-0.3,0.8-0.3,1.3c0,0.4,0.1,0.8,0.3,1.1c0.2,0.3,0.4,0.6,0.7,0.8
		c0.3,0.2,0.6,0.4,0.9,0.5s0.7,0.3,1,0.4l2.4,0.8c0.3,0.1,0.6,0.2,1,0.3c0.4,0.1,0.8,0.3,1.1,0.6c0.4,0.3,0.7,0.6,0.9,1.1
		c0.3,0.4,0.4,1,0.4,1.7c0,0.6-0.1,1.2-0.4,1.8c-0.2,0.6-0.6,1.1-1,1.5c-0.4,0.4-1,0.8-1.6,1c-0.6,0.3-1.3,0.4-2.1,0.4
		c-0.3,0-0.5,0-0.7,0s-0.4,0-0.6,0c-0.2,0-0.4-0.1-0.6-0.1c-0.2,0-0.4-0.1-0.6-0.2c-0.3-0.1-0.6-0.2-0.9-0.3
		c-0.3-0.1-0.6-0.2-0.8-0.2c-0.2,0-0.3,0-0.4,0.1c-0.1,0.1-0.1,0.2-0.2,0.3h-0.3V78.7z"/>
	<path class="st0" d="M155.5,74.4h1.5v-2.6c0.1,0,0.2,0.1,0.3,0.1c0.1,0,0.3,0,0.5,0c0.2,0,0.4,0,0.5-0.1s0.3-0.1,0.4-0.2v2.7h2.8
		v0.3h-2.8v6.5c0,0.4,0,0.7,0.1,0.9c0.1,0.2,0.2,0.4,0.3,0.5c0.1,0.1,0.2,0.2,0.4,0.2c0.1,0,0.3,0.1,0.4,0.1c0.5,0,0.8-0.2,1.1-0.5
		s0.5-0.7,0.5-1.2l0.3,0.1c0,0.2-0.1,0.4-0.2,0.6s-0.2,0.4-0.4,0.6c-0.2,0.2-0.4,0.4-0.7,0.5s-0.6,0.2-1,0.2c-1,0-1.7-0.2-2.1-0.6
		c-0.4-0.4-0.6-0.9-0.6-1.6v-6.4h-1.5V74.4z"/>
	<path class="st0" d="M162.3,82.7h1.5v-8h-1.5v-0.3h3.2v2h0c0.1-0.2,0.1-0.4,0.3-0.7c0.1-0.3,0.3-0.5,0.5-0.7
		c0.2-0.2,0.5-0.4,0.8-0.6c0.3-0.2,0.7-0.2,1.1-0.2c0.3,0,0.6,0,0.8,0.1c0.2,0.1,0.4,0.2,0.6,0.4c0.1,0.2,0.3,0.3,0.3,0.5
		c0.1,0.2,0.1,0.4,0.1,0.6c0,0.4-0.1,0.7-0.3,0.9c-0.2,0.1-0.4,0.2-0.7,0.2c-0.6,0-0.9-0.2-0.9-0.6c0-0.1,0-0.2,0-0.3
		c0-0.1,0.1-0.1,0.1-0.2c0-0.1,0.1-0.2,0.1-0.2c0-0.1,0-0.2,0-0.4c0-0.4-0.2-0.6-0.7-0.6c-0.2,0-0.4,0.1-0.7,0.2
		c-0.2,0.2-0.5,0.4-0.7,0.7c-0.2,0.3-0.4,0.7-0.5,1.1s-0.2,0.9-0.2,1.5v4.6h1.7V83h-5V82.7z"/>
	<path class="st0" d="M172.8,78c0,0.1,0,0.3,0,0.4c0,0.1,0,0.3,0,0.5c0,0.4,0,0.9,0.1,1.4c0.1,0.5,0.2,0.9,0.4,1.3
		c0.2,0.4,0.4,0.7,0.8,1c0.4,0.3,0.8,0.4,1.4,0.4c0.6,0,1.1-0.1,1.5-0.3c0.4-0.2,0.7-0.4,0.9-0.6c0.2-0.2,0.4-0.5,0.5-0.8
		c0.1-0.3,0.2-0.5,0.2-0.6l0.3,0.1c0,0.1-0.1,0.4-0.2,0.6s-0.3,0.5-0.5,0.8c-0.2,0.3-0.6,0.5-1,0.7c-0.4,0.2-1,0.3-1.6,0.3
		s-1.3-0.1-1.8-0.3c-0.6-0.2-1.1-0.5-1.5-0.9c-0.4-0.4-0.7-0.9-1-1.4c-0.2-0.6-0.3-1.2-0.3-1.8c0-0.6,0.1-1.2,0.4-1.7
		c0.2-0.6,0.6-1,1-1.5c0.4-0.4,0.9-0.8,1.4-1c0.5-0.3,1.1-0.4,1.8-0.4c0.4,0,0.8,0.1,1.2,0.2c0.4,0.1,0.8,0.4,1.2,0.7
		c0.4,0.3,0.7,0.7,0.9,1.2c0.2,0.5,0.4,1.1,0.4,1.8H172.8z M177,77.8c0-0.2,0-0.4,0-0.5s0-0.3,0-0.5c0-0.5,0-0.8-0.1-1.1
		c-0.1-0.3-0.2-0.5-0.4-0.7c-0.2-0.2-0.3-0.3-0.6-0.4c-0.2-0.1-0.5-0.1-0.7-0.1c-0.5,0-0.8,0.1-1.1,0.3c-0.3,0.2-0.5,0.4-0.7,0.7
		c-0.2,0.3-0.3,0.7-0.4,1.1s-0.1,0.8-0.2,1.3H177z"/>
	<path class="st0" d="M180.4,82.7h1.5v-8h-1.5v-0.3h3.2v2.1h0c0.1-0.2,0.2-0.4,0.3-0.7c0.2-0.3,0.4-0.5,0.6-0.8
		c0.3-0.3,0.6-0.5,1-0.6c0.4-0.2,0.9-0.3,1.5-0.3c0.9,0,1.6,0.2,2.1,0.6c0.6,0.4,0.8,1.1,0.8,2v5.8h1.5V83h-4.8v-0.3h1.5v-6.5
		c0-0.5-0.1-0.9-0.4-1.3c-0.2-0.3-0.6-0.5-1.2-0.5c-0.4,0-0.8,0.1-1.2,0.3c-0.4,0.2-0.7,0.4-1,0.8c-0.3,0.3-0.5,0.7-0.7,1.2
		s-0.2,0.9-0.2,1.5v4.5h1.5V83h-4.8V82.7z"/>
	<path class="st0" d="M193,81.7c0-0.4,0.1-0.7,0.2-0.9s0.3-0.5,0.5-0.7s0.4-0.3,0.6-0.5s0.4-0.2,0.6-0.3c-0.8-0.5-1.2-1.3-1.2-2.2
		c0-0.5,0.1-0.9,0.3-1.3s0.5-0.7,0.9-1c0.3-0.3,0.7-0.5,1.2-0.6c0.4-0.1,0.8-0.2,1.2-0.2c0.6,0,1.1,0.1,1.5,0.4
		c0.4,0.2,0.8,0.5,1,0.7c0.1-0.3,0.4-0.5,0.6-0.7s0.6-0.3,1.1-0.3c0.3,0,0.5,0.1,0.7,0.2c0.2,0.1,0.3,0.4,0.3,0.7
		c0,0.2-0.1,0.4-0.2,0.5c-0.2,0.1-0.3,0.2-0.5,0.2c-0.2,0-0.3-0.1-0.4-0.2s-0.1-0.2-0.2-0.3c-0.1-0.1-0.1-0.2-0.2-0.3
		c-0.1-0.1-0.2-0.2-0.3-0.2c-0.1,0-0.3,0.1-0.4,0.2c-0.1,0.1-0.3,0.2-0.4,0.4c0.1,0.1,0.3,0.4,0.5,0.7c0.2,0.3,0.3,0.7,0.3,1.2
		c0,0.4-0.1,0.8-0.3,1.1c-0.2,0.3-0.5,0.6-0.8,0.9c-0.3,0.3-0.7,0.5-1.1,0.6s-0.9,0.2-1.3,0.2c-0.5,0-0.9-0.1-1.2-0.2
		s-0.6-0.2-0.8-0.3c-0.1,0.1-0.3,0.1-0.5,0.2c-0.2,0.1-0.3,0.2-0.5,0.3c-0.1,0.1-0.3,0.3-0.3,0.4c-0.1,0.2-0.1,0.4-0.1,0.6
		c0,0.2,0,0.4,0.1,0.5c0.1,0.1,0.2,0.2,0.3,0.3c0.1,0.1,0.3,0.1,0.4,0.1c0.2,0,0.3,0,0.5,0h3.2c0.9,0,1.7,0.2,2.2,0.7
		c0.6,0.4,0.8,1.1,0.8,2.1c0,0.6-0.1,1.1-0.4,1.6c-0.3,0.5-0.6,0.9-1,1.2s-0.9,0.6-1.5,0.8s-1.1,0.3-1.7,0.3c-0.5,0-1-0.1-1.4-0.2
		c-0.4-0.1-0.8-0.3-1.1-0.5c-0.3-0.2-0.6-0.5-0.8-0.8c-0.2-0.3-0.3-0.6-0.3-1c0-0.3,0.1-0.7,0.2-1c0.1-0.3,0.3-0.5,0.5-0.8
		c0.2-0.2,0.5-0.4,0.8-0.6s0.6-0.3,0.8-0.4v0c-0.9,0-1.5-0.1-2-0.4C193.2,82.9,193,82.4,193,81.7z M196,83.6
		c-0.2,0.1-0.3,0.2-0.5,0.3c-0.2,0.1-0.3,0.3-0.5,0.4c-0.1,0.2-0.3,0.4-0.3,0.6c-0.1,0.2-0.1,0.5-0.1,0.9c0,0.5,0.1,0.9,0.2,1.2
		c0.2,0.3,0.4,0.6,0.6,0.8c0.3,0.2,0.5,0.3,0.9,0.4c0.3,0.1,0.6,0.1,0.9,0.1c0.5,0,0.9-0.1,1.3-0.2s0.7-0.3,1-0.6
		c0.3-0.2,0.5-0.5,0.7-0.8s0.2-0.7,0.2-1c0-0.7-0.2-1.3-0.6-1.6c-0.4-0.3-1-0.5-1.7-0.5H196z M199.3,77.1c0-0.3,0-0.6-0.1-0.9
		c0-0.3-0.1-0.6-0.2-0.9c-0.1-0.3-0.3-0.5-0.6-0.6s-0.6-0.2-1-0.2c-0.7,0-1.2,0.2-1.5,0.6c-0.3,0.4-0.5,1.1-0.5,2
		c0,0.4,0,0.8,0.1,1.1c0.1,0.3,0.2,0.6,0.3,0.8c0.2,0.2,0.4,0.4,0.6,0.5c0.3,0.1,0.6,0.2,1,0.2c0.7,0,1.2-0.2,1.5-0.7
		C199.1,78.6,199.3,78,199.3,77.1z"/>
	<path class="st0" d="M202.9,74.4h1.5v-2.6c0.1,0,0.2,0.1,0.3,0.1c0.1,0,0.3,0,0.5,0c0.2,0,0.4,0,0.5-0.1c0.1,0,0.3-0.1,0.4-0.2v2.7
		h2.8v0.3h-2.8v6.5c0,0.4,0,0.7,0.1,0.9c0.1,0.2,0.2,0.4,0.3,0.5c0.1,0.1,0.2,0.2,0.4,0.2c0.1,0,0.3,0.1,0.4,0.1
		c0.5,0,0.8-0.2,1.1-0.5c0.3-0.3,0.5-0.7,0.5-1.2l0.3,0.1c0,0.2-0.1,0.4-0.2,0.6s-0.2,0.4-0.4,0.6c-0.2,0.2-0.4,0.4-0.6,0.5
		c-0.3,0.1-0.6,0.2-1,0.2c-1,0-1.7-0.2-2.1-0.6c-0.4-0.4-0.6-0.9-0.6-1.6v-6.4h-1.5V74.4z"/>
	<path class="st0" d="M209.7,82.7h1.5V68.9h-1.5v-0.3h3.3v7.9h0c0.1-0.2,0.2-0.4,0.3-0.6c0.2-0.3,0.4-0.5,0.7-0.7
		c0.3-0.2,0.6-0.4,1-0.6c0.4-0.2,0.9-0.2,1.4-0.2c0.9,0,1.6,0.2,2.1,0.6c0.6,0.4,0.8,1.1,0.8,2v5.8h1.5V83h-4.8v-0.3h1.5v-6.5
		c0-0.5-0.1-0.9-0.4-1.3c-0.2-0.3-0.6-0.5-1.2-0.5c-0.4,0-0.8,0.1-1.2,0.3c-0.4,0.2-0.7,0.4-1,0.8c-0.3,0.3-0.5,0.7-0.7,1.2
		s-0.2,0.9-0.2,1.5v4.5h1.5V83h-4.8V82.7z"/>
	<path class="st0" d="M222.5,80.2h0.2c0.1,0.3,0.2,0.6,0.4,1c0.1,0.3,0.3,0.6,0.6,0.9c0.2,0.3,0.5,0.5,0.9,0.7
		c0.4,0.2,0.8,0.3,1.3,0.3c0.4,0,0.8-0.1,1.1-0.4c0.3-0.3,0.5-0.7,0.5-1.3c0-0.5-0.1-0.9-0.4-1.1c-0.3-0.2-0.6-0.4-0.9-0.5l-1.6-0.5
		c-0.2-0.1-0.4-0.2-0.6-0.2s-0.5-0.2-0.7-0.4s-0.4-0.4-0.5-0.7c-0.1-0.3-0.2-0.6-0.2-1.1c0-0.4,0.1-0.7,0.2-1s0.3-0.6,0.6-0.8
		c0.3-0.2,0.6-0.4,0.9-0.6c0.4-0.1,0.7-0.2,1.2-0.2c0.3,0,0.5,0,0.7,0.1s0.3,0.1,0.5,0.1c0.1,0,0.3,0.1,0.4,0.1s0.2,0.1,0.4,0.1
		s0.3-0.1,0.3-0.2h0.2v2.3h-0.2c-0.1-0.3-0.2-0.6-0.3-0.9s-0.3-0.5-0.4-0.7c-0.2-0.2-0.4-0.4-0.6-0.5c-0.2-0.1-0.5-0.2-0.9-0.2
		c-0.6,0-1.1,0.1-1.5,0.4s-0.5,0.7-0.5,1.1c0,0.4,0.1,0.8,0.4,1c0.3,0.2,0.7,0.4,1.3,0.6l1.5,0.5c0.6,0.2,1.1,0.5,1.5,0.9
		c0.4,0.4,0.6,0.9,0.6,1.5c0,0.4-0.1,0.7-0.2,1.1c-0.1,0.3-0.3,0.7-0.6,0.9c-0.3,0.3-0.6,0.5-1,0.6c-0.4,0.2-0.8,0.2-1.4,0.2
		c-0.3,0-0.6,0-0.8-0.1c-0.2-0.1-0.5-0.1-0.7-0.2c-0.2-0.1-0.4-0.1-0.6-0.2c-0.2-0.1-0.3-0.1-0.5-0.1c-0.1,0-0.3,0-0.3,0.1
		c-0.1,0.1-0.1,0.1-0.2,0.2h-0.2V80.2z"/>
</g>
</svg>
