<?xml version="1.0" encoding="utf-8"?>
<!-- Generator: Adobe Illustrator 22.0.1, SVG Export Plug-In . SVG Version: 6.00 Build 0)  -->
<svg version="1.1" id="图层_1" xmlns="http://www.w3.org/2000/svg" xmlns:xlink="http://www.w3.org/1999/xlink" x="0px" y="0px"
	 viewBox="0 0 340.2 100" style="enable-background:new 0 0 340.2 100;" xml:space="preserve">
<style type="text/css">
	.st0{fill:#FFFFFF;}
</style>
<g>
	<path class="st0" d="M17,56.9c-0.4,0.3-0.7,0.3-0.8-0.2l0.2-11.2v-1.3L15.1,45c-2,1.1-3.7,2.3-5.1,3.6c-0.2,0.1-0.4,0.1-0.5,0
		l-1.8-4.4l8.7-2.5v-5.6l-2.5,0.5c-1.6,0.3-3,0.7-3.9,1.1c-0.3,0.3-0.6,0.3-0.8,0L8,35.1c-0.1-0.3-0.1-0.4,0.2-0.3l2.1-0.2
		c0.1-0.4,0.3-1.1,0.7-2.1c0.9-2.8,1.5-5,1.8-6.6c-0.3,0-0.8,0.1-1.5,0.2c-1.5,0-2.6,0.1-3.3,0.3l-1.1-1.3h6.2
		c0.1-0.7,0.3-1.6,0.7-3c0.2-1,0.4-1.7,0.5-2.1l0.7-3.4l3.9,2c0.3,0.2,0.3,0.5,0,0.8s-0.7,0.9-1,1.6s-0.9,2-1.8,3.9h4.3l2-2L25,25
		c0.1,0.3,0,0.5-0.3,0.5l-9,0.3c-0.2,0.4-0.5,1.1-1,2.1c-1.3,3.2-2.3,5.4-3,6.6l4.8-0.2V34v-5.1l3.9,1.5c0.2,0.1,0.2,0.3,0,0.5
		l-0.5,0.8v2.6l4.4-0.2c0.1,0.1,0.2,0.2,0.3,0.3c-0.1,0.1-0.2,0.2-0.3,0.2l-4.4,1v5.2l4.1-1.3c0.2,0,0.3,0.1,0.3,0.2
		c0,0.1-0.1,0.2-0.2,0.3l-4.3,2.5v3.1l0.2,6.9C19.7,54.2,18.7,55.7,17,56.9z M29.8,40.4c-0.2,0-0.5,0-0.8,0c-1.3,0.1-2.3,0.3-3,0.5
		l-1.1-1.3l12.3-0.2l1.8-1.8l2.5,2.3c0.2,0.2,0.2,0.3,0,0.3l-6.7,0.2l-0.2,12.8l5.7-0.2l2.1-1.6l2.5,2.1c0.1,0.2,0.1,0.3-0.2,0.3
		l-17.6,0.3c-0.3,0-0.8,0.1-1.5,0.2c-1.4,0-2.4,0.1-3,0.3l-1.3-1.3l9.4-0.2V40.4H29.8z M24.9,22.1c-0.3,0-0.5-0.1-0.5-0.3
		c0.1-0.3,0.3-0.5,0.5-0.5l9.5-0.5l1.5-2.1l3.8,2.1L40,21c0,0.1-0.1,0.2-0.3,0.3l-1,1.1c-1.4,2.3-3,4.3-4.6,6.1
		c5.1,2.2,8.4,3.9,9.7,5.1c0.7,1.1,0.4,2.6-0.7,4.4c-0.7,0.9-1.4,0.7-2.1-0.5c-2-3.4-4.4-6.1-7.4-8.2c-2.8,3.3-6.6,6.8-11.3,10.5
		c-0.2,0.1-0.4,0.1-0.5-0.2c0-0.1,0.1-0.3,0.2-0.5c4.9-4.5,9-10.3,12.3-17.4L24.9,22.1z"/>
	<path class="st0" d="M57.2,16.9l3.6,1.8L61,19l-0.7,1.3l-0.2,6.9h2.1l1.6-1.6l2.3,2c0.2,0.3,0.2,0.5-0.2,0.5L60,28.3v4.9
		c2.2,0.8,3.6,1.6,4.1,2.6c0.1,0.9-0.3,1.6-1.1,2.1c-0.7,0.4-1,0.3-1.1-0.3c-0.4-1.5-1-2.8-1.8-3.8L60,45.4l0.3,6.9
		c0,1.7-0.8,3.3-2.3,4.8c-0.8,0.4-1.2,0.3-1.3-0.5L57,45.1v-7.9c-2.4,3.6-5.4,7.3-9,11c-0.1,0.2-0.2,0.3-0.3,0.2
		c-0.2-0.1-0.3-0.3-0.2-0.5c3.9-5.7,7.1-12.2,9.5-19.5h-1.1c-1.6,0-3.2,0.1-4.6,0.3l-1.1-1.3h6.9v-4.8c0-2.5-0.1-4.4-0.2-5.6
		C56.9,16.8,57,16.8,57.2,16.9z M63.1,40.8c-0.2,0.1-0.4,0.1-0.5,0c0-0.1,0.1-0.3,0.2-0.5c3.6-4.4,5.8-10.9,6.7-19.5l3.3,0.8
		c0.2,0,0.3,0.2,0.2,0.5l-0.7,0.7C71,29.5,68,35.5,63.1,40.8z M77.9,43.8c-0.1-0.1-0.1-0.2,0-0.3c0-0.1,0.1-0.2,0.3-0.2
		c3.1,2.8,4.9,5.3,5.4,7.4c0.2,1.7-0.6,2.8-2.5,3.1c-1.1,0.1-1.6-0.4-1.6-1.6c0-0.9,0-1.7,0-2.6c-7.5,2-11.9,3.4-13.1,4
		c-0.3,0.2-0.6,0.2-0.8,0l-1-3c1.1-0.1,1.9-0.5,2.5-1.1c3-5.2,5-10,6.1-14.3l3.8,2.5c0.2,0.2,0.2,0.5-0.2,0.8l-0.8,1
		c-1.9,3.1-4.3,6.5-7.4,10.3l11-1C79.4,47,78.9,45.3,77.9,43.8z M75.1,18.4h0.5c0.5,6.8,4.8,13,12.6,18.5c0.2,0.3,0.2,0.5-0.2,0.7
		c-1.4-0.1-3,0.5-4.6,2C78.3,34.8,75.6,27.8,75.1,18.4z"/>
	<path class="st0" d="M89.9,51.5c-0.2,0.1-0.4,0.1-0.5,0c0-0.1,0.1-0.3,0.2-0.5c4.2-3.8,7.9-8.7,11.2-14.6c-0.2-0.9-0.5-1.7-0.8-2.5
		c-2.7,2.2-5.9,4.4-9.4,6.6c-0.4,0.3-0.5,0.2-0.3-0.3c3.3-2.7,6.1-5.6,8.5-8.5c-0.8-1.6-1.8-3.1-3.1-4.4c-0.1-0.1-0.2-0.3-0.2-0.5
		c0.1-0.1,0.3-0.1,0.5,0c1.3,1.1,2.6,2.2,3.9,3.4c0.3-0.4,0.8-1,1.3-1.8c0.5-0.9,0.9-1.5,1.1-1.8l3.1,2.1c0.2,0.2,0.2,0.4-0.2,0.7
		l-0.8,0.5c-0.2,0.2-0.5,0.5-0.8,0.8c-0.2,0.3-0.8,0.9-1.8,1.8c0.9,1.3,1.6,2.6,2.1,3.9c1.6,4.5,1.9,9.1,0.8,13.9
		c-0.5,1.6-2.2,3.4-4.9,5.2c-0.4,0.1-0.7,0-0.7-0.3c-0.1-1.4-0.7-2.4-1.8-2.8c-0.1-0.1-0.2-0.2-0.2-0.3s0.1-0.2,0.2-0.2
		c2.3,0.1,3.4-0.2,3.3-0.8c0.9-3.8,1.1-7.1,0.8-9.7C99.2,44,95.3,47.4,89.9,51.5z M113.5,26.4l0.2-3.4l-6.9,0.2v1
		c-0.8,1.5-1.6,2.5-2.5,3c-0.3,0-0.5-0.1-0.7-0.3l-0.2-3.6l-5.2,0.2c-2,0.1-3.4,0.3-4.4,0.5l-1.5-1.3l11.2-0.2l-0.2-5.2l4.3,1.5
		c0.2,0.1,0.2,0.3,0,0.5l-0.5,0.7l-0.2,2.5h6.7l0.2-5.1l4.6,1.5c0.2,0,0.2,0.2,0,0.5l-0.7,0.7l-0.7,2.3h4.9l2.5-2.5l3.1,2.6
		c0.1,0.3,0,0.5-0.3,0.5l-10.4,0l-0.5,2.1c-0.5,0.9-1.3,1.5-2.1,1.8C113.9,27,113.7,26.8,113.5,26.4z M112,26.4l4.3,1.6
		c0.3,0.2,0.3,0.5,0,0.8l-0.5,1.1l-0.2,5.4l6.9-0.2l2.3-2.5l2.8,2.6l0.2,0.3c-0.1,0.1-0.2,0.2-0.3,0.2l-10.3,0.5
		c-0.1,5.8,4.3,11.2,13.1,16.2c0.2,0.1,0.3,0.2,0.3,0.3c-0.1,0.2-0.3,0.3-0.5,0.3c-1.6-0.1-3.5,0.8-5.6,2.6c-5.2-4.5-8-11-8.2-19.5
		h-0.7c0.2,9.6-4.8,16.7-14.9,21.2c-0.2,0-0.3-0.1-0.3-0.2c0-0.2,0.1-0.4,0.3-0.5c8-4.2,11.8-10.9,11.5-20.3h-1.3
		c-1.9,0-3.3,0.2-4.4,0.5l-1.5-1.3l7.2-0.2v-0.8v-2.3L112,26.4z M118.8,28c2.4,1,3.7,2,3.8,3.1c0,0.5-0.5,1.1-1.6,1.6
		c-0.8,0.2-1.2,0-1.3-0.7c0-1.6-0.4-2.9-1.1-3.8C118.4,28,118.5,27.9,118.8,28z"/>
	<path class="st0" d="M131.9,33.1c-0.2,0.1-0.4,0.2-0.5,0.2c-0.1-0.1-0.1-0.3,0-0.5c5.6-4.3,10.2-9.7,13.9-16.2l3.3,2.1
		c0.2,0.1,0.2,0.3-0.2,0.5l-0.7,0.5c-0.2,0.2-0.5,0.5-0.8,1c-1.1,1.3-2,2.2-2.6,2.8v6.1c-0.1,1.1-0.8,2.3-2.1,3.6
		c-0.5,0.4-0.9,0.4-1,0l0.3-5.4v-1.6C138.4,28.5,135.2,30.8,131.9,33.1z M154.4,39.4c0.1,0.1,0.1,0.2,0,0.3l-0.5,0.8
		c-0.1,5.1-1.5,8.8-4.1,10.8c-2.3,2.1-7.7,4.1-16.1,6.1c-0.3-0.1-0.3-0.3,0-0.7c7.1-2.3,11.5-4.3,13.3-6.1c2.1-1.9,3.2-5.2,3.3-10.2
		l-0.2-3L154.4,39.4z M162.9,36.9v6.6c-0.2,1.9-1.3,3.6-3.3,5.1c-0.5,0.5-0.9,0.5-1.1-0.2V37.2c0.1-1.1-0.4-1.6-1.5-1.6l-12.3,0.3
		v10c-0.1,1.2-0.9,2.7-2.5,4.4c-0.5,0.3-0.9,0.2-1-0.3l0.2-7.9v-4.8l-0.2-3.8l3.4,1.5l13.1-0.2l1.6-2.1l4.1,2.5
		c0.1,0.1,0.2,0.3,0.2,0.5L162.9,36.9z M152.2,16.7l3.9,1.8c0.2,0.1,0.2,0.3,0,0.5l-0.5,0.8c0.3,1.5,0.9,3,1.6,4.3l7.4-0.7l2-2.3
		l3,2.3c0.1,0.2,0.1,0.4-0.2,0.5l-11.6,1c2.1,3,5.1,5.1,9,6.6c0.7,0.3,1.1,0.2,1.5-0.3l1.6-1.8c0.2-0.3,0.3-0.3,0.3,0.2
		c-1.2,2.1-1.3,3.4-0.3,3.9c1.1,1.2,1.2,2.1,0.3,2.8c-0.9,0.4-2.2,0.3-4.1-0.5c-5.7-2.5-9.6-6.1-11.6-10.7l-2.8,0.2
		c-0.4,0.1-1,0.2-1.6,0.2c-1.2,0.2-2.1,0.4-2.8,0.7l-1.5-1.1l8.4-0.7C153.2,22.2,152.6,19.7,152.2,16.7z M153.5,48.4
		c6.9,1.3,11,2.5,12.3,3.6c0.4,1,0.3,2.2-0.3,3.8c-0.4,1-1.3,0.9-2.5-0.2c-2.5-2.8-5.7-5.1-9.7-6.7
		C153.2,48.6,153.2,48.4,153.5,48.4z M159.6,17.9c2.6,0.5,3.9,1.3,3.9,2.1c0.1,0.8-0.4,1.4-1.5,2c-0.5,0.1-0.9-0.1-1-0.5
		c-0.2-1.5-0.8-2.7-1.6-3.4C159.3,17.8,159.4,17.8,159.6,17.9z"/>
	<path class="st0" d="M211.5,40.2l2.6,3.8c0.3,0.4,0.2,0.9-0.3,1.3c-5.1,4.6-11.4,8.6-18.7,12c-0.2,0.1-0.3,0.1-0.3-0.2
		c-0.1-0.1-0.1-0.3,0.2-0.5c7-3.6,12.3-9,15.9-16.2c0.1-0.2,0.2-0.3,0.3-0.3C211.1,39.9,211.2,40,211.5,40.2z M226.9,37.2
		c-3.7-0.3-10-0.5-18.9-0.5V38c-0.2,1-0.8,1.9-1.8,2.6c-1.2,0.9-1.9,1-2,0.3l0.2-8l-0.2-12.8c0-0.5,0.2-0.7,0.7-0.5l3.1,1.8
		l13.8-0.3l2-2.3l4.1,2.1c0.2,0.1,0.2,0.3,0,0.5l-1,1.6l0.2,12.5l0.3,1.1c0.2,0.1,0.3,0.2,0.2,0.3C227.4,37.2,227.2,37.2,226.9,37.2
		z M208,22.5V36l14.1-0.2L222,22L208,22.5z M230.2,49.2c0.4,1.9-0.2,3.3-1.8,4.4c-1.2,0.7-2,0.5-2.5-0.5c-1.9-3.9-4.7-7.4-8.4-10.5
		c-0.1-0.1-0.2-0.2-0.2-0.3s0.1-0.2,0.3-0.2l6.2,2.6C227.7,46.5,229.8,48,230.2,49.2z"/>
	<path class="st0" d="M266.7,41.7l1.8-2l3.6,2.5c0.1,0,0.1,0.1,0,0.3v0.2L271,44l0.2,4.8c0.2,3-1.4,5.4-4.9,7.4
		c-0.2,0.1-0.4,0.2-0.5,0.2s-0.2-0.1-0.2-0.3c-0.1-1.4-0.6-2.4-1.5-2.8c-0.2-0.1-0.2-0.2,0.2-0.3c2,0.2,2.8-0.9,2.6-3.3l-0.2-6.9
		l-5.1,0.2l0.2,8.7c0,1.3-0.7,2.6-2.1,3.9c-0.7,0.3-1,0.2-1-0.3V42.8l-4.3,0.2l0.2,8.7c-0.1,1.1-0.8,2.4-2.1,3.9
		c-0.5,0.3-0.9,0.3-1-0.2V43l-4.9,0.2V52c0,1.2-0.8,2.6-2.5,4.3c-0.2,0.2-0.4,0.3-0.7,0.3c-0.2,0-0.3-0.2-0.3-0.5v-5.2l0.2-10.2
		c0-0.3,0.1-0.4,0.3-0.2l3,1.6l5.1-0.2c1.4-1.9,2.4-3.5,3-4.9l-10.2,0.2c-1.9,0-3.4,0.2-4.6,0.5l-1.3-1.5l31.5-0.5l2.3-2.5l3.4,2.8
		c0.2,0.3,0.2,0.5-0.2,0.7L256.1,37l2.1,1.1c0.2,0.1,0.2,0.2,0,0.3c-0.7,0.5-2.1,1.5-4.3,2.8c-0.4,0.3-0.8,0.5-1,0.7L266.7,41.7z
		 M245.9,20.5c-0.2,0-0.4-0.2-0.5-0.5c0-0.2,0.1-0.4,0.3-0.5l18.2-0.3l2-2.3l3,2.5c0.2,0.3,0.2,0.5-0.2,0.5l-10.2,0.3v3.4l11.3-0.3
		l1.8-1.6l4.6,3.8c0.3,0.5,0.2,0.9-0.5,1c-1.8,0.1-3.9,0.8-6.6,2.1c-0.1,0.1-0.2,0.1-0.3,0c-0.1-0.1-0.1-0.3,0-0.5l1-3.9l-11.3,0.3
		V27v3.6c0,1.4-0.9,2.9-2.6,4.4c-0.4,0.3-0.8,0.3-1-0.2v-6.6v-3.6l-10,0.2c-0.8,3.3-2.1,5.7-4.1,7.2c-0.5,0.3-0.9,0.3-1-0.2
		c-0.5-1.7-0.6-3-0.2-3.6c1.7-1.4,2.6-3.2,2.6-5.4c0-0.3,0.1-0.5,0.2-0.5c0.1,0,0.3,0.1,0.7,0.2c0.7,0.4,1.2,0.9,1.6,1.5l10.2-0.3
		v-3.4L245.9,20.5z M252.8,31.5c0.2,0,0.4,0.1,0.5,0.3c0,0.2-0.2,0.4-0.5,0.5l-8.2,0.3c-0.3,0-0.5-0.2-0.7-0.5
		c0-0.2,0.2-0.4,0.5-0.5L252.8,31.5z M252,27.6c0.3,0,0.5,0.1,0.5,0.3c0,0.2-0.2,0.4-0.5,0.7l-5.7,0.2c-0.3,0-0.5-0.1-0.5-0.3
		c0-0.3,0.1-0.5,0.3-0.7L252,27.6z M268.4,31c0.3,0,0.5,0.1,0.5,0.3c0,0.2-0.2,0.4-0.5,0.5l-7.7,0.3c-0.3,0-0.5-0.2-0.7-0.5
		c0-0.2,0.2-0.4,0.5-0.5L268.4,31z M266.6,26.9c0.3,0.1,0.5,0.3,0.5,0.5s-0.2,0.4-0.5,0.5l-5.7,0.2c-0.3,0-0.5-0.2-0.5-0.5
		c0-0.2,0.2-0.4,0.5-0.5L266.6,26.9z"/>
	<path class="st0" d="M294,51.5h-8.5v-1.1c1.6,0.1,2.4-1,2.3-3.3V44h-8.4v-1.8l9.4-19.2h2.8v19.2h2.8V44h-2.8v3
		c-0.1,2.5,0.7,3.7,2.5,3.4L294,51.5L294,51.5z M287.7,42.2V28.5L281,42.2H287.7z"/>
	<path class="st0" d="M327.9,34.9l3.9,2.5l0.3,0.2c0,0.1-0.1,0.2-0.3,0.3l-0.8,0.7c-4.9,10.9-16.2,17.2-34,18.7
		c-0.2,0-0.4-0.1-0.5-0.3c-0.1-0.1-0.1-0.2,0.2-0.3C313.3,54.3,323.7,47.1,327.9,34.9z M320.1,18.5c0.3,0.1,0.3,0.3,0,0.7
		c-0.3,0.4-0.5,1.1-0.7,2.1v3h7.1l2-2.3l2.8,2.6c0.2,0.2,0.1,0.3-0.3,0.3l-11.5,0.2l-0.2,6.7l12.1-0.2l2.3-2.3l2.8,2.6
		c0.2,0.1,0.3,0.2,0.2,0.3l-0.3,0.2l-17.2,0.2v5.9l0.2,4.6c-0.1,1.6-1.2,3.3-3.3,5.1c-0.5,0.4-0.9,0.3-1.1-0.3l0.3-15.3L304,32.8
		c-2.3,0.1-4,0.3-5.1,0.5l-1.3-1.3l9.5-0.2v-4.6c0-2.6-0.2-4.6-0.5-6.1l4.4,1.5c0.2,0,0.2,0.2,0,0.5l-0.5,1.1l-0.2,7.5h5.2v-7.5
		c0-1-0.1-2.2-0.2-3.6c0-1.9-0.1-3.1-0.2-3.8L320.1,18.5z M307.4,35.3l3.9,2.3c0.2,0.1,0.2,0.3,0,0.5l-1,0.8
		c-1.8,2.2-5.2,5.5-10.3,9.8c-0.1,0.1-0.2,0.1-0.3-0.2c-0.1-0.1-0.1-0.2,0-0.3C303.3,44.1,305.9,39.8,307.4,35.3z"/>
</g>
<g>
	<path class="st0" d="M113.9,82.7h2.2V69h-2.2v-0.3h3.8c0.2,0,0.4,0,0.6,0s0.4,0,0.6,0s0.4,0,0.5,0s0.4,0,0.5,0
		c0.8,0,1.5,0.1,2.1,0.3c0.6,0.2,1.2,0.4,1.7,0.8c0.5,0.3,0.8,0.7,1.1,1.2c0.3,0.5,0.4,1,0.4,1.6s-0.2,1.1-0.5,1.6s-0.7,0.9-1.2,1.2
		c-0.5,0.3-1.1,0.6-1.8,0.7c-0.7,0.2-1.4,0.3-2.1,0.3c-0.2,0-0.4,0-0.7,0c-0.3,0-0.6-0.1-0.8-0.1v6.6h2.2V83h-6.4
		C113.9,83,113.9,82.7,113.9,82.7z M118.1,75.8c0.3,0.1,0.5,0.1,0.8,0.1s0.6,0,0.8,0c1,0,1.8-0.3,2.3-0.9c0.6-0.6,0.8-1.5,0.8-2.6
		c0-0.7-0.1-1.2-0.2-1.7s-0.3-0.8-0.6-1.1c-0.3-0.3-0.7-0.5-1.1-0.6c-0.5-0.1-1-0.2-1.6-0.2c-0.3,0-0.5,0-0.7,0s-0.4,0-0.5,0
		L118.1,75.8L118.1,75.8z"/>
	<path class="st0" d="M126.8,82.7h1.5v-8h-1.5v-0.3h3.2v2l0,0c0.1-0.2,0.1-0.4,0.3-0.7c0.1-0.3,0.3-0.5,0.5-0.7s0.5-0.4,0.8-0.6
		s0.7-0.2,1.1-0.2c0.3,0,0.6,0,0.8,0.1s0.4,0.2,0.6,0.4c0.1,0.2,0.3,0.3,0.3,0.5c0.1,0.2,0.1,0.4,0.1,0.6c0,0.4-0.1,0.7-0.3,0.9
		s-0.4,0.2-0.7,0.2c-0.6,0-0.9-0.2-0.9-0.6c0-0.1,0-0.2,0-0.3c0-0.1,0.1-0.1,0.1-0.2s0.1-0.2,0.1-0.2c0-0.1,0-0.2,0-0.4
		c0-0.4-0.2-0.6-0.7-0.6c-0.2,0-0.4,0.1-0.7,0.2s-0.5,0.4-0.7,0.7c-0.2,0.3-0.4,0.7-0.5,1.1s-0.2,0.9-0.2,1.5v4.6h1.7V83h-5
		L126.8,82.7L126.8,82.7z"/>
	<path class="st0" d="M135.3,78.7c0-0.7,0.1-1.3,0.4-1.8c0.3-0.6,0.7-1,1.1-1.5c0.4-0.4,0.9-0.7,1.5-1c0.6-0.2,1.1-0.3,1.6-0.3
		s1.1,0.1,1.6,0.3c0.6,0.2,1.1,0.5,1.5,1c0.4,0.4,0.8,0.9,1.1,1.5s0.4,1.2,0.4,1.8c0,0.6-0.1,1.2-0.4,1.8s-0.6,1-1,1.4
		s-0.9,0.7-1.5,1c-0.6,0.2-1.1,0.4-1.7,0.4s-1.2-0.1-1.7-0.4c-0.6-0.2-1.1-0.6-1.5-1s-0.8-0.9-1-1.4S135.3,79.3,135.3,78.7z
		 M137.3,78.7c0,0.9,0.1,1.7,0.2,2.3c0.1,0.6,0.3,1,0.6,1.3c0.2,0.3,0.5,0.5,0.8,0.6s0.7,0.1,1,0.1c0.4,0,0.7,0,1-0.1
		s0.6-0.3,0.8-0.6c0.2-0.3,0.4-0.7,0.6-1.3c0.1-0.6,0.2-1.3,0.2-2.3c0-0.8-0.1-1.5-0.2-2s-0.3-1-0.5-1.3s-0.5-0.6-0.8-0.7
		s-0.7-0.2-1.2-0.2s-0.8,0.1-1.2,0.2c-0.3,0.1-0.6,0.4-0.8,0.7c-0.2,0.3-0.4,0.8-0.5,1.3S137.3,77.9,137.3,78.7z"/>
	<path class="st0" d="M154.4,80.8c0,0.1-0.1,0.4-0.2,0.6s-0.3,0.5-0.5,0.8s-0.6,0.5-1,0.7s-1,0.3-1.6,0.3c-0.5,0-1-0.1-1.6-0.2
		c-0.5-0.2-1-0.4-1.5-0.8s-0.8-0.8-1.1-1.4s-0.4-1.3-0.4-2.1c0-0.7,0.1-1.3,0.4-1.8c0.2-0.6,0.6-1,1-1.5c0.4-0.4,0.9-0.7,1.5-1
		c0.6-0.2,1.2-0.3,1.8-0.3c0.4,0,0.7,0,1.1,0.1s0.7,0.2,1,0.4c0.3,0.2,0.6,0.4,0.8,0.7c0.2,0.3,0.3,0.6,0.3,1c0,0.3-0.1,0.5-0.3,0.7
		s-0.4,0.3-0.8,0.3c-0.2,0-0.4-0.1-0.6-0.2c-0.2-0.1-0.3-0.3-0.3-0.5s0-0.4,0.1-0.7c0.1-0.3,0.1-0.5,0.1-0.7c0-0.3-0.2-0.5-0.5-0.7
		s-0.7-0.2-1.1-0.2c-0.3,0-0.6,0-0.9,0.1c-0.3,0.1-0.6,0.3-0.9,0.5c-0.3,0.3-0.5,0.7-0.6,1.3c-0.2,0.6-0.2,1.4-0.2,2.4
		c0,0.6,0,1.1,0.1,1.6s0.2,1,0.4,1.3c0.2,0.4,0.5,0.7,0.8,0.9c0.3,0.2,0.8,0.3,1.3,0.3c0.6,0,1.1-0.1,1.5-0.3s0.7-0.4,0.9-0.6
		s0.4-0.5,0.5-0.8s0.2-0.5,0.2-0.6L154.4,80.8z"/>
	<path class="st0" d="M158,78c0,0.1,0,0.3,0,0.4s0,0.3,0,0.5c0,0.4,0,0.9,0.1,1.4s0.2,0.9,0.4,1.3s0.4,0.7,0.8,1
		c0.4,0.3,0.8,0.4,1.4,0.4c0.6,0,1.1-0.1,1.5-0.3c0.4-0.2,0.7-0.4,0.9-0.6s0.4-0.5,0.5-0.8s0.2-0.5,0.2-0.6l0.3,0.1
		c0,0.1-0.1,0.4-0.2,0.6s-0.3,0.5-0.5,0.8s-0.6,0.5-1,0.7s-1,0.3-1.6,0.3s-1.3-0.1-1.8-0.3c-0.6-0.2-1.1-0.5-1.5-0.9s-0.7-0.9-1-1.4
		c-0.2-0.6-0.3-1.2-0.3-1.8c0-0.6,0.1-1.2,0.4-1.7c0.2-0.6,0.6-1,1-1.5c0.4-0.4,0.9-0.8,1.4-1c0.5-0.3,1.1-0.4,1.8-0.4
		c0.4,0,0.8,0.1,1.2,0.2s0.8,0.4,1.2,0.7c0.4,0.3,0.7,0.7,0.9,1.2s0.4,1.1,0.4,1.8L158,78L158,78z M162.2,77.8c0-0.2,0-0.4,0-0.5
		s0-0.3,0-0.5c0-0.5,0-0.8-0.1-1.1c-0.1-0.3-0.2-0.5-0.4-0.7s-0.3-0.3-0.6-0.4c-0.2-0.1-0.5-0.1-0.7-0.1c-0.5,0-0.8,0.1-1.1,0.3
		c-0.3,0.2-0.5,0.4-0.7,0.7c-0.2,0.3-0.3,0.7-0.4,1.1s-0.1,0.8-0.2,1.3h4.2V77.8z"/>
	<path class="st0" d="M166.2,80.2h0.2c0.1,0.3,0.2,0.6,0.4,1c0.1,0.3,0.3,0.6,0.6,0.9c0.2,0.3,0.5,0.5,0.9,0.7s0.8,0.3,1.3,0.3
		c0.4,0,0.8-0.1,1.1-0.4s0.5-0.7,0.5-1.3c0-0.5-0.1-0.9-0.4-1.1c-0.3-0.2-0.6-0.4-0.9-0.5l-1.6-0.5c-0.2-0.1-0.4-0.2-0.6-0.2
		s-0.5-0.2-0.7-0.4s-0.4-0.4-0.5-0.7c-0.1-0.3-0.2-0.6-0.2-1.1c0-0.4,0.1-0.7,0.2-1s0.3-0.6,0.6-0.8c0.3-0.2,0.6-0.4,0.9-0.6
		c0.4-0.1,0.7-0.2,1.2-0.2c0.3,0,0.5,0,0.7,0.1s0.3,0.1,0.5,0.1c0.1,0,0.3,0.1,0.4,0.1s0.2,0.1,0.4,0.1s0.3-0.1,0.3-0.2h0.2v2.3
		h-0.2c-0.1-0.3-0.2-0.6-0.3-0.9s-0.3-0.5-0.4-0.7c-0.2-0.2-0.4-0.4-0.6-0.5c-0.2-0.1-0.5-0.2-0.9-0.2c-0.6,0-1.1,0.1-1.5,0.4
		s-0.5,0.7-0.5,1.1s0.1,0.8,0.4,1c0.3,0.2,0.7,0.4,1.3,0.6l1.5,0.5c0.6,0.2,1.1,0.5,1.5,0.9s0.6,0.9,0.6,1.5c0,0.4-0.1,0.7-0.2,1.1
		c-0.1,0.3-0.3,0.7-0.6,0.9c-0.3,0.3-0.6,0.5-1,0.6c-0.4,0.2-0.8,0.2-1.4,0.2c-0.3,0-0.6,0-0.8-0.1s-0.5-0.1-0.7-0.2
		s-0.4-0.1-0.6-0.2c-0.2-0.1-0.3-0.1-0.5-0.1c-0.1,0-0.3,0-0.3,0.1c-0.1,0.1-0.1,0.1-0.2,0.2h-0.2v-2.8H166.2z"/>
	<path class="st0" d="M174.8,80.2h0.2c0.1,0.3,0.2,0.6,0.4,1c0.1,0.3,0.3,0.6,0.6,0.9s0.5,0.5,0.9,0.7s0.8,0.3,1.3,0.3
		c0.4,0,0.8-0.1,1.1-0.4s0.5-0.7,0.5-1.3c0-0.5-0.1-0.9-0.4-1.1c-0.3-0.2-0.6-0.4-0.9-0.5l-1.6-0.5c-0.2-0.1-0.4-0.2-0.7-0.2
		s-0.4-0.2-0.6-0.4s-0.4-0.4-0.5-0.7s-0.2-0.6-0.2-1.1c0-0.4,0.1-0.7,0.2-1c0.1-0.3,0.3-0.6,0.6-0.8s0.6-0.4,0.9-0.6
		c0.4-0.1,0.7-0.2,1.2-0.2c0.3,0,0.5,0,0.7,0.1c0.2,0,0.3,0.1,0.5,0.1c0.1,0,0.3,0.1,0.4,0.1c0.1,0,0.2,0.1,0.4,0.1
		c0.1,0,0.3-0.1,0.3-0.2h0.2v2.3h-0.2c-0.1-0.3-0.2-0.6-0.3-0.9s-0.3-0.5-0.4-0.7s-0.4-0.4-0.6-0.5c-0.2-0.1-0.5-0.2-0.9-0.2
		c-0.6,0-1.1,0.1-1.5,0.4s-0.5,0.7-0.5,1.1s0.2,0.8,0.5,1s0.7,0.4,1.3,0.6l1.5,0.5c0.6,0.2,1.1,0.5,1.5,0.9s0.6,0.9,0.6,1.5
		c0,0.4-0.1,0.7-0.2,1.1c-0.1,0.3-0.3,0.7-0.6,0.9s-0.6,0.5-1,0.6s-0.8,0.2-1.3,0.2c-0.3,0-0.6,0-0.8-0.1s-0.5-0.1-0.7-0.2
		s-0.4-0.1-0.6-0.2c-0.2-0.1-0.3-0.1-0.5-0.1s-0.3,0-0.3,0.1c-0.1,0.1-0.1,0.1-0.2,0.2h-0.2L174.8,80.2L174.8,80.2z"/>
	<path class="st0" d="M188.3,82.7h2.2V69h-2.2v-0.3h11.4v3.5h-0.2c-0.2-0.5-0.4-1-0.6-1.4c-0.2-0.4-0.4-0.7-0.7-1s-0.6-0.5-1-0.6
		s-0.9-0.2-1.4-0.2h-3.3v6.2h1.3c0.4,0,0.8,0,1.1-0.1s0.6-0.2,0.8-0.4c0.2-0.2,0.4-0.5,0.6-0.9s0.3-0.9,0.5-1.5h0.2v6.2h-0.2
		c-0.1-0.4-0.2-0.8-0.3-1.1c-0.1-0.4-0.2-0.7-0.4-1s-0.4-0.5-0.7-0.7s-0.7-0.2-1.2-0.2h-1.6v7.2h3.8c0.7,0,1.3-0.2,1.8-0.5
		s0.9-0.7,1.2-1.1s0.5-0.9,0.7-1.4c0.1-0.5,0.2-0.9,0.3-1.2h0.2V83h-12.2v-0.3H188.3z"/>
	<path class="st0" d="M211.4,82.8c-0.2,0.1-0.4,0.2-0.6,0.4c-0.2,0.1-0.5,0.1-0.9,0.1c-0.6,0-1.1-0.1-1.4-0.4
		c-0.3-0.3-0.5-0.7-0.6-1.1l0,0c-0.1,0.1-0.1,0.3-0.2,0.4c-0.1,0.2-0.2,0.4-0.4,0.5c-0.2,0.2-0.5,0.3-0.8,0.4s-0.7,0.2-1.2,0.2
		c-0.6,0-1-0.1-1.3-0.2s-0.6-0.3-0.8-0.5s-0.3-0.4-0.4-0.6c-0.1-0.2-0.1-0.5-0.1-0.7c0-0.5,0.1-0.8,0.3-1.1c0.2-0.3,0.4-0.5,0.7-0.7
		s0.6-0.3,1-0.4s0.7-0.2,1.1-0.3c0.4-0.1,0.8-0.3,1.1-0.4s0.5-0.2,0.7-0.4c0.2-0.2,0.3-0.3,0.3-0.6c0.1-0.2,0.1-0.5,0.1-1
		c0-0.3,0-0.6-0.1-0.9c0-0.3-0.1-0.5-0.2-0.7c-0.1-0.2-0.3-0.3-0.5-0.4s-0.5-0.1-0.8-0.1c-0.4,0-0.8,0.1-1.1,0.2
		c-0.3,0.2-0.4,0.4-0.4,0.8c0,0.2,0,0.5,0.1,0.7c0,0.2,0.1,0.4,0.1,0.5c0,0.2-0.1,0.3-0.2,0.5c-0.1,0.1-0.3,0.2-0.6,0.2
		c-0.4,0-0.7-0.1-0.8-0.2c-0.1-0.2-0.2-0.4-0.2-0.6c0-0.3,0.1-0.6,0.2-0.8c0.1-0.3,0.3-0.5,0.6-0.7s0.6-0.4,1-0.5s0.8-0.2,1.4-0.2
		c0.6,0,1.1,0.1,1.5,0.2c0.4,0.2,0.7,0.4,1,0.6c0.3,0.3,0.4,0.6,0.5,0.9s0.2,0.7,0.2,1v5c0,0.4,0.1,0.6,0.2,0.8
		c0.1,0.1,0.3,0.2,0.5,0.2c0.1,0,0.3,0,0.5-0.1s0.3-0.1,0.5-0.2L211.4,82.8z M207.9,78.1L207.9,78.1c-0.1,0.2-0.3,0.3-0.7,0.5
		l-1.5,0.6c-0.4,0.2-0.8,0.4-1,0.7s-0.3,0.7-0.3,1.2c0,0.2,0,0.4,0.1,0.6s0.1,0.4,0.2,0.6c0.1,0.2,0.3,0.3,0.5,0.4s0.4,0.2,0.8,0.2
		c0.4,0,0.8-0.1,1.1-0.3c0.3-0.2,0.5-0.4,0.6-0.7c0.1-0.3,0.2-0.6,0.3-0.9c0-0.3,0.1-0.6,0.1-0.9v-2H207.9z"/>
	<path class="st0" d="M212.5,80.2h0.2c0.1,0.3,0.2,0.6,0.4,1c0.1,0.3,0.3,0.6,0.6,0.9c0.2,0.3,0.5,0.5,0.9,0.7s0.8,0.3,1.3,0.3
		c0.4,0,0.8-0.1,1.1-0.4s0.5-0.7,0.5-1.3c0-0.5-0.1-0.9-0.4-1.1c-0.3-0.2-0.6-0.4-0.9-0.5l-1.6-0.5c-0.2-0.1-0.4-0.2-0.6-0.2
		s-0.5-0.2-0.7-0.4s-0.4-0.4-0.5-0.7c-0.1-0.3-0.2-0.6-0.2-1.1c0-0.4,0.1-0.7,0.2-1s0.3-0.6,0.6-0.8c0.3-0.2,0.6-0.4,0.9-0.6
		c0.4-0.1,0.7-0.2,1.2-0.2c0.3,0,0.5,0,0.7,0.1s0.3,0.1,0.5,0.1c0.1,0,0.3,0.1,0.4,0.1s0.2,0.1,0.4,0.1s0.3-0.1,0.3-0.2h0.2v2.3
		h-0.2c-0.1-0.3-0.2-0.6-0.3-0.9s-0.3-0.5-0.4-0.7c-0.2-0.2-0.4-0.4-0.6-0.5c-0.2-0.1-0.5-0.2-0.9-0.2c-0.6,0-1.1,0.1-1.5,0.4
		s-0.5,0.7-0.5,1.1s0.1,0.8,0.4,1c0.3,0.2,0.7,0.4,1.3,0.6l1.5,0.5c0.6,0.2,1.1,0.5,1.5,0.9s0.6,0.9,0.6,1.5c0,0.4-0.1,0.7-0.2,1.1
		c-0.1,0.3-0.3,0.7-0.6,0.9c-0.3,0.3-0.6,0.5-1,0.6c-0.4,0.2-0.8,0.2-1.4,0.2c-0.3,0-0.6,0-0.8-0.1s-0.5-0.1-0.7-0.2
		s-0.4-0.1-0.6-0.2c-0.2-0.1-0.3-0.1-0.5-0.1c-0.1,0-0.3,0-0.3,0.1c-0.1,0.1-0.1,0.1-0.2,0.2h-0.2v-2.8H212.5z"/>
	<path class="st0" d="M219.8,74.4h4.9v0.3H223l2.6,6.3l2.7-6.3h-1.7v-0.3h3.1v0.3h-1.1l-3.3,7.7c-0.3,0.6-0.5,1.2-0.7,1.7
		c-0.2,0.6-0.5,1.2-0.7,1.8c-0.2,0.5-0.4,0.9-0.6,1.3c-0.2,0.4-0.4,0.7-0.6,0.9c-0.2,0.2-0.4,0.4-0.7,0.5c-0.2,0.1-0.5,0.2-0.8,0.2
		c-0.4,0-0.7-0.1-0.9-0.2s-0.4-0.3-0.5-0.4c-0.1-0.2-0.2-0.3-0.3-0.5s-0.1-0.3-0.1-0.4c0-0.3,0.1-0.6,0.3-0.8
		c0.2-0.2,0.4-0.2,0.7-0.2c0.1,0,0.2,0,0.3,0s0.2,0.1,0.3,0.1c0.1,0.1,0.2,0.1,0.2,0.2c0.1,0.1,0.1,0.2,0.1,0.3
		c0,0.2-0.1,0.4-0.2,0.5c-0.1,0.2-0.2,0.3-0.2,0.5s0,0.3,0.1,0.3c0.1,0.1,0.2,0.1,0.4,0.1s0.4,0,0.6-0.1c0.2-0.1,0.4-0.3,0.5-0.5
		c0.2-0.2,0.3-0.5,0.5-0.9s0.4-0.8,0.6-1.3l0.9-2.2l-3.5-8.6h-1.4v-0.3H219.8z"/>
</g>
</svg>
