<?xml version="1.0" encoding="utf-8"?>
<!-- Generator: Adobe Illustrator 22.0.1, SVG Export Plug-In . SVG Version: 6.00 Build 0)  -->
<svg version="1.1" id="图层_1" xmlns="http://www.w3.org/2000/svg" xmlns:xlink="http://www.w3.org/1999/xlink" x="0px" y="0px"
	 viewBox="0 0 340.2 100" style="enable-background:new 0 0 340.2 100;" xml:space="preserve">
<style type="text/css">
	.st0{fill:#1F2226;}
</style>
<g>
	<path class="st0" d="M47.8,24.8c-2,0.2-3.3,0.4-3.9,0.5l-1.3-1.5l28.4-0.2l2.1-2.3l3.1,2.6c0.2,0.3,0.2,0.5-0.2,0.7H59.6l3.1,0.8
		c0.3,0.1,0.3,0.3,0,0.7s-0.6,0.9-0.8,1.6l-0.2,10l6.2-0.2l2.3-2.3l3.1,2.6c0.2,0.2,0.2,0.4,0,0.5l-11.6,0.3l-0.2,15.9L72,54.5
		l2.5-2.3l3.3,2.6c0.1,0.2,0.1,0.3-0.2,0.3l-31.7,0.7c-1.5,0.1-3,0.3-4.4,0.5L40.4,55l8-0.2V40.1l-0.2-7.4l4.6,1.3
		c0.3,0.1,0.3,0.3,0,0.7s-0.6,0.9-0.8,1.6l-0.3,18.5l6.2-0.2v-23l-0.2-6.9H47.8z"/>
	<path class="st0" d="M88.3,19.1c0-0.3,0.1-0.4,0.3-0.3l3.9,1.8c0.3,0.2,0.3,0.5,0,0.8L92,22.5v3.6h1.5l1.8-1.8l2.1,2
		c0.2,0.3,0.2,0.5-0.2,0.5L92,26.9v5.6c0,0.8,0,1.4,0,2h2.5l1.8-2l2.6,2.1c0.2,0.1,0.2,0.3-0.2,0.5l-6.9,0.3c0,2.1-0.2,4-0.5,5.9
		c3.6,2,5.8,3.6,6.6,4.9c0.3,1.5-0.2,2.8-1.6,3.9c-0.9,0.4-1.4,0.2-1.6-0.7c-0.7-3.1-1.8-5.5-3.4-7.2c-0.9,5.2-4.3,10.3-10.2,15.1
		c-0.2,0.1-0.4,0.1-0.5,0c0-0.2,0.1-0.4,0.2-0.5c5.4-4.7,8-11.8,7.9-21.3L82.5,36c-0.3,0-0.5-0.1-0.5-0.3c0-0.3,0.1-0.5,0.3-0.7
		l6.2-0.3v-3.1v-4.4l-4.4,0.2c-0.3,0-0.5-0.1-0.7-0.3c0-0.2,0.2-0.4,0.5-0.5l4.6-0.2V25C88.6,22.9,88.5,20.9,88.3,19.1z M105.5,26.1
		l3.8,1.5c0.3,0.1,0.3,0.3,0,0.7l-0.5,1.1c-0.1,3-0.4,5.6-0.8,8l3.1,1.6c0.1,0.1,0.2,0.3,0.2,0.5l-0.7,1.1L108.8,51
		c-0.2,1.5,0.3,2.4,1.5,2.5c2.3,0.2,4.3,0.2,6.1-0.2c1-0.1,1.7-1.1,2.3-3.1c0.1-0.2,0.3-0.3,0.5-0.3c0.2,0.1,0.3,0.3,0.3,0.5
		c-0.3,1.3-0.1,2.4,0.7,3.3c1.2,1.5,0.7,2.7-1.5,3.6c-2.7,0.5-5.5,0.6-8.4,0.2c-2.7-0.7-3.9-2.7-3.6-6.1l1-11v-0.5
		c-0.7,7.1-6.6,13.6-17.7,19.5c-0.2,0.1-0.4,0.1-0.5,0c0-0.2,0.1-0.4,0.2-0.5c7-4.3,11.3-8.4,13-12.3
		C104.6,42.6,105.6,35.7,105.5,26.1z M116.5,23.3l-0.2,15.8c0,2.1-0.9,3.8-2.6,5.2c-0.7,0.3-1.1,0.2-1.3-0.3l0.2-19.9
		c0.2-1.2-0.5-1.7-2.1-1.6l-7.7,0.3l-0.2,16.7c-0.2,2.2-1,3.8-2.3,4.9c-0.2,0.2-0.4,0.3-0.7,0.2c-0.1,0-0.2-0.2-0.2-0.5l0.3-8.7
		V24.1l-0.2-3.9L103,22l8.5-0.3l1.8-2.3l4.1,2.1c0.2,0,0.2,0.1,0,0.3L116.5,23.3z"/>
	<path class="st0" d="M137.7,43c0.3-0.1,0.4,0,0.2,0.3l-3.6,5.7c-0.3,0.4-0.7,1-1.1,1.8c-0.9,1.2-1.5,2-1.8,2.5v0.2
		c-0.1,0.2-0.3,0.3-0.5,0.2l-3-2.6c-0.2-0.2-0.2-0.4,0-0.5c0.9-0.4,2-1.2,3.4-2.3L131.1,32l-2.5,0.2c-1.1,0-2.2,0.1-3.4,0.3
		l-1.5-1.1l7.1-0.3l1.8-2.1l3.1,2c0.2,0.1,0.2,0.3,0,0.5l-1,1.1l-0.8,13.6L137.7,43z M129,19.7c2.4,0.8,4,1.7,4.9,2.8
		c0.5,1,0,2-1.6,3c-0.5,0.3-1,0.3-1.3,0c-0.5-2.5-1.3-4.4-2.3-5.6C128.6,19.7,128.7,19.6,129,19.7z M138.3,25.8
		c-0.1-0.3-0.1-0.4,0.2-0.3l3.6,2.3l6.9-0.2c-0.1-2.8-0.1-5.6,0-8.4l3.9,1.5c0.2,0.1,0.2,0.3,0,0.5l-0.7,1c-0.1,1.8-0.2,3.5-0.2,5.2
		l5.1-0.2l2-2.3l2.6,2.5c0.2,0.3,0.2,0.5-0.2,0.5l-9.5,0.5c0,4.8,0.5,9.2,1.5,13.1c1.3-2.8,2.4-5.6,3.3-8.4l3,2
		c0.3,0.1,0.3,0.3,0,0.7c0,0.1-0.1,0.3-0.3,0.5c-0.1,0.2-0.2,0.4-0.3,0.5c-1.3,3.2-2.7,5.9-4.3,8.2c1.2,3,2.8,5.2,4.9,6.7
		c0.7,0.3,1.2,0.3,1.6-0.2l1.5-1.6c0.1-0.1,0.3-0.2,0.5-0.2c0.1,0.1,0.1,0.3,0,0.5c-0.9,1.6-1,3.1-0.3,4.3c0.5,1.3,0.5,2.3-0.2,3
		s-1.6,0.7-3,0c-3.4-2.1-5.9-5.1-7.5-9c-3,3.7-7.4,7.3-13.3,10.8c-0.1,0.1-0.2,0.1-0.3-0.2c-0.1-0.1-0.1-0.2,0-0.3
		c5.2-3.5,9.5-7.8,12.6-13c-1.4-4.7-2.2-10.5-2.5-17.4l-7.2,0.3v6.7l2.5-0.2l1-1.8l3.3,1.6c0.1,0.1,0.2,0.2,0.2,0.3
		c-0.1,0-0.2,0.1-0.2,0.2l-1,1.5l0.2,4.8v3c0,3-1.4,5.2-4.1,6.7c-0.2,0.1-0.4,0.1-0.5,0c-0.2-0.1-0.3-0.3-0.2-0.5
		c0.2-1.3-0.2-2.1-1.1-2.3c-0.2-0.2-0.3-0.4-0.2-0.5c0-0.1,0.1-0.2,0.3-0.2c1.6,0.2,2.4-0.5,2.3-2.1l0.3-9.8l-2.8,0.2
		c-0.1,5.7-0.9,9.8-2.3,12.5c-1.4,2.8-4.5,6.2-9.2,10c-0.2,0-0.4-0.1-0.5-0.3c-0.1-0.1-0.1-0.2,0.2-0.3c3.6-3.2,6-6.5,7.1-9.8
		c1.1-2.8,1.6-7.9,1.5-15.1v-2.5L138.3,25.8z M154.7,21.8c2.2,0.4,3.3,0.9,3.4,1.5c0,0.9-0.4,1.6-1.1,2.3c-0.3,0.3-0.7,0.2-1-0.3
		c-0.2-0.5-0.5-1.3-1-2.1c-0.2-0.5-0.4-0.9-0.5-1.1C154.4,21.8,154.5,21.7,154.7,21.8z"/>
	<path class="st0" d="M164.9,43c-0.1,0.1-0.2,0.1-0.3,0c-0.1-0.2-0.1-0.4,0-0.5c5.8-6.2,10.4-14.2,13.9-23.8l3.6,2.1
		c0.2,0.1,0.2,0.3,0,0.7l-0.7,0.7c-1.3,2.4-2.7,4.7-4.1,6.7l0.3,25.1c-0.2,1.5-1.1,3-2.6,4.4c-0.4,0.4-0.8,0.4-1-0.2l0.3-10.8V32.8
		C171.5,36.6,168.3,39.9,164.9,43z M186.5,26.9c-1.6,0-3.3,0.1-4.9,0.3l-1.3-1.1l10.3-0.2v-2.5l-0.2-4.1l4.6,1.1
		c0.3,0.1,0.4,0.3,0.2,0.7l-0.5,0.8l-0.3,3.9l5.7-0.2l2.1-2.5l3,2.6c0.1,0.2,0.1,0.4-0.2,0.5L186.5,26.9z M183.9,32.7
		c-0.3,0-0.5-0.1-0.5-0.3c0-0.2,0.2-0.3,0.5-0.3l13.5-0.3l2-2.1l2.5,2.5c0.2,0.1,0.2,0.2-0.2,0.3L183.9,32.7z M184.1,39.2
		c-0.3,0-0.5-0.1-0.7-0.3c0-0.2,0.2-0.4,0.5-0.5l13.8-0.3l2-2.1l2.5,2.5c0.3,0.2,0.3,0.3-0.2,0.3L184.1,39.2z M198.7,42l3.8,2.5
		c0.2,0,0.2,0.1,0,0.3l-1,1.5v7.5l0.3,0.2c0,0.3-0.1,0.5-0.2,0.5c-4-0.2-8.9-0.3-14.4-0.2v0.2c-0.2,1.5-1.1,2.8-2.6,3.9
		c-0.2,0.1-0.4,0.2-0.7,0.2c-0.1-0.1-0.2-0.3-0.2-0.5l0.2-5.4v-5.6c0-2.4-0.1-3.8-0.2-4.3c0-0.2,0.1-0.3,0.3-0.2l3.3,1.8l9.7-0.2
		L198.7,42z M187.2,45.5v8.4l10-0.3v-8.4L187.2,45.5z"/>
	<path class="st0" d="M225.4,18.6l4.1,1.8c0.3,0.1,0.3,0.3,0,0.7l-0.8,0.8c4,5.9,10.4,11,19.2,15.3c0.3,0.3,0.3,0.5-0.2,0.7
		c-1.2-0.1-2.8,0.9-4.8,3.1c-6.2-4.5-11.2-10.7-14.8-18.5c-5.1,8-12.2,14.9-21.2,20.7c-0.2,0.1-0.4,0.1-0.5,0c0-0.2,0.1-0.4,0.2-0.5
		C214.6,36.4,220.8,28.4,225.4,18.6z M217.4,38.6l3.9,1.3c0.2,0.1,0.2,0.3,0,0.5l-0.5,1.1l-0.3,13.9l5.4-0.2V38.6l-0.2-7.5l4.8,1.3
		c0.1,0,0.2,0.1,0.3,0.2c-0.1,0.1-0.2,0.2-0.3,0.3c-0.3,0.4-0.6,1-0.8,1.8v6.6l4.1-0.2l2.3-2.3l2.8,2.6c0.2,0.3,0.2,0.5-0.2,0.5
		l-9,0.2l-0.2,13.3l9.8-0.2l2.5-2.3l3.3,2.6c0.2,0.2,0.2,0.4-0.2,0.5l-30.2,0.5c-1.8,0.1-3.2,0.3-4.4,0.5l-1.3-1.3l8.5-0.2
		l-0.2-10.7c0-2.7-0.1-4.8-0.3-6.1C217.1,38.6,217.2,38.6,217.4,38.6z"/>
	<path class="st0" d="M255.1,56c-1.9,0.1-3.4,0.3-4.8,0.5l-1.3-1.3l14.3-0.2l0.2-28.5l-0.2-7.4l4.3,1.3c0.3,0.1,0.4,0.3,0.2,0.7
		c-0.3,0.3-0.6,0.9-0.8,1.6l-0.2,32.2h4.6l0.2-28.2l-0.2-7.4l4.8,1.3c0.3,0,0.3,0.2,0,0.7c-0.3,0.1-0.6,0.7-0.8,1.6l-0.2,22.3
		c3-6.8,5-13,6.2-18.5l4.8,2.8c0.2,0.2,0.2,0.4,0,0.5l-1.1,0.8c-3.4,6.5-6.7,11.9-9.8,16.4l-0.2,7.7l8.5-0.2l2.5-2.3l3.6,2.6
		c0.1,0.2,0.1,0.4-0.2,0.5L255.1,56z M253.7,28.1c5.1,6.1,7.9,10.8,8.4,14.1c-0.3,1.6-1.5,2.8-3.4,3.4c-1,0.2-1.4-0.1-1.3-1
		c-0.2-6.1-1.5-11.6-3.9-16.4C253.3,28,253.4,28,253.7,28.1z"/>
</g>
<g>
	<path class="st0" d="M63.5,84.7h2.2V71h-2.2v-0.3h3.8c0.2,0,0.4,0,0.6,0c0.2,0,0.4,0,0.6,0c0.2,0,0.4,0,0.5,0s0.4,0,0.5,0
		c0.8,0,1.5,0.1,2.1,0.3c0.6,0.2,1.2,0.4,1.7,0.8c0.5,0.3,0.8,0.7,1.1,1.2c0.3,0.5,0.4,1,0.4,1.6c0,0.6-0.2,1.1-0.5,1.6
		s-0.7,0.9-1.2,1.2c-0.5,0.3-1.1,0.6-1.8,0.7c-0.7,0.2-1.4,0.3-2.1,0.3c-0.2,0-0.4,0-0.7,0c-0.3,0-0.6-0.1-0.8-0.1v6.6h2.2V85h-6.4
		V84.7z M67.7,77.8c0.3,0.1,0.5,0.1,0.8,0.1s0.6,0,0.8,0c1,0,1.8-0.3,2.3-0.9c0.6-0.6,0.8-1.5,0.8-2.6c0-0.7-0.1-1.2-0.2-1.7
		c-0.1-0.5-0.3-0.8-0.6-1.1c-0.3-0.3-0.7-0.5-1.1-0.6C70,71,69.5,71,68.8,71c-0.3,0-0.5,0-0.7,0s-0.4,0-0.5,0V77.8z"/>
	<path class="st0" d="M76.4,84.7h1.5v-8h-1.5v-0.3h3.2v2h0c0.1-0.2,0.1-0.4,0.3-0.7c0.1-0.3,0.3-0.5,0.5-0.7
		c0.2-0.2,0.5-0.4,0.8-0.6s0.7-0.2,1.1-0.2c0.3,0,0.6,0,0.8,0.1c0.2,0.1,0.4,0.2,0.6,0.4c0.1,0.2,0.3,0.3,0.3,0.5
		c0.1,0.2,0.1,0.4,0.1,0.6c0,0.4-0.1,0.7-0.3,0.9S83.3,79,83,79c-0.6,0-0.9-0.2-0.9-0.6c0-0.1,0-0.2,0-0.3c0-0.1,0.1-0.1,0.1-0.2
		c0-0.1,0.1-0.2,0.1-0.2c0-0.1,0-0.2,0-0.4c0-0.4-0.2-0.6-0.7-0.6c-0.2,0-0.4,0.1-0.7,0.2s-0.5,0.4-0.7,0.7
		c-0.2,0.3-0.4,0.7-0.5,1.1c-0.1,0.4-0.2,0.9-0.2,1.5v4.6h1.7V85h-5V84.7z"/>
	<path class="st0" d="M84.9,80.7c0-0.7,0.1-1.3,0.4-1.8c0.3-0.6,0.7-1,1.1-1.5c0.4-0.4,0.9-0.7,1.5-1c0.6-0.2,1.1-0.3,1.6-0.3
		c0.5,0,1.1,0.1,1.6,0.3c0.6,0.2,1.1,0.5,1.5,1c0.4,0.4,0.8,0.9,1.1,1.5c0.3,0.6,0.4,1.2,0.4,1.8c0,0.6-0.1,1.2-0.4,1.8
		s-0.6,1-1,1.4c-0.4,0.4-0.9,0.7-1.5,1s-1.1,0.4-1.7,0.4c-0.6,0-1.2-0.1-1.7-0.4c-0.6-0.2-1.1-0.6-1.5-1c-0.4-0.4-0.8-0.9-1.1-1.4
		S84.9,81.3,84.9,80.7z M86.9,80.7c0,0.9,0.1,1.7,0.2,2.3c0.1,0.6,0.3,1,0.6,1.3c0.2,0.3,0.5,0.5,0.8,0.6c0.3,0.1,0.7,0.1,1,0.1
		c0.4,0,0.7,0,1-0.1c0.3-0.1,0.6-0.3,0.8-0.6c0.2-0.3,0.4-0.7,0.6-1.3c0.1-0.6,0.2-1.3,0.2-2.3c0-0.8-0.1-1.5-0.2-2
		c-0.1-0.5-0.3-1-0.5-1.3c-0.2-0.3-0.5-0.6-0.8-0.7s-0.7-0.2-1.2-0.2c-0.5,0-0.8,0.1-1.2,0.2s-0.6,0.4-0.8,0.7
		c-0.2,0.3-0.4,0.8-0.5,1.3C86.9,79.2,86.9,79.9,86.9,80.7z"/>
	<path class="st0" d="M95.6,84.7h1.5v-8h-1.5v-0.3h1.5v-1.1c0-0.5,0-0.9,0.1-1.2s0.1-0.6,0.2-0.9s0.2-0.5,0.3-0.7
		c0.1-0.2,0.2-0.4,0.4-0.5c0.3-0.4,0.8-0.8,1.3-1.1c0.5-0.3,1.1-0.5,1.7-0.5c0.4,0,0.8,0.1,1.1,0.2s0.6,0.3,0.8,0.5
		c0.2,0.2,0.3,0.4,0.4,0.6c0.1,0.2,0.1,0.4,0.1,0.6c0,0.3-0.1,0.5-0.2,0.7c-0.1,0.2-0.4,0.3-0.7,0.3c-0.2,0-0.4,0-0.6-0.1
		c-0.2-0.1-0.3-0.3-0.3-0.5c0-0.2,0.1-0.4,0.2-0.6c0.1-0.2,0.2-0.4,0.2-0.6c0-0.3-0.1-0.5-0.4-0.6s-0.5-0.2-0.7-0.2
		c-0.5,0-1,0.2-1.4,0.7c-0.4,0.5-0.6,1.2-0.6,2.2v2.8h2.5v0.3h-2.5v8h1.8V85h-5.1V84.7z"/>
	<path class="st0" d="M104.7,80c0,0.1,0,0.3,0,0.4s0,0.3,0,0.5c0,0.4,0,0.9,0.1,1.4c0.1,0.5,0.2,0.9,0.3,1.3s0.4,0.7,0.8,1
		s0.8,0.4,1.4,0.4s1.1-0.1,1.5-0.3s0.7-0.4,0.9-0.6c0.2-0.2,0.4-0.5,0.5-0.8c0.1-0.3,0.2-0.5,0.2-0.6l0.3,0.1c0,0.1-0.1,0.4-0.2,0.6
		s-0.3,0.5-0.5,0.8c-0.2,0.3-0.6,0.5-1,0.7c-0.4,0.2-1,0.3-1.6,0.3c-0.7,0-1.3-0.1-1.9-0.3c-0.6-0.2-1.1-0.5-1.5-0.9s-0.7-0.9-1-1.4
		c-0.2-0.6-0.3-1.2-0.3-1.8c0-0.6,0.1-1.2,0.3-1.7c0.2-0.6,0.6-1,1-1.5c0.4-0.4,0.9-0.8,1.4-1c0.5-0.3,1.1-0.4,1.8-0.4
		c0.4,0,0.8,0.1,1.2,0.2c0.4,0.1,0.8,0.4,1.2,0.7c0.4,0.3,0.7,0.7,0.9,1.2s0.4,1.1,0.4,1.8H104.7z M108.8,79.8c0-0.2,0-0.4,0-0.5
		s0-0.3,0-0.5c0-0.5,0-0.8-0.1-1.1s-0.2-0.5-0.4-0.7c-0.2-0.2-0.3-0.3-0.6-0.4s-0.5-0.1-0.7-0.1c-0.5,0-0.8,0.1-1.1,0.3
		s-0.5,0.4-0.7,0.7c-0.2,0.3-0.3,0.7-0.4,1.1s-0.1,0.8-0.2,1.3H108.8z"/>
	<path class="st0" d="M112.9,82.2h0.2c0.1,0.3,0.2,0.6,0.4,1c0.1,0.3,0.3,0.6,0.6,0.9s0.5,0.5,0.9,0.7s0.8,0.3,1.3,0.3
		c0.4,0,0.8-0.1,1.1-0.4c0.3-0.3,0.5-0.7,0.5-1.3c0-0.5-0.1-0.9-0.4-1.1c-0.3-0.2-0.6-0.4-0.9-0.5l-1.6-0.5
		c-0.2-0.1-0.4-0.2-0.7-0.2s-0.4-0.2-0.6-0.4s-0.4-0.4-0.5-0.7s-0.2-0.6-0.2-1.1c0-0.4,0.1-0.7,0.2-1c0.1-0.3,0.3-0.6,0.6-0.8
		s0.6-0.4,0.9-0.6c0.4-0.1,0.7-0.2,1.2-0.2c0.3,0,0.5,0,0.7,0.1c0.2,0,0.3,0.1,0.5,0.1c0.1,0,0.3,0.1,0.4,0.1c0.1,0,0.2,0.1,0.4,0.1
		c0.1,0,0.3-0.1,0.3-0.2h0.2v2.3h-0.2c-0.1-0.3-0.2-0.6-0.3-0.9s-0.3-0.5-0.4-0.7s-0.4-0.4-0.6-0.5c-0.2-0.1-0.5-0.2-0.9-0.2
		c-0.6,0-1.1,0.1-1.5,0.4c-0.4,0.3-0.5,0.7-0.5,1.1c0,0.4,0.2,0.8,0.5,1c0.3,0.2,0.7,0.4,1.3,0.6l1.5,0.5c0.6,0.2,1.1,0.5,1.5,0.9
		c0.4,0.4,0.6,0.9,0.6,1.5c0,0.4-0.1,0.7-0.2,1.1c-0.1,0.3-0.3,0.7-0.6,0.9s-0.6,0.5-1,0.6s-0.8,0.2-1.3,0.2c-0.3,0-0.6,0-0.8-0.1
		c-0.2-0.1-0.5-0.1-0.7-0.2s-0.4-0.1-0.6-0.2c-0.2-0.1-0.3-0.1-0.5-0.1s-0.3,0-0.3,0.1c-0.1,0.1-0.1,0.1-0.2,0.2h-0.2V82.2z"/>
	<path class="st0" d="M121.4,82.2h0.2c0.1,0.3,0.2,0.6,0.4,1c0.1,0.3,0.3,0.6,0.6,0.9s0.5,0.5,0.9,0.7s0.8,0.3,1.3,0.3
		c0.4,0,0.8-0.1,1.1-0.4c0.3-0.3,0.5-0.7,0.5-1.3c0-0.5-0.1-0.9-0.4-1.1c-0.3-0.2-0.6-0.4-0.9-0.5l-1.6-0.5
		c-0.2-0.1-0.4-0.2-0.7-0.2s-0.4-0.2-0.6-0.4s-0.4-0.4-0.5-0.7s-0.2-0.6-0.2-1.1c0-0.4,0.1-0.7,0.2-1c0.1-0.3,0.3-0.6,0.6-0.8
		s0.6-0.4,0.9-0.6c0.4-0.1,0.7-0.2,1.2-0.2c0.3,0,0.5,0,0.7,0.1c0.2,0,0.3,0.1,0.5,0.1c0.1,0,0.3,0.1,0.4,0.1c0.1,0,0.2,0.1,0.4,0.1
		c0.1,0,0.3-0.1,0.3-0.2h0.2v2.3h-0.2c-0.1-0.3-0.2-0.6-0.3-0.9s-0.3-0.5-0.4-0.7s-0.4-0.4-0.6-0.5c-0.2-0.1-0.5-0.2-0.9-0.2
		c-0.6,0-1.1,0.1-1.5,0.4c-0.4,0.3-0.5,0.7-0.5,1.1c0,0.4,0.2,0.8,0.5,1c0.3,0.2,0.7,0.4,1.3,0.6l1.5,0.5c0.6,0.2,1.1,0.5,1.5,0.9
		c0.4,0.4,0.6,0.9,0.6,1.5c0,0.4-0.1,0.7-0.2,1.1c-0.1,0.3-0.3,0.7-0.6,0.9s-0.6,0.5-1,0.6s-0.8,0.2-1.3,0.2c-0.3,0-0.6,0-0.8-0.1
		c-0.2-0.1-0.5-0.1-0.7-0.2s-0.4-0.1-0.6-0.2c-0.2-0.1-0.3-0.1-0.5-0.1s-0.3,0-0.3,0.1c-0.1,0.1-0.1,0.1-0.2,0.2h-0.2V82.2z"/>
	<path class="st0" d="M129.3,84.7h1.5v-8h-1.5v-0.3h3.3v8.3h1.5V85h-4.8V84.7z M130.6,71.8c0-0.3,0.1-0.5,0.3-0.8
		c0.2-0.2,0.5-0.3,0.8-0.3c0.3,0,0.5,0.1,0.8,0.3c0.2,0.2,0.3,0.5,0.3,0.8s-0.1,0.5-0.3,0.8c-0.2,0.2-0.5,0.3-0.8,0.3
		c-0.3,0-0.5-0.1-0.8-0.3C130.8,72.3,130.6,72.1,130.6,71.8z"/>
	<path class="st0" d="M135.6,80.7c0-0.7,0.1-1.3,0.4-1.8c0.3-0.6,0.7-1,1.1-1.5c0.4-0.4,0.9-0.7,1.5-1c0.6-0.2,1.1-0.3,1.6-0.3
		s1.1,0.1,1.6,0.3c0.6,0.2,1.1,0.5,1.5,1c0.4,0.4,0.8,0.9,1.1,1.5c0.3,0.6,0.4,1.2,0.4,1.8c0,0.6-0.1,1.2-0.4,1.8s-0.6,1-1,1.4
		c-0.4,0.4-0.9,0.7-1.5,1c-0.6,0.2-1.1,0.4-1.7,0.4s-1.2-0.1-1.7-0.4c-0.6-0.2-1.1-0.6-1.5-1c-0.4-0.4-0.8-0.9-1-1.4
		S135.6,81.3,135.6,80.7z M137.6,80.7c0,0.9,0.1,1.7,0.2,2.3c0.1,0.6,0.3,1,0.6,1.3c0.2,0.3,0.5,0.5,0.8,0.6c0.3,0.1,0.7,0.1,1,0.1
		c0.4,0,0.7,0,1-0.1c0.3-0.1,0.6-0.3,0.8-0.6c0.2-0.3,0.4-0.7,0.6-1.3c0.1-0.6,0.2-1.3,0.2-2.3c0-0.8-0.1-1.5-0.2-2s-0.3-1-0.5-1.3
		c-0.2-0.3-0.5-0.6-0.8-0.7c-0.3-0.1-0.7-0.2-1.2-0.2s-0.8,0.1-1.2,0.2c-0.3,0.1-0.6,0.4-0.8,0.7c-0.2,0.3-0.4,0.8-0.5,1.3
		S137.6,79.9,137.6,80.7z"/>
	<path class="st0" d="M146.3,84.7h1.5v-8h-1.5v-0.3h3.2v2.1h0c0.1-0.2,0.2-0.4,0.3-0.7c0.2-0.3,0.4-0.5,0.6-0.8
		c0.3-0.3,0.6-0.5,1-0.6c0.4-0.2,0.9-0.3,1.5-0.3c0.9,0,1.6,0.2,2.1,0.6c0.6,0.4,0.8,1.1,0.8,2v5.8h1.5V85h-4.8v-0.3h1.5v-6.5
		c0-0.5-0.1-0.9-0.4-1.3c-0.2-0.3-0.6-0.5-1.2-0.5c-0.4,0-0.8,0.1-1.2,0.3c-0.4,0.2-0.7,0.4-1,0.8c-0.3,0.3-0.5,0.7-0.7,1.2
		s-0.2,0.9-0.2,1.5v4.5h1.5V85h-4.8V84.7z"/>
	<path class="st0" d="M167.6,84.8c-0.2,0.1-0.4,0.2-0.6,0.4c-0.2,0.1-0.5,0.1-0.9,0.1c-0.6,0-1.1-0.1-1.4-0.4
		c-0.3-0.3-0.5-0.7-0.6-1.1h0c-0.1,0.1-0.1,0.3-0.2,0.4c-0.1,0.2-0.2,0.4-0.4,0.5c-0.2,0.2-0.5,0.3-0.8,0.4
		c-0.3,0.1-0.7,0.2-1.2,0.2c-0.6,0-1-0.1-1.3-0.2s-0.6-0.3-0.8-0.5c-0.2-0.2-0.3-0.4-0.4-0.6c-0.1-0.2-0.1-0.5-0.1-0.7
		c0-0.5,0.1-0.8,0.3-1.1c0.2-0.3,0.4-0.5,0.7-0.7c0.3-0.2,0.6-0.3,1-0.4c0.4-0.1,0.7-0.2,1.1-0.3c0.4-0.1,0.8-0.3,1.1-0.4
		c0.3-0.1,0.5-0.2,0.7-0.4c0.2-0.2,0.3-0.3,0.3-0.6c0.1-0.2,0.1-0.5,0.1-1c0-0.3,0-0.6-0.1-0.9c0-0.3-0.1-0.5-0.2-0.7
		c-0.1-0.2-0.3-0.3-0.5-0.4s-0.5-0.1-0.8-0.1c-0.4,0-0.8,0.1-1.1,0.2c-0.3,0.2-0.4,0.4-0.4,0.8c0,0.2,0,0.5,0.1,0.7
		c0,0.2,0.1,0.4,0.1,0.5c0,0.2-0.1,0.3-0.2,0.5c-0.1,0.1-0.3,0.2-0.6,0.2c-0.4,0-0.7-0.1-0.8-0.2c-0.1-0.2-0.2-0.4-0.2-0.6
		c0-0.3,0.1-0.6,0.2-0.8c0.1-0.3,0.3-0.5,0.6-0.7s0.6-0.4,1-0.5c0.4-0.1,0.8-0.2,1.4-0.2c0.6,0,1.1,0.1,1.5,0.2
		c0.4,0.2,0.7,0.4,1,0.6c0.3,0.3,0.4,0.6,0.5,0.9c0.1,0.3,0.2,0.7,0.2,1v5c0,0.4,0.1,0.6,0.2,0.8c0.1,0.1,0.3,0.2,0.5,0.2
		c0.1,0,0.3,0,0.5-0.1c0.2-0.1,0.3-0.1,0.5-0.2L167.6,84.8z M164.1,80.1L164.1,80.1c-0.1,0.2-0.3,0.3-0.7,0.5l-1.5,0.6
		c-0.4,0.2-0.8,0.4-1,0.7s-0.3,0.7-0.3,1.2c0,0.2,0,0.4,0.1,0.6s0.1,0.4,0.2,0.6c0.1,0.2,0.3,0.3,0.5,0.4c0.2,0.1,0.4,0.2,0.8,0.2
		c0.4,0,0.8-0.1,1.1-0.3c0.3-0.2,0.5-0.4,0.6-0.7c0.1-0.3,0.2-0.6,0.3-0.9c0-0.3,0.1-0.6,0.1-0.9V80.1z"/>
	<path class="st0" d="M168.2,84.7h1.5V70.9h-1.5v-0.3h3.3v14.1h1.5V85h-4.8V84.7z"/>
	<path class="st0" d="M192.6,85h-0.3c-0.1-0.1-0.2-0.2-0.3-0.3s-0.3-0.1-0.6-0.1c-0.2,0-0.4,0-0.7,0.1c-0.2,0.1-0.5,0.2-0.8,0.2
		c-0.3,0.1-0.6,0.2-1,0.2c-0.4,0.1-0.8,0.1-1.2,0.1c-0.8,0-1.7-0.2-2.5-0.5c-0.8-0.3-1.5-0.8-2.2-1.5c-0.7-0.7-1.2-1.4-1.6-2.3
		c-0.4-0.9-0.7-1.9-0.7-3.1c0-1,0.2-2,0.5-2.9c0.4-0.9,0.9-1.7,1.5-2.4c0.6-0.7,1.4-1.2,2.3-1.7c0.9-0.4,1.8-0.6,2.8-0.6
		c0.4,0,0.8,0,1.1,0.1c0.3,0.1,0.6,0.2,0.9,0.3s0.5,0.2,0.7,0.3c0.2,0.1,0.4,0.1,0.6,0.1c0.3,0,0.5,0,0.6-0.1s0.2-0.2,0.3-0.3h0.3v4
		h-0.2c-0.1-0.5-0.3-1-0.5-1.5c-0.2-0.5-0.4-0.9-0.8-1.3s-0.8-0.7-1.3-0.9c-0.5-0.2-1.2-0.3-1.9-0.3c-0.7,0-1.3,0.1-1.8,0.3
		c-0.5,0.2-0.9,0.5-1.3,0.9c-0.3,0.4-0.6,0.8-0.8,1.3c-0.2,0.5-0.4,1-0.5,1.5s-0.2,1.1-0.2,1.6c0,0.6,0,1.1,0,1.6
		c0,1.4,0.1,2.6,0.3,3.5s0.5,1.6,1,2.2c0.4,0.5,0.9,0.9,1.5,1.1s1.2,0.3,1.9,0.3c0.9,0,1.6-0.1,2.2-0.4c0.5-0.3,1-0.6,1.3-1
		s0.6-0.9,0.8-1.4c0.2-0.5,0.3-1,0.5-1.5h0.2V85z"/>
	<path class="st0" d="M194.5,80.7c0-0.7,0.1-1.3,0.4-1.8c0.3-0.6,0.7-1,1.1-1.5c0.4-0.4,0.9-0.7,1.5-1c0.6-0.2,1.1-0.3,1.6-0.3
		s1.1,0.1,1.6,0.3c0.6,0.2,1.1,0.5,1.5,1c0.4,0.4,0.8,0.9,1.1,1.5c0.3,0.6,0.4,1.2,0.4,1.8c0,0.6-0.1,1.2-0.4,1.8s-0.6,1-1,1.4
		c-0.4,0.4-0.9,0.7-1.5,1c-0.6,0.2-1.1,0.4-1.7,0.4s-1.2-0.1-1.7-0.4c-0.6-0.2-1.1-0.6-1.5-1c-0.4-0.4-0.8-0.9-1-1.4
		S194.5,81.3,194.5,80.7z M196.5,80.7c0,0.9,0.1,1.7,0.2,2.3c0.1,0.6,0.3,1,0.6,1.3c0.2,0.3,0.5,0.5,0.8,0.6c0.3,0.1,0.7,0.1,1,0.1
		c0.4,0,0.7,0,1-0.1c0.3-0.1,0.6-0.3,0.8-0.6c0.2-0.3,0.4-0.7,0.6-1.3c0.1-0.6,0.2-1.3,0.2-2.3c0-0.8-0.1-1.5-0.2-2s-0.3-1-0.5-1.3
		c-0.2-0.3-0.5-0.6-0.8-0.7c-0.3-0.1-0.7-0.2-1.2-0.2s-0.8,0.1-1.2,0.2c-0.3,0.1-0.6,0.4-0.8,0.7c-0.2,0.3-0.4,0.8-0.5,1.3
		S196.5,79.9,196.5,80.7z"/>
	<path class="st0" d="M205.1,84.7h1.5v-8h-1.5v-0.3h3.2v2.1h0c0.3-0.8,0.7-1.4,1.2-1.8c0.5-0.4,1.2-0.6,1.9-0.6
		c0.7,0,1.3,0.1,1.8,0.4c0.5,0.3,0.8,0.8,1,1.5h0c0.1-0.2,0.2-0.5,0.4-0.7s0.4-0.4,0.6-0.6c0.2-0.2,0.5-0.3,0.8-0.4
		c0.3-0.1,0.7-0.2,1.1-0.2c1.9,0,2.9,1,2.9,3v5.5h1.5V85h-4.8v-0.3h1.5v-6.8c0-0.5-0.1-0.8-0.4-1.1c-0.2-0.3-0.6-0.4-1-0.4
		c-0.3,0-0.7,0.1-1,0.2c-0.3,0.1-0.6,0.3-0.9,0.6s-0.5,0.6-0.7,1c-0.2,0.4-0.2,0.9-0.2,1.4v5.1h1.5V85H211v-0.3h1.5v-6.5
		c0-0.6-0.1-1-0.4-1.3c-0.2-0.3-0.6-0.4-1-0.4c-0.3,0-0.6,0.1-0.9,0.2c-0.3,0.1-0.6,0.4-0.9,0.7c-0.3,0.3-0.5,0.7-0.7,1.2
		c-0.2,0.5-0.3,1.1-0.3,1.8v4.4h1.5V85h-4.8V84.7z"/>
	<path class="st0" d="M222.7,90.3h1.5V76.7h-1.5v-0.3h3.2v1.7h0c0.2-0.6,0.5-1,1-1.4s1.1-0.5,1.8-0.5c0.6,0,1.1,0.1,1.6,0.4
		c0.5,0.2,1,0.6,1.3,1c0.4,0.4,0.7,0.9,0.9,1.4c0.2,0.5,0.3,1.1,0.3,1.7c0,0.6-0.1,1.2-0.3,1.8c-0.2,0.6-0.6,1-1,1.5
		c-0.4,0.4-0.9,0.8-1.4,1c-0.5,0.3-1.1,0.4-1.7,0.4c-0.5,0-0.8-0.1-1.1-0.2c-0.3-0.2-0.6-0.3-0.8-0.5s-0.4-0.4-0.5-0.6
		s-0.2-0.4-0.2-0.5h0v7h1.5v0.3h-4.8V90.3z M230.9,80.4c0-0.6,0-1.2-0.1-1.7c-0.1-0.5-0.2-0.9-0.4-1.2c-0.2-0.3-0.4-0.6-0.7-0.8
		c-0.3-0.2-0.7-0.3-1.1-0.3c-0.5,0-0.9,0.1-1.2,0.3c-0.3,0.2-0.6,0.4-0.8,0.7c-0.1,0.2-0.3,0.4-0.4,0.6c-0.1,0.2-0.2,0.5-0.2,0.8
		c-0.1,0.3-0.1,0.6-0.1,1c0,0.4,0,0.8,0,1.3c0,0.4,0,0.9,0.1,1.4c0.1,0.5,0.2,0.9,0.4,1.3s0.5,0.7,0.8,0.9c0.3,0.2,0.8,0.4,1.4,0.4
		c0.5,0,1-0.1,1.3-0.3c0.3-0.2,0.6-0.5,0.7-0.9s0.3-0.9,0.3-1.4C230.9,81.7,230.9,81.1,230.9,80.4z"/>
	<path class="st0" d="M243.5,84.8c-0.2,0.1-0.4,0.2-0.6,0.4c-0.2,0.1-0.5,0.1-0.9,0.1c-0.6,0-1.1-0.1-1.4-0.4
		c-0.3-0.3-0.5-0.7-0.6-1.1h0c-0.1,0.1-0.1,0.3-0.2,0.4c-0.1,0.2-0.2,0.4-0.4,0.5c-0.2,0.2-0.5,0.3-0.8,0.4
		c-0.3,0.1-0.7,0.2-1.2,0.2c-0.6,0-1-0.1-1.3-0.2s-0.6-0.3-0.8-0.5c-0.2-0.2-0.3-0.4-0.4-0.6c-0.1-0.2-0.1-0.5-0.1-0.7
		c0-0.5,0.1-0.8,0.3-1.1c0.2-0.3,0.4-0.5,0.7-0.7c0.3-0.2,0.6-0.3,1-0.4c0.4-0.1,0.7-0.2,1.1-0.3c0.4-0.1,0.8-0.3,1.1-0.4
		c0.3-0.1,0.5-0.2,0.7-0.4c0.2-0.2,0.3-0.3,0.3-0.6c0.1-0.2,0.1-0.5,0.1-1c0-0.3,0-0.6-0.1-0.9c0-0.3-0.1-0.5-0.2-0.7
		c-0.1-0.2-0.3-0.3-0.5-0.4s-0.5-0.1-0.8-0.1c-0.4,0-0.8,0.1-1.1,0.2c-0.3,0.2-0.4,0.4-0.4,0.8c0,0.2,0,0.5,0.1,0.7
		c0,0.2,0.1,0.4,0.1,0.5c0,0.2-0.1,0.3-0.2,0.5c-0.1,0.1-0.3,0.2-0.6,0.2c-0.4,0-0.7-0.1-0.8-0.2c-0.1-0.2-0.2-0.4-0.2-0.6
		c0-0.3,0.1-0.6,0.2-0.8c0.1-0.3,0.3-0.5,0.6-0.7s0.6-0.4,1-0.5c0.4-0.1,0.8-0.2,1.4-0.2c0.6,0,1.1,0.1,1.5,0.2
		c0.4,0.2,0.7,0.4,1,0.6c0.3,0.3,0.4,0.6,0.5,0.9c0.1,0.3,0.2,0.7,0.2,1v5c0,0.4,0.1,0.6,0.2,0.8c0.1,0.1,0.3,0.2,0.5,0.2
		c0.1,0,0.3,0,0.5-0.1c0.2-0.1,0.3-0.1,0.5-0.2L243.5,84.8z M240,80.1L240,80.1c-0.1,0.2-0.3,0.3-0.7,0.5l-1.5,0.6
		c-0.4,0.2-0.8,0.4-1,0.7s-0.3,0.7-0.3,1.2c0,0.2,0,0.4,0.1,0.6s0.1,0.4,0.2,0.6c0.1,0.2,0.3,0.3,0.5,0.4c0.2,0.1,0.4,0.2,0.8,0.2
		c0.4,0,0.8-0.1,1.1-0.3c0.3-0.2,0.5-0.4,0.6-0.7c0.1-0.3,0.2-0.6,0.3-0.9c0-0.3,0.1-0.6,0.1-0.9V80.1z"/>
	<path class="st0" d="M244.1,84.7h1.5v-8h-1.5v-0.3h3.2v2.1h0c0.1-0.2,0.2-0.4,0.4-0.7c0.2-0.3,0.4-0.5,0.6-0.8s0.6-0.5,1-0.6
		c0.4-0.2,0.9-0.3,1.5-0.3c0.9,0,1.6,0.2,2.2,0.6c0.6,0.4,0.8,1.1,0.8,2v5.8h1.5V85h-4.8v-0.3h1.5v-6.5c0-0.5-0.1-0.9-0.4-1.3
		c-0.2-0.3-0.6-0.5-1.1-0.5c-0.4,0-0.8,0.1-1.2,0.3c-0.4,0.2-0.7,0.4-1,0.8s-0.5,0.7-0.7,1.2c-0.2,0.5-0.2,0.9-0.2,1.5v4.5h1.5V85
		h-4.8V84.7z"/>
	<path class="st0" d="M255.7,76.4h4.9v0.3h-1.7l2.6,6.3l2.7-6.3h-1.7v-0.3h3.1v0.3h-1.1l-3.3,7.7c-0.3,0.6-0.5,1.2-0.7,1.7
		s-0.5,1.2-0.7,1.8c-0.2,0.5-0.4,0.9-0.6,1.3c-0.2,0.4-0.4,0.7-0.6,0.9c-0.2,0.2-0.4,0.4-0.7,0.5s-0.5,0.2-0.8,0.2
		c-0.4,0-0.7-0.1-0.9-0.2c-0.2-0.1-0.4-0.3-0.6-0.4c-0.1-0.2-0.2-0.3-0.3-0.5s-0.1-0.3-0.1-0.4c0-0.3,0.1-0.6,0.3-0.8
		c0.2-0.2,0.4-0.2,0.7-0.2c0.1,0,0.2,0,0.3,0c0.1,0,0.2,0.1,0.3,0.1c0.1,0.1,0.2,0.1,0.2,0.2c0.1,0.1,0.1,0.2,0.1,0.3
		c0,0.2-0.1,0.4-0.2,0.5c-0.1,0.2-0.2,0.3-0.2,0.5c0,0.2,0,0.3,0.1,0.3c0.1,0.1,0.2,0.1,0.4,0.1c0.2,0,0.4,0,0.6-0.1
		c0.2-0.1,0.4-0.3,0.5-0.5c0.2-0.2,0.3-0.5,0.5-0.9c0.2-0.4,0.4-0.8,0.6-1.3l0.9-2.2l-3.5-8.6h-1.4V76.4z"/>
</g>
</svg>
