<?xml version="1.0" encoding="utf-8"?>
<!-- Generator: Adobe Illustrator 22.0.1, SVG Export Plug-In . SVG Version: 6.00 Build 0)  -->
<svg version="1.1" id="图层_1" xmlns="http://www.w3.org/2000/svg" xmlns:xlink="http://www.w3.org/1999/xlink" x="0px" y="0px"
	 viewBox="0 0 340.2 100" style="enable-background:new 0 0 340.2 100;" xml:space="preserve">
<style type="text/css">
	.st0{fill:#1F2226;}
</style>
<g>
	<path class="st0" d="M32.6,20.9l3.1,1.6c0.2,0.1,0.2,0.3,0,0.5l-1,1.5l0.2,14.6v6.7c0.3,5.1-1.4,8.6-5.2,10.3
		c0.1-1.4-0.2-2.3-0.8-2.6c-0.1-0.1-0.2-0.2-0.2-0.3c0-0.1,0.1-0.2,0.2-0.2c2.1,0.4,2.9-1.9,2.5-7.1V23.5l-3.6,0.2l-0.5,0.8L27,31
		l3-0.2c0.3,0,0.5,0.1,0.5,0.3c0,0.3-0.2,0.5-0.5,0.5l-3,0.2v5.4c0,0.5-0.1,1.1-0.2,1.8l3.3-0.2c0.3,0,0.5,0.1,0.5,0.3
		c-0.1,0.3-0.3,0.5-0.7,0.5l-3.1,0.2c-0.1,7.4-3.3,13.9-9.7,19.4c-0.2,0-0.3-0.1-0.3-0.3c-0.1-0.1-0.1-0.2,0.2-0.3
		c2.8-3.1,4.7-6.1,5.6-9c1-3.2,1.5-7.7,1.5-13.5v-8.2c0-1.2-0.1-2.8-0.2-4.9c0-1,0-1.6,0-2c-0.1-0.3-0.1-0.4,0.2-0.3l3.6,2.1
		l3.4-0.2L32.6,20.9z M42.3,38.6c0.7,3,1.9,5.5,3.8,7.5c1.1-2.7,2-5.8,2.6-9.2l-8,0.3V44l0.2,7.1c-0.1,2.4-0.9,4.5-2.5,6.4
		c-0.7,0.4-1,0.3-1.1-0.5l0.3-9.2V26.9c0-3-0.1-5.3-0.2-7.1l3.3,2.1l6.7-0.2l1.3-2l3.4,1.8c0.2,0.1,0.3,0.3,0.2,0.5l-1.1,1.6v2v2.6
		c-0.1,2.3-1.4,4.2-3.9,5.7c-0.2,0-0.3-0.1-0.3-0.3c-0.1-1.2-0.6-2.1-1.5-2.6c-0.1-0.3-0.1-0.4,0-0.3c1.5,0.1,2.2-0.3,2-1.3l0.2-6.9
		L40.6,23v13.5l8-0.5l1.6-1.8l3.3,2.1c0.2,0.1,0.2,0.3,0,0.5l-1.1,1.3c-1.4,4-3,7.4-4.6,10c2.5,2.3,5.8,4.3,9.8,6.1
		c0.2,0.2,0.2,0.4,0,0.7c-1.8-0.1-3.4,0.8-5.1,2.6c-3.2-2.5-5.4-4.8-6.6-6.9C44.9,52,42.9,54.1,40,57c-0.4,0.2-0.5,0.1-0.3-0.3
		c2.3-2.7,4.1-5.3,5.4-7.7c-1.5-2.7-2.6-6.2-3.3-10.3H42.3z"/>
	<path class="st0" d="M74.7,36.1l4.1,1.5c0.2,0.1,0.2,0.3,0,0.5l-0.5,1.1c0,0.3,0,0.8,0,1.3c-0.1,0.7-0.2,1.1-0.2,1.5l7.2-0.5
		l1.8-2.1l3.9,2.5c0.2,0.2,0.2,0.4,0,0.7L90,44c0,0.7-0.1,1.8-0.2,3.3c-0.1,3-0.2,4.6-0.3,4.9c-0.7,2.3-2.7,4.3-6.2,6.1
		c-0.3,0.1-0.5,0-0.5-0.3c0.2-1.8-0.2-3-1.3-3.6c-0.2,0-0.3-0.1-0.2-0.3h0.3c2.4,0,3.6-0.7,3.4-2.1c0.3-1.2,0.5-4.3,0.5-9.4L78,42.8
		c-0.5,7.8-6.7,13.4-18.5,16.9c-0.2,0.1-0.4,0.1-0.5-0.2c0-0.2,0.1-0.4,0.3-0.5c9.6-3,14.7-8.3,15.1-16.1l-4.8,0.3l-3.3,0.3
		l-1.3-1.1l9.5-0.3c0-0.2,0.1-0.5,0.2-1c0-0.4,0-0.8,0-1C74.7,38.8,74.7,37.4,74.7,36.1z M73.9,18.7l3.6,2.3
		c0.3,0.1,0.3,0.3-0.2,0.7l-0.8,0.8c-0.3,0.5-0.7,1-1.1,1.3l9.2-0.3l2.5-2.1l3.8,3c0.1,0.1,0.2,0.2,0.3,0.3
		c-0.1,0.1-0.2,0.2-0.3,0.2L89,25.9c-0.3,0.3-0.9,0.8-1.6,1.3c-2.5,2.2-4.4,3.7-5.7,4.6c2.8,1.4,8.6,3.2,17.4,5.2
		c0.2,0,0.3,0.1,0.3,0.2c0,0.2-0.1,0.3-0.3,0.3c-1.5,0.2-3.3,1.4-5.2,3.6c-6.6-2.3-11.4-4.9-14.6-7.9c-4,2.6-9.7,5.4-17.1,8.2
		c-0.2,0.1-0.4,0.1-0.5,0c-0.1-0.1-0.1-0.3,0.2-0.5c6.2-3.1,11.4-6.3,15.6-9.7c-1.3-1.6-2.6-3.4-3.8-5.4c-2.5,2.7-5.5,5.4-8.9,8
		c-0.2,0.1-0.4,0.1-0.5,0c-0.1-0.1-0.1-0.2,0-0.3c3.9-4.3,7-9.2,9.2-14.8c0-0.1,0.1-0.2,0.2-0.3L73.9,18.7z M84.1,24.3l-9.5,0.5
		c-0.1,0.3-0.3,0.5-0.7,0.7c1.4,1.9,3,3.4,4.8,4.8C80.3,28.8,82.1,26.8,84.1,24.3z"/>
	<path class="st0" d="M110,36.6c-2,0-3.4,0.1-4.4,0.3l-1.5-1.3l14.8-0.3c0.1-3,0.2-6.3,0.2-10.2l-5.6,0.2c-2,0-3.4,0.2-4.4,0.5
		l-1.3-1.3l22.6-0.7l2.5-2.5l3.1,2.8l0.2,0.3c-0.1,0.1-0.2,0.2-0.3,0.2l-13,0.5c0.1,3.8,0,7.2-0.3,10.2L134,35l2.3-2.5l3.1,2.8
		c0.1,0.1,0.2,0.2,0.2,0.3c0,0.1-0.1,0.2-0.3,0.2l-14.9,0.3l3.8,1.5c0.1,0,0.2,0.1,0.3,0.2c-0.1,0.1-0.2,0.2-0.3,0.3l-0.8,1
		l-1.1,11.3c-0.2,1.6,0.5,2.4,2.3,2.3c3.1,0.1,5.4,0,7.1-0.3c1.4,0,2.5-1.4,3.3-4.3c0-0.2,0.1-0.3,0.3-0.3c0.2,0.1,0.3,0.3,0.3,0.5
		c-0.2,2,0,3.2,0.7,3.8c1.6,1.4,1.4,2.7-0.7,3.8c-3,1.1-6.6,1.4-10.8,0.8c-4-0.1-5.9-3-5.4-8.7l0.3-7.2v-4.6l-1,0.2
		c0,10.5-7,18-21,22.6c-0.2,0.1-0.4,0.1-0.5-0.2c0-0.2,0.1-0.4,0.3-0.5c11.6-4.4,17.4-11.7,17.4-22L110,36.6z"/>
	<path class="st0" d="M162.4,18.7l4.3,2.1c0.2,0,0.2,0.2-0.2,0.5l-0.8,0.8c-0.2,0.3-0.6,0.9-1.1,1.6c-0.4,0.7-0.8,1.2-1.1,1.6
		l10.7-0.3l2.3-2.5l3.1,2.6c0.1,0.3,0.1,0.5-0.2,0.5l-12,0.5c0.7,3.3,6.1,6.3,16.2,9.2c0.2,0,0.3,0.1,0.3,0.3c0,0.1-0.1,0.2-0.3,0.3
		c-1.8,0.2-3.4,1.4-5.1,3.4c-5.9-2.6-9.8-7.1-11.6-13.3h-4.1c-2,2.3-4,4.4-6.1,6.4l2.1,1l6.9-0.3l1.8-1.8l2.5,2
		c0.1,0.1,0.1,0.3-0.2,0.5l-11.2,0.3v1l-0.2,2.1l8-0.2l2-1.8l2.3,2c0.1,0.1,0.1,0.2-0.2,0.3l-12.1,0.5v3.1l9.7-0.2l2-2.1l2.5,2.1
		c0.1,0.2,0.1,0.4-0.2,0.5l-13.9,0.5l-0.2,3l17.4-0.3l2.6-2.6l2.8,2.8c0.2,0.3,0.2,0.5-0.2,0.5L160.6,46l2.6,2l0.2,0.2
		c0,0.1-0.1,0.2-0.3,0.3c-3.3,2.1-5.8,3.9-7.5,5.4l15.8-0.8c-0.8-1.5-1.7-3-2.8-4.4c-0.1-0.2-0.1-0.3,0.2-0.2c4.7,2.5,7.4,4.5,8,6.1
		c0.1,1.3-0.8,2.5-2.6,3.4c-0.4,0.3-0.8,0.2-1-0.5c-0.4-1.5-0.9-2.7-1.5-3.6c-8,1-14.5,2.2-19.5,3.8c-0.4,0.3-0.7,0.3-0.8,0
		l-1.1-3.3c0-0.2,0.1-0.3,0.3-0.3c0.1,0,0.3,0,0.5,0c1.2,0,2.1-0.2,2.6-0.5c1.4-1.2,3.2-3.4,5.2-6.6c0.2-0.3,0.4-0.6,0.5-0.8l-8,0.2
		c-1.5,0.1-3,0.3-4.4,0.5l-1.3-1.3l9.4-0.2L155,36c0-0.8,0-1.4,0-2c-3,2.6-6.8,5.3-11.6,8c-0.1,0.1-0.2,0.1-0.3-0.2
		c-0.1-0.1-0.1-0.2,0-0.3c5.5-3.3,10.5-8.3,15.1-15.1l-5.6,0.2c-2,0.1-3.5,0.3-4.6,0.5l-1.1-1.3l12-0.3
		C160.4,22.9,161.6,20.7,162.4,18.7z"/>
	<path class="st0" d="M201.7,39.2c0.3,0,0.5,0.1,0.5,0.3c0,0.2-0.2,0.4-0.5,0.5l-4.1,0.3l-0.3,9.5l5.6-1.6c0.4-0.1,0.5,0,0.2,0.3
		l-9.5,5.4c-1.5,0.8-2.8,1.5-3.8,2.3c-0.3,0.2-0.5,0.2-0.7,0l-2-3.1c-0.2-0.3-0.2-0.5,0.2-0.5c0.4,0,1.1-0.2,2-0.5
		c0.3-0.1,0.6-0.2,0.8-0.2l-0.2-9.4c0-0.7-0.1-1.5-0.2-2.6c0-1.3-0.1-2.2-0.2-2.8l3.3,1.3c0.2,0.1,0.2,0.3,0,0.5l-0.3,1l-0.2,11.3
		l2.3-0.7l-0.2-11.8c0-3.2-0.1-5.2-0.2-6.1l3.9,1.3c0.2,0.2,0.2,0.4,0,0.7l-0.5,1.1l-0.2,3.6L201.7,39.2z M199.3,21.2l3.1,2
		c0.2,0,0.2,0.1,0,0.3l-1,1.3l-0.2,6.9l0.2,0.3c0,0.2-0.1,0.3-0.2,0.3c-1.2-0.2-4.3-0.2-9.4,0.2c-0.2,0.9-0.8,1.8-1.6,2.8
		c-0.5,0.3-0.9,0.3-1-0.2l0.3-4.6v-4.6c0-0.4-0.1-1.3-0.2-2.6c0-0.9,0-1.4,0-1.6c0-0.2,0.2-0.2,0.5,0l2.6,1.3l5.4-0.2L199.3,21.2z
		 M192.2,23.8l-0.2,7.9l5.7-0.2l0.2-8L192.2,23.8z M207.8,27.9c0.8,1.8,1.8,3.2,3.1,4.3c1.9-2.2,3.4-4.4,4.6-6.7l-7.1,0.3
		c-1.6,2.1-3.6,4.2-5.9,6.2c-0.3,0.2-0.4,0.2-0.3-0.2c2.7-3.8,5-8.1,6.7-12.8l3,2c0.2,0.1,0.2,0.3-0.2,0.5l-0.5,0.7
		c-0.2,0.3-0.5,0.8-1,1.3c-0.4,0.7-0.8,1.1-1,1.5l6.4-0.3l2-2l3.3,2.6c0.3,0.2,0.3,0.4,0,0.7l-1.3,1.1c-2.1,2.5-4.2,4.8-6.4,6.7
		c3,1.6,7.2,3.2,12.6,4.6c0.1,0.1,0.2,0.2,0.3,0.3c-0.1,0.1-0.2,0.2-0.3,0.2c-1.9,0.1-3.6,1.1-5.1,3.1c-4-1.7-7.2-3.9-9.4-6.6
		c-3.9,3.2-8,5.9-12.1,8.2c-0.2,0.1-0.4,0.1-0.5-0.2c0-0.1,0.1-0.3,0.2-0.5c4.2-2.7,7.8-6,11-9.7c-1-1.6-1.8-3.4-2.5-5.2L207.8,27.9
		z M214.9,42.7l1.8-2.1l3.6,2c0.2,0.1,0.2,0.3,0,0.5l-1,1.5l0.2,8.2l0.3,0.7c0,0.3-0.1,0.5-0.3,0.5c-1.4-0.1-3.5-0.1-6.2,0
		c-2.2,0-4.1,0-5.7,0c-0.2,1.4-1,2.8-2.3,4.1c-0.3,0.3-0.6,0.3-0.8-0.2l0.2-7.5v-5.7V41c0-0.2,0.1-0.2,0.2,0l3,1.8L214.9,42.7z
		 M207.6,43.8l-0.2,9l7.5-0.2v-9L207.6,43.8z"/>
	<path class="st0" d="M238.3,22l1.6-1.6l2.8,2.1c0.2,0.1,0.3,0.2,0.2,0.3c0,0.1-0.1,0.2-0.3,0.3l-0.8,1c-1.3,2.2-3,4.8-5.1,7.7
		c4.3,3.4,6.3,6.6,6.2,9.5c-0.2,2.5-1.8,4.3-4.8,5.4c-0.1,0.1-0.2,0.1-0.2-0.2c0.2-1.5-0.3-2.6-1.5-3.3c-0.2-0.1-0.2-0.2,0.2-0.3
		c1.7,0.2,2.6-0.1,2.5-1c0.5-3.4-0.5-6.8-3.1-10.2c0.9-2.6,1.7-5.5,2.5-8.5c0.1-0.2,0.2-0.4,0.2-0.5l-4.3,0.3l-0.3,21l0.2,8
		c-0.2,2.5-1,4.6-2.5,6.2c-0.7,0.5-1,0.5-1.1,0l0.3-11l0.5-27.2l3,2L238.3,22z M250.5,18.6l4.1,1.5c0.2,0.1,0.2,0.3-0.2,0.5l-0.8,1
		c-0.2,0.4-0.6,1.1-1.1,2c-0.3,0.5-0.6,1-0.8,1.3l6.2-0.2l1.3-1.5l3.3,2c0.1,0.1,0.1,0.3-0.2,0.5l-1.6,1.3l-5.4,6.2
		c-0.2,0.2-0.4,0.3-0.5,0.3c-0.1-0.1-0.1-0.3,0-0.7l3-7.4l-6.7,0.3c-2.3,3.3-5,6.6-8.2,10c-0.2,0.1-0.3,0-0.3-0.3
		C246.1,30.4,248.8,24.8,250.5,18.6z M244.4,35l3.1,1.5c1.4-1.1,2.7-2.3,3.9-3.6l2.3,2.6c0.1,0.2,0.1,0.3-0.2,0.3l-0.8,0.2
		c-0.3,0.1-0.9,0.3-1.6,0.5c-1.4,0.3-2.5,0.5-3.3,0.7l-0.5,1.1v5.9L250,44l1.5-1.6l2,1.8c0.1,0.1,0.2,0.2,0.2,0.3
		c0,0.1-0.1,0.2-0.3,0.2l-5.9,0.2v8l12.5-0.3v-8.2l-4.9,0.2c-0.3,0-0.5-0.1-0.5-0.3c0-0.2,0.1-0.4,0.3-0.5h5.1l0.2-6.7l-4.8,0.3
		c-0.2,0-0.3-0.2-0.3-0.5c0-0.2,0.1-0.3,0.3-0.3l4.4-0.2l1.6-2.3l3.6,2c0.2,0,0.2,0.1,0,0.3l-0.8,1.5l-0.2,9.4v4.1
		c0.2,2.1-0.6,4-2.5,5.9c-0.7,0.7-1.1,0.6-1.3-0.2c-0.1-0.3-0.3-0.9-0.5-1.8c-0.3-0.9-0.5-1.5-0.7-1.8l-11.6,0.3V54
		c-0.1,1.4-0.9,2.8-2.3,4.1c-0.5,0.4-0.9,0.4-1-0.2l0.2-7.9l0.2-9.5c0-1-0.1-2.2-0.2-3.8c0-0.8,0-1.3,0-1.6S244.3,34.8,244.4,35z"/>
	<path class="st0" d="M280.2,21.8l1.6-1.6l3,2c0.3,0.2,0.3,0.5,0,0.8l-1,0.8c-0.1,0.2-0.3,0.5-0.5,0.8c-1.8,2.8-3.3,5.2-4.8,7.1
		c3.9,3.2,6,6,6.2,8.5l4.3-0.2c0-1.3,0-2.7,0-4.3v-6.1c-1.5,0-2.8,0.1-3.8,0.3l-1.1-1.1h4.9l-0.2-6.6c0-1.7-0.1-2.9-0.2-3.4
		c0-0.1,0.1-0.2,0.2-0.2l3.9,1.6c0.1,0,0.2,0.1,0.3,0.2l-0.2,0.3l-0.7,0.8v7.1h4.4v-4.1c0-2.5,0-4.4,0-5.6c0-0.3,0.1-0.4,0.2-0.2
		l4.1,1.8c0.2,0.1,0.2,0.2,0,0.3l-0.8,1.3v6.2h1.6l2.3-2.1l2.5,2.5c0.1,0.2,0.1,0.3-0.2,0.3l-6.4,0.2v10.3l4.9-0.2l2-2.1l2.6,2.6
		c0.2,0.1,0.2,0.3-0.2,0.5l-9.4,0.2l-0.2,6.7l0.2,7.1c-0.2,1.5-1.1,3.1-2.6,4.6c-0.2,0.2-0.5,0.3-0.8,0.3c-0.2-0.1-0.3-0.3-0.2-0.7
		l0.3-11.6v-6.4l-4.6,0.2c0.3,8.4-4.9,14.5-15.6,18.2c-0.2,0.1-0.3,0.1-0.3-0.2c0-0.2,0.1-0.4,0.2-0.5c8.5-3,12.7-8.8,12.6-17.6h-1
		c-0.1,0-0.3,0-0.5,0c-1,0.2-1.9,0.3-2.8,0.3c-0.2,2.4-1.8,4.2-4.8,5.4c-0.2,0.1-0.3,0.1-0.3-0.2c0.3-1.4-0.2-2.5-1.5-3.1
		c-0.2-0.3-0.2-0.5,0.2-0.5c1.7,0.2,2.6-0.1,2.6-1c0.4-3.4-0.6-6.8-3.1-10.2c1.4-4.6,2.2-7.6,2.5-9l-4.3,0.3l-0.2,21v8
		c-0.1,2.5-0.9,4.6-2.3,6.2c-0.8,0.5-1.2,0.5-1.3,0l0.5-11l0.3-27.2l3,2L280.2,21.8z M292.3,35.3c0,1.6,0,3.2,0,4.6h4.4V29.6h-4.4
		V35.3z"/>
</g>
<g>
	<path class="st0" d="M121.7,84.7h2.2V71h-2.2v-0.3h4.3l6.8,10.9h0V71h-2.2v-0.3h4.7V71h-2.2v14.2h-0.4l-8.4-13.4h0v12.9h2.2V85
		h-4.7V84.7z"/>
	<path class="st0" d="M136.6,80.7c0-0.7,0.1-1.3,0.4-1.8c0.3-0.6,0.7-1,1.1-1.5c0.4-0.4,0.9-0.7,1.5-1c0.6-0.2,1.1-0.3,1.6-0.3
		s1.1,0.1,1.6,0.3c0.6,0.2,1.1,0.5,1.5,1c0.4,0.4,0.8,0.9,1.1,1.5c0.3,0.6,0.4,1.2,0.4,1.8c0,0.6-0.1,1.2-0.4,1.8s-0.6,1-1,1.4
		c-0.4,0.4-0.9,0.7-1.5,1c-0.6,0.2-1.1,0.4-1.7,0.4s-1.2-0.1-1.7-0.4c-0.6-0.2-1.1-0.6-1.5-1c-0.4-0.4-0.8-0.9-1-1.4
		S136.6,81.3,136.6,80.7z M138.6,80.7c0,0.9,0.1,1.7,0.2,2.3c0.1,0.6,0.3,1,0.6,1.3c0.2,0.3,0.5,0.5,0.8,0.6c0.3,0.1,0.7,0.1,1,0.1
		c0.4,0,0.7,0,1-0.1c0.3-0.1,0.6-0.3,0.8-0.6c0.2-0.3,0.4-0.7,0.6-1.3c0.1-0.6,0.2-1.3,0.2-2.3c0-0.8-0.1-1.5-0.2-2s-0.3-1-0.5-1.3
		c-0.2-0.3-0.5-0.6-0.8-0.7c-0.3-0.1-0.7-0.2-1.2-0.2s-0.8,0.1-1.2,0.2c-0.3,0.1-0.6,0.4-0.8,0.7c-0.2,0.3-0.4,0.8-0.5,1.3
		S138.6,79.9,138.6,80.7z"/>
	<path class="st0" d="M165.8,85h-0.3c-0.1-0.1-0.2-0.2-0.3-0.3c-0.1-0.1-0.3-0.1-0.6-0.1c-0.2,0-0.4,0-0.7,0.1
		c-0.2,0.1-0.5,0.2-0.8,0.2c-0.3,0.1-0.6,0.2-1,0.2c-0.4,0.1-0.8,0.1-1.2,0.1c-0.8,0-1.7-0.2-2.5-0.5c-0.8-0.3-1.5-0.8-2.2-1.5
		c-0.7-0.7-1.2-1.4-1.6-2.3c-0.4-0.9-0.7-1.9-0.7-3.1c0-1,0.2-2,0.5-2.9c0.4-0.9,0.9-1.7,1.5-2.4c0.6-0.7,1.4-1.2,2.3-1.7
		c0.9-0.4,1.8-0.6,2.8-0.6c0.4,0,0.8,0,1.1,0.1s0.6,0.2,0.9,0.3c0.3,0.1,0.5,0.2,0.7,0.3c0.2,0.1,0.4,0.1,0.6,0.1
		c0.3,0,0.5,0,0.6-0.1s0.2-0.2,0.3-0.3h0.3v4h-0.2c-0.1-0.5-0.3-1-0.5-1.5c-0.2-0.5-0.4-0.9-0.8-1.3c-0.3-0.4-0.8-0.7-1.3-0.9
		c-0.5-0.2-1.2-0.3-1.9-0.3c-0.7,0-1.3,0.1-1.8,0.3c-0.5,0.2-0.9,0.5-1.3,0.9c-0.3,0.4-0.6,0.8-0.8,1.3c-0.2,0.5-0.4,1-0.5,1.5
		c-0.1,0.5-0.2,1.1-0.2,1.6c0,0.6-0.1,1.1-0.1,1.6c0,1.4,0.1,2.6,0.3,3.5c0.2,0.9,0.5,1.6,0.9,2.2c0.4,0.5,0.9,0.9,1.5,1.1
		c0.6,0.2,1.2,0.3,1.9,0.3c0.9,0,1.6-0.1,2.2-0.4c0.5-0.3,1-0.6,1.3-1c0.3-0.4,0.6-0.9,0.8-1.4c0.2-0.5,0.3-1,0.5-1.5h0.2V85z"/>
	<path class="st0" d="M167.3,84.7h1.5V70.9h-1.5v-0.3h3.3v7.9h0c0.1-0.2,0.2-0.4,0.3-0.6c0.2-0.3,0.4-0.5,0.7-0.7
		c0.3-0.2,0.6-0.4,1-0.6c0.4-0.2,0.9-0.2,1.4-0.2c0.9,0,1.6,0.2,2.1,0.6c0.6,0.4,0.8,1.1,0.8,2v5.8h1.5V85h-4.8v-0.3h1.5v-6.5
		c0-0.5-0.1-0.9-0.4-1.3c-0.2-0.3-0.6-0.5-1.2-0.5c-0.4,0-0.8,0.1-1.2,0.3c-0.4,0.2-0.7,0.4-1,0.8c-0.3,0.3-0.5,0.7-0.7,1.2
		s-0.2,0.9-0.2,1.5v4.5h1.5V85h-4.8V84.7z"/>
	<path class="st0" d="M182,80c0,0.1,0,0.3,0,0.4c0,0.1,0,0.3,0,0.5c0,0.4,0,0.9,0.1,1.4c0.1,0.5,0.2,0.9,0.4,1.3
		c0.2,0.4,0.4,0.7,0.8,1c0.4,0.3,0.8,0.4,1.4,0.4c0.6,0,1.1-0.1,1.5-0.3c0.4-0.2,0.7-0.4,0.9-0.6c0.2-0.2,0.4-0.5,0.5-0.8
		c0.1-0.3,0.2-0.5,0.2-0.6l0.3,0.1c0,0.1-0.1,0.4-0.2,0.6s-0.3,0.5-0.5,0.8c-0.2,0.3-0.6,0.5-1,0.7c-0.4,0.2-1,0.3-1.6,0.3
		s-1.3-0.1-1.8-0.3c-0.6-0.2-1.1-0.5-1.5-0.9c-0.4-0.4-0.7-0.9-1-1.4c-0.2-0.6-0.3-1.2-0.3-1.8c0-0.6,0.1-1.2,0.4-1.7
		c0.2-0.6,0.6-1,1-1.5c0.4-0.4,0.9-0.8,1.4-1c0.5-0.3,1.1-0.4,1.8-0.4c0.4,0,0.8,0.1,1.2,0.2c0.4,0.1,0.8,0.4,1.2,0.7
		c0.4,0.3,0.7,0.7,0.9,1.2c0.2,0.5,0.4,1.1,0.4,1.8H182z M186.1,79.8c0-0.2,0-0.4,0-0.5s0-0.3,0-0.5c0-0.5,0-0.8-0.1-1.1
		c-0.1-0.3-0.2-0.5-0.4-0.7c-0.2-0.2-0.3-0.3-0.6-0.4c-0.2-0.1-0.5-0.1-0.7-0.1c-0.5,0-0.8,0.1-1.1,0.3c-0.3,0.2-0.5,0.4-0.7,0.7
		c-0.2,0.3-0.3,0.7-0.4,1.1s-0.1,0.8-0.2,1.3H186.1z"/>
	<path class="st0" d="M198.6,84.8c-0.2,0.1-0.4,0.2-0.6,0.4c-0.2,0.1-0.5,0.1-0.9,0.1c-0.6,0-1.1-0.1-1.4-0.4
		c-0.3-0.3-0.5-0.7-0.6-1.1h0c-0.1,0.1-0.1,0.3-0.2,0.4c-0.1,0.2-0.2,0.4-0.4,0.5c-0.2,0.2-0.5,0.3-0.8,0.4
		c-0.3,0.1-0.7,0.2-1.2,0.2c-0.6,0-1-0.1-1.3-0.2s-0.6-0.3-0.8-0.5c-0.2-0.2-0.3-0.4-0.4-0.6c-0.1-0.2-0.1-0.5-0.1-0.7
		c0-0.5,0.1-0.8,0.3-1.1c0.2-0.3,0.4-0.5,0.7-0.7c0.3-0.2,0.6-0.3,1-0.4c0.4-0.1,0.7-0.2,1.1-0.3c0.4-0.1,0.8-0.3,1.1-0.4
		c0.3-0.1,0.5-0.2,0.7-0.4c0.2-0.2,0.3-0.3,0.3-0.6c0.1-0.2,0.1-0.5,0.1-1c0-0.3,0-0.6-0.1-0.9c0-0.3-0.1-0.5-0.2-0.7
		c-0.1-0.2-0.3-0.3-0.5-0.4s-0.5-0.1-0.8-0.1c-0.4,0-0.8,0.1-1.1,0.2c-0.3,0.2-0.4,0.4-0.4,0.8c0,0.2,0,0.5,0.1,0.7
		c0,0.2,0.1,0.4,0.1,0.5c0,0.2-0.1,0.3-0.2,0.5c-0.1,0.1-0.3,0.2-0.6,0.2c-0.4,0-0.7-0.1-0.8-0.2c-0.1-0.2-0.2-0.4-0.2-0.6
		c0-0.3,0.1-0.6,0.2-0.8c0.1-0.3,0.3-0.5,0.6-0.7s0.6-0.4,1-0.5c0.4-0.1,0.8-0.2,1.4-0.2c0.6,0,1.1,0.1,1.5,0.2
		c0.4,0.2,0.7,0.4,1,0.6c0.3,0.3,0.4,0.6,0.5,0.9c0.1,0.3,0.2,0.7,0.2,1v5c0,0.4,0.1,0.6,0.2,0.8c0.1,0.1,0.3,0.2,0.5,0.2
		c0.1,0,0.3,0,0.5-0.1c0.2-0.1,0.3-0.1,0.5-0.2L198.6,84.8z M195.1,80.1L195.1,80.1c-0.1,0.2-0.3,0.3-0.7,0.5l-1.5,0.6
		c-0.4,0.2-0.8,0.4-1,0.7s-0.3,0.7-0.3,1.2c0,0.2,0,0.4,0.1,0.6s0.1,0.4,0.2,0.6c0.1,0.2,0.3,0.3,0.5,0.4c0.2,0.1,0.4,0.2,0.8,0.2
		c0.4,0,0.8-0.1,1.1-0.3c0.3-0.2,0.5-0.4,0.6-0.7c0.1-0.3,0.2-0.6,0.3-0.9c0-0.3,0.1-0.6,0.1-0.9V80.1z"/>
	<path class="st0" d="M199,76.4h1.5v-2.6c0.1,0,0.2,0.1,0.3,0.1c0.1,0,0.3,0,0.5,0c0.2,0,0.4,0,0.5-0.1c0.1,0,0.3-0.1,0.4-0.2v2.7
		h2.8v0.3h-2.8v6.5c0,0.4,0,0.7,0.1,0.9c0.1,0.2,0.2,0.4,0.3,0.5c0.1,0.1,0.2,0.2,0.4,0.2c0.1,0,0.3,0.1,0.4,0.1
		c0.5,0,0.8-0.2,1.1-0.5c0.3-0.3,0.5-0.7,0.5-1.2l0.3,0.1c0,0.2-0.1,0.4-0.2,0.6s-0.2,0.4-0.4,0.6c-0.2,0.2-0.4,0.4-0.6,0.5
		c-0.3,0.1-0.6,0.2-1,0.2c-1,0-1.7-0.2-2.1-0.6c-0.4-0.4-0.6-0.9-0.6-1.6v-6.4H199V76.4z"/>
</g>
</svg>
