<?xml version="1.0" encoding="utf-8"?>
<!-- Generator: Adobe Illustrator 22.0.1, SVG Export Plug-In . SVG Version: 6.00 Build 0)  -->
<svg version="1.1" id="图层_1" xmlns="http://www.w3.org/2000/svg" xmlns:xlink="http://www.w3.org/1999/xlink" x="0px" y="0px"
	 viewBox="0 0 340.2 100" style="enable-background:new 0 0 340.2 100;" xml:space="preserve">
<style type="text/css">
	.st0{fill:#FFB043;}
</style>
<g>
	<path class="st0" d="M8.5,41.5c-1.9,0.1-3.6,0.3-5.1,0.5l-1.1-1.3l15.9-0.2L18,35.9c0-0.3,0.1-0.4,0.3-0.3l3.3,0.8
		c0.5,0.1,0.7,0.4,0.5,0.8v3.3l11-0.2l2.6-2.8l3.3,3l0.2,0.3C39,40.9,38.9,41,38.8,41l-15.4,0.3c3.6,4.4,8.7,6.6,15.3,6.7
		c0.2,0,0.3,0.1,0.3,0.2c0,0.1-0.1,0.2-0.2,0.3c-2.6,0.4-4.6,1.4-5.9,3c-5.2-2-8.6-5.4-10.2-10.2H22l-0.3,8.5
		c-0.1,2.3-1.5,3.9-4.1,4.9c-0.3,0.1-0.5,0.1-0.5-0.2c-0.1-1.5-0.5-2.5-1.3-3c-0.2-0.1-0.3-0.3-0.2-0.5c0-0.1,0.1-0.2,0.3-0.2
		c1.7,0.3,2.5,0,2.3-1L18,44.4c-3.5,2.7-9.1,5.5-16.7,8.4C1,52.9,0.8,53,0.6,53.1s-0.4,0.1-0.5-0.2c0-0.1,0.1-0.3,0.2-0.5
		C6.4,49.8,12,46,17,41.3L8.5,41.5z M8.6,28.2c-0.3,0-0.8,0.1-1.3,0.2c-1.5,0-2.6,0.1-3.1,0.3l-1.3-1.3L14.2,27v-0.2
		c2-2.5,3.1-4.3,3.4-5.2l3.9,1.1c0.2,0.2,0.2,0.4,0,0.5l-1,1L18,26.9l15.3-0.5l2.3-2.5l3.3,2.6c0.1,0.2,0.1,0.4-0.2,0.5L28,27.5
		l1.8,1.1c0.3,0.3,0.3,0.5-0.2,0.7c-2.2,1.3-4.4,2.6-6.7,3.8c5.8,1,8.8,1.8,9,2.3c0.7,1.1,0.9,2.2,0.7,3.4c-0.1,0.4-0.2,0.7-0.3,0.8
		c-0.2,0-0.5-0.2-1-0.5c-2.5-1.5-6.3-3.1-11.5-4.8c-4,1.9-9.3,3.7-15.9,5.7c-0.2,0-0.3-0.1-0.3-0.2c-0.1-0.1-0.1-0.2,0.2-0.3
		c4.6-1.5,9-3.5,13.2-5.9c-0.4-0.1-1.1-0.3-2-0.5c-2.1-0.5-3.6-0.9-4.6-1l3.1-4.1L8.6,28.2z M33.2,19.8l1.8-1.6l3.9,3.1
		c0.3,0.5,0.2,0.9-0.3,1c-2.1,0.1-3.9,0.8-5.6,2c-0.3,0-0.4-0.1-0.3-0.3l0.7-3.3L8.8,21.1c-0.5,2.3-1.9,4.1-3.9,5.4
		c-0.4,0.2-0.8,0.2-1-0.2c-0.2-1.5-0.2-2.5,0.2-2.8c1.5-1.1,2.2-2.6,2.1-4.4C6,18.7,6.3,18.7,7,19c0.8,0.4,1.3,0.9,1.6,1.3l9.8-0.2
		l0.2-5.4l4.6,1.1c0.3,0.1,0.4,0.3,0.2,0.7l-0.5,1L22.7,20L33.2,19.8z M13.2,31.8c0.2,0,0.5,0,0.8,0c2.2,0.2,3.9,0.4,5.1,0.7
		c3.1-1.9,5.4-3.5,7.1-4.9L17,27.9L13.2,31.8z"/>
	<path class="st0" d="M42.2,39.3c-0.2,0.1-0.4,0.1-0.5,0s-0.1-0.2,0-0.3c4.5-6.2,8.3-14.4,11.5-24.4l3.4,1.8c0.2,0,0.2,0.2,0,0.5
		l-0.5,0.7c-0.8,2-1.8,3.9-3,5.7l-0.2,25.1c-0.2,1.6-0.9,3.1-2.1,4.4c-0.7,0.5-1,0.5-1.1-0.2L50,41.8l0.5-13.9
		c-1.6,2.5-4.3,6.1-7.9,10.8C42.5,39,42.4,39.2,42.2,39.3z M60,34.7c0.2,0.1,0.6,0.3,1.1,0.7c0.8,0.3,1.3,0.6,1.6,0.8
		c0.9-2.5,1.5-4.9,2-7.1l-4.1,0.2c-1.4,3-3.4,6.2-6.1,9.8c-0.2,0.1-0.3,0.1-0.3-0.2c2.6-6,4.5-12.1,5.7-18.4c-1,0-1.9,0.1-2.6,0.3
		L56,19.6l10.5-0.3l2-1.8l2.3,2.3c0.1,0.1,0.2,0.2,0.2,0.3c0,0.1-0.1,0.2-0.3,0.2l-9,0.3c-0.3,0-0.7,0-1,0l3,1.5
		c0.2,0.1,0.2,0.3,0,0.5l-0.5,1.3c-0.4,1.3-1.1,2.8-2,4.6l3.4-0.2l1.8-1.8l3.3,2.1c0.3,0.1,0.3,0.3,0,0.7l-1.1,1.1
		c-0.7,2.3-1.6,4.8-2.8,7.4c1.2,0.8,2,1.5,2.3,2.1c0.1,1.5-0.2,2.7-1,3.6c-0.8,0.9-1.5,0.7-2.1-0.7c-0.1-0.1-0.2-0.3-0.3-0.7
		c0-0.2-0.2-0.5-0.5-1C61.7,45.7,58,50.5,53,55.4c-0.1,0.1-0.2,0.1-0.3-0.2c0-0.1,0.1-0.2,0.2-0.3c3.8-4.8,6.9-10.4,9.4-16.9
		c-0.7-1.2-1.4-2.2-2.3-3C59.7,35,59.7,34.9,60,34.7z M71.1,22.9l2.3,1.3c0.3,0.1,0.4,0.4,0.2,1l-0.2,16.2c0,1.5-0.7,2.9-2,4.1
		c-0.2,0.2-0.4,0.3-0.7,0.3c-0.1-0.1-0.2-0.3-0.2-0.5l0.2-22.1C70.8,22.9,70.9,22.8,71.1,22.9z M76.4,15.9l3.8,1.8
		c0.1,0,0.2,0.1,0.3,0.2l-0.2,0.3l-0.8,1.3V41l0.2,5.7c0.1,3.3-1.4,5.7-4.4,7.4c-0.2,0.1-0.4,0.1-0.5,0s-0.1-0.2,0-0.3
		c0.1-1.4-0.3-2.4-1.1-3c-0.1-0.1-0.2-0.2-0.2-0.3s0.1-0.2,0.3-0.2c1.7,0.2,2.5-0.3,2.3-1.6V24.2c0-3.7,0-6.4,0-8
		C76,15.9,76.2,15.8,76.4,15.9z"/>
	<path class="st0" d="M96.2,37.4l-1,1.3h4.8l1.6-1.8l3,2.1c0.3,0.3,0.4,0.5,0.2,0.7l-1.3,0.8c-1.3,2.2-2.7,4.1-4.1,5.7
		c2,0.5,3.3,1,3.9,1.5c0.4,0.7,0.5,1.7,0.2,3.1c-0.1,0.5-0.3,0.9-0.7,1c-0.3,0.1-0.7-0.1-1-0.5c-1.4-1.3-2.9-2.4-4.4-3.1
		c-3,2.3-7.2,4.4-12.6,6.4c-0.2,0.2-0.4,0.3-0.5,0.2s-0.1-0.3,0-0.7c4.8-2,8.5-4.3,11-7.1c-2-1-4-1.7-6.2-2.1
		c0.9-1.9,1.6-3.6,2.3-5.2c-1.8,0-3.2,0.1-4.4,0.3l-1.3-1.1h6.1c0.5-1.6,1-3.3,1.5-4.9l3.9,2.1l0.3,0.2c0,0.1-0.1,0.2-0.3,0.3
		L96.2,37.4z M102.8,16.7l2.6,2c0.2,0.1,0.2,0.3-0.2,0.5L98.6,24l4.3-0.2l2-2.1l2.6,2.3c0.2,0.3,0.2,0.5-0.2,0.5l-9,0.2v2.6v4.4
		c-0.4,1.3-1.4,2.4-2.8,3.3c-0.4,0.1-0.7,0-0.8-0.3L95,28c-3,2.5-6.3,4.8-10.2,6.9c-0.3,0-0.4-0.2-0.3-0.5c3.3-2.2,6.3-5.4,9-9.5
		h-1.8c-1.2,0-2.5,0.1-3.8,0.3c-0.3,0.1-0.5,0.2-0.7,0.2l-1.3-1.1l9-0.2v-4.3l-0.2-4.3c-0.1-0.5-0.1-0.7,0.2-0.5l3.4,1.1
		c0.3,0.1,0.4,0.3,0.2,0.5l-0.3,1.3v5.7c1.4-1.9,2.8-4,4.1-6.4C102.6,17,102.7,16.8,102.8,16.7z M88.7,17.7c-0.1-0.3,0-0.4,0.3-0.3
		c0.1,0,0.3,0.1,0.7,0.3c2,0.8,3.2,1.4,3.6,2c0.2,0.7-0.1,1.5-1,2.5c-0.8,0.4-1.3,0.4-1.5,0C90.4,20.3,89.7,18.8,88.7,17.7z
		 M90.8,44.4c0.7,0.1,1.6,0.3,2.8,0.5c1.3,0.2,2.2,0.4,2.8,0.5c0.9-1.1,2-3.1,3.4-5.9l-5.2,0.2L90.8,44.4z M99.3,26
		c2.8,0.5,4.9,1.3,6.1,2.1c0.3,0.5,0.2,1.6-0.5,3.1c-0.7,0.7-1.2,0.6-1.6-0.2c-1.1-2.1-2.5-3.7-4.1-4.8C99,26.2,99,26,99.3,26z
		 M102.1,54.3c-0.4-0.1-0.5-0.3-0.2-0.7c3.9-3.1,6.8-6.3,8.7-9.7c-1.2-2.7-2.1-6.8-2.6-12.3c-0.2,0.2-0.4,0.6-0.7,1.1
		c-0.4,0.7-1.1,1.6-2.1,3c-0.1,0.1-0.2,0.2-0.3,0.2c-0.1,0-0.2-0.1-0.2-0.3c3.5-7.2,6-14.1,7.4-20.5c0-0.2,0.1-0.3,0.3-0.2l3.8,2.8
		c0.3,0.3,0.3,0.5,0,0.7c-0.7,0.5-1.2,1.1-1.6,1.8c-1.1,2.3-2.4,4.7-3.9,7.2l7.7-0.5l2.3-2.5l3,2.8c0.2,0.1,0.2,0.3-0.2,0.5L116,28
		l2.8,1.8c0.3,0.2,0.3,0.7-0.2,1.5c-1.2,5-2.7,9-4.6,12c2.5,3.4,6,5.9,10.5,7.5c0.2,0.1,0.3,0.2,0.3,0.3c0,0.2-0.1,0.3-0.3,0.3
		c-1.8-0.1-3.7,0.8-5.9,2.6c-3.2-2.7-5.4-5.4-6.7-7.9C109.8,48.7,106.6,51.4,102.1,54.3z M110.2,28.3c-0.1,0.2-0.3,0.5-0.7,1
		c-0.4,0.7-0.8,1.2-1,1.6c0.8,3.8,2,7.1,3.6,9.7c1.3-3.4,2.2-7.6,2.8-12.6L110.2,28.3z"/>
	<path class="st0" d="M133.5,15.1l3.4,1.3c0.3,0,0.3,0.2,0,0.7l-0.5,1.1l-0.2,6.1h1.1l1.5-1.8l2.1,2c0.2,0.3,0.2,0.5-0.2,0.5
		l-4.6,0.2V32c0.4-0.2,1.1-0.5,2.1-1c0.8-0.3,1.3-0.6,1.6-0.8c0.4-0.1,0.5,0,0.2,0.3c-0.2,0.2-0.5,0.5-1,0.8c-0.8,0.5-1.8,1.3-3,2.3
		l-0.2,6.2l0.2,5.7c0.1,3.3-1.4,5.7-4.4,7.2c-0.2,0.1-0.4,0.2-0.5,0.2c-0.1-0.1-0.2-0.3-0.2-0.7c0.2-1.2-0.2-2.1-1.1-2.6
		c-0.2-0.4-0.2-0.7,0.2-0.7c2.2,0.3,3.2-0.2,3-1.6V36.2c-1.9,1.4-3.1,2.6-3.8,3.4c-0.2,0.2-0.4,0.2-0.7,0l-1.1-4.1
		c-0.1-0.1-0.1-0.2,0.2-0.2c0.9-0.2,2.7-0.9,5.4-2.1v-8h-0.8c-0.3,0-0.7,0.1-1.1,0.2c-1.3,0-2.2,0.1-2.6,0.3l-1-1.1l5.6-0.2v-1
		c0-3.7-0.1-6.4-0.2-8C133,15.1,133.1,14.9,133.5,15.1z M150.9,33.9c-2.1,0-3.6,0.2-4.4,0.5l-1-1c-0.1,8.1-4.5,15.5-13.1,22.3
		c-0.2,0.1-0.4,0.1-0.5,0c-0.1-0.2-0.1-0.4,0.2-0.5c4.2-3.8,7-7.7,8.5-11.6c0.7-2,1.1-4.1,1.5-6.4c0.3-2.1,0.4-4.9,0.3-8.5v-7.1
		l-0.2-4.9c-0.1-0.3-0.1-0.4,0.2-0.3l3.6,1.8l12.8-0.2l1.6-1.6l3,2c0.2,0.1,0.2,0.3,0,0.7l-0.8,1v5.1l0.2,0.5
		c0.1,0.2,0.1,0.3-0.2,0.3c-0.9,0-2.1-0.1-3.6-0.2c-1.5,0-2.7,0-3.4,0l-10,0.2v3.8c0,1.1,0,2.2,0,3.4h7.1l0.2-1.5V26l4.1,1.8
		c0.2,0,0.2,0.1,0,0.3l-0.5,1.3l-0.3,3.6h4.8l2.1-2.5l2.8,2.6c0.1,0.1,0.2,0.2,0.2,0.3c-0.1,0.1-0.3,0.2-0.5,0.2l-9.4,0.2l-0.5,7.5
		l2.5-0.2l1.6-1.8l3.4,2.1c0.2,0.1,0.2,0.2,0,0.3l-1.1,1.5l0.2,7.4l0.2,0.5c0.1,0.1,0.1,0.2-0.2,0.3c-1.1-0.1-3.2-0.1-6.2,0
		c-2.5,0-4.6,0-6.2,0c-0.2,1-0.8,2-1.8,3c-0.4,0.3-0.8,0.3-1-0.2l0.2-6.6v-3.4c0-0.5-0.1-1.5-0.2-3c0-0.7,0-1.1,0-1.3
		c0-0.1,0.1-0.2,0.3-0.2l2.6,1.6l2.6-0.2l0.2-7.4h-1.9V33.9z M145.4,19.2v5.7l13.3-0.2l0.2-5.7L145.4,19.2z M149.9,50.3v0.2
		l-0.2,0.2l8.4-0.2v-8.4l-8.2,0.2V50.3z"/>
	<path class="st0" d="M184.7,40c0.3-0.1,0.4,0,0.3,0.3l-5.9,8.7c-0.7,0.7-1.5,1.8-2.6,3.4c-0.1,0.2-0.2,0.4-0.3,0.5
		c-0.2,0.4-0.4,0.5-0.7,0.3l-2.6-3c-0.3-0.1-0.4-0.2-0.2-0.3c0.8-0.3,1.9-1.1,3.4-2.3c-0.1,0,0-0.1,0.3-0.3l-0.2-19l-2.6,0.2
		c-1.6,0-2.8,0.1-3.4,0.3l-1.5-1.3l7.5-0.2l1.8-2.5l3.3,2c0.2,0.1,0.2,0.3,0,0.5l-1.1,1.5l-0.8,15.9L184.7,40z M174.3,15.1
		c0.1,0,0.3,0.1,0.5,0.2c3.4,1.3,5.1,2.4,5.2,3.3c0.2,1.2-0.4,2.4-1.8,3.6c-1,0.2-1.5,0-1.6-0.7c-0.5-2.8-1.4-4.9-2.6-6.1
		C173.9,15.1,174,14.9,174.3,15.1z M190.1,20.6c-1.5,0-3,0.1-4.4,0.3l-1.3-1.1l17.6-0.3l2.1-2l2.6,2.5c0.1,0.2,0.1,0.3-0.2,0.3
		l-11.6,0.2l3.3,1c0.3,0,0.3,0.2,0,0.7c-0.2,0.3-0.4,0.8-0.7,1.5L197.3,34h3.8l2.3-2.1l2.8,2.5c0.2,0.3,0.2,0.5-0.2,0.5l-8.7,0.2V51
		h6.1l2.3-2l2.8,2.3c0.2,0.2,0.2,0.3,0,0.3l-21.2,0.7c-2.1,0-3.7,0.1-4.8,0.3l-1.1-1.1l5.1-0.2v-18l-0.3-5.4l3.4,1.1
		c0.2,0,0.3,0.1,0.3,0.2s-0.1,0.3-0.2,0.5l-0.2,0.7v21l4.1-0.2l0.2-23.6l-0.3-7.1L190.1,20.6z"/>
	<path class="st0" d="M243.1,16.5l3,1.8c0.2,0.1,0.2,0.3,0,0.5l-0.8,1.1l0.2,21.2c0.7,6-1,9.8-5.1,11.3c0.1-1.4-0.2-2.4-0.8-2.8
		c-0.1-0.1-0.2-0.2-0.2-0.3s0.1-0.2,0.2-0.2c2,0.7,2.8-1.9,2.5-7.7l-0.2-22.1l-6.1,0.2l-0.5,1.1L235,28l4.9-0.2
		c0.2,0,0.3,0.1,0.3,0.3c0,0.2-0.1,0.4-0.3,0.5l-4.9,0.2v3.3c0,2-0.1,3.7-0.3,5.1l5.1-0.2c0.2,0,0.3,0.1,0.3,0.3
		c0,0.3-0.1,0.5-0.3,0.5l-5.2,0.2c-0.7,8.8-7.7,14.4-21,17.1c-0.2,0.1-0.4,0.1-0.5-0.2c0-0.2,0.1-0.3,0.3-0.3
		c7.8-2.2,12.7-4.8,14.8-7.7c2.6-3.1,3.9-8.4,3.9-15.9l0.2-6.6c0-2.8-0.1-5.2-0.3-7.1c-0.1-0.3,0-0.4,0.3-0.3l3.3,1.6l6.1-0.2
		L243.1,16.5z M228.6,18.8c0.2,0,0.2,0.1,0,0.3l-0.8,1.3l-0.2,10.8l0.2,4.8c-0.1,2.1-0.7,3.8-1.8,5.1c-0.3,0.4-0.7,0.7-1,0.7
		c-0.2-0.1-0.3-0.4-0.3-0.8c0-0.9-0.1-1.9-0.3-3c-0.1-0.2-0.2-0.4-0.2-0.5l-5.1,0.2c-0.1,1.5-0.7,3-1.8,4.3
		c-0.2,0.2-0.4,0.3-0.7,0.3c-0.1-0.1-0.2-0.3-0.2-0.5l0.3-17.7c0-2.6-0.1-4.9-0.3-6.7c0-0.2,0.2-0.3,0.5-0.2l2.6,1.3h5.1l1.1-1.5
		L228.6,18.8z M219.1,36.7v0.2l4.9-0.2c0.2-0.2,0.3-0.5,0.3-1c0.1-0.1,0.2-0.2,0.2-0.3l0.3-16.2l-5.1,0.2l-0.3,1l-0.2,6.9l4.1-0.2
		c0.2,0,0.3,0.1,0.3,0.3c0,0.3-0.1,0.5-0.3,0.5l-4.1,0.2L219.1,36.7z"/>
	<path class="st0" d="M273.2,24.1l4.9,1.8c0.3,0,0.4,0.2,0.2,0.7l-1,1.3l-0.7,7.1c-0.2,1.5-0.5,3-0.8,4.3l8-0.3l3-3l3.3,3.3
		c0.2,0.3,0.2,0.5-0.2,0.5l-14.4,0.5c-1.8,6.8-9.1,11.8-22,15.1c-0.2,0-0.4-0.1-0.5-0.2c0-0.2,0.1-0.4,0.3-0.5
		c10.2-3.1,16.3-7.8,18.4-14.3l-11.6,0.3c-1.5,0.1-3,0.3-4.4,0.5l-1.3-1.3l17.7-0.5c0.4-1.9,0.7-3.7,0.8-5.6l0.3-3.4
		c0.1-1.3,0.1-3,0-5.1C273.2,24.7,273.2,24.3,273.2,24.1z M284.9,21.3l1.8-1.5l4.3,4.1c0.3,0.5,0.1,0.8-0.7,0.8
		c-1.8,0.1-3.9,0.9-6.4,2.3c-0.2,0-0.3-0.1-0.3-0.3l1.5-4.6l-23.5,0.7c-0.8,3.4-2.5,5.9-5.2,7.5c-0.3,0.2-0.6,0.2-0.8-0.2
		c-0.5-1.4-0.5-2.4,0.2-2.8c2.1-2,3.2-4.2,3.4-6.6c-0.1-0.2-0.1-0.3,0-0.3c0.2-0.1,0.4-0.1,0.7,0.2c0.4,0.1,1,0.5,1.6,1.3l8.9-0.3
		l0.2-6.7l4.9,1.3c0.1,0,0.2,0.1,0.3,0.2l-0.2,0.3l-0.5,1l-0.2,3.9L284.9,21.3z M260.1,31.5c3.9,0.9,6.2,1.9,6.7,3.1
		c0.3,0.8,0,1.8-1,3.1c-0.9,0.7-1.5,0.5-1.8-0.3c-1.2-2.6-2.6-4.4-4.1-5.4c-0.1-0.1-0.2-0.2-0.2-0.3
		C259.8,31.5,259.9,31.5,260.1,31.5z M263.4,25.1c3.8,0.9,5.9,1.8,6.2,2.6c0.1,1.1-0.3,2.2-1.3,3.3c-0.9,0.5-1.4,0.4-1.6-0.5
		c-0.8-2.4-1.9-4-3.4-4.9c-0.2-0.1-0.3-0.2-0.2-0.3C263.1,25.1,263.2,25.1,263.4,25.1z M277.5,43.9c5.4,1.5,8.7,3.1,10.2,4.8
		c0.4,1,0.2,2.3-0.8,3.9c-0.8,1-1.4,0.9-2-0.2c-2.1-3.5-4.6-6.2-7.5-8.2C277.1,44,277.2,43.9,277.5,43.9z"/>
	<path class="st0" d="M312.5,15.1l4.3,1.5c0.3,0.1,0.4,0.3,0.2,0.5l-0.5,1c-0.1,2.4-0.2,4.7-0.2,6.9l8.7-0.2l2-2.3l3.9,2.5
		c0.3,0.1,0.4,0.3,0.2,0.5l-1.5,1.8c0,1.1-0.1,3.4-0.2,6.9c-0.1,4-0.2,6.8-0.2,8.2c0,2.5-0.1,4.2-0.3,5.1c-0.8,2.7-2.9,4.9-6.4,6.4
		c-0.3,0.1-0.5,0-0.5-0.3c0-1.9-0.4-3-1.3-3.4c-0.2-0.1-0.3-0.2-0.3-0.3c0-0.2,0.1-0.3,0.3-0.2c2.5,0.2,3.8-0.7,3.8-2.8
		c0.4-5,0.7-12,0.8-21l-9.2,0.3c-0.2,9.2-1.8,15.6-4.8,19.2c-2.7,3.8-8.3,7.1-16.7,9.7c-0.2,0.1-0.3,0.1-0.3-0.2
		c0-0.2,0.1-0.4,0.2-0.5c7.1-2.6,11.8-5.8,14.1-9.5c2.5-3.6,3.9-9.8,4.1-18.5l-4.1,0.2c-2.6,0-4.7,0.2-6.2,0.7l-1.5-1.6l11.8-0.3
		C312.6,22.1,312.6,18.8,312.5,15.1z"/>
</g>
<g>
	<path class="st0" d="M95.6,76.7h0.2c0.1,0.7,0.3,1.3,0.6,1.8c0.2,0.5,0.5,0.9,0.8,1.2c0.3,0.3,0.6,0.6,0.9,0.7
		c0.3,0.2,0.6,0.3,0.9,0.4s0.6,0.1,0.9,0.1s0.6,0,0.8,0c0.7,0,1.3-0.1,1.7-0.3s0.8-0.5,1.1-0.8c0.3-0.3,0.5-0.7,0.6-1.1
		s0.2-0.7,0.2-1.1c0-0.5-0.1-0.9-0.3-1.2c-0.2-0.3-0.4-0.6-0.7-0.8c-0.3-0.2-0.6-0.4-0.9-0.6c-0.3-0.1-0.6-0.3-0.9-0.3L99.2,74
		c-1.1-0.3-1.9-0.8-2.5-1.3s-0.8-1.3-0.8-2.2c0-0.6,0.1-1.2,0.3-1.7c0.2-0.5,0.5-1,0.9-1.3c0.4-0.4,0.9-0.7,1.4-0.9
		c0.5-0.2,1.1-0.3,1.8-0.3c0.5,0,0.9,0,1.2,0.1c0.3,0.1,0.6,0.2,0.8,0.3c0.2,0.1,0.4,0.2,0.6,0.3c0.2,0.1,0.4,0.1,0.5,0.1
		c0.2,0,0.3,0,0.4-0.1c0.1,0,0.1-0.2,0.2-0.3h0.3v3.6h-0.2c-0.1-0.5-0.2-0.9-0.4-1.4s-0.4-0.8-0.8-1.2s-0.7-0.6-1.1-0.8
		c-0.4-0.2-0.9-0.3-1.5-0.3c-0.3,0-0.7,0-1.1,0.1s-0.7,0.2-1.1,0.4c-0.3,0.2-0.6,0.5-0.8,0.8c-0.2,0.3-0.3,0.8-0.3,1.3
		c0,0.4,0.1,0.8,0.3,1.1c0.2,0.3,0.4,0.6,0.7,0.8c0.3,0.2,0.6,0.4,0.9,0.5s0.7,0.3,1,0.4l2.4,0.8c0.3,0.1,0.6,0.2,1,0.3
		c0.4,0.1,0.8,0.3,1.1,0.6c0.4,0.3,0.7,0.6,0.9,1.1c0.3,0.4,0.4,1,0.4,1.7c0,0.6-0.1,1.2-0.4,1.8c-0.2,0.6-0.6,1.1-1,1.5
		s-1,0.8-1.6,1c-0.6,0.3-1.3,0.4-2.1,0.4c-0.3,0-0.5,0-0.7,0s-0.4,0-0.6,0s-0.4-0.1-0.6-0.1s-0.4-0.1-0.6-0.2
		c-0.3-0.1-0.6-0.2-0.9-0.3c-0.3-0.1-0.6-0.2-0.8-0.2c-0.2,0-0.3,0-0.4,0.1s-0.1,0.2-0.2,0.3h-0.3L95.6,76.7L95.6,76.7z"/>
	<path class="st0" d="M110.4,76c0,0.1,0,0.3,0,0.4s0,0.3,0,0.5c0,0.4,0,0.9,0.1,1.4s0.2,0.9,0.4,1.3c0.2,0.4,0.4,0.7,0.8,1
		s0.8,0.4,1.4,0.4s1.1-0.1,1.5-0.3c0.4-0.2,0.7-0.4,0.9-0.6c0.2-0.2,0.4-0.5,0.5-0.8s0.2-0.5,0.2-0.6l0.3,0.1c0,0.1-0.1,0.4-0.2,0.6
		s-0.3,0.5-0.5,0.8s-0.6,0.5-1,0.7s-1,0.3-1.6,0.3c-0.7,0-1.3-0.1-1.9-0.3c-0.6-0.2-1.1-0.5-1.5-0.9s-0.7-0.9-1-1.4
		c-0.2-0.6-0.3-1.2-0.3-1.8c0-0.6,0.1-1.2,0.4-1.7c0.2-0.6,0.6-1,1-1.5s0.9-0.8,1.4-1c0.5-0.3,1.1-0.4,1.8-0.4
		c0.4,0,0.8,0.1,1.2,0.2c0.4,0.1,0.8,0.4,1.2,0.7c0.4,0.3,0.7,0.7,0.9,1.2c0.2,0.5,0.4,1.1,0.4,1.8L110.4,76L110.4,76z M114.5,75.8
		c0-0.2,0-0.4,0-0.5s0-0.3,0-0.5c0-0.5,0-0.8-0.1-1.1c-0.1-0.3-0.2-0.5-0.4-0.7c-0.2-0.2-0.3-0.3-0.6-0.4c-0.2-0.1-0.5-0.1-0.7-0.1
		c-0.5,0-0.8,0.1-1.1,0.3c-0.3,0.2-0.5,0.4-0.7,0.7c-0.2,0.3-0.3,0.7-0.4,1.1s-0.1,0.8-0.2,1.3h4.2V75.8z"/>
	<path class="st0" d="M118,80.7h1.5v-8H118v-0.3h3.2v2l0,0c0.1-0.2,0.1-0.4,0.3-0.7c0.1-0.3,0.3-0.5,0.5-0.7s0.5-0.4,0.8-0.6
		s0.7-0.2,1.1-0.2c0.3,0,0.6,0,0.8,0.1c0.2,0.1,0.4,0.2,0.6,0.4c0.1,0.2,0.3,0.3,0.3,0.5c0.1,0.2,0.1,0.4,0.1,0.6
		c0,0.4-0.1,0.7-0.3,0.9c-0.2,0.1-0.4,0.2-0.7,0.2c-0.6,0-0.9-0.2-0.9-0.6c0-0.1,0-0.2,0-0.3c0-0.1,0.1-0.1,0.1-0.2s0.1-0.2,0.1-0.2
		c0-0.1,0-0.2,0-0.4c0-0.4-0.2-0.6-0.7-0.6c-0.2,0-0.4,0.1-0.7,0.2c-0.2,0.2-0.5,0.4-0.7,0.7s-0.4,0.7-0.5,1.1s-0.2,0.9-0.2,1.5v4.6
		h1.7V81h-5L118,80.7L118,80.7z"/>
	<path class="st0" d="M125.3,72.4h4.8v0.3h-1.6L131,79l2.7-6.3h-1.6v-0.3h3v0.3H134l-3.8,9l-3.6-9h-1.4v-0.3H125.3z"/>
	<path class="st0" d="M135.8,80.7h1.5v-8h-1.5v-0.3h3.3v8.3h1.5V81h-4.8V80.7z M137.1,67.8c0-0.3,0.1-0.5,0.3-0.8
		c0.2-0.2,0.5-0.3,0.8-0.3s0.5,0.1,0.8,0.3c0.2,0.2,0.3,0.5,0.3,0.8s-0.1,0.5-0.3,0.8c-0.2,0.2-0.5,0.3-0.8,0.3s-0.5-0.1-0.8-0.3
		C137.2,68.3,137.1,68.1,137.1,67.8z"/>
	<path class="st0" d="M150.1,78.8c0,0.1-0.1,0.4-0.2,0.6s-0.3,0.5-0.5,0.8s-0.6,0.5-1,0.7s-1,0.3-1.6,0.3c-0.5,0-1-0.1-1.6-0.2
		c-0.5-0.2-1-0.4-1.5-0.8s-0.8-0.8-1.1-1.4s-0.4-1.3-0.4-2.1c0-0.7,0.1-1.3,0.4-1.8c0.2-0.6,0.6-1,1-1.5c0.4-0.4,0.9-0.7,1.5-1
		c0.6-0.2,1.2-0.3,1.8-0.3c0.4,0,0.7,0,1.1,0.1s0.7,0.2,1,0.4c0.3,0.2,0.6,0.4,0.8,0.7c0.2,0.3,0.3,0.6,0.3,1c0,0.3-0.1,0.5-0.3,0.7
		s-0.4,0.3-0.8,0.3c-0.2,0-0.4-0.1-0.6-0.2S148,75,148,74.7c0-0.2,0-0.4,0.1-0.7c0.1-0.3,0.1-0.5,0.1-0.7c0-0.3-0.2-0.5-0.5-0.7
		s-0.7-0.2-1.1-0.2c-0.3,0-0.6,0-0.9,0.1c-0.3,0.1-0.6,0.3-0.9,0.5c-0.3,0.3-0.5,0.7-0.6,1.3c-0.2,0.6-0.2,1.4-0.2,2.4
		c0,0.6,0,1.1,0.1,1.6s0.2,1,0.4,1.3c0.2,0.4,0.5,0.7,0.8,0.9c0.3,0.2,0.8,0.3,1.3,0.3c0.6,0,1.1-0.1,1.5-0.3
		c0.4-0.2,0.7-0.4,0.9-0.6s0.4-0.5,0.5-0.8s0.2-0.5,0.2-0.6L150.1,78.8z"/>
	<path class="st0" d="M153.7,76c0,0.1,0,0.3,0,0.4s0,0.3,0,0.5c0,0.4,0,0.9,0.1,1.4s0.2,0.9,0.4,1.3s0.4,0.7,0.8,1
		c0.4,0.3,0.8,0.4,1.4,0.4s1.1-0.1,1.5-0.3c0.4-0.2,0.7-0.4,0.9-0.6s0.4-0.5,0.5-0.8s0.2-0.5,0.2-0.6l0.3,0.1c0,0.1-0.1,0.4-0.2,0.6
		s-0.3,0.5-0.5,0.8s-0.6,0.5-1,0.7s-1,0.3-1.6,0.3c-0.7,0-1.3-0.1-1.8-0.3c-0.6-0.2-1.1-0.5-1.5-0.9s-0.7-0.9-1-1.4
		c-0.2-0.6-0.3-1.2-0.3-1.8c0-0.6,0.1-1.2,0.4-1.7c0.2-0.6,0.6-1,1-1.5s0.9-0.8,1.4-1c0.5-0.3,1.1-0.4,1.8-0.4
		c0.4,0,0.8,0.1,1.2,0.2s0.8,0.4,1.2,0.7c0.4,0.3,0.7,0.7,0.9,1.2s0.4,1.1,0.4,1.8L153.7,76L153.7,76z M157.8,75.8
		c0-0.2,0-0.4,0-0.5s0-0.3,0-0.5c0-0.5,0-0.8-0.1-1.1s-0.2-0.5-0.4-0.7s-0.3-0.3-0.6-0.4c-0.2-0.1-0.5-0.1-0.7-0.1
		c-0.5,0-0.8,0.1-1.1,0.3c-0.3,0.2-0.5,0.4-0.7,0.7c-0.2,0.3-0.3,0.7-0.4,1.1s-0.1,0.8-0.2,1.3h4.2V75.8z"/>
	<path class="st0" d="M166.9,80.7h2.2V67h-2.2v-0.3h3.8c0.2,0,0.4,0,0.6,0c0.2,0,0.4,0,0.6,0c0.2,0,0.4,0,0.5,0s0.4,0,0.6,0
		c0.8,0,1.5,0.1,2.1,0.3c0.6,0.2,1.2,0.4,1.7,0.8c0.5,0.3,0.8,0.7,1.1,1.2s0.4,1,0.4,1.6s-0.2,1.1-0.5,1.6s-0.7,0.9-1.2,1.2
		c-0.5,0.3-1.1,0.6-1.8,0.7c-0.7,0.2-1.4,0.3-2.1,0.3c-0.2,0-0.4,0-0.7,0s-0.6-0.1-0.8-0.1v6.6h2.2V81H167v-0.3H166.9z M171.2,73.8
		c0.3,0.1,0.5,0.1,0.8,0.1s0.6,0,0.8,0c1,0,1.8-0.3,2.3-0.9c0.6-0.6,0.8-1.5,0.8-2.6c0-0.7-0.1-1.2-0.2-1.7
		c-0.1-0.5-0.3-0.8-0.6-1.1c-0.3-0.3-0.7-0.5-1.1-0.6c-0.5-0.1-1-0.2-1.6-0.2c-0.3,0-0.5,0-0.7,0s-0.4,0-0.5,0V73.8z"/>
	<path class="st0" d="M179.8,80.7h1.5v-8h-1.5v-0.3h3.2v2l0,0c0.1-0.2,0.1-0.4,0.3-0.7c0.1-0.3,0.3-0.5,0.5-0.7s0.5-0.4,0.8-0.6
		s0.7-0.2,1.1-0.2c0.3,0,0.6,0,0.8,0.1s0.4,0.2,0.6,0.4c0.1,0.2,0.3,0.3,0.3,0.5c0.1,0.2,0.1,0.4,0.1,0.6c0,0.4-0.1,0.7-0.3,0.9
		c-0.2,0.1-0.4,0.2-0.7,0.2c-0.6,0-0.9-0.2-0.9-0.6c0-0.1,0-0.2,0-0.3c0-0.1,0.1-0.1,0.1-0.2s0.1-0.2,0.1-0.2c0-0.1,0-0.2,0-0.4
		c0-0.4-0.2-0.6-0.7-0.6c-0.2,0-0.4,0.1-0.7,0.2c-0.2,0.2-0.5,0.4-0.7,0.7s-0.4,0.7-0.5,1.1s-0.2,0.9-0.2,1.5v4.6h1.7V81h-5
		L179.8,80.7L179.8,80.7z"/>
	<path class="st0" d="M188.3,76.7c0-0.7,0.1-1.3,0.4-1.8c0.3-0.6,0.7-1,1.1-1.5c0.4-0.4,0.9-0.7,1.5-1c0.6-0.2,1.1-0.3,1.6-0.3
		s1.1,0.1,1.6,0.3s1.1,0.5,1.5,1s0.8,0.9,1.1,1.5s0.4,1.2,0.4,1.8c0,0.6-0.1,1.2-0.4,1.8s-0.6,1-1,1.4s-0.9,0.7-1.5,1
		c-0.6,0.2-1.1,0.4-1.7,0.4s-1.2-0.1-1.7-0.4c-0.6-0.2-1.1-0.6-1.5-1s-0.8-0.9-1.1-1.4C188.5,77.9,188.3,77.3,188.3,76.7z
		 M190.3,76.7c0,0.9,0.1,1.7,0.2,2.3c0.1,0.6,0.3,1,0.6,1.3c0.2,0.3,0.5,0.5,0.8,0.6s0.7,0.1,1,0.1s0.7,0,1-0.1s0.6-0.3,0.8-0.6
		c0.2-0.3,0.4-0.7,0.6-1.3c0.1-0.6,0.2-1.3,0.2-2.3c0-0.8-0.1-1.5-0.2-2s-0.3-1-0.5-1.3s-0.5-0.6-0.8-0.7s-0.7-0.2-1.2-0.2
		s-0.8,0.1-1.2,0.2c-0.3,0.1-0.6,0.4-0.8,0.7c-0.2,0.3-0.4,0.8-0.5,1.3S190.3,75.9,190.3,76.7z"/>
	<path class="st0" d="M199,80.7h1.5v-8H199v-0.3h3.2v2.1l0,0c0.3-0.8,0.7-1.4,1.2-1.8s1.2-0.6,1.9-0.6s1.3,0.1,1.8,0.4
		s0.8,0.8,1,1.5l0,0c0.1-0.2,0.2-0.5,0.4-0.7s0.4-0.4,0.6-0.6s0.5-0.3,0.9-0.4c0.3-0.1,0.7-0.2,1.1-0.2c1.9,0,2.9,1,2.9,3v5.5h1.5
		V81h-4.8v-0.3h1.5v-6.8c0-0.5-0.1-0.8-0.4-1.1c-0.2-0.3-0.6-0.4-1-0.4c-0.3,0-0.7,0.1-1,0.2s-0.6,0.3-0.9,0.6
		c-0.3,0.3-0.5,0.6-0.7,1s-0.2,0.9-0.2,1.4v5.1h1.5V81h-4.8v-0.3h1.5v-6.5c0-0.6-0.1-1-0.4-1.3c-0.2-0.3-0.6-0.4-1-0.4
		c-0.3,0-0.6,0.1-0.9,0.2c-0.3,0.1-0.6,0.4-0.9,0.7c-0.3,0.3-0.5,0.7-0.7,1.2s-0.3,1.1-0.3,1.8v4.4h1.5V81H199V80.7z"/>
	<path class="st0" d="M216.5,80.7h1.5v-8h-1.5v-0.3h3.3v8.3h1.5V81h-4.8V80.7z M217.8,67.8c0-0.3,0.1-0.5,0.3-0.8s0.5-0.3,0.8-0.3
		s0.5,0.1,0.8,0.3s0.3,0.5,0.3,0.8s-0.1,0.5-0.3,0.8s-0.5,0.3-0.8,0.3s-0.5-0.1-0.8-0.3S217.8,68.1,217.8,67.8z"/>
	<path class="st0" d="M223,78.2h0.2c0.1,0.3,0.2,0.6,0.4,1c0.1,0.3,0.3,0.6,0.6,0.9s0.5,0.5,0.9,0.7s0.8,0.3,1.3,0.3
		c0.4,0,0.8-0.1,1.1-0.4s0.5-0.7,0.5-1.3c0-0.5-0.1-0.9-0.4-1.1c-0.3-0.2-0.6-0.4-0.9-0.5l-1.6-0.5c-0.2-0.1-0.4-0.2-0.6-0.2
		s-0.5-0.2-0.6-0.4c-0.2-0.2-0.4-0.4-0.5-0.7s-0.2-0.6-0.2-1.1c0-0.4,0.1-0.7,0.2-1s0.3-0.6,0.6-0.8s0.6-0.4,0.9-0.6
		c0.4-0.1,0.7-0.2,1.2-0.2c0.3,0,0.5,0,0.7,0.1c0.2,0,0.3,0.1,0.5,0.1c0.1,0,0.3,0.1,0.4,0.1c0.1,0,0.2,0.1,0.4,0.1s0.3-0.1,0.3-0.2
		h0.2v2.3h-0.2c-0.1-0.3-0.2-0.6-0.3-0.9s-0.3-0.5-0.4-0.7c-0.2-0.2-0.4-0.4-0.6-0.5s-0.5-0.2-0.9-0.2c-0.6,0-1.1,0.1-1.5,0.4
		S224,73.5,224,74c0,0.4,0.2,0.8,0.4,1c0.3,0.2,0.7,0.4,1.3,0.6l1.5,0.5c0.6,0.2,1.1,0.5,1.5,0.9s0.6,0.9,0.6,1.5
		c0,0.4-0.1,0.7-0.2,1.1s-0.3,0.7-0.6,0.9c-0.3,0.3-0.6,0.5-1,0.6s-0.8,0.2-1.4,0.2c-0.3,0-0.6,0-0.8-0.1s-0.5-0.1-0.7-0.2
		s-0.4-0.1-0.6-0.2c-0.2-0.1-0.3-0.1-0.5-0.1s-0.3,0-0.3,0.1c-0.1,0.1-0.1,0.1-0.2,0.2l0,0V78.2z"/>
	<path class="st0" d="M233.3,76c0,0.1,0,0.3,0,0.4s0,0.3,0,0.5c0,0.4,0,0.9,0.1,1.4s0.2,0.9,0.3,1.3s0.4,0.7,0.8,1
		c0.4,0.3,0.8,0.4,1.4,0.4c0.6,0,1.1-0.1,1.4-0.3c0.4-0.2,0.7-0.4,0.9-0.6s0.4-0.5,0.5-0.8s0.2-0.5,0.2-0.6l0.3,0.1
		c0,0.1-0.1,0.4-0.2,0.6s-0.3,0.5-0.5,0.8s-0.6,0.5-1,0.7s-1,0.3-1.6,0.3s-1.3-0.1-1.9-0.3c-0.6-0.2-1.1-0.5-1.5-0.9s-0.7-0.9-1-1.4
		c-0.2-0.6-0.3-1.2-0.3-1.8c0-0.6,0.1-1.2,0.3-1.7c0.2-0.6,0.6-1,1-1.5c0.4-0.4,0.9-0.8,1.4-1c0.5-0.3,1.1-0.4,1.8-0.4
		c0.4,0,0.8,0.1,1.2,0.2s0.8,0.4,1.2,0.7c0.4,0.3,0.7,0.7,0.9,1.2s0.4,1.1,0.4,1.8L233.3,76L233.3,76z M237.4,75.8
		c0-0.2,0-0.4,0-0.5s0-0.3,0-0.5c0-0.5,0-0.8-0.1-1.1c-0.1-0.3-0.2-0.5-0.4-0.7s-0.3-0.3-0.6-0.4s-0.5-0.1-0.7-0.1
		c-0.5,0-0.8,0.1-1.1,0.3c-0.3,0.2-0.5,0.4-0.7,0.7c-0.2,0.3-0.3,0.7-0.4,1.1s-0.1,0.8-0.2,1.3h4.2V75.8z"/>
</g>
</svg>
