<?xml version="1.0" encoding="utf-8"?>
<!-- Generator: Adobe Illustrator 22.0.1, SVG Export Plug-In . SVG Version: 6.00 Build 0)  -->
<svg version="1.1" id="图层_1" xmlns="http://www.w3.org/2000/svg" xmlns:xlink="http://www.w3.org/1999/xlink" x="0px" y="0px"
	 viewBox="0 0 310 100" style="enable-background:new 0 0 310 100;" xml:space="preserve">
<g>
	<path d="M37.1,13.9l4.1,1.6c0.2,0,0.2,0.1,0,0.3l-0.5,1c0,2.4,0,4.7,0,6.9l5.7-0.3l1.8-2.3l3.9,2.6h0.2c0.1,0.1,0.1,0.3-0.2,0.5
		l-1.3,1.6c0,1.1-0.1,3.3-0.2,6.7c-0.2,3.8-0.3,6.5-0.3,7.9c0,0.4-0.1,1.2-0.2,2.3c0,1.6-0.1,2.7-0.2,3.3c-0.4,2.7-2.4,5-5.7,6.7
		c-0.2,0.1-0.4,0.1-0.5,0c-0.1-0.1-0.1-0.2,0-0.3c0.1-2-0.3-3.1-1.3-3.4c-0.2,0-0.3-0.1-0.3-0.2c0-0.2,0.1-0.3,0.3-0.3
		c2.6,0.2,3.8-0.5,3.6-2.3c0.3-4,0.5-11.3,0.7-21.8l-6.2,0.3c-0.1,9.4-1.5,15.9-4.3,19.5c-2.4,3.7-7.9,7.1-16.4,10
		c-0.1,0.1-0.2,0.1-0.3,0c-0.1-0.1-0.1-0.3,0-0.5c7.1-2.7,11.8-6,13.9-9.8c2.5-3.7,3.8-10.1,3.8-19l-3,0.2c-1.2,0.1-2.8,0.3-4.9,0.5
		c-0.7,0.1-1.1,0.2-1.3,0.2l-1.5-1.5l10.7-0.5c0-0.9,0-2.3,0-4.3C37.2,17.1,37.1,15.2,37.1,13.9z M31.4,29.1c0.2,4.3-0.1,7.6-1,10
		c-0.3,1.2-1.2,2-2.6,2.3c-1,0.2-1.6,0.1-2-0.5c-0.4-0.5-0.4-1.2,0.2-2c2.5-2.3,4.2-5.6,4.9-9.8c0-0.2,0.1-0.3,0.2-0.3
		C31.2,28.8,31.3,28.9,31.4,29.1z M59.1,38c0,1.3-0.7,2.4-2.1,3.3c-1.3,0.4-2,0.1-2.1-1c-0.3-3.8-1.4-6.6-3.3-8.4
		c-0.1-0.2-0.2-0.4-0.2-0.5c0-0.1,0.1-0.1,0.3,0C56.9,34.3,59.3,36.5,59.1,38z"/>
	<path d="M64,18.8c-0.2,0-0.3-0.1-0.3-0.3c-0.1-0.2-0.1-0.3,0.2-0.3l9.8-0.5l1.8-1.8l2.5,2c0.2,0.2,0.2,0.4,0,0.5l-5.2,0.2
		l-0.3,11.2h1l1.8-1.8l2.1,2.1c0.2,0.2,0.2,0.3-0.2,0.3l-4.8,0.2l-0.3,11.8l5.4-2c0.2-0.1,0.3-0.1,0.2,0.2l-7.4,5.1
		c-1.2,0.8-2.6,1.7-4.1,2.8c-0.2,0.1-0.4,0.2-0.5,0.3c-0.1,0.1-0.3,0.1-0.5,0l-2.3-2.8c-0.1-0.1-0.2-0.2-0.2-0.3
		c0-0.1,0.1-0.2,0.2-0.2c0.1,0,0.3-0.1,0.5-0.2c1.7-0.3,3.3-0.8,4.8-1.5l0.8-0.3l0.2-12.8l-4.4,0.2c-0.4-0.2-0.4-0.5,0-0.8l4.4-0.2
		V18.6L64,18.8z M79.1,41.6c-0.3,0-0.5-0.1-0.5-0.3c0-0.3,0.1-0.5,0.3-0.5l6.9-0.2v-7.4l-4.3,0.2c-0.2,1.3-1,2.5-2.3,3.4
		c-0.3,0.3-0.6,0.2-0.8-0.3l0.2-6.4v-9.4l-0.2-5.4l3.3,1.8l11.8-0.3L95,15l3.6,2c0.2,0,0.2,0.2,0,0.5l-1,1.1l0.2,13.6l0.3,0.7
		c0.1,0.3,0.1,0.5,0,0.5c0,0.1-0.1,0.2-0.3,0.2c-0.9-0.2-3.7-0.3-8.5-0.3v7.2l4.1-0.2l2.3-2.3l2.8,2.6c0.2,0.3,0.2,0.5-0.2,0.5
		l-9,0.2v9l7.4-0.2l2.5-2.1l3,2.5c0.2,0.2,0.2,0.4-0.2,0.5l-22.5,0.5c-1.8,0-3.3,0.1-4.8,0.3l-1.1-1.1l12.3-0.3v-8.9L79.1,41.6z
		 M81.6,18v6.7l4.3-0.2v-1.5L85.7,18H81.6z M81.6,25.7v6.7l4.3-0.2v-6.7L81.6,25.7z M92.6,24.4c0.3,0,0.5,0.1,0.5,0.3
		c0,0.3-0.2,0.5-0.5,0.5l-3.3,0.2v6.9l4.6-0.2l-0.2-14.3L86.7,18l3,1.3c0.2,0.1,0.3,0.3,0.2,0.7l-0.3,1l-0.2,3.4H92.6z"/>
	<path d="M112.9,38.8c-2,0.1-3.5,0.3-4.6,0.5l-1.1-1l6.2-0.3v-0.5v-2.6l-0.2-3.6h-2c-1.1,2.4-2.9,5-5.4,7.9
		c-0.2,0.2-0.3,0.2-0.3-0.2c2-4,3.2-8.2,3.8-12.5l3.4,1.6c0.3,0.1,0.3,0.3,0,0.7l-0.5,0.7c-0.1,0.2-0.2,0.4-0.3,0.7
		c-0.1,0.1-0.2,0.2-0.2,0.3l6.1-0.2l2-1.8l2.3,2.1c0.2,0.2,0.2,0.3-0.2,0.3l-7.2,0.2l2.3,1c0.1,0.1,0.2,0.3,0.2,0.5l-0.7,0.7
		l-0.2,4.6l2.6-0.2l1.8-1.8l2.3,2.1c0.1,0.2,0.1,0.3-0.2,0.3l-6.6,0.5c0,0.3-0.1,0.8-0.2,1.5c0,0.5-0.1,1-0.2,1.3
		c3.7,1.8,5.6,3,5.7,3.8c0,1-0.5,1.8-1.6,2.5c-0.5,0.4-0.9,0.3-1.1-0.3c-1-2.5-2-4.3-3.1-5.2c-0.4,4.2-4.1,8.1-11,11.8
		c-0.2,0.1-0.4,0.1-0.5-0.2c0-0.2,0.1-0.4,0.3-0.5c6-3.6,8.9-8.5,8.7-14.6H112.9z M108.3,14.5l3,1.5c0.2,0,0.2,0.1,0,0.3
		c-0.3,0.2-0.5,0.7-0.7,1.5l-0.3,4.6c-0.2,0.9,0.3,1.3,1.6,1.3c3.3,0,5.4-0.2,6.4-0.5c1-0.1,1.7-0.8,2.1-2c0.2-0.2,0.4-0.2,0.5,0
		c0,1,0.3,1.7,0.8,2.1c0.9,1,0.7,1.8-0.7,2.5c-3,1-6.1,1.2-9.5,0.7c-2.4-0.5-3.7-2-3.9-4.4l0.3-7.4C108,14.6,108.1,14.5,108.3,14.5z
		 M118.8,15.7l1.6,2.1c0.1,0.3,0,0.5-0.3,0.5c-2.6,0.7-5.4,1.2-8.2,1.6v-0.2C114.8,18.6,117.1,17.2,118.8,15.7z M125.6,20.8
		c2.3,0.5,4.1,1,5.4,1.5c1.5-2.4,2.6-4.2,3.1-5.4l-6.2,0.3c-1.3,0.1-2.5,0.3-3.4,0.5l-1.1-1.1l10.8-0.5l1.6-1.5l3.3,2.3
		c0.2,0.1,0.2,0.3,0,0.5l-1.5,0.8c-1.8,1.4-3.7,2.9-5.9,4.4c0.9,0.3,1.5,0.7,2,1.1c0.4,0.9,0.1,1.9-1,3l5.6-0.2L140,25l3.8,3.1
		c0.3,0.3,0.2,0.6-0.3,0.8c-1.5,0.3-3.3,0.9-5.2,1.6c-0.2,0.1-0.4,0.2-0.5,0.2v-0.3l0.8-3.1l-5.9,0.3l-0.2,18.9
		c2.4,0.1,6.1,0,11.2-0.3c0.2-0.1,0.4-0.1,0.5,0.2c0,0.1-0.1,0.2-0.3,0.3c-1.4,0.2-2.8,1.8-4.3,4.6c-4.6,0-7.7-0.4-9.4-1.1
		c-2-0.8-3.6-2.5-4.8-5.2c-1,3.2-3.9,6.4-8.7,9.7c-0.4,0.2-0.5,0.1-0.3-0.3c3.3-2.6,5.3-5.1,6.1-7.5c1.1-2.5,1.7-6.9,1.8-13.3
		l2.8,1.1c0.3,0,0.4,0.2,0.2,0.7l-0.3,0.8c-0.1,3-0.5,5.4-1.1,7.4c1,1.3,2.1,2.2,3.4,2.6L129,27.8h-1.1c-2.1,0.1-3.6,0.3-4.6,0.7
		l-1.3-1.3l9-0.3c-1.1-2.4-3-4.3-5.6-5.7C125.4,20.9,125.4,20.8,125.6,20.8z M139,33.2l1.6,2.5c0.1,0.1,0.1,0.3-0.2,0.5
		c-0.9,0.1-2.4,0.3-4.4,0.5c-1.4,0.1-2.5,0.2-3.3,0.3c-0.2-0.1-0.2-0.3,0-0.5C134.9,35.9,136.9,34.8,139,33.2z"/>
	<path d="M154.8,22.9l-0.2,25.4c-0.3,1.5-1.3,3.1-2.8,4.8c-0.3,0.2-0.5,0.2-0.7-0.2l0.2-12l0.2-16.7l-0.2-4.8l3.8,1.3
		c0.2,0.1,0.3,0.3,0.3,0.5v0.2L154.8,22.9z M155.7,13.7c3.8,1.3,5.7,2.4,5.7,3.3c0,1.2-0.6,2.3-1.8,3.3c-0.8,0.2-1.3,0-1.5-0.7
		c-0.4-2.4-1.4-4.2-2.8-5.4C155.3,14,155.4,13.8,155.7,13.7z M170.3,24.9L174,27c0.2,0.1,0.2,0.3,0,0.5l-1,1.3v8.4l0.3,0.5l-0.2,0.2
		c-2.7,0-6.1,0.1-10.2,0.2v1.5c-0.3,2-1.2,3.7-2.6,5.1c-0.2,0.1-0.4,0.2-0.7,0.2c-0.1-0.1-0.2-0.3-0.2-0.5l0.2-7.1v-7.5
		c0-0.5-0.1-1.5-0.2-3c0-0.7,0-1.1,0-1.3c0-0.2,0.1-0.3,0.3-0.2L163,27l5.9-0.2L170.3,24.9z M169,27.5l-6.2,0.3l0.2,9.5l6.2-0.3
		L169,27.5z M169.4,18.8c-1.2,0-2.6,0.1-4.1,0.3c-0.4,0.1-0.8,0.2-1,0.2l-1.3-1.1l13.8-0.5l1.8-2.1l3.3,2.3c0,0.1,0.1,0.2,0.2,0.2
		c0.1,0.1,0.1,0.2,0,0.3l-1.3,1.8l0.2,16.4l0.3,9c0.1,3-1.6,5.5-5.2,7.7c-0.2,0.1-0.4,0.2-0.5,0.2c-0.1-0.1-0.2-0.3-0.2-0.5
		c0-1.4-0.6-2.6-1.8-3.4c-0.1-0.1-0.2-0.2-0.2-0.3c0-0.1,0.1-0.2,0.2-0.2c2.5,0.3,3.7-0.2,3.4-1.6l-0.2-28.7L169.4,18.8z"/>
	<path d="M213.2,29.5l2.6,1.5c0.2,0.1,0.2,0.2,0,0.3c-0.2,0.3-0.5,0.8-1,1.5c-0.3,0.4-0.6,0.8-0.8,1.1h3.1v-1.1l-0.2-4.4l3.3,1.1
		c0.3,0.1,0.4,0.4,0.2,0.8l-0.3,0.7v2.8l2.5-0.2l1.6-1.6l2.1,2c0.1,0.3,0,0.5-0.3,0.5l-5.9,0.2v5.6l3.4-0.2l2-2l2.5,2.3
		c0.2,0.3,0.2,0.5-0.2,0.5l-7.7,0.3v1.8l0.2,5.6c-0.3,1.6-1.1,3.1-2.3,4.4c-0.3,0.3-0.6,0.5-0.8,0.5c-0.2,0-0.3-0.2-0.3-0.5l0.2-9.2
		v-2.6h-0.3c-0.5,0-1.3,0.1-2.1,0.2c-1,0-1.8,0.1-2.3,0.2l-1.3-1l6.1-0.2l0.2-5.6h-3.9c-0.9,1.3-1.8,2.5-2.8,3.4
		c0,0.1-0.1,0.2-0.2,0.2v3.1c0.2,4.7-1.4,8-4.8,9.8c0-1.5-0.3-2.4-1-2.6c-0.1-0.2-0.1-0.4,0-0.5c2,0.2,2.8-1.7,2.6-5.7l0.2-17.2
		l-4.4,0.2l1.6,0.7c0.3,0.1,0.4,0.4,0.2,0.8l-0.3,1.1l-0.2,3h2c0.3,0,0.5,0.1,0.5,0.3c0,0.3-0.2,0.5-0.5,0.5h-2l-0.2,5.7h2.3
		c0.2,0,0.3,0.1,0.3,0.3c0,0.2-0.2,0.4-0.5,0.5H204l-0.2,6.1c0,1.6-0.6,3-1.8,4.1c-0.2,0.2-0.4,0.3-0.7,0.3
		c-0.1-0.1-0.2-0.3-0.2-0.5l0.3-10l-3,0.2c-0.7,5.9-4.3,11.2-10.8,15.9c-0.2,0.1-0.3,0.1-0.3-0.2c-0.1-0.2-0.1-0.4,0.2-0.5
		c5.9-4.3,8.8-11.4,8.7-21.3l0.2-3.9c0-2-0.1-3.5-0.2-4.6c-1.3,1.3-2.7,2.5-4.1,3.6c-0.3,0.2-0.4,0.2-0.3-0.2
		c3.8-4.4,6.6-8.9,8.2-13.6l3.4,1.6c0.2,0.1,0.2,0.3-0.2,0.7l-0.8,0.7c-0.1,0.1-0.3,0.3-0.5,0.7c-0.1,0.2-0.5,0.7-1.1,1.5l3.4-0.2
		l1.3-1.3l3,2c0,0.1-0.1,0.3-0.2,0.5l-1.5,1l-4.1,3.6h4.1l1.3-1.8l3.3,1.8c0.2,0.1,0.2,0.3,0,0.5l-1,1.1l-0.2,11.6
		C211.9,34.5,212.8,31.8,213.2,29.5z M197.1,23.1l2.8,1.5h2.1l2.1-5.1l-3.9,0.2c-0.3,0.3-0.8,0.9-1.5,1.6
		C198,22,197.4,22.6,197.1,23.1z M199.1,31.9c0,0.4-0.1,1-0.2,1.8c0,1.8-0.1,3.1-0.3,3.9l3-0.2l0.2-5.6H199.1z M199.2,26.7l-0.2,4.4
		l2.6-0.2l0.2-5.6h-2.3L199.2,26.7z M224.5,23.4c-0.2,2.1-1.5,3.7-3.8,4.9c-0.4,0.1-0.7,0-0.7-0.3c0.1-1-0.2-1.6-1-2
		c-0.2-0.3-0.2-0.5,0.2-0.5c1.3,0,2-0.2,2-0.7l0.2-6.7H215c-0.3,0-0.8,0.1-1.5,0.2c-0.7,0-1.1,0.1-1.3,0.2l-1.1-1l10.3-0.2l1.3-1.5
		l2.8,1.8c0.2,0,0.2,0.1,0,0.3l-0.8,1l-0.2,2.6V23.4z M218.4,19.6c0.2,0,0.2,0.1,0,0.3l-0.5,0.5c-1.2,1.8-3.3,4.2-6.4,7.2
		c-0.2,0-0.3-0.1-0.3-0.3c2-2.8,3.4-5.8,4.4-8.9L218.4,19.6z"/>
	<path d="M248.8,23.1l1.5,0.8c1.9-3.8,3-7.2,3.4-10.2l0.2-0.2l4.1,2.3c0.3,0.2,0.3,0.4,0,0.7c-0.8,0.3-1.3,0.8-1.6,1.5
		c-0.1,0.1-0.3,0.3-0.5,0.7c-0.2,0.2-0.4,0.4-0.5,0.7l7.4-0.3l2.3-2.5l3.1,2.6c0.2,0.3,0.2,0.5,0,0.5l-9.7,0.5
		c2,0.9,3.1,1.8,3.3,2.8c0,0.9-0.7,1.6-2,2.1c-0.9,0.3-1.3,0.1-1.3-0.8c0-1.7-0.4-3.1-1.1-4.1l-2.6,0.2c-1.2,1.4-2.4,2.7-3.6,3.9
		l1.5,0.8c0.3,0.1,0.3,0.3,0,0.7l-0.3,0.3c2.5,3.4,8.7,6.4,18.5,9c0.2,0.3,0.2,0.5-0.2,0.7c-1.6,0.1-3.4,1.2-5.2,3.3
		c-5.9-3.5-10.4-7.7-13.6-12.6l-0.3,0.5c-5.2,5.4-12.5,10.1-21.7,14.3c-0.1,0.1-0.2,0.1-0.3-0.2c-0.1-0.1-0.1-0.2,0-0.3
		C237.7,35.6,244.2,29.8,248.8,23.1z M239.6,13.6l4.3,2.8c0.2,0.1,0.2,0.3-0.2,0.5c-0.7,0.2-1.3,0.7-1.8,1.5
		c-0.3,0.4-0.7,0.9-1.1,1.5l5.2-0.2l2.1-2.5l3,2.6c0.2,0.2,0.2,0.3-0.2,0.3l-7.5,0.5c2.1,1.3,3.2,2.4,3.3,3.3c-0.3,1-1,1.7-2.1,2.1
		c-0.5,0.3-0.9,0.1-1.1-0.8c0-1.6-0.3-3.2-1-4.6l-2.3,0.2c-2,2.4-4.5,5.1-7.5,8.2c-0.3,0.1-0.5,0.1-0.5-0.2c3.6-5,6-10.1,7.2-15.1
		C239.3,13.6,239.4,13.6,239.6,13.6z M260.7,50.5c-3.5-0.3-9-0.5-16.6-0.5c-0.4,1.3-1.3,2.6-2.6,3.8c-0.5,0.3-0.9,0.3-1-0.2v-9.5
		l-0.2-4.9c0-0.2,0.1-0.3,0.2-0.3c0-0.1,0.1-0.1,0.3,0l3.3,1.6l11.6-0.3l2-2.3l3.9,2.5c0.2,0.1,0.2,0.3,0,0.5l-0.8,1.1V49l0.3,1
		c0.1,0.2,0.1,0.4,0,0.5C261.1,50.6,261,50.6,260.7,50.5z M248.6,35.5c-1.9,0-3.3,0.2-4.4,0.5l-1.3-1.3l9.5-0.3l2-2.1l3,2.5
		c0.2,0.3,0.2,0.5-0.2,0.5L248.6,35.5z M244.2,41.5V49H256v-7.9L244.2,41.5z"/>
</g>
<g>
	<path d="M136.3,83.8c-1.2,0-2.1-0.1-2.8-0.1s-1.2-0.2-1.7-0.4c-0.4-0.2-0.8-0.4-1-0.7s-0.6-0.7-0.9-1.1c-0.3-0.4-0.6-0.7-0.9-1
		c-0.3-0.2-0.6-0.4-0.9-0.5c-0.8-0.2-1.5-0.5-2.1-1c-0.6-0.5-1.2-1-1.6-1.7c-0.5-0.6-0.8-1.3-1-2.1c-0.2-0.8-0.4-1.6-0.4-2.4
		c0-1,0.2-2,0.6-2.9c0.4-0.9,0.9-1.7,1.6-2.4s1.4-1.2,2.2-1.6c0.8-0.4,1.7-0.6,2.5-0.6c0.9,0,1.7,0.2,2.6,0.6
		c0.8,0.4,1.6,0.9,2.2,1.6s1.2,1.5,1.6,2.4c0.4,0.9,0.6,1.9,0.6,3c0,0.9-0.2,1.8-0.5,2.7c-0.4,0.9-0.9,1.7-1.5,2.4
		c-0.6,0.7-1.4,1.3-2.2,1.7c-0.8,0.4-1.8,0.6-2.7,0.6c-0.3,0-0.5,0-0.8-0.1l0,0.1c0.2,0.1,0.4,0.2,0.6,0.3s0.4,0.2,0.6,0.2
		c0.2,0.1,0.5,0.1,0.7,0.2s0.6,0.1,0.9,0.1c0.4,0,0.8,0.2,1.1,0.4c0.3,0.2,0.6,0.5,0.9,0.8c0.2,0.2,0.3,0.4,0.5,0.5
		c0.1,0.1,0.3,0.3,0.5,0.3c0.2,0.1,0.4,0.2,0.6,0.2s0.5,0.1,0.9,0.1V83.8z M125.2,72.9c0,1.2,0.1,2.2,0.2,3.1
		c0.2,0.9,0.4,1.6,0.8,2.2s0.9,1,1.4,1.3c0.6,0.3,1.3,0.4,2.2,0.4c0.9,0,1.6-0.1,2.2-0.4c0.6-0.3,1.1-0.7,1.5-1.3
		c0.4-0.6,0.6-1.3,0.8-2.2c0.2-0.9,0.2-1.9,0.2-3.1c0-0.9-0.1-1.8-0.2-2.7c-0.1-0.9-0.3-1.6-0.7-2.3c-0.3-0.7-0.8-1.2-1.4-1.6
		c-0.6-0.4-1.4-0.6-2.4-0.6c-1,0-1.8,0.2-2.4,0.6c-0.6,0.4-1.1,0.9-1.4,1.6c-0.3,0.7-0.6,1.4-0.7,2.3
		C125.3,71,125.2,71.9,125.2,72.9z"/>
	<path d="M148.9,76.9c0.4-0.7,0.7-1.3,0.8-1.9c0.1-0.6,0.2-1.3,0.2-1.9c0-0.6,0-1.2-0.1-1.5c-0.1-0.4-0.2-0.7-0.3-0.9
		c-0.1-0.2-0.3-0.3-0.6-0.4c-0.2-0.1-0.6-0.1-0.9-0.1v-0.3h3.8v0.3c-0.3,0-0.6,0-0.8,0.1c-0.2,0.1-0.4,0.2-0.5,0.4
		c-0.1,0.2-0.2,0.5-0.2,0.8c0,0.3,0,0.7,0,1.1c0,0.5,0,1-0.1,1.5c-0.1,0.4-0.1,0.8-0.2,1.2c-0.1,0.4-0.2,0.7-0.4,1
		c-0.1,0.3-0.3,0.6-0.5,0.9c0.3,0.6,0.7,1.1,0.9,1.5c0.3,0.4,0.6,0.5,0.9,0.5c0.2,0,0.4-0.1,0.5-0.2c0.1-0.1,0.2-0.3,0.3-0.5
		c0.1-0.2,0.1-0.4,0.1-0.6c0-0.2,0-0.4,0-0.6h0.3c0,0.6-0.1,1-0.2,1.4c-0.1,0.4-0.3,0.7-0.5,0.9c-0.2,0.2-0.5,0.4-0.8,0.5
		c-0.3,0.1-0.5,0.1-0.8,0.1c-0.3,0-0.5,0-0.7-0.1c-0.2-0.1-0.4-0.2-0.5-0.3s-0.3-0.3-0.4-0.5c-0.1-0.2-0.3-0.4-0.4-0.7
		c-0.2,0.2-0.4,0.3-0.6,0.5c-0.2,0.2-0.5,0.3-0.8,0.5c-0.3,0.1-0.6,0.3-1,0.4c-0.4,0.1-0.7,0.1-1.2,0.1c-0.8,0-1.5-0.2-2.1-0.5
		s-1-0.7-1.4-1.2c-0.4-0.5-0.6-0.9-0.8-1.5c-0.1-0.5-0.2-1-0.2-1.3c0-0.7,0.1-1.3,0.4-1.8c0.2-0.5,0.6-1,0.9-1.4
		c0.4-0.4,0.8-0.7,1.2-1c0.5-0.3,0.9-0.6,1.3-0.8c-0.1-0.3-0.3-0.6-0.4-1c-0.1-0.4-0.2-0.9-0.2-1.4c0-0.5,0.1-0.9,0.2-1.2
		s0.4-0.7,0.6-0.9s0.5-0.4,0.9-0.6c0.3-0.1,0.7-0.2,1-0.2c0.5,0,0.9,0.2,1.3,0.5c0.4,0.3,0.5,0.8,0.5,1.5c0,0.4-0.1,0.8-0.2,1.1
		c-0.1,0.3-0.3,0.6-0.5,0.8c-0.2,0.2-0.4,0.4-0.6,0.6c-0.2,0.2-0.5,0.3-0.7,0.4L148.9,76.9z M143.7,71c-0.7,0.4-1.2,0.8-1.7,1.2
		s-0.6,1.1-0.6,1.9c0,0.6,0.1,1.2,0.3,1.9c0.2,0.7,0.5,1.3,0.8,1.8c0.3,0.5,0.7,1,1.2,1.4c0.4,0.4,0.9,0.5,1.3,0.5
		c0.5,0,0.9-0.1,1.3-0.3c0.4-0.2,0.8-0.5,1.2-0.9L143.7,71z M144.4,67.4c0,0.3,0.1,0.8,0.3,1.2c0.2,0.5,0.4,1,0.7,1.4
		c0.2-0.1,0.5-0.3,0.7-0.4c0.2-0.1,0.4-0.3,0.6-0.5c0.2-0.2,0.3-0.4,0.4-0.7c0.1-0.3,0.2-0.6,0.2-0.9c0-0.5-0.1-0.9-0.3-1.2
		c-0.2-0.3-0.6-0.5-1.1-0.5c-0.3,0-0.7,0.2-0.9,0.5S144.4,66.9,144.4,67.4z"/>
	<path d="M153.7,79.7h1.8l5.4-14.3h0.5l5.4,14.3h1.8V80h-6.2v-0.3h2.2l-2.1-5.6h-4.6l-2.1,5.6h2.2V80h-4.3V79.7z M160.2,68.1
		l-2.2,5.8h4.4L160.2,68.1z"/>
</g>
</svg>
