<?xml version="1.0" encoding="utf-8"?>
<!-- Generator: Adobe Illustrator 22.0.1, SVG Export Plug-In . SVG Version: 6.00 Build 0)  -->
<svg version="1.1" id="图层_1" xmlns="http://www.w3.org/2000/svg" xmlns:xlink="http://www.w3.org/1999/xlink" x="0px" y="0px"
	 viewBox="0 0 130 130" style="enable-background:new 0 0 130 130;" xml:space="preserve">
<g>
	<g>
		<path d="M98.5,115.7c-4.4,6-18.6,6.9-30.7-1.4C55.6,106,44.9,93.9,38.1,79.2c-6.7-14.8-8.8-30.8-7.1-45.4C32.6,19.2,42.6,9,50,9.7
			c1.9,0.2,9.1,2,12.6,24.5c1,6.5-1.2,5.4-12,13.8c-5,3.9-2.5,12.7-2.5,12.7s1.4,6.8,3.9,12.1c2.4,5.4,6.6,10.9,6.6,10.9
			s5,7.7,11.3,6.5c13.4-2.6,14-5,18.2,0C102.9,107.5,99.6,114.2,98.5,115.7L98.5,115.7z M98.5,115.7"/>
	</g>
</g>
</svg>
